<svg width="37" height="36" viewBox="0 0 37 36" fill="none" xmlns="http://www.w3.org/2000/svg">
<path d="M11.75 5.625C10.6375 5.625 9.54995 5.9549 8.62492 6.57299C7.69989 7.19107 6.97892 8.06957 6.55318 9.09741C6.12744 10.1252 6.01604 11.2562 6.23309 12.3474C6.45013 13.4385 6.98586 14.4408 7.77253 15.2275C8.5592 16.0141 9.56148 16.5499 10.6526 16.7669C11.7438 16.984 12.8748 16.8726 13.9026 16.4468C14.9304 16.0211 15.8089 15.3001 16.427 14.3751C17.0451 13.4501 17.375 12.3625 17.375 11.25C17.375 9.75816 16.7824 8.32742 15.7275 7.27253C14.6726 6.21763 13.2418 5.625 11.75 5.625ZM11.75 14.625C11.0825 14.625 10.43 14.4271 9.87495 14.0562C9.31994 13.6854 8.88736 13.1583 8.63191 12.5416C8.37646 11.9249 8.30963 11.2463 8.43985 10.5916C8.57008 9.93689 8.89152 9.33552 9.36352 8.86352C9.83552 8.39152 10.4369 8.07008 11.0916 7.93985C11.7463 7.80963 12.4249 7.87646 13.0416 8.13191C13.6583 8.38736 14.1854 8.81994 14.5562 9.37495C14.9271 9.92997 15.125 10.5825 15.125 11.25C15.125 12.1451 14.7694 13.0036 14.1365 13.6365C13.5036 14.2694 12.6451 14.625 11.75 14.625ZM25.25 16.875C26.3625 16.875 27.4501 16.5451 28.3751 15.927C29.3001 15.3089 30.0211 14.4304 30.4468 13.4026C30.8726 12.3748 30.984 11.2438 30.7669 10.1526C30.5499 9.06148 30.0141 8.0592 29.2275 7.27253C28.4408 6.48586 27.4385 5.95013 26.3474 5.73309C25.2562 5.51604 24.1252 5.62744 23.0974 6.05318C22.0696 6.47892 21.1911 7.19989 20.573 8.12492C19.9549 9.04995 19.625 10.1375 19.625 11.25C19.625 12.7418 20.2176 14.1726 21.2725 15.2275C22.3274 16.2824 23.7582 16.875 25.25 16.875ZM25.25 7.875C25.9175 7.875 26.57 8.07294 27.1251 8.44379C27.6801 8.81464 28.1126 9.34175 28.3681 9.95845C28.6235 10.5751 28.6904 11.2537 28.5602 11.9084C28.4299 12.5631 28.1085 13.1645 27.6365 13.6365C27.1645 14.1085 26.5631 14.4299 25.9084 14.5602C25.2537 14.6904 24.5751 14.6235 23.9584 14.3681C23.3417 14.1127 22.8146 13.6801 22.4438 13.1251C22.0729 12.57 21.875 11.9175 21.875 11.25C21.875 10.3549 22.2306 9.49645 22.8635 8.86352C23.4965 8.23058 24.3549 7.875 25.25 7.875ZM11.75 19.125C10.6375 19.125 9.54995 19.4549 8.62492 20.073C7.69989 20.6911 6.97892 21.5696 6.55318 22.5974C6.12744 23.6252 6.01604 24.7562 6.23309 25.8474C6.45013 26.9385 6.98586 27.9408 7.77253 28.7275C8.5592 29.5141 9.56148 30.0499 10.6526 30.2669C11.7438 30.484 12.8748 30.3726 13.9026 29.9468C14.9304 29.5211 15.8089 28.8001 16.427 27.8751C17.0451 26.9501 17.375 25.8625 17.375 24.75C17.375 23.2582 16.7824 21.8274 15.7275 20.7725C14.6726 19.7176 13.2418 19.125 11.75 19.125ZM11.75 28.125C11.0825 28.125 10.43 27.9271 9.87495 27.5562C9.31994 27.1854 8.88736 26.6583 8.63191 26.0416C8.37646 25.4249 8.30963 24.7463 8.43985 24.0916C8.57008 23.4369 8.89152 22.8355 9.36352 22.3635C9.83552 21.8915 10.4369 21.5701 11.0916 21.4399C11.7463 21.3096 12.4249 21.3765 13.0416 21.6319C13.6583 21.8874 14.1854 22.3199 14.5562 22.875C14.9271 23.43 15.125 24.0825 15.125 24.75C15.125 25.6451 14.7694 26.5036 14.1365 27.1365C13.5036 27.7694 12.6451 28.125 11.75 28.125ZM30.875 24.75C30.875 25.0484 30.7565 25.3345 30.5455 25.5455C30.3345 25.7565 30.0484 25.875 29.75 25.875H26.375V29.25C26.375 29.5484 26.2565 29.8345 26.0455 30.0455C25.8345 30.2565 25.5484 30.375 25.25 30.375C24.9516 30.375 24.6655 30.2565 24.4545 30.0455C24.2435 29.8345 24.125 29.5484 24.125 29.25V25.875H20.75C20.4516 25.875 20.1655 25.7565 19.9545 25.5455C19.7435 25.3345 19.625 25.0484 19.625 24.75C19.625 24.4516 19.7435 24.1655 19.9545 23.9545C20.1655 23.7435 20.4516 23.625 20.75 23.625H24.125V20.25C24.125 19.9516 24.2435 19.6655 24.4545 19.4545C24.6655 19.2435 24.9516 19.125 25.25 19.125C25.5484 19.125 25.8345 19.2435 26.0455 19.4545C26.2565 19.6655 26.375 19.9516 26.375 20.25V23.625H29.75C30.0484 23.625 30.3345 23.7435 30.5455 23.9545C30.7565 24.1655 30.875 24.4516 30.875 24.75Z" fill="#333333"/>
</svg>
