<svg width="25" height="25" viewBox="0 0 25 25" fill="none" xmlns="http://www.w3.org/2000/svg">
<path d="M23.499 12.4814C23.499 12.6803 23.4112 12.8711 23.255 13.0117C23.0987 13.1524 22.8867 13.2314 22.6657 13.2314H6.34438L12.4223 18.7007C12.4997 18.7704 12.5611 18.8532 12.603 18.9442C12.6449 19.0352 12.6665 19.1328 12.6665 19.2314C12.6665 19.3299 12.6449 19.4275 12.603 19.5185C12.5611 19.6096 12.4997 19.6923 12.4223 19.762C12.3449 19.8317 12.253 19.887 12.1518 19.9247C12.0507 19.9624 11.9422 19.9818 11.8327 19.9818C11.7232 19.9818 11.6148 19.9624 11.5137 19.9247C11.4125 19.887 11.3206 19.8317 11.2432 19.762L3.74342 13.012C3.66594 12.9423 3.60448 12.8596 3.56254 12.7686C3.52061 12.6775 3.49902 12.5799 3.49902 12.4814C3.49902 12.3828 3.52061 12.2852 3.56254 12.1942C3.60448 12.1031 3.66594 12.0204 3.74342 11.9507L11.2432 5.20075C11.3995 5.06002 11.6116 4.98096 11.8327 4.98096C12.0539 4.98096 12.2659 5.06002 12.4223 5.20075C12.5787 5.34148 12.6665 5.53235 12.6665 5.73137C12.6665 5.9304 12.5787 6.12127 12.4223 6.262L6.34438 11.7314H22.6657C22.8867 11.7314 23.0987 11.8104 23.255 11.951C23.4112 12.0917 23.499 12.2825 23.499 12.4814Z" fill="#F3F3F3"/>
</svg>
