<svg width="17" height="17" viewBox="0 0 17 17" fill="none" xmlns="http://www.w3.org/2000/svg">
<path d="M2.55417 8.49979C2.55417 8.6324 2.60827 8.75958 2.70456 8.85334C2.80086 8.94711 2.93146 8.99979 3.06765 8.99979H13.1247L9.37951 12.646C9.33181 12.6925 9.29396 12.7476 9.26814 12.8083C9.24232 12.869 9.22904 12.9341 9.22904 12.9998C9.22904 13.0655 9.24232 13.1305 9.26814 13.1912C9.29396 13.2519 9.33181 13.3071 9.37951 13.3535C9.42722 13.4 9.48386 13.4368 9.54619 13.462C9.60852 13.4871 9.67533 13.5001 9.74279 13.5001C9.81026 13.5001 9.87707 13.4871 9.9394 13.462C10.0017 13.4368 10.0584 13.4 10.1061 13.3535L14.7273 8.85354C14.7751 8.8071 14.8129 8.75196 14.8388 8.69126C14.8646 8.63056 14.8779 8.5655 14.8779 8.49979C14.8779 8.43408 14.8646 8.36902 14.8388 8.30832C14.8129 8.24762 14.7751 8.19248 14.7273 8.14604L10.1061 3.64604C10.0097 3.55222 9.87905 3.49951 9.74279 3.49951C9.60654 3.49951 9.47586 3.55222 9.37951 3.64604C9.28316 3.73986 9.22904 3.86711 9.22904 3.99979C9.22904 4.13247 9.28316 4.25972 9.37951 4.35354L13.1247 7.99979H3.06765C2.93146 7.99979 2.80086 8.05247 2.70456 8.14624C2.60827 8.24 2.55417 8.36718 2.55417 8.49979Z" fill="#C59D4E"/>
</svg>
