<svg width="25" height="24" viewBox="0 0 25 24" fill="none" xmlns="http://www.w3.org/2000/svg">
<path fill-rule="evenodd" clip-rule="evenodd" d="M2.5 14C2.5 13.7348 2.60536 13.4804 2.79289 13.2929C2.98043 13.1054 3.23478 13 3.5 13H10.5C10.7652 13 11.0196 13.1054 11.2071 13.2929C11.3946 13.4804 11.5 13.7348 11.5 14V21C11.5 21.2652 11.3946 21.5196 11.2071 21.7071C11.0196 21.8946 10.7652 22 10.5 22H3.5C3.23478 22 2.98043 21.8946 2.79289 21.7071C2.60536 21.5196 2.5 21.2652 2.5 21V14ZM4.5 15V20H9.5V15H4.5Z" fill="#C59D4E"/>
<path fill-rule="evenodd" clip-rule="evenodd" d="M2.5 3C2.5 2.73478 2.60536 2.48043 2.79289 2.29289C2.98043 2.10536 3.23478 2 3.5 2H10.5C10.7652 2 11.0196 2.10536 11.2071 2.29289C11.3946 2.48043 11.5 2.73478 11.5 3V10C11.5 10.2652 11.3946 10.5196 11.2071 10.7071C11.0196 10.8946 10.7652 11 10.5 11H3.5C3.23478 11 2.98043 10.8946 2.79289 10.7071C2.60536 10.5196 2.5 10.2652 2.5 10V3ZM4.5 4V9H9.5V4H4.5Z" fill="#C59D4E"/>
<path fill-rule="evenodd" clip-rule="evenodd" d="M13.5 4C13.5 3.73478 13.6054 3.48043 13.7929 3.29289C13.9804 3.10536 14.2348 3 14.5 3H21.5C21.7652 3 22.0196 3.10536 22.2071 3.29289C22.3946 3.48043 22.5 3.73478 22.5 4C22.5 4.26522 22.3946 4.51957 22.2071 4.70711C22.0196 4.89464 21.7652 5 21.5 5H14.5C14.2348 5 13.9804 4.89464 13.7929 4.70711C13.6054 4.51957 13.5 4.26522 13.5 4Z" fill="#C59D4E"/>
<path fill-rule="evenodd" clip-rule="evenodd" d="M13.5 9C13.5 8.73478 13.6054 8.48043 13.7929 8.29289C13.9804 8.10536 14.2348 8 14.5 8H21.5C21.7652 8 22.0196 8.10536 22.2071 8.29289C22.3946 8.48043 22.5 8.73478 22.5 9C22.5 9.26522 22.3946 9.51957 22.2071 9.70711C22.0196 9.89464 21.7652 10 21.5 10H14.5C14.2348 10 13.9804 9.89464 13.7929 9.70711C13.6054 9.51957 13.5 9.26522 13.5 9Z" fill="#C59D4E"/>
<path fill-rule="evenodd" clip-rule="evenodd" d="M13.5 15C13.5 14.7348 13.6054 14.4804 13.7929 14.2929C13.9804 14.1054 14.2348 14 14.5 14H21.5C21.7652 14 22.0196 14.1054 22.2071 14.2929C22.3946 14.4804 22.5 14.7348 22.5 15C22.5 15.2652 22.3946 15.5196 22.2071 15.7071C22.0196 15.8946 21.7652 16 21.5 16H14.5C14.2348 16 13.9804 15.8946 13.7929 15.7071C13.6054 15.5196 13.5 15.2652 13.5 15Z" fill="#C59D4E"/>
<path fill-rule="evenodd" clip-rule="evenodd" d="M13.5 20C13.5 19.7348 13.6054 19.4804 13.7929 19.2929C13.9804 19.1054 14.2348 19 14.5 19H21.5C21.7652 19 22.0196 19.1054 22.2071 19.2929C22.3946 19.4804 22.5 19.7348 22.5 20C22.5 20.2652 22.3946 20.5196 22.2071 20.7071C22.0196 20.8946 21.7652 21 21.5 21H14.5C14.2348 21 13.9804 20.8946 13.7929 20.7071C13.6054 20.5196 13.5 20.2652 13.5 20Z" fill="#C59D4E"/>
</svg>
