<svg width="21" height="25" viewBox="0 0 21 25" fill="none" xmlns="http://www.w3.org/2000/svg">
<path d="M1.77255 24.5C1.48322 24.5 1.20575 24.3851 1.00116 24.1805C0.796575 23.9759 0.681641 23.6984 0.681641 23.4091V20.1364C0.681641 19.847 0.796575 19.5696 1.00116 19.365C1.20575 19.1604 1.48322 19.0455 1.77255 19.0455C2.06188 19.0455 2.33935 19.1604 2.54394 19.365C2.74852 19.5696 2.86346 19.847 2.86346 20.1364V23.4091C2.86346 23.6984 2.74852 23.9759 2.54394 24.1805C2.33935 24.3851 2.06188 24.5 1.77255 24.5ZM11.5907 23.4091V15.7727C11.5907 15.4834 11.4758 15.2059 11.2712 15.0013C11.0666 14.7968 10.7892 14.6818 10.4998 14.6818C10.2105 14.6818 9.93302 14.7968 9.72843 15.0013C9.52385 15.2059 9.40891 15.4834 9.40891 15.7727V23.4091C9.40891 23.6984 9.52385 23.9759 9.72843 24.1805C9.93302 24.3851 10.2105 24.5 10.4998 24.5C10.7892 24.5 11.0666 24.3851 11.2712 24.1805C11.4758 23.9759 11.5907 23.6984 11.5907 23.4091ZM19.2271 11.4091C18.9378 11.4091 18.6603 11.524 18.4557 11.7286C18.2511 11.9332 18.1362 12.2107 18.1362 12.5V23.4091C18.1362 23.6984 18.2511 23.9759 18.4557 24.1805C18.6603 24.3851 18.9378 24.5 19.2271 24.5C19.5164 24.5 19.7939 24.3851 19.9985 24.1805C20.2031 23.9759 20.318 23.6984 20.318 23.4091V12.5C20.318 12.2107 20.2031 11.9332 19.9985 11.7286C19.7939 11.524 19.5164 11.4091 19.2271 11.4091ZM19.6438 0.584C19.5118 0.528696 19.3702 0.500144 19.2271 0.5H14.8635C14.5741 0.5 14.2967 0.614935 14.0921 0.81952C13.8875 1.0241 13.7726 1.30158 13.7726 1.59091C13.7726 1.88024 13.8875 2.15771 14.0921 2.3623C14.2967 2.56688 14.5741 2.68182 14.8635 2.68182H16.5936L10.4998 8.77564L6.90746 5.18327C6.70288 4.97876 6.42546 4.86387 6.13619 4.86387C5.84692 4.86387 5.56949 4.97876 5.36491 5.18327L1.00128 9.54691C0.802559 9.75266 0.692602 10.0282 0.695087 10.3143C0.697573 10.6003 0.812303 10.8739 1.01457 11.0762C1.21683 11.2784 1.49044 11.3932 1.77648 11.3956C2.06251 11.3981 2.33807 11.2882 2.54382 11.0895L6.13619 7.49709L9.72855 11.0895C9.93313 11.294 10.2106 11.4089 10.4998 11.4089C10.7891 11.4089 11.0665 11.294 11.2711 11.0895L18.1362 4.22436V5.95455C18.1362 6.24387 18.2511 6.52135 18.4557 6.72593C18.6603 6.93052 18.9378 7.04545 19.2271 7.04545C19.5164 7.04545 19.7939 6.93052 19.9985 6.72593C20.2031 6.52135 20.318 6.24387 20.318 5.95455V1.59091C20.3178 1.37523 20.2536 1.16446 20.1336 0.985238C20.0136 0.806018 19.8431 0.666391 19.6438 0.584Z" fill="#C59D4E"/>
</svg>
