<svg width="25" height="25" viewBox="0 0 25 25" fill="none" xmlns="http://www.w3.org/2000/svg">
<path d="M20 3.48145H17.75V2.73145C17.75 2.53253 17.671 2.34177 17.5303 2.20112C17.3897 2.06046 17.1989 1.98145 17 1.98145C16.8011 1.98145 16.6103 2.06046 16.4697 2.20112C16.329 2.34177 16.25 2.53253 16.25 2.73145V3.48145H8.75V2.73145C8.75 2.53253 8.67098 2.34177 8.53033 2.20112C8.38968 2.06046 8.19891 1.98145 8 1.98145C7.80109 1.98145 7.61032 2.06046 7.46967 2.20112C7.32902 2.34177 7.25 2.53253 7.25 2.73145V3.48145H5C4.60218 3.48145 4.22064 3.63948 3.93934 3.92079C3.65804 4.20209 3.5 4.58362 3.5 4.98145V19.9814C3.5 20.3793 3.65804 20.7608 3.93934 21.0421C4.22064 21.3234 4.60218 21.4814 5 21.4814H20C20.3978 21.4814 20.7794 21.3234 21.0607 21.0421C21.342 20.7608 21.5 20.3793 21.5 19.9814V4.98145C21.5 4.58362 21.342 4.20209 21.0607 3.92079C20.7794 3.63948 20.3978 3.48145 20 3.48145ZM7.25 4.98145V5.73145C7.25 5.93036 7.32902 6.12112 7.46967 6.26178C7.61032 6.40243 7.80109 6.48145 8 6.48145C8.19891 6.48145 8.38968 6.40243 8.53033 6.26178C8.67098 6.12112 8.75 5.93036 8.75 5.73145V4.98145H16.25V5.73145C16.25 5.93036 16.329 6.12112 16.4697 6.26178C16.6103 6.40243 16.8011 6.48145 17 6.48145C17.1989 6.48145 17.3897 6.40243 17.5303 6.26178C17.671 6.12112 17.75 5.93036 17.75 5.73145V4.98145H20V7.98145H5V4.98145H7.25ZM20 19.9814H5V9.48145H20V19.9814ZM11 11.7314V17.7314C11 17.9304 10.921 18.1211 10.7803 18.2618C10.6397 18.4024 10.4489 18.4814 10.25 18.4814C10.0511 18.4814 9.86032 18.4024 9.71967 18.2618C9.57902 18.1211 9.5 17.9304 9.5 17.7314V12.9446L9.08563 13.1527C8.9076 13.2417 8.7015 13.2564 8.51268 13.1934C8.32385 13.1305 8.16776 12.9951 8.07875 12.8171C7.98974 12.639 7.97509 12.4329 8.03803 12.2441C8.10097 12.0553 8.23635 11.8992 8.41437 11.8102L9.91437 11.0602C10.0288 11.003 10.1559 10.9759 10.2837 10.9817C10.4114 10.9874 10.5356 11.0257 10.6444 11.093C10.7532 11.1603 10.843 11.2542 10.9052 11.366C10.9675 11.4777 11.0001 11.6035 11 11.7314ZM16.5463 14.5861L14.75 16.9814H16.25C16.4489 16.9814 16.6397 17.0605 16.7803 17.2011C16.921 17.3418 17 17.5325 17 17.7314C17 17.9304 16.921 18.1211 16.7803 18.2618C16.6397 18.4024 16.4489 18.4814 16.25 18.4814H13.25C13.1107 18.4814 12.9742 18.4427 12.8557 18.3694C12.7372 18.2962 12.6415 18.1914 12.5792 18.0669C12.5169 17.9423 12.4905 17.8028 12.503 17.6641C12.5155 17.5254 12.5664 17.3929 12.65 17.2814L15.3481 13.6843C15.4095 13.6026 15.4535 13.5092 15.4775 13.4098C15.5015 13.3105 15.5049 13.2073 15.4876 13.1066C15.4703 13.0059 15.4325 12.9098 15.3767 12.8242C15.3209 12.7386 15.2482 12.6653 15.1631 12.6088C15.0779 12.5523 14.9821 12.5139 14.8816 12.4957C14.781 12.4776 14.6778 12.4802 14.5783 12.5034C14.4788 12.5266 14.385 12.5698 14.3028 12.6306C14.2206 12.6913 14.1517 12.7681 14.1003 12.8564C14.0525 12.9445 13.9876 13.022 13.9093 13.0845C13.8311 13.147 13.7411 13.1932 13.6447 13.2204C13.5483 13.2476 13.4474 13.2552 13.3481 13.2427C13.2487 13.2303 13.1528 13.1981 13.0661 13.148C12.9794 13.0979 12.9035 13.0309 12.8431 12.9511C12.7827 12.8712 12.7389 12.78 12.7142 12.683C12.6896 12.5859 12.6847 12.4849 12.6997 12.3858C12.7148 12.2868 12.7495 12.1918 12.8019 12.1064C13.0496 11.6777 13.4319 11.3427 13.8894 11.1533C14.3469 10.9639 14.8541 10.9307 15.3324 11.0589C15.8107 11.187 16.2333 11.4694 16.5348 11.8622C16.8363 12.255 16.9998 12.7363 17 13.2314C17.0016 13.7206 16.8421 14.1966 16.5463 14.5861Z" fill="#F3F3F3"/>
</svg>
