<svg width="25" height="33" viewBox="0 0 25 33" fill="none" xmlns="http://www.w3.org/2000/svg">
<path d="M21.3472 20.2892L16.9306 17.6504L16.9184 17.6429C16.6892 17.5122 16.439 17.4597 16.1907 17.4903C15.9424 17.5208 15.7037 17.6334 15.4963 17.8179C15.4718 17.8394 15.4484 17.8628 15.4259 17.8879L13.1441 20.4817C11.6984 19.5454 10.2059 17.5704 9.50376 15.6679L11.4519 12.5792C11.4706 12.5479 11.4884 12.5167 11.5053 12.4829C11.6407 12.2071 11.7229 11.8908 11.7445 11.5624C11.7661 11.234 11.7264 10.9035 11.6291 10.6004V10.5854L9.64438 4.68668C9.5157 4.29076 9.29444 3.96095 9.01362 3.74648C8.7328 3.53201 8.4075 3.44438 8.08626 3.49668C6.81592 3.71956 5.64986 4.55139 4.80588 5.8368C3.9619 7.12221 3.49771 8.77329 3.50001 10.4817C3.50001 20.4067 9.55626 28.4817 17 28.4817C18.2813 28.4847 19.5196 27.8658 20.4837 26.7405C21.4477 25.6152 22.0716 24.0605 22.2388 22.3667C22.2781 21.9385 22.2125 21.5049 22.0518 21.1305C21.8911 20.7561 21.644 20.461 21.3472 20.2892ZM17 26.4817C13.8185 26.477 10.7682 24.7899 8.51856 21.7903C6.26888 18.7907 5.00348 14.7237 5.00001 10.4817C4.99648 9.26104 5.32631 8.08043 5.92789 7.16031C6.52947 6.2402 7.36167 5.64351 8.26907 5.48168C8.2687 5.48667 8.2687 5.49169 8.26907 5.49668L10.2378 11.3717L8.30001 14.4642C8.28034 14.4944 8.26247 14.5265 8.24657 14.5604C8.10549 14.8491 8.02273 15.1814 8.0063 15.5253C7.98988 15.8691 8.04035 16.2128 8.15282 16.5229C9.0022 18.8392 10.7525 21.1554 12.5084 22.2867C12.7428 22.4352 13.002 22.5002 13.2608 22.4752C13.5196 22.4503 13.7692 22.3362 13.985 22.1442C14.0091 22.1226 14.0322 22.0992 14.0544 22.0742L16.3334 19.4817L20.7397 22.1129C20.7397 22.1129 20.7472 22.1129 20.75 22.1129C20.6301 23.3245 20.1833 24.4363 19.4931 25.2404C18.8028 26.0445 17.9166 26.4858 17 26.4817Z" fill="#C59D4E"/>
</svg>
