<svg width="24" height="24" viewBox="0 0 24 24" fill="none" xmlns="http://www.w3.org/2000/svg">
<path d="M19.5 19.5H4.5C4.10218 19.5 3.72064 19.342 3.43934 19.0607C3.15804 18.7794 3 18.3978 3 18V7.5C3 7.10218 3.15804 6.72064 3.43934 6.43934C3.72064 6.15804 4.10218 6 4.5 6H7.5L9 3.75H15L16.5 6H19.5C19.8978 6 20.2794 6.15804 20.5607 6.43934C20.842 6.72064 21 7.10218 21 7.5V18C21 18.3978 20.842 18.7794 20.5607 19.0607C20.2794 19.342 19.8978 19.5 19.5 19.5Z" stroke="#AAA8BD" stroke-width="1.5" stroke-linecap="round" stroke-linejoin="round"/>
<path d="M12 15.75C12.4432 15.75 12.8821 15.6627 13.2916 15.4931C13.701 15.3235 14.0731 15.0749 14.3865 14.7615C14.6999 14.4481 14.9485 14.076 15.1181 13.6666C15.2877 13.2571 15.375 12.8182 15.375 12.375C15.375 11.9318 15.2877 11.4929 15.1181 11.0834C14.9485 10.674 14.6999 10.3019 14.3865 9.98851C14.0731 9.67512 13.701 9.42652 13.2916 9.25691C12.8821 9.0873 12.4432 9 12 9C11.1049 9 10.2465 9.35558 9.61351 9.98851C8.98058 10.6215 8.625 11.4799 8.625 12.375C8.625 13.2701 8.98058 14.1285 9.61351 14.7615C10.2465 15.3944 11.1049 15.75 12 15.75V15.75Z" stroke="#AAA8BD" stroke-width="1.5" stroke-linecap="round" stroke-linejoin="round"/>
</svg>
