<svg width="21" height="22" viewBox="0 0 21 22" fill="none" xmlns="http://www.w3.org/2000/svg">
<path d="M18.6786 11.0002C18.6786 7.79855 18.6786 6.19728 17.6836 5.20307C16.6885 4.20886 15.0881 4.20801 11.8864 4.20801H8.4903C5.28861 4.20801 3.68734 4.20801 2.69312 5.20307C1.69891 6.19813 1.69806 7.79855 1.69806 11.0002C1.69806 14.2019 1.69806 15.8032 2.69312 16.7974C3.68818 17.7916 5.28861 17.7925 8.4903 17.7925H11.8864C15.0881 17.7925 16.6894 17.7925 17.6836 16.7974C18.2389 16.243 18.4842 15.5001 18.592 14.3964M8.4903 14.3964H5.09418M11.8864 14.3964H10.6129M1.69806 9.30219H5.94321M18.6786 9.30219H9.33932" stroke="#C59D4E" stroke-width="1.27354" stroke-linecap="round"/>
</svg>
