<svg width="23" height="16" viewBox="0 0 23 16" fill="none" xmlns="http://www.w3.org/2000/svg">
<path d="M22.1509 0.399902H0.94043V10.7858H22.1509V0.399902Z" fill="#C59D4E"/>
<path d="M22.149 10.7856H0.938477V15.609H22.149V10.7856Z" fill="#C59D4E"/>
<path d="M11.5443 9.15136C13.0994 9.15136 14.3601 7.55813 14.3601 5.59277C14.3601 3.62742 13.0994 2.03418 11.5443 2.03418C9.98918 2.03418 8.72852 3.62742 8.72852 5.59277C8.72852 7.55813 9.98918 9.15136 11.5443 9.15136Z" fill="#C59D4E"/>
<path d="M22.1052 4.33458e-05H17.323C17.105 4.33458e-05 16.9283 0.177071 16.9283 0.395461C16.9283 0.613852 17.105 0.79088 17.323 0.79088H19.5033C19.6749 1.92841 20.5748 2.82986 21.7105 3.00177V8.17509C20.5748 8.34695 19.6749 9.24841 19.5033 10.386H3.49663C3.32506 9.24841 2.42517 8.347 1.28946 8.17509V3.00173C2.42513 2.82986 3.32502 1.92841 3.49663 0.790837H15.823C16.041 0.790837 16.2178 0.613809 16.2178 0.395418C16.2178 0.177071 16.041 0 15.823 0H0.894753C0.67673 4.30411e-05 0.5 0.177071 0.5 0.395418V10.7813V15.6046C0.5 15.8229 0.67673 16 0.894753 16H22.1052C22.3232 16 22.5 15.823 22.5 15.6046V10.7813V0.395418C22.5 0.177071 22.3232 4.33458e-05 22.1052 4.33458e-05ZM20.3062 0.790837H21.7105V2.1975C21.0111 2.04393 20.4595 1.49137 20.3062 0.790837ZM21.7105 8.97923V10.3859H20.3062C20.4595 9.68536 21.0111 9.1328 21.7105 8.97923ZM2.69377 10.3859H1.28946V8.97923C1.98882 9.1328 2.54045 9.68536 2.69377 10.3859ZM2.69377 0.790837C2.54045 1.49137 1.98882 2.04393 1.28946 2.1975V0.790837H2.69377ZM1.28946 15.2092V14.3923H4.78948C5.00746 14.3923 5.18423 14.2153 5.18423 13.9969C5.18423 13.7785 5.0075 13.6015 4.78948 13.6015H1.28946V12.7843H16.5789C16.7969 12.7843 16.9737 12.6073 16.9737 12.3889C16.9737 12.1706 16.7969 11.9935 16.5789 11.9935H1.28946V11.1766H21.7105V11.9935H17.7368C17.5189 11.9935 17.3421 12.1705 17.3421 12.3889C17.3421 12.6072 17.5188 12.7843 17.7368 12.7843H21.7105V13.6015H6.05263C5.83465 13.6015 5.65787 13.7785 5.65787 13.9969C5.65787 14.2153 5.8346 14.3923 6.05263 14.3923H21.7105V15.2092H1.28946Z" fill="#333333"/>
<path d="M8.28955 5.58829C8.28955 7.76853 9.72977 9.5423 11.5001 9.5423C13.2704 9.5423 14.7106 7.76853 14.7106 5.58829C14.7106 3.40804 13.2704 1.63428 11.5001 1.63428C9.72977 1.63428 8.28955 3.40804 8.28955 5.58829ZM13.9211 5.58829C13.9211 7.33248 12.835 8.75151 11.5001 8.75151C10.1652 8.75151 9.07906 7.33248 9.07906 5.58829C9.07906 3.84409 10.1652 2.42507 11.5001 2.42507C12.835 2.42507 13.9211 3.84409 13.9211 5.58829Z" fill="#333333"/>
<path d="M20.4215 4.63965H16.1057C15.8877 4.63965 15.7109 4.81668 15.7109 5.03507C15.7109 5.25346 15.8877 5.43048 16.1057 5.43048H20.4215C20.6394 5.43048 20.8162 5.25346 20.8162 5.03507C20.8162 4.81668 20.6395 4.63965 20.4215 4.63965Z" fill="#333333"/>
<path d="M7.0794 5.03507C7.0794 4.81672 6.90267 4.63965 6.68465 4.63965H2.36887C2.15089 4.63965 1.97412 4.81668 1.97412 5.03507C1.97412 5.25346 2.15085 5.43048 2.36887 5.43048H6.68465C6.90267 5.43044 7.0794 5.25341 7.0794 5.03507Z" fill="#333333"/>
<path d="M20.4219 6.12891H18.0534C17.8355 6.12891 17.6587 6.30593 17.6587 6.52432C17.6587 6.74271 17.8354 6.91974 18.0534 6.91974H20.4219C20.6399 6.91974 20.8166 6.74271 20.8166 6.52432C20.8166 6.30593 20.6399 6.12891 20.4219 6.12891Z" fill="#333333"/>
<path d="M2.36887 6.12891C2.15089 6.12891 1.97412 6.30593 1.97412 6.52432C1.97412 6.74271 2.15085 6.91974 2.36887 6.91974H4.73731C4.95529 6.91974 5.13206 6.74271 5.13206 6.52432C5.13206 6.30593 4.95533 6.12891 4.73731 6.12891H2.36887Z" fill="#333333"/>
<path d="M11.1052 3.17618V3.65777H10.2365C10.0186 3.65777 9.8418 3.83479 9.8418 4.05318V5.58799C9.8418 5.80633 10.0185 5.9834 10.2365 5.9834H12.3686V6.72741H10.2365C10.0186 6.72741 9.8418 6.90444 9.8418 7.12283C9.8418 7.34118 10.0185 7.51825 10.2365 7.51825H11.1052V7.99984C11.1052 8.21818 11.282 8.39525 11.5 8.39525C11.718 8.39525 11.8948 8.21823 11.8948 7.99984V7.51825H12.7634C12.9813 7.51825 13.1581 7.34122 13.1581 7.12283V5.58803C13.1581 5.36968 12.9814 5.19261 12.7634 5.19261H10.6313V4.4486H12.7634C12.9813 4.4486 13.1581 4.27158 13.1581 4.05318C13.1581 3.83484 12.9814 3.65777 12.7634 3.65777H11.8948V3.17618C11.8948 2.95783 11.718 2.78076 11.5 2.78076C11.282 2.7808 11.1052 2.95783 11.1052 3.17618Z" fill="#333333"/>
</svg>
