<svg width="24" height="24" viewBox="0 0 24 24" fill="none" xmlns="http://www.w3.org/2000/svg">
<path d="M12 21C16.9702 21 21 16.9702 21 12C21 7.02975 16.9702 3 12 3C7.02975 3 3 7.02975 3 12C3 16.9702 7.02975 21 12 21Z" stroke="#C59D4E" stroke-width="1.5" stroke-miterlimit="10"/>
<path d="M3.51599 9H20.4847" stroke="#C59D4E" stroke-width="1.5" stroke-linecap="round" stroke-linejoin="round"/>
<path d="M3.51599 15H20.4847" stroke="#C59D4E" stroke-width="1.5" stroke-linecap="round" stroke-linejoin="round"/>
<path d="M12 20.7562C14.0707 20.7562 15.75 16.8359 15.75 11.9999C15.75 7.1639 14.0707 3.24365 12 3.24365C9.92925 3.24365 8.25 7.1639 8.25 11.9999C8.25 16.8359 9.92925 20.7562 12 20.7562Z" stroke="#C59D4E" stroke-width="1.5" stroke-miterlimit="10"/>
</svg>
