<svg width="25" height="25" viewBox="0 0 25 25" fill="none" xmlns="http://www.w3.org/2000/svg">
<path d="M12.5 2.73145C10.5716 2.73145 8.68657 3.30327 7.08319 4.37462C5.47982 5.44596 4.23013 6.9687 3.49218 8.75028C2.75422 10.5319 2.56114 12.4923 2.93735 14.3836C3.31355 16.2749 4.24215 18.0122 5.60571 19.3757C6.96928 20.7393 8.70656 21.6679 10.5979 22.0441C12.4892 22.4203 14.4496 22.2272 16.2312 21.4893C18.0127 20.7513 19.5355 19.5016 20.6068 17.8983C21.6782 16.2949 22.25 14.4098 22.25 12.4814C22.2473 9.89642 21.2192 7.41806 19.3913 5.59017C17.5634 3.76228 15.085 2.73418 12.5 2.73145ZM12.5 20.7314C10.8683 20.7314 9.27326 20.2476 7.91655 19.3411C6.55984 18.4345 5.50242 17.1461 4.878 15.6386C4.25358 14.1311 4.0902 12.4723 4.40853 10.872C4.72685 9.27161 5.51259 7.8016 6.66637 6.64781C7.82016 5.49403 9.29017 4.70829 10.8905 4.38997C12.4909 4.07164 14.1497 4.23502 15.6571 4.85944C17.1646 5.48386 18.4531 6.54129 19.3596 7.89799C20.2661 9.2547 20.75 10.8497 20.75 12.4814C20.7475 14.6687 19.8775 16.7657 18.3309 18.3123C16.7843 19.859 14.6873 20.729 12.5 20.7314ZM18.5 12.4814C18.5 12.6804 18.421 12.8711 18.2803 13.0118C18.1397 13.1524 17.9489 13.2314 17.75 13.2314H12.5C12.3011 13.2314 12.1103 13.1524 11.9697 13.0118C11.829 12.8711 11.75 12.6804 11.75 12.4814V7.23145C11.75 7.03253 11.829 6.84177 11.9697 6.70112C12.1103 6.56046 12.3011 6.48145 12.5 6.48145C12.6989 6.48145 12.8897 6.56046 13.0303 6.70112C13.171 6.84177 13.25 7.03253 13.25 7.23145V11.7314H17.75C17.9489 11.7314 18.1397 11.8105 18.2803 11.9511C18.421 12.0918 18.5 12.2825 18.5 12.4814Z" fill="#F3F3F3"/>
</svg>
