<svg width="25" height="25" viewBox="0 0 25 25" fill="none" xmlns="http://www.w3.org/2000/svg">
<path d="M19.094 5.24937C18.1968 4.34317 17.1297 3.62283 15.9538 3.1296C14.7778 2.63637 13.5161 2.37994 12.2409 2.375H12.1668C9.58098 2.375 7.10103 3.40223 5.27255 5.23071C3.44407 7.05919 2.41684 9.53914 2.41684 12.125V17.375C2.41684 17.9717 2.65389 18.544 3.07585 18.966C3.49781 19.3879 4.0701 19.625 4.66684 19.625H6.16684C6.76358 19.625 7.33587 19.3879 7.75783 18.966C8.17979 18.544 8.41684 17.9717 8.41684 17.375V13.625C8.41684 13.0283 8.17979 12.456 7.75783 12.034C7.33587 11.6121 6.76358 11.375 6.16684 11.375H3.95059C4.09523 9.81119 4.68262 8.321 5.64393 7.0791C6.60523 5.83719 7.90061 4.89503 9.37824 4.36303C10.8559 3.83103 12.4545 3.73124 13.9869 4.07535C15.5192 4.41946 16.9217 5.19322 18.03 6.30594C19.3846 7.66747 20.2178 9.46162 20.384 11.375H18.1668C17.5701 11.375 16.9978 11.6121 16.5759 12.034C16.1539 12.456 15.9168 13.0283 15.9168 13.625V17.375C15.9168 17.9717 16.1539 18.544 16.5759 18.966C16.9978 19.3879 17.5701 19.625 18.1668 19.625H20.4168C20.4168 20.2217 20.1798 20.794 19.7578 21.216C19.3359 21.6379 18.7636 21.875 18.1668 21.875H12.9168C12.7179 21.875 12.5272 21.954 12.3865 22.0947C12.2459 22.2353 12.1668 22.4261 12.1668 22.625C12.1668 22.8239 12.2459 23.0147 12.3865 23.1553C12.5272 23.296 12.7179 23.375 12.9168 23.375H18.1668C19.1614 23.375 20.1152 22.9799 20.8185 22.2766C21.5218 21.5734 21.9168 20.6196 21.9168 19.625V12.125C21.9217 10.8496 21.6749 9.58577 21.1905 8.40593C20.7061 7.22608 19.9937 6.15341 19.094 5.24937ZM6.16684 12.875C6.36575 12.875 6.55652 12.954 6.69717 13.0947C6.83782 13.2353 6.91684 13.4261 6.91684 13.625V17.375C6.91684 17.5739 6.83782 17.7647 6.69717 17.9053C6.55652 18.046 6.36575 18.125 6.16684 18.125H4.66684C4.46793 18.125 4.27716 18.046 4.13651 17.9053C3.99586 17.7647 3.91684 17.5739 3.91684 17.375V12.875H6.16684ZM18.1668 18.125C17.9679 18.125 17.7772 18.046 17.6365 17.9053C17.4959 17.7647 17.4168 17.5739 17.4168 17.375V13.625C17.4168 13.4261 17.4959 13.2353 17.6365 13.0947C17.7772 12.954 17.9679 12.875 18.1668 12.875H20.4168V18.125H18.1668Z" fill="#C59D4E"/>
</svg>
