<svg width="27" height="17" viewBox="0 0 27 17" fill="none" xmlns="http://www.w3.org/2000/svg">
<path d="M17.7661 2.18408H10.0654V14.7616H17.7661V2.18408Z" fill="#735926"/>
<path d="M10.8574 8.47388C10.8565 7.26278 11.131 6.06732 11.6603 4.97799C12.1896 3.88866 12.9597 2.93399 13.9124 2.18623C12.7324 1.25891 11.3154 0.682257 9.8232 0.522191C8.33101 0.362125 6.82389 0.625099 5.47409 1.28106C4.12429 1.93702 2.98627 2.95949 2.19008 4.23163C1.3939 5.50377 0.97168 6.97425 0.97168 8.47499C0.97168 9.97574 1.3939 11.4462 2.19008 12.7184C2.98627 13.9905 4.12429 15.013 5.47409 15.6689C6.82389 16.3249 8.33101 16.5879 9.8232 16.4278C11.3154 16.2677 12.7324 15.6911 13.9124 14.7638C12.9594 14.0158 12.1891 13.0607 11.6598 11.971C11.1305 10.8813 10.8562 9.68536 10.8574 8.47388Z" fill="#CDAA65"/>
<path d="M26.0898 13.4307V13.173H26.2009V13.1196H25.9365V13.173H26.0409V13.4307H26.0898ZM26.6031 13.4307V13.1196H26.5231L26.4298 13.3418L26.3364 13.1196H26.2565V13.4307H26.3142V13.1952L26.4009 13.3974H26.4609L26.5475 13.1952V13.4307H26.6031Z" fill="#AAAAAA"/>
<path d="M26.855 8.4741C26.8549 9.97496 26.4326 11.4455 25.6363 12.7177C24.84 13.9899 23.7018 15.0124 22.3518 15.6682C21.0018 16.3241 19.4946 16.5869 18.0023 16.4266C16.51 16.2663 15.093 15.6894 13.9131 14.7618C14.8654 14.0133 15.6353 13.0584 16.1647 11.969C16.6941 10.8796 16.9692 9.68421 16.9692 8.47299C16.9692 7.26177 16.6941 6.06637 16.1647 4.97697C15.6353 3.88758 14.8654 2.93265 13.9131 2.18423C15.093 1.25661 16.51 0.679682 18.0023 0.519386C19.4946 0.35909 21.0018 0.621895 22.3518 1.27776C23.7018 1.93363 24.84 2.95609 25.6363 4.22827C26.4326 5.50045 26.8549 6.97102 26.855 8.47188V8.4741Z" fill="#C59D4E"/>
</svg>
