<svg width="25" height="25" viewBox="0 0 25 25" fill="none" xmlns="http://www.w3.org/2000/svg">
<path d="M21.811 3.1702C21.6224 2.9817 21.3869 2.84689 21.1289 2.77966C20.8708 2.71243 20.5995 2.7152 20.3429 2.7877H20.3288L2.33445 8.2477C2.04153 8.33194 1.78123 8.50341 1.5882 8.73928C1.39517 8.97515 1.27857 9.26423 1.25393 9.56802C1.2293 9.87181 1.29779 10.1759 1.45029 10.4398C1.60279 10.7037 1.83206 10.9149 2.10757 11.0452L10.1344 14.8468L13.936 22.8736C14.056 23.1307 14.2471 23.348 14.4866 23.5C14.7262 23.652 15.0042 23.7323 15.2879 23.7314C15.331 23.7314 15.3741 23.7296 15.4173 23.7258C15.72 23.7013 16.008 23.5848 16.2426 23.3919C16.4772 23.199 16.6472 22.939 16.7298 22.6468L22.186 4.65239C22.186 4.6477 22.186 4.64301 22.186 4.63833C22.2595 4.38235 22.2634 4.11145 22.1975 3.85343C22.1316 3.59542 21.9982 3.3596 21.811 3.1702ZM15.2963 22.2174L15.2916 22.2305L11.6016 14.4408L16.0304 10.0111C16.1651 9.86934 16.2391 9.68053 16.2366 9.48496C16.2341 9.28939 16.1553 9.10253 16.017 8.96423C15.8787 8.82593 15.6918 8.74712 15.4963 8.74462C15.3007 8.74212 15.1119 8.81611 14.9701 8.95082L10.5404 13.3796L2.74976 9.68958H2.76289L20.7498 4.23145L15.2963 22.2174Z" fill="#F3F3F3"/>
</svg>
