<svg width="15" height="17" viewBox="0 0 15 17" fill="none" xmlns="http://www.w3.org/2000/svg">
<path d="M7.96289 11.4459H8.36471C8.76653 11.4459 9.10035 11.0592 9.10035 10.5926C9.10035 10.0126 8.90871 9.89923 8.59344 9.77923L7.96907 9.5459V11.4459H7.96289Z" fill="#C59D4E"/>
<path d="M7.48167 2.09962C4.06931 2.11295 1.30604 5.10629 1.3184 8.78629C1.33076 12.4663 4.1064 15.4463 7.51876 15.433C10.9311 15.4196 13.6944 12.4263 13.682 8.74629C13.6697 5.06629 10.894 2.09295 7.48167 2.09962ZM8.89731 8.83295C9.37949 9.01295 10.0286 9.39962 10.0286 10.593C10.0286 11.6196 9.28058 12.4463 8.36567 12.4463H7.96386V12.833C7.96386 13.1063 7.75367 13.333 7.50022 13.333C7.24676 13.333 7.03658 13.1063 7.03658 12.833V12.4463H6.81404C5.80022 12.4463 4.97804 11.5263 4.97804 10.393C4.97804 10.1196 5.18822 9.89295 5.44167 9.89295C5.69513 9.89295 5.90531 10.1196 5.90531 10.393C5.90531 10.973 6.31331 11.4463 6.81404 11.4463H7.03658V9.19295L6.10313 8.83295C5.62095 8.65295 4.97186 8.26629 4.97186 7.07295C4.97186 6.04629 5.71986 5.21962 6.63476 5.21962H7.03658V4.83295C7.03658 4.55962 7.24676 4.33295 7.50022 4.33295C7.75367 4.33295 7.96386 4.55962 7.96386 4.83295V5.21962H8.1864C9.20022 5.21962 10.0224 6.13962 10.0224 7.27295C10.0224 7.54629 9.81222 7.77295 9.55876 7.77295C9.30531 7.77295 9.09513 7.54629 9.09513 7.27295C9.09513 6.69295 8.68713 6.21962 8.1864 6.21962H7.96386V8.47295L8.89731 8.83295Z" fill="#C59D4E"/>
<path d="M5.9043 7.07973C5.9043 7.65973 6.09593 7.77306 6.41121 7.89306L7.03557 8.12639V6.21973H6.63375C6.23193 6.21973 5.9043 6.60639 5.9043 7.07973Z" fill="#C59D4E"/>
</svg>
