<svg width="24" height="24" viewBox="0 0 24 24" fill="none" xmlns="http://www.w3.org/2000/svg">
<path d="M19.5369 9.53055L12.2645 17.0306C12.197 17.1003 12.1168 17.1556 12.0285 17.1933C11.9402 17.2311 11.8456 17.2505 11.75 17.2505C11.6544 17.2505 11.5598 17.2311 11.4715 17.1933C11.3832 17.1556 11.303 17.1003 11.2355 17.0306L3.96312 9.53055C3.82666 9.38982 3.75 9.19895 3.75 8.99993C3.75 8.80091 3.82666 8.61003 3.96312 8.4693C4.09958 8.32857 4.28466 8.24951 4.47764 8.24951C4.67062 8.24951 4.8557 8.32857 4.99216 8.4693L11.75 15.4396L18.5078 8.4693C18.5754 8.39962 18.6556 8.34435 18.7439 8.30663C18.8322 8.26892 18.9268 8.24951 19.0224 8.24951C19.1179 8.24951 19.2125 8.26892 19.3008 8.30663C19.3891 8.34435 19.4693 8.39962 19.5369 8.4693C19.6044 8.53899 19.658 8.62171 19.6946 8.71276C19.7312 8.8038 19.75 8.90138 19.75 8.99993C19.75 9.09847 19.7312 9.19606 19.6946 9.2871C19.658 9.37815 19.6044 9.46087 19.5369 9.53055Z" fill="#F3F3F3"/>
</svg>
