<svg width="22" height="22" viewBox="0 0 22 22" fill="none" xmlns="http://www.w3.org/2000/svg">
<path d="M18.9879 11.4062C18.7551 11.4062 18.5318 11.4987 18.3672 11.6633C18.2026 11.8279 18.1101 12.0512 18.1101 12.284V17.5509C18.1101 17.7837 18.0176 18.007 17.853 18.1716C17.6884 18.3362 17.4651 18.4287 17.2323 18.4287H4.94299C4.71018 18.4287 4.48691 18.3362 4.32229 18.1716C4.15767 18.007 4.06519 17.7837 4.06519 17.5509V5.26156C4.06519 5.02875 4.15767 4.80548 4.32229 4.64086C4.48691 4.47624 4.71018 4.38375 4.94299 4.38375H10.2098C10.4426 4.38375 10.6659 4.29127 10.8305 4.12665C10.9952 3.96203 11.0876 3.73875 11.0876 3.50594C11.0876 3.27314 10.9952 3.04986 10.8305 2.88524C10.6659 2.72062 10.4426 2.62814 10.2098 2.62814H4.94299C4.24457 2.62814 3.57474 2.90559 3.08088 3.39945C2.58702 3.89331 2.30957 4.56313 2.30957 5.26156V17.5509C2.30957 18.2493 2.58702 18.9191 3.08088 19.413C3.57474 19.9068 4.24457 20.1843 4.94299 20.1843H17.2323C17.9307 20.1843 18.6005 19.9068 19.0944 19.413C19.5883 18.9191 19.8657 18.2493 19.8657 17.5509V12.284C19.8657 12.0512 19.7732 11.8279 19.6086 11.6633C19.444 11.4987 19.2207 11.4062 18.9879 11.4062ZM5.8208 12.0733V15.7953C5.8208 16.0281 5.91328 16.2513 6.07791 16.416C6.24253 16.5806 6.4658 16.6731 6.69861 16.6731H10.4205C10.536 16.6737 10.6506 16.6516 10.7575 16.6079C10.8645 16.5642 10.9617 16.4999 11.0438 16.4185L17.1182 10.3353L19.6112 7.89498C19.6934 7.81338 19.7587 7.71629 19.8033 7.60932C19.8479 7.50235 19.8708 7.38762 19.8708 7.27174C19.8708 7.15586 19.8479 7.04112 19.8033 6.93415C19.7587 6.82719 19.6934 6.7301 19.6112 6.6485L15.8893 2.8827C15.8077 2.80043 15.7106 2.73512 15.6036 2.69056C15.4966 2.64599 15.3819 2.62305 15.266 2.62305C15.1501 2.62305 15.0354 2.64599 14.9284 2.69056C14.8215 2.73512 14.7244 2.80043 14.6428 2.8827L12.1673 5.3669L6.07537 11.4501C5.99401 11.5321 5.92964 11.6294 5.88596 11.7364C5.84228 11.8433 5.82013 11.9578 5.8208 12.0733ZM15.266 4.74365L17.7502 7.22785L16.5037 8.47434L14.0195 5.99014L15.266 4.74365ZM7.57642 12.4332L12.7818 7.22785L15.266 9.71204L10.0606 14.9174H7.57642V12.4332Z" fill="#C59D4E"/>
</svg>
