<svg width="25" height="25" viewBox="0 0 25 25" fill="none" xmlns="http://www.w3.org/2000/svg">
<path d="M17.304 3.125C15.3159 3.125 13.5752 3.9575 12.4902 5.36469C11.4052 3.9575 9.66449 3.125 7.67638 3.125C6.09382 3.12674 4.57659 3.73968 3.45755 4.82936C2.3385 5.91904 1.70904 7.39646 1.70726 8.9375C1.70726 15.5 11.6998 20.8119 12.1253 21.0312C12.2375 21.09 12.3628 21.1208 12.4902 21.1208C12.6176 21.1208 12.7429 21.09 12.8551 21.0312C13.2806 20.8119 23.2731 15.5 23.2731 8.9375C23.2713 7.39646 22.6419 5.91904 21.5228 4.82936C20.4038 3.73968 18.8866 3.12674 17.304 3.125ZM12.4902 19.5125C10.7322 18.515 3.24768 13.9709 3.24768 8.9375C3.24921 7.79421 3.71629 6.69817 4.54651 5.88975C5.37672 5.08132 6.50229 4.62649 7.67638 4.625C9.54896 4.625 11.1211 5.59625 11.7778 7.15625C11.8358 7.29381 11.9345 7.41146 12.0613 7.49426C12.1882 7.57707 12.3375 7.62127 12.4902 7.62127C12.6429 7.62127 12.7922 7.57707 12.919 7.49426C13.0459 7.41146 13.1446 7.29381 13.2026 7.15625C13.8592 5.59344 15.4314 4.625 17.304 4.625C18.4781 4.62649 19.6037 5.08132 20.4339 5.88975C21.2641 6.69817 21.7312 7.79421 21.7327 8.9375C21.7327 13.9634 14.2463 18.5141 12.4902 19.5125Z" fill="#C59D4E"/>
</svg>
