<svg width="193" height="120" viewBox="0 0 193 120" fill="none" xmlns="http://www.w3.org/2000/svg">
<path d="M182.245 0H10.7541C4.97334 0 0.287109 4.68623 0.287109 10.467V108.864C0.287109 114.645 4.97334 119.331 10.7541 119.331H182.245C188.025 119.331 192.712 114.645 192.712 108.864V10.467C192.712 4.68623 188.025 0 182.245 0Z" fill="#C59D4E"/>
<path d="M101.024 68.5762C116.58 66.0762 127.164 51.439 124.664 35.8831C122.164 20.3272 107.527 9.74335 91.9711 12.2434C76.4152 14.7434 65.8313 29.3806 68.3313 44.9364C70.8314 60.4923 85.4685 71.0762 101.024 68.5762Z" fill="#3F3D51"/>
<path d="M96.2813 45.6834L86.7751 57.8872C86.4519 58.3952 86.0074 58.8149 85.4817 59.1084C84.9559 59.4019 84.3655 59.56 83.7634 59.5686C82.9375 59.5799 82.1406 59.2644 81.5462 58.691C81.244 58.4138 81.0051 58.0747 80.8456 57.6969C80.6862 57.3191 80.6101 56.9114 80.6224 56.5015C80.6522 55.5835 80.976 54.6994 81.5462 53.9794L92.3827 40.5747L82.2206 27.1607C81.7484 26.5311 81.4895 25.7673 81.4815 24.9804C81.4792 24.5111 81.5739 24.0464 81.76 23.6155C81.946 23.1846 82.2192 22.7969 82.5624 22.4768C82.8848 22.1403 83.272 21.8726 83.7007 21.69C84.1295 21.5074 84.5908 21.4137 85.0568 21.4144C85.6535 21.4241 86.2384 21.583 86.758 21.8767C87.2776 22.1704 87.7154 22.5895 88.0315 23.0958L97.2144 35.1887L106.453 23.2991C106.783 22.7444 107.245 22.2797 107.798 21.9461C108.35 21.6125 108.977 21.4204 109.621 21.3867C110.021 21.3857 110.418 21.4673 110.785 21.6262C111.152 21.7852 111.482 22.0181 111.755 22.3106C112.047 22.5847 112.279 22.9153 112.438 23.2823C112.596 23.6492 112.679 24.0447 112.679 24.4446C112.669 25.1601 112.423 25.8522 111.977 26.4124L101.104 40.3252L111.608 54.1827C112.104 54.8021 112.38 55.5691 112.393 56.3629C112.396 56.8219 112.299 57.2761 112.109 57.694C111.919 58.1119 111.641 58.4836 111.294 58.7833C110.616 59.4352 109.712 59.7993 108.771 59.7996C108.172 59.7921 107.583 59.6343 107.06 59.3405C106.538 59.0468 106.097 58.6265 105.778 58.1182L96.2813 45.6834Z" fill="white"/>
<path d="M150.853 98.6651H42.1094C39.9043 98.6651 37.7894 97.7891 36.2302 96.2298C34.6709 94.6705 33.7949 92.5557 33.7949 90.3506C33.7949 88.1455 34.6709 86.0306 36.2302 84.4714C37.7894 82.9121 39.9043 82.0361 42.1094 82.0361H150.853C153.058 82.0361 155.173 82.9121 156.733 84.4714C158.292 86.0306 159.168 88.1455 159.168 90.3506C159.168 92.5557 158.292 94.6705 156.733 96.2298C155.173 97.7891 153.058 98.6651 150.853 98.6651Z" fill="#3F3D51"/>
<path d="M57.0104 93.0295C56.9378 93.0295 56.866 93.0147 56.7993 92.9862C56.7326 92.9576 56.6724 92.9157 56.6224 92.8632C56.5677 92.8089 56.5248 92.7441 56.4962 92.6726C56.4676 92.6011 56.4539 92.5245 56.4561 92.4475C56.456 92.3174 56.4911 92.1897 56.5577 92.0779L57.3892 90.7846H55.6893C55.6107 90.7886 55.5322 90.7759 55.4589 90.7472C55.3857 90.7185 55.3193 90.6746 55.2644 90.6183C55.1694 90.5077 55.1172 90.3668 55.1172 90.221C55.1172 90.0753 55.1694 89.9344 55.2644 89.8238C55.3193 89.7675 55.3857 89.7236 55.4589 89.6949C55.5322 89.6662 55.6107 89.6535 55.6893 89.6575L57.3615 89.7037L56.6224 88.5027C56.5483 88.3797 56.5069 88.2398 56.5023 88.0962C56.5001 88.0193 56.5138 87.9426 56.5424 87.8711C56.571 87.7996 56.6139 87.7348 56.6686 87.6805C56.7204 87.6277 56.7822 87.5858 56.8504 87.5572C56.9186 87.5287 56.9919 87.514 57.0658 87.5142C57.1693 87.5127 57.2709 87.5417 57.3579 87.5975C57.445 87.6534 57.5137 87.7337 57.5554 87.8283L58.3684 89.2787L59.1444 87.893C59.1933 87.7852 59.2708 87.6928 59.3686 87.626C59.4663 87.5593 59.5805 87.5206 59.6987 87.5142C59.7713 87.5142 59.8431 87.529 59.9098 87.5576C59.9765 87.5861 60.0367 87.628 60.0867 87.6805C60.1409 87.7313 60.1837 87.7929 60.2124 87.8614C60.241 87.9298 60.2549 88.0036 60.253 88.0778C60.2518 88.2089 60.2134 88.3371 60.1422 88.4473L59.3292 89.7499L61.0198 89.7037C61.0985 89.6991 61.1772 89.7115 61.2505 89.7402C61.3239 89.7689 61.3902 89.8132 61.4448 89.87C61.5397 89.9806 61.5919 90.1215 61.5919 90.2672C61.5919 90.413 61.5397 90.5539 61.4448 90.6645C61.3902 90.7213 61.3239 90.7655 61.2505 90.7942C61.1772 90.8229 61.0985 90.8354 61.0198 90.8308H59.3107L60.0683 92.0133C60.1537 92.156 60.2014 92.3182 60.2068 92.4844C60.2095 92.5593 60.1969 92.6339 60.1699 92.7038C60.143 92.7736 60.1021 92.8373 60.0498 92.8909C60.0012 92.9428 59.9425 92.9842 59.8774 93.0128C59.8123 93.0414 59.7421 93.0565 59.671 93.0572C59.5567 93.0544 59.4455 93.019 59.3506 92.9552C59.2556 92.8914 59.1809 92.8018 59.1352 92.6969L58.3684 91.3389L57.6016 92.6969C57.5462 92.8039 57.4607 92.8923 57.3556 92.9514C57.2506 93.0105 57.1306 93.0376 57.0104 93.0295Z" fill="white"/>
<path d="M65.4909 93.0298C65.4183 93.0298 65.3465 93.015 65.2798 92.9865C65.2131 92.9579 65.1529 92.916 65.1028 92.8635C65.0482 92.8092 65.0052 92.7444 64.9766 92.6729C64.948 92.6014 64.9344 92.5248 64.9366 92.4478C64.9365 92.3177 64.9716 92.19 65.0382 92.0782L65.8696 90.7849H64.1698C64.0912 90.7889 64.0127 90.7762 63.9394 90.7475C63.8661 90.7188 63.7998 90.6749 63.7448 90.6186C63.6499 90.508 63.5977 90.3671 63.5977 90.2213C63.5977 90.0756 63.6499 89.9347 63.7448 89.8241C63.7998 89.7678 63.8661 89.7239 63.9394 89.6952C64.0127 89.6665 64.0912 89.6538 64.1698 89.6578L65.8419 89.704L65.0567 88.4568C64.9826 88.3338 64.9412 88.1939 64.9366 88.0503C64.9344 87.9734 64.948 87.8968 64.9766 87.8253C65.0052 87.7538 65.0482 87.6889 65.1028 87.6346C65.1546 87.5818 65.2164 87.5399 65.2847 87.5113C65.3529 87.4828 65.4261 87.4681 65.5001 87.4683C65.6035 87.4668 65.7051 87.4958 65.7922 87.5516C65.8793 87.6075 65.948 87.6878 65.9897 87.7824L66.8027 89.2328L67.5787 87.8471C67.6276 87.7393 67.7051 87.6469 67.8029 87.5801C67.9006 87.5134 68.0148 87.4747 68.133 87.4683C68.2056 87.4683 68.2774 87.4831 68.3441 87.5117C68.4108 87.5402 68.471 87.5821 68.521 87.6346C68.5752 87.6854 68.618 87.747 68.6466 87.8155C68.6753 87.8839 68.6891 87.9577 68.6873 88.0319C68.6861 88.163 68.6476 88.2912 68.5764 88.4014L67.7635 89.704L69.4541 89.6578C69.5327 89.6532 69.6114 89.6656 69.6848 89.6943C69.7582 89.723 69.8244 89.7673 69.8791 89.8241C69.974 89.9347 70.0262 90.0756 70.0262 90.2213C70.0262 90.3671 69.974 90.508 69.8791 90.6186C69.8244 90.6754 69.7582 90.7196 69.6848 90.7483C69.6114 90.777 69.5327 90.7895 69.4541 90.7849H67.745L68.5025 91.9674C68.588 92.1101 68.6357 92.2723 68.6411 92.4385C68.6438 92.5134 68.6312 92.588 68.6042 92.6579C68.5772 92.7277 68.5363 92.7914 68.4841 92.845C68.4354 92.8969 68.3768 92.9383 68.3117 92.9669C68.2466 92.9955 68.1764 93.0106 68.1053 93.0113C67.9907 93.0097 67.879 92.9747 67.7839 92.9108C67.6887 92.8468 67.6142 92.7565 67.5695 92.651L66.8027 91.293L66.0359 92.651C65.9904 92.7594 65.915 92.8526 65.8184 92.9196C65.7219 92.9867 65.6083 93.0249 65.4909 93.0298Z" fill="white"/>
<path d="M73.9713 93.0298C73.8988 93.0298 73.827 93.015 73.7603 92.9865C73.6936 92.9579 73.6334 92.916 73.5833 92.8635C73.5287 92.8092 73.4857 92.7444 73.4571 92.6729C73.4285 92.6014 73.4149 92.5248 73.417 92.4478C73.4169 92.3177 73.452 92.19 73.5186 92.0782L74.3501 90.7849H72.6503C72.5717 90.7889 72.4931 90.7762 72.4199 90.7475C72.3466 90.7188 72.2803 90.6749 72.2253 90.6186C72.1303 90.508 72.0781 90.3671 72.0781 90.2213C72.0781 90.0756 72.1303 89.9347 72.2253 89.8241C72.2803 89.7678 72.3466 89.7239 72.4199 89.6952C72.4931 89.6665 72.5717 89.6538 72.6503 89.6578L74.3224 89.704L73.5371 88.4568C73.463 88.3338 73.4217 88.1939 73.417 88.0503C73.4149 87.9734 73.4285 87.8968 73.4571 87.8253C73.4857 87.7538 73.5287 87.6889 73.5833 87.6346C73.6351 87.5818 73.6969 87.5399 73.7651 87.5113C73.8334 87.4828 73.9066 87.4681 73.9806 87.4683C74.084 87.4668 74.1856 87.4958 74.2727 87.5516C74.3598 87.6075 74.4285 87.6878 74.4702 87.7824L75.2832 89.2328L76.0592 87.8471C76.1081 87.7393 76.1856 87.6469 76.2833 87.5801C76.3811 87.5134 76.4953 87.4747 76.6135 87.4683C76.686 87.4683 76.7579 87.4831 76.8245 87.5117C76.8912 87.5402 76.9514 87.5821 77.0015 87.6346C77.0556 87.6854 77.0984 87.747 77.1271 87.8155C77.1558 87.8839 77.1696 87.9577 77.1678 88.0319C77.1666 88.163 77.1281 88.2912 77.0569 88.4014L76.244 89.704L77.9346 89.6578C78.0132 89.6532 78.0919 89.6656 78.1653 89.6943C78.2386 89.723 78.3049 89.7673 78.3595 89.8241C78.4545 89.9347 78.5067 90.0756 78.5067 90.2213C78.5067 90.3671 78.4545 90.508 78.3595 90.6186C78.3049 90.6754 78.2386 90.7196 78.1653 90.7483C78.0919 90.777 78.0132 90.7895 77.9346 90.7849H76.2255L76.983 91.9674C77.0685 92.1101 77.1162 92.2723 77.1216 92.4385C77.1242 92.5134 77.1117 92.588 77.0847 92.6579C77.0577 92.7277 77.0168 92.7914 76.9645 92.845C76.9159 92.8969 76.8573 92.9383 76.7922 92.9669C76.7271 92.9955 76.6569 93.0106 76.5858 93.0113C76.4711 93.0097 76.3595 92.9747 76.2643 92.9108C76.1692 92.8468 76.0947 92.7565 76.0499 92.651L75.2832 91.293L74.5164 92.651C74.4709 92.7594 74.3954 92.8526 74.2989 92.9196C74.2024 92.9867 74.0888 93.0249 73.9713 93.0298Z" fill="white"/>
<path d="M82.4889 93.0298C82.4163 93.0298 82.3445 93.015 82.2778 92.9865C82.2111 92.9579 82.1509 92.916 82.1009 92.8635C82.0462 92.8092 82.0033 92.7444 81.9747 92.6729C81.9461 92.6014 81.9324 92.5248 81.9346 92.4478C81.9345 92.3177 81.9696 92.19 82.0362 92.0782L82.8677 90.7849H81.1678C81.0893 90.7889 81.0107 90.7762 80.9374 90.7475C80.8642 90.7188 80.7978 90.6749 80.7429 90.6186C80.6479 90.508 80.5957 90.3671 80.5957 90.2213C80.5957 90.0756 80.6479 89.9347 80.7429 89.8241C80.7978 89.7678 80.8642 89.7239 80.9374 89.6952C81.0107 89.6665 81.0893 89.6538 81.1678 89.6578L82.84 89.704L82.0547 88.4568C81.9806 88.3338 81.9393 88.1939 81.9346 88.0503C81.9324 87.9734 81.9461 87.8968 81.9747 87.8253C82.0033 87.7538 82.0462 87.6889 82.1009 87.6346C82.1527 87.5818 82.2145 87.5399 82.2827 87.5113C82.3509 87.4828 82.4242 87.4681 82.4981 87.4683C82.6016 87.4668 82.7032 87.4958 82.7903 87.5516C82.8774 87.6075 82.946 87.6878 82.9878 87.7824L83.8007 89.2328L84.5768 87.8471C84.6256 87.7393 84.7032 87.6469 84.8009 87.5801C84.8986 87.5134 85.0128 87.4747 85.1311 87.4683C85.2036 87.4683 85.2754 87.4831 85.3421 87.5117C85.4088 87.5402 85.469 87.5821 85.5191 87.6346C85.5732 87.6854 85.616 87.747 85.6447 87.8155C85.6733 87.8839 85.6872 87.9577 85.6854 88.0319C85.6841 88.163 85.6457 88.2912 85.5745 88.4014L84.7615 89.704L86.4521 89.6578C86.5308 89.6532 86.6095 89.6656 86.6829 89.6943C86.7562 89.723 86.8225 89.7673 86.8771 89.8241C86.9721 89.9347 87.0243 90.0756 87.0243 90.2213C87.0243 90.3671 86.9721 90.508 86.8771 90.6186C86.8225 90.6754 86.7562 90.7196 86.6829 90.7483C86.6095 90.777 86.5308 90.7895 86.4521 90.7849H84.7431L85.5006 91.9674C85.586 92.1101 85.6337 92.2723 85.6392 92.4385C85.6418 92.5134 85.6293 92.588 85.6023 92.6579C85.5753 92.7277 85.5344 92.7914 85.4821 92.845C85.4335 92.8969 85.3748 92.9383 85.3097 92.9669C85.2447 92.9955 85.1744 93.0106 85.1033 93.0113C84.989 93.0085 84.8778 92.9731 84.7829 92.9093C84.688 92.8455 84.6132 92.7559 84.5675 92.651L83.8007 91.293L83.034 92.651C82.9885 92.7594 82.913 92.8526 82.8165 92.9196C82.72 92.9867 82.6063 93.0249 82.4889 93.0298Z" fill="white"/>
<path d="M90.9323 93.0298C90.8597 93.0298 90.7879 93.015 90.7212 92.9865C90.6545 92.9579 90.5943 92.916 90.5443 92.8635C90.4896 92.8092 90.4467 92.7444 90.4181 92.6729C90.3895 92.6014 90.3758 92.5248 90.378 92.4478C90.3823 92.3183 90.4171 92.1917 90.4796 92.0782L91.311 90.7849H89.6112C89.5326 90.7889 89.4541 90.7762 89.3808 90.7475C89.3075 90.7188 89.2412 90.6749 89.1862 90.6186C89.0913 90.508 89.0391 90.3671 89.0391 90.2213C89.0391 90.0756 89.0913 89.9347 89.1862 89.8241C89.2412 89.7678 89.3075 89.7239 89.3808 89.6952C89.4541 89.6665 89.5326 89.6538 89.6112 89.6578L91.2833 89.704L90.4981 88.4568C90.424 88.3338 90.3826 88.1939 90.378 88.0503C90.3758 87.9734 90.3895 87.8968 90.4181 87.8253C90.4467 87.7538 90.4896 87.6889 90.5443 87.6346C90.596 87.5818 90.6579 87.5399 90.7261 87.5113C90.7943 87.4828 90.8675 87.4681 90.9415 87.4683C91.0449 87.4668 91.1466 87.4958 91.2336 87.5516C91.3207 87.6075 91.3894 87.6878 91.4311 87.7824L92.2441 89.2328L93.0201 87.8471C93.069 87.7393 93.1465 87.6469 93.2443 87.5802C93.342 87.5134 93.4562 87.4747 93.5744 87.4683C93.6472 87.4672 93.7193 87.4815 93.7861 87.5101C93.853 87.5388 93.9131 87.5812 93.9624 87.6346C94.0166 87.6854 94.0594 87.747 94.088 87.8155C94.1167 87.8839 94.1306 87.9577 94.1287 88.0319C94.1275 88.163 94.089 88.2912 94.0179 88.4014L93.2049 89.704L94.8955 89.6578C94.9741 89.6532 95.0529 89.6656 95.1262 89.6943C95.1996 89.723 95.2658 89.7673 95.3205 89.8241C95.4154 89.9347 95.4676 90.0756 95.4676 90.2213C95.4676 90.3671 95.4154 90.508 95.3205 90.6186C95.2658 90.6754 95.1996 90.7196 95.1262 90.7483C95.0529 90.7771 94.9741 90.7895 94.8955 90.7849H93.1864L93.9439 91.9674C94.0294 92.1101 94.0771 92.2723 94.0825 92.4385C94.0852 92.5134 94.0726 92.588 94.0456 92.6579C94.0186 92.7277 93.9778 92.7914 93.9255 92.845C93.8768 92.8969 93.8182 92.9383 93.7531 92.9669C93.688 92.9955 93.6178 93.0106 93.5467 93.0113C93.4324 93.0085 93.3212 92.9731 93.2263 92.9093C93.1313 92.8455 93.0566 92.7559 93.0109 92.651L92.2441 91.293L91.4773 92.651C91.4318 92.7594 91.3564 92.8526 91.2599 92.9196C91.1633 92.9867 91.0497 93.0249 90.9323 93.0298Z" fill="white"/>
<path d="M99.4147 93.0298C99.3421 93.0298 99.2703 93.015 99.2036 92.9865C99.1369 92.9579 99.0767 92.916 99.0267 92.8635C98.972 92.8092 98.9291 92.7444 98.9005 92.6729C98.8719 92.6014 98.8582 92.5248 98.8604 92.4478C98.8647 92.3183 98.8995 92.1917 98.962 92.0782L99.7934 90.7849H98.1028C98.0228 90.7896 97.9427 90.7773 97.8678 90.7486C97.7929 90.7199 97.725 90.6756 97.6686 90.6186C97.5737 90.508 97.5215 90.3671 97.5215 90.2213C97.5215 90.0756 97.5737 89.9347 97.6686 89.8241C97.725 89.7671 97.7929 89.7228 97.8678 89.6941C97.9427 89.6654 98.0228 89.653 98.1028 89.6578L99.7657 89.704L98.9805 88.4568C98.9064 88.3338 98.865 88.1939 98.8604 88.0503C98.8582 87.9734 98.8719 87.8968 98.9005 87.8253C98.9291 87.7538 98.972 87.6889 99.0267 87.6346C99.0784 87.5818 99.1403 87.5399 99.2085 87.5113C99.2767 87.4828 99.35 87.4681 99.4239 87.4683C99.5274 87.4668 99.629 87.4958 99.716 87.5516C99.8031 87.6075 99.8718 87.6878 99.9136 87.7824L100.727 89.2328L101.503 87.8471C101.551 87.7393 101.629 87.6469 101.727 87.5802C101.824 87.5134 101.939 87.4747 102.057 87.4683C102.13 87.4672 102.202 87.4815 102.269 87.5101C102.335 87.5388 102.395 87.5812 102.445 87.6346C102.499 87.6854 102.542 87.747 102.57 87.8155C102.599 87.8839 102.613 87.9577 102.611 88.0319C102.61 88.163 102.571 88.2912 102.5 88.4014L101.687 89.704L103.378 89.6578C103.457 89.6532 103.535 89.6656 103.609 89.6943C103.682 89.723 103.748 89.7673 103.803 89.8241C103.898 89.9347 103.95 90.0756 103.95 90.2213C103.95 90.3671 103.898 90.508 103.803 90.6186C103.748 90.6754 103.682 90.7196 103.609 90.7483C103.535 90.7771 103.457 90.7895 103.378 90.7849H101.669L102.426 91.9674C102.512 92.1101 102.56 92.2723 102.565 92.4385C102.568 92.5134 102.555 92.588 102.528 92.6579C102.501 92.7277 102.46 92.7914 102.408 92.845C102.359 92.8969 102.301 92.9383 102.236 92.9669C102.17 92.9955 102.1 93.0106 102.029 93.0113C101.915 93.0085 101.804 92.9731 101.709 92.9093C101.614 92.8455 101.539 92.7559 101.493 92.651L100.727 91.293L99.9597 92.651C99.9142 92.7594 99.8388 92.8526 99.7423 92.9196C99.6458 92.9867 99.5321 93.0249 99.4147 93.0298Z" fill="white"/>
<path d="M107.895 93.0295C107.823 93.0295 107.751 93.0148 107.684 92.9862C107.617 92.9576 107.557 92.9157 107.507 92.8632C107.452 92.8089 107.41 92.7441 107.381 92.6726C107.352 92.6011 107.339 92.5245 107.341 92.4475C107.341 92.3174 107.376 92.1897 107.442 92.0779L108.274 90.7846H106.574C106.495 90.7886 106.417 90.7759 106.344 90.7472C106.27 90.7185 106.204 90.6746 106.149 90.6183C106.054 90.5077 106.002 90.3668 106.002 90.221C106.002 90.0753 106.054 89.9344 106.149 89.8238C106.204 89.7675 106.27 89.7236 106.344 89.6949C106.417 89.6662 106.495 89.6535 106.574 89.6575L108.246 89.7037L107.433 88.5027C107.359 88.3797 107.318 88.2398 107.313 88.0962C107.311 88.0193 107.325 87.9426 107.353 87.8711C107.382 87.7996 107.425 87.7348 107.479 87.6805C107.531 87.6277 107.593 87.5858 107.661 87.5572C107.729 87.5287 107.803 87.514 107.877 87.5142C107.98 87.5127 108.082 87.5417 108.169 87.5975C108.256 87.6534 108.325 87.7337 108.366 87.8283L109.179 89.2787L109.955 87.893C110.004 87.7852 110.082 87.6928 110.179 87.626C110.277 87.5593 110.391 87.5206 110.51 87.5142C110.582 87.5131 110.654 87.5273 110.721 87.556C110.788 87.5846 110.848 87.6271 110.898 87.6805C110.952 87.7313 110.995 87.7929 111.023 87.8614C111.052 87.9298 111.066 88.0036 111.064 88.0778C111.063 88.2089 111.024 88.3371 110.953 88.4473L110.14 89.7499L111.831 89.7037C111.909 89.6991 111.988 89.7115 112.061 89.7402C112.135 89.7689 112.201 89.8132 112.256 89.87C112.351 89.9806 112.403 90.1215 112.403 90.2672C112.403 90.413 112.351 90.5539 112.256 90.6645C112.201 90.7213 112.135 90.7655 112.061 90.7942C111.988 90.8229 111.909 90.8354 111.831 90.8308H110.122L110.879 92.0133C110.965 92.156 111.012 92.3182 111.018 92.4844C111.02 92.5593 111.008 92.6339 110.981 92.7038C110.954 92.7736 110.913 92.8373 110.861 92.8909C110.812 92.9428 110.753 92.9842 110.688 93.0128C110.623 93.0414 110.553 93.0565 110.482 93.0572C110.368 93.0544 110.256 93.019 110.161 92.9552C110.066 92.8914 109.992 92.8018 109.946 92.6969L109.179 91.3389L108.412 92.6969C108.363 92.7926 108.289 92.8737 108.198 92.932C108.107 92.9903 108.003 93.0239 107.895 93.0295Z" fill="white"/>
<path d="M116.376 93.0295C116.303 93.0295 116.232 93.0148 116.165 92.9862C116.098 92.9576 116.038 92.9157 115.988 92.8632C115.933 92.8089 115.89 92.7441 115.862 92.6726C115.833 92.6011 115.819 92.5245 115.822 92.4475C115.826 92.318 115.861 92.1914 115.923 92.0779L116.755 90.7846H115.064C114.985 90.7905 114.906 90.7787 114.833 90.7499C114.759 90.7211 114.693 90.6761 114.639 90.6183C114.538 90.5105 114.482 90.3685 114.482 90.2211C114.482 90.0736 114.538 89.9316 114.639 89.8238C114.693 89.766 114.759 89.721 114.833 89.6922C114.906 89.6634 114.985 89.6516 115.064 89.6575L116.727 89.7037L115.942 88.4565C115.868 88.3335 115.826 88.1936 115.822 88.05C115.819 87.9745 115.832 87.8992 115.859 87.8287C115.886 87.7582 115.927 87.6939 115.98 87.6396C116.033 87.5853 116.095 87.5421 116.165 87.5126C116.235 87.4832 116.31 87.468 116.385 87.468C116.489 87.4665 116.59 87.4955 116.677 87.5513C116.764 87.6072 116.833 87.6875 116.875 87.7821L117.688 89.2325L118.464 87.8468C118.513 87.739 118.59 87.6466 118.688 87.5799C118.786 87.5131 118.9 87.4744 119.018 87.468C119.091 87.4657 119.163 87.4794 119.23 87.5081C119.298 87.5368 119.357 87.5799 119.406 87.6343C119.46 87.6851 119.503 87.7467 119.532 87.8152C119.56 87.8836 119.574 87.9574 119.572 88.0316C119.571 88.1628 119.533 88.2909 119.461 88.4011L118.649 89.7037L120.339 89.6575C120.418 89.6529 120.496 89.6653 120.57 89.694C120.643 89.7227 120.709 89.767 120.764 89.8238C120.859 89.9344 120.911 90.0753 120.911 90.2211C120.911 90.3668 120.859 90.5077 120.764 90.6183C120.709 90.6751 120.643 90.7193 120.57 90.748C120.496 90.7768 120.418 90.7892 120.339 90.7846H118.63L119.388 91.9671C119.473 92.1098 119.521 92.272 119.526 92.4382C119.529 92.511 119.517 92.5836 119.491 92.6518C119.465 92.72 119.427 92.7825 119.377 92.8357C119.327 92.8889 119.267 92.9317 119.201 92.9618C119.135 92.9919 119.063 93.0086 118.99 93.011C118.876 93.0082 118.765 92.9728 118.67 92.909C118.575 92.8452 118.5 92.7556 118.454 92.6507L117.688 91.2927L116.921 92.6507C116.875 92.7591 116.8 92.8523 116.703 92.9193C116.607 92.9864 116.493 93.0246 116.376 93.0295Z" fill="white"/>
<path d="M124.856 93.0295C124.784 93.0295 124.712 93.0148 124.645 92.9862C124.579 92.9576 124.518 92.9157 124.468 92.8632C124.414 92.8089 124.371 92.7441 124.342 92.6726C124.314 92.6011 124.3 92.5245 124.302 92.4475C124.306 92.318 124.341 92.1914 124.404 92.0779L125.235 90.7846H123.535C123.458 90.7891 123.381 90.7766 123.309 90.7478C123.237 90.7191 123.172 90.6749 123.12 90.6183C123.019 90.5105 122.963 90.3685 122.963 90.2211C122.963 90.0736 123.019 89.9316 123.12 89.8238C123.172 89.7672 123.237 89.723 123.309 89.6943C123.381 89.6655 123.458 89.653 123.535 89.6575L125.207 89.7037L124.422 88.4565C124.348 88.3335 124.307 88.1936 124.302 88.05C124.3 87.9745 124.312 87.8992 124.34 87.8287C124.367 87.7582 124.408 87.6939 124.46 87.6396C124.513 87.5853 124.576 87.5421 124.646 87.5126C124.715 87.4832 124.79 87.468 124.866 87.468C124.969 87.4665 125.071 87.4955 125.158 87.5513C125.245 87.6072 125.313 87.6875 125.355 87.7821L126.168 89.2325L126.944 87.8468C126.993 87.739 127.071 87.6466 127.168 87.5799C127.266 87.5131 127.38 87.4744 127.499 87.468C127.571 87.4657 127.644 87.4794 127.711 87.5081C127.778 87.5368 127.838 87.5799 127.887 87.6343C127.941 87.6851 127.983 87.7467 128.012 87.8152C128.041 87.8836 128.055 87.9574 128.053 88.0316C128.052 88.1628 128.013 88.2909 127.942 88.4011L127.129 89.7037L128.82 89.6575C128.898 89.6529 128.977 89.6653 129.05 89.694C129.124 89.7227 129.19 89.767 129.245 89.8238C129.339 89.9344 129.392 90.0753 129.392 90.2211C129.392 90.3668 129.339 90.5077 129.245 90.6183C129.19 90.6751 129.124 90.7193 129.05 90.748C128.977 90.7768 128.898 90.7892 128.82 90.7846H127.11L127.868 91.9671C127.953 92.1098 128.001 92.272 128.007 92.4382C128.009 92.511 127.997 92.5836 127.972 92.6518C127.946 92.72 127.907 92.7825 127.857 92.8357C127.808 92.8889 127.748 92.9317 127.682 92.9618C127.615 92.9919 127.544 93.0086 127.471 93.011C127.356 93.0082 127.245 92.9728 127.15 92.909C127.055 92.8452 126.981 92.7556 126.935 92.6507L126.168 91.2927L125.401 92.6507C125.356 92.7591 125.28 92.8523 125.184 92.9193C125.087 92.9864 124.974 93.0246 124.856 93.0295Z" fill="white"/>
<path d="M133.3 93.0295C133.227 93.0295 133.155 93.0148 133.089 92.9862C133.022 92.9576 132.962 92.9157 132.912 92.8632C132.857 92.8089 132.814 92.7441 132.785 92.6726C132.757 92.6011 132.743 92.5245 132.745 92.4475C132.75 92.318 132.785 92.1914 132.847 92.0779L133.678 90.7846H131.979C131.901 90.7891 131.824 90.7766 131.752 90.7478C131.68 90.7191 131.616 90.6749 131.563 90.6183C131.462 90.5105 131.406 90.3685 131.406 90.2211C131.406 90.0736 131.462 89.9316 131.563 89.8238C131.616 89.7672 131.68 89.723 131.752 89.6943C131.824 89.6655 131.901 89.653 131.979 89.6575L133.651 89.7037L132.865 88.4565C132.791 88.3335 132.75 88.1936 132.745 88.05C132.743 87.9731 132.757 87.8965 132.785 87.825C132.814 87.7535 132.857 87.6886 132.912 87.6343C132.963 87.5815 133.025 87.5396 133.093 87.511C133.162 87.4825 133.235 87.4678 133.309 87.468C133.412 87.4665 133.514 87.4955 133.601 87.5513C133.688 87.6072 133.757 87.6875 133.799 87.7821L134.612 89.2325L135.388 87.8468C135.436 87.739 135.514 87.6466 135.612 87.5799C135.709 87.5131 135.824 87.4744 135.942 87.468C136.015 87.4657 136.087 87.4794 136.154 87.5081C136.221 87.5368 136.281 87.5799 136.33 87.6343C136.384 87.6851 136.427 87.7467 136.455 87.8152C136.484 87.8836 136.498 87.9574 136.496 88.0316C136.495 88.1628 136.456 88.2909 136.385 88.4011L135.572 89.7037L137.263 89.6575C137.342 89.6529 137.42 89.6653 137.494 89.694C137.567 89.7227 137.633 89.767 137.688 89.8238C137.783 89.9344 137.835 90.0753 137.835 90.2211C137.835 90.3668 137.783 90.5077 137.688 90.6183C137.633 90.6751 137.567 90.7193 137.494 90.748C137.42 90.7768 137.342 90.7892 137.263 90.7846H135.554L136.311 91.9671C136.397 92.1098 136.445 92.272 136.45 92.4382C136.453 92.5131 136.44 92.5877 136.413 92.6576C136.386 92.7274 136.345 92.7911 136.293 92.8447C136.244 92.8966 136.186 92.938 136.121 92.9666C136.055 92.9952 135.985 93.0103 135.914 93.011C135.8 93.0082 135.689 92.9728 135.594 92.909C135.499 92.8452 135.424 92.7556 135.378 92.6507L134.612 91.2927L133.845 92.6507C133.799 92.7591 133.724 92.8523 133.627 92.9193C133.531 92.9864 133.417 93.0246 133.3 93.0295Z" fill="white"/>
<path d="M162.363 113.465H173.662" stroke="white" stroke-width="3" stroke-linecap="round" stroke-linejoin="round"/>
<path d="M5.6543 30.2739V105.317C5.6543 107.49 6.51763 109.574 8.05437 111.111C9.59111 112.648 11.6754 113.511 13.8487 113.511H151.638" stroke="white" stroke-width="3" stroke-linecap="round" stroke-linejoin="round"/>
<path d="M5.6543 10.3745V21.6268" stroke="white" stroke-width="3" stroke-linecap="round" stroke-linejoin="round"/>
</svg>
