<svg width="25" height="25" viewBox="0 0 25 25" fill="none" xmlns="http://www.w3.org/2000/svg">
<path d="M20.1975 6.34438L16.4475 2.59438C16.3778 2.52475 16.295 2.46954 16.204 2.4319C16.1129 2.39426 16.0154 2.37492 15.9168 2.375H8.41684C8.01901 2.375 7.63748 2.53304 7.35618 2.81434C7.07488 3.09564 6.91684 3.47718 6.91684 3.875V5.375H5.41684C5.01901 5.375 4.63748 5.53304 4.35618 5.81434C4.07487 6.09564 3.91684 6.47718 3.91684 6.875V20.375C3.91684 20.7728 4.07487 21.1544 4.35618 21.4357C4.63748 21.717 5.01901 21.875 5.41684 21.875H15.9168C16.3147 21.875 16.6962 21.717 16.9775 21.4357C17.2588 21.1544 17.4168 20.7728 17.4168 20.375V18.875H18.9168C19.3147 18.875 19.6962 18.717 19.9775 18.4357C20.2588 18.1544 20.4168 17.7728 20.4168 17.375V6.875C20.4169 6.77648 20.3976 6.67891 20.3599 6.58786C20.3223 6.49682 20.2671 6.41408 20.1975 6.34438ZM15.9168 20.375H5.41684V6.875H12.6065L15.9168 10.1853V18.11C15.9168 18.1156 15.9168 18.1203 15.9168 18.125C15.9168 18.1297 15.9168 18.1344 15.9168 18.14V20.375ZM18.9168 17.375H17.4168V9.875C17.4169 9.77648 17.3976 9.67891 17.3599 9.58786C17.3223 9.49682 17.2671 9.41408 17.1975 9.34437L13.4475 5.59438C13.3778 5.52475 13.295 5.46954 13.204 5.4319C13.1129 5.39426 13.0154 5.37492 12.9168 5.375H8.41684V3.875H15.6065L18.9168 7.18531V17.375ZM13.6668 14.375C13.6668 14.5739 13.5878 14.7647 13.4472 14.9053C13.3065 15.046 13.1158 15.125 12.9168 15.125H8.41684C8.21793 15.125 8.02716 15.046 7.88651 14.9053C7.74586 14.7647 7.66684 14.5739 7.66684 14.375C7.66684 14.1761 7.74586 13.9853 7.88651 13.8447C8.02716 13.704 8.21793 13.625 8.41684 13.625H12.9168C13.1158 13.625 13.3065 13.704 13.4472 13.8447C13.5878 13.9853 13.6668 14.1761 13.6668 14.375ZM13.6668 17.375C13.6668 17.5739 13.5878 17.7647 13.4472 17.9053C13.3065 18.046 13.1158 18.125 12.9168 18.125H8.41684C8.21793 18.125 8.02716 18.046 7.88651 17.9053C7.74586 17.7647 7.66684 17.5739 7.66684 17.375C7.66684 17.1761 7.74586 16.9853 7.88651 16.8447C8.02716 16.704 8.21793 16.625 8.41684 16.625H12.9168C13.1158 16.625 13.3065 16.704 13.4472 16.8447C13.5878 16.9853 13.6668 17.1761 13.6668 17.375Z" fill="#C59D4E"/>
</svg>
