<svg width="25" height="25" viewBox="0 0 25 25" fill="none" xmlns="http://www.w3.org/2000/svg">
<path d="M22.9615 11.0408L14.6281 3.17826C14.624 3.1747 14.6202 3.17088 14.6167 3.1668C14.3099 2.88777 13.91 2.73315 13.4953 2.73315C13.0806 2.73315 12.6808 2.88777 12.374 3.1668L12.3625 3.17826L4.03854 11.0408C3.86875 11.1969 3.73321 11.3866 3.64051 11.5978C3.54781 11.809 3.49996 12.0372 3.5 12.2678V21.8981C3.5 22.3401 3.67559 22.764 3.98816 23.0766C4.30072 23.3891 4.72464 23.5647 5.16667 23.5647H10.1667C10.6087 23.5647 11.0326 23.3891 11.3452 23.0766C11.6577 22.764 11.8333 22.3401 11.8333 21.8981V16.898H15.1667V21.8981C15.1667 22.3401 15.3423 22.764 15.6548 23.0766C15.9674 23.3891 16.3913 23.5647 16.8333 23.5647H21.8333C22.2754 23.5647 22.6993 23.3891 23.0118 23.0766C23.3244 22.764 23.5 22.3401 23.5 21.8981V12.2678C23.5 12.0372 23.4522 11.809 23.3595 11.5978C23.2668 11.3866 23.1313 11.1969 22.9615 11.0408ZM21.8333 21.8981H16.8333V16.898C16.8333 16.456 16.6577 16.0321 16.3452 15.7195C16.0326 15.407 15.6087 15.2314 15.1667 15.2314H11.8333C11.3913 15.2314 10.9674 15.407 10.6548 15.7195C10.3423 16.0321 10.1667 16.456 10.1667 16.898V21.8981H5.16667V12.2678L5.17813 12.2574L13.5 4.39805L21.8229 12.2553L21.8344 12.2658L21.8333 21.8981Z" fill="#F3F3F3"/>
</svg>
