<svg width="25" height="25" viewBox="0 0 25 25" fill="none" xmlns="http://www.w3.org/2000/svg">
<path d="M19.152 4.8999C18.3486 4.8999 17.7461 5.50241 17.7461 6.30576C17.7461 7.10911 18.3486 7.71162 19.152 7.71162C19.9553 7.71162 20.5578 7.10911 20.5578 6.30576C20.5578 5.50241 19.9553 4.8999 19.152 4.8999Z" fill="#F3F3F3"/>
<path d="M12.8261 6.70752C9.51225 6.70752 6.90137 9.41882 6.90137 12.6322C6.90137 15.8456 9.61266 18.5569 12.8261 18.5569C16.0394 18.5569 18.7507 15.8456 18.7507 12.6322C18.7507 9.41882 16.1399 6.70752 12.8261 6.70752ZM12.8261 16.4481C10.7173 16.4481 9.01015 14.741 9.01015 12.6322C9.01015 10.5234 10.7173 8.81631 12.8261 8.81631C14.9348 8.81631 16.642 10.5234 16.642 12.6322C16.642 14.741 14.9348 16.4481 12.8261 16.4481Z" fill="#F3F3F3"/>
<path d="M17.6457 0.481445H8.10594C3.98878 0.481445 0.775391 3.69483 0.775391 7.71157V17.2513C0.775391 21.2681 3.98878 24.4814 8.00552 24.4814H17.5453C21.562 24.4814 24.7754 21.2681 24.7754 17.2513V7.71157C24.8758 3.69483 21.6624 0.481445 17.6457 0.481445ZM22.5662 17.3517C22.5662 20.063 20.357 22.3727 17.5453 22.3727H8.00552C5.29422 22.3727 2.9846 20.1635 2.9846 17.3517V7.81199C2.9846 5.10069 5.1938 2.79107 8.00552 2.79107H17.5453C20.2566 2.79107 22.5662 5.00027 22.5662 7.81199V17.3517Z" fill="#F3F3F3"/>
</svg>
