<svg width="128" height="131" viewBox="0 0 128 131" fill="none" xmlns="http://www.w3.org/2000/svg">
<path d="M103.53 80.8724C95.4416 80.8724 88.8667 74.2972 88.8667 66.2149C88.8667 58.1326 95.4443 51.5278 103.53 51.5278C109.038 51.5278 114.017 54.5476 116.564 59.4056L127.051 53.899C122.46 45.133 113.454 39.6856 103.53 39.6856C90.1994 39.6856 79.12 49.5766 77.2811 62.4281L56.5762 8.79349C53.8811 1.80387 46.2373 -1.7192 39.1561 0.826886L38.4453 1.06373L61.848 61.653L1.23581 36.246L0.939641 36.9565C-1.75549 43.9461 1.53199 51.6732 8.4354 54.5772L62.1146 77.0533C50.354 79.777 41.5551 90.3193 41.5551 102.875C41.5551 117.503 53.4638 129.407 68.0999 129.407C71.6054 129.407 75.1406 128.696 78.3554 127.294C79.8632 126.637 81.3063 125.824 82.8841 125.34C84.5022 124.842 86.2577 124.638 87.9485 124.638C96.2143 124.638 102.167 130.413 102.463 130.709L110.877 122.358C110.463 121.943 103.293 114.835 92.5688 113.118C93.9015 109.98 94.642 106.514 94.642 102.872V102.221C94.5235 97.6318 93.25 93.3067 91.0583 89.606C94.79 91.5896 99.0279 92.7146 103.53 92.7146C112.98 92.7146 121.779 87.6494 126.488 79.4782L116.238 73.5544C113.602 78.1487 108.834 80.8724 103.53 80.8724ZM71.3577 67.2511H71.417C71.4762 67.2215 71.5354 67.2215 71.5947 67.2215C71.9501 67.2215 72.2758 67.2807 72.572 67.3695C72.8089 67.4584 73.0163 67.5472 73.2236 67.6656C73.4605 67.8136 73.6975 67.9913 73.8752 68.1689C74.4379 68.761 74.7933 69.5307 74.7933 70.4189C74.7933 72.1952 73.3717 73.6459 71.5947 73.6459C70.6469 73.6459 69.788 73.2315 69.1957 72.5801C69.0476 72.4321 68.9291 72.2545 68.8403 72.0472C68.6626 71.8104 68.5441 71.5439 68.4849 71.2479C68.396 70.9814 68.3664 70.715 68.3664 70.4189C68.3664 68.7314 69.6992 67.3399 71.3577 67.2511ZM68.0999 117.562C60.0118 117.562 53.4072 110.987 53.4072 102.875C53.4072 94.7897 60.0145 88.2173 68.0999 88.2173C76.188 88.2173 82.7925 94.7924 82.7925 102.875C82.7925 110.989 76.188 117.562 68.0999 117.562Z" fill="#C59D4E"/>
<path d="M77.7218 107.948L70.4496 103.095C70.455 103.025 70.4711 102.961 70.4711 102.891C70.4711 102.019 69.9945 101.265 69.2918 100.853V92.0121C69.2918 91.3554 68.7587 90.8198 68.1018 90.8198C67.4448 90.8198 66.9117 91.3527 66.9117 92.0121V100.853C66.209 101.265 65.7324 102.019 65.7324 102.891C65.7324 104.199 66.7932 105.262 68.1045 105.262C68.4545 105.262 68.783 105.181 69.0818 105.047L76.4026 109.934C76.6045 110.069 76.8361 110.136 77.0622 110.136C77.4472 110.136 77.8242 109.95 78.053 109.606C78.4165 109.054 78.2684 108.314 77.7218 107.948Z" fill="#C59D4E"/>
</svg>
