<svg width="25" height="25" viewBox="0 0 25 25" fill="none" xmlns="http://www.w3.org/2000/svg">
<path d="M2.7969 21.6043V21.604V6.604C2.7969 6.21861 2.95 5.849 3.22251 5.57649C3.49503 5.30398 3.86463 5.15088 4.25003 5.15088H20.75C21.1354 5.15088 21.505 5.30398 21.7775 5.57649C22.0501 5.849 22.2032 6.21861 22.2032 6.604V18.604C22.2032 18.9894 22.0501 19.359 21.7775 19.6315C21.505 19.904 21.1354 20.0571 20.75 20.0571H8.2344H8.21679L8.20353 20.0687L5.19228 22.704L5.1921 22.7038L5.18869 22.7075C5.18769 22.7086 5.18656 22.7096 5.18533 22.7104L5.18512 22.7101L5.18061 22.7139C4.92072 22.9347 4.59102 23.0563 4.25001 23.0571C4.0379 23.0567 3.82841 23.0102 3.63602 22.9209L3.63582 22.9208C3.38415 22.8053 3.17114 22.6197 3.02234 22.3862C2.87353 22.1527 2.79526 21.8812 2.7969 21.6043ZM20.75 18.6509H20.7969V18.604V6.604V6.55713H20.75H4.25003H4.20315V6.604V21.604V21.7075L4.28094 21.6392L7.28844 19.0011L7.28844 19.0011L7.2892 19.0004L7.2997 18.9908C7.56157 18.7711 7.89252 18.6507 8.23438 18.6509H8.2344H20.75ZM11.4219 12.604C11.4219 12.3908 11.4851 12.1823 11.6036 12.005C11.7221 11.8277 11.8904 11.6895 12.0874 11.6079C12.2844 11.5263 12.5012 11.505 12.7104 11.5466C12.9195 11.5882 13.1116 11.6909 13.2624 11.8417C13.4132 11.9924 13.5158 12.1845 13.5574 12.3937C13.599 12.6028 13.5777 12.8196 13.4961 13.0166C13.4145 13.2136 13.2763 13.382 13.099 13.5004C12.9217 13.6189 12.7133 13.6821 12.5 13.6821C12.2141 13.6821 11.9399 13.5685 11.7377 13.3664C11.5355 13.1642 11.4219 12.8899 11.4219 12.604ZM7.2969 12.604C7.2969 12.3908 7.36013 12.1823 7.4786 12.005C7.59706 11.8277 7.76544 11.6895 7.96245 11.6079C8.15945 11.5263 8.37622 11.505 8.58536 11.5466C8.79449 11.5882 8.9866 11.6909 9.13738 11.8417C9.28816 11.9924 9.39084 12.1845 9.43244 12.3937C9.47404 12.6028 9.45269 12.8196 9.37108 13.0166C9.28948 13.2136 9.1513 13.382 8.974 13.5004C8.7967 13.6189 8.58826 13.6821 8.37503 13.6821C8.08909 13.6821 7.81486 13.5685 7.61268 13.3664C7.41049 13.1642 7.2969 12.8899 7.2969 12.604ZM15.5469 12.604C15.5469 12.3908 15.6101 12.1823 15.7286 12.005C15.8471 11.8277 16.0154 11.6895 16.2124 11.6079C16.4094 11.5263 16.6262 11.505 16.8354 11.5466C17.0445 11.5882 17.2366 11.6909 17.3874 11.8417C17.5382 11.9924 17.6408 12.1845 17.6824 12.3937C17.724 12.6028 17.7027 12.8196 17.6211 13.0166C17.5395 13.2136 17.4013 13.382 17.224 13.5004C17.0467 13.6189 16.8383 13.6821 16.625 13.6821C16.3391 13.6821 16.0649 13.5685 15.8627 13.3664C15.6605 13.1642 15.5469 12.8899 15.5469 12.604Z" fill="#F3F3F3" stroke="#F3F3F3" stroke-width="0.09375"/>
</svg>
