<svg width="24" height="24" viewBox="0 0 24 24" fill="none" xmlns="http://www.w3.org/2000/svg">
<path d="M15.75 6C15.75 5.00544 15.3549 4.05161 14.6517 3.34835C13.9484 2.64509 12.9946 2.25 12 2.25C11.0054 2.25 10.0516 2.64509 9.34835 3.34835C8.64509 4.05161 8.25 5.00544 8.25 6V12C8.25 12.9946 8.64509 13.9484 9.34835 14.6517C10.0516 15.3549 11.0054 15.75 12 15.75C12.9946 15.75 13.9484 15.3549 14.6517 14.6517C15.3549 13.9484 15.75 12.9946 15.75 12V6Z" stroke="#AAA8BD" stroke-width="1.5" stroke-linecap="round" stroke-linejoin="round"/>
<path d="M12 18.75V21.75" stroke="#AAA8BD" stroke-width="1.5" stroke-linecap="round" stroke-linejoin="round"/>
<path d="M18.7126 12.75C18.5173 14.3931 17.7262 15.9074 16.489 17.0062C15.2519 18.105 13.6547 18.7119 12.0001 18.7119C10.3455 18.7119 8.74829 18.105 7.51117 17.0062C6.27404 15.9074 5.48289 14.3931 5.2876 12.75" stroke="#AAA8BD" stroke-width="1.5" stroke-linecap="round" stroke-linejoin="round"/>
</svg>
