<svg width="26" height="25" viewBox="0 0 26 25" fill="none" xmlns="http://www.w3.org/2000/svg">
<path d="M21.8541 16.9944C21.3198 16.0981 20.5255 13.5622 20.5255 10.25C20.5255 8.26088 19.7141 6.35322 18.2696 4.9467C16.8252 3.54018 14.8662 2.75 12.8234 2.75C10.7807 2.75 8.82165 3.54018 7.37723 4.9467C5.9328 6.35322 5.12133 8.26088 5.12133 10.25C5.12133 13.5631 4.32609 16.0981 3.79176 16.9944C3.65531 17.2222 3.58297 17.4811 3.58204 17.7449C3.58111 18.0086 3.65162 18.268 3.78646 18.4967C3.92131 18.7255 4.11571 18.9156 4.35007 19.0478C4.58443 19.1801 4.85046 19.2498 5.12133 19.25H9.05037C9.22807 20.0967 9.70064 20.8577 10.3882 21.4042C11.0757 21.9507 11.9359 22.2492 12.8234 22.2492C13.7109 22.2492 14.5712 21.9507 15.2587 21.4042C15.9462 20.8577 16.4188 20.0967 16.5965 19.25H20.5255C20.7963 19.2496 21.0622 19.1798 21.2965 19.0475C21.5307 18.9151 21.7249 18.725 21.8597 18.4963C21.9944 18.2676 22.0648 18.0083 22.0639 17.7446C22.0629 17.4809 21.9905 17.2222 21.8541 16.9944ZM12.8234 20.75C12.3457 20.7499 11.8798 20.6055 11.4898 20.3369C11.0998 20.0683 10.8049 19.6886 10.6457 19.25H15.0012C14.842 19.6886 14.5471 20.0683 14.1571 20.3369C13.767 20.6055 13.3011 20.7499 12.8234 20.75ZM5.12133 17.75C5.86266 16.5087 6.66175 13.6325 6.66175 10.25C6.66175 8.6587 7.31093 7.13258 8.46647 6.00736C9.62201 4.88214 11.1893 4.25 12.8234 4.25C14.4576 4.25 16.0249 4.88214 17.1804 6.00736C18.3359 7.13258 18.9851 8.6587 18.9851 10.25C18.9851 13.6297 19.7823 16.5059 20.5255 17.75H5.12133Z" fill="#F3F3F3"/>
</svg>
