<svg width="175" height="142" viewBox="0 0 175 142" fill="none" xmlns="http://www.w3.org/2000/svg">
<path d="M173.804 1H15.6133V134.272H173.804V1Z" fill="white" stroke="#3F3D51" stroke-width="0.985332" stroke-linecap="round" stroke-linejoin="round"/>
<path d="M47.4398 74.5561L47.3765 74.1294H46.9452H45.3863H44.9573L44.8921 74.5534L44.7323 75.5919H44.5824L45.7163 68.5H46.7277L47.8616 75.5919H47.5935L47.4398 74.5561ZM45.0524 73.4549L44.9669 74.0286H45.547H46.7684H47.3484L47.2629 73.4549L46.6522 69.3567L45.6632 69.3567L45.0524 73.4549Z" fill="#F3F3F3" stroke="#3F3D51"/>
<path d="M49.7696 68.5V74.2437C49.7696 74.5965 49.8467 74.9387 50.075 75.195C50.3132 75.4625 50.635 75.5473 50.9286 75.5473C51.2123 75.5473 51.5367 75.4721 51.7806 75.2072C52.0165 74.951 52.0955 74.6043 52.0955 74.2437V68.5H52.2928V74.1634C52.2928 74.7339 52.151 75.1035 51.946 75.3273C51.7477 75.5438 51.4237 75.6964 50.8964 75.6964C50.3691 75.6964 50.0451 75.5438 49.8468 75.3273C49.6418 75.1035 49.5 74.7339 49.5 74.1634V68.5H49.7696Z" fill="#F3F3F3" stroke="#3F3D51"/>
<path d="M54.5141 68.5H57.4295V68.6571H56.6036H56.1036V69.1571V75.5919H55.858V69.1571V68.6571H55.358H54.5185L54.5141 68.5Z" fill="#F3F3F3" stroke="#3F3D51"/>
<path d="M62.216 71.4714V68.5H62.5178V75.5919H62.216V72.6286V72.1286H61.716H60.2777H59.7777V72.6286V75.5919H59.5V68.5H59.7777V71.4714V71.9714H60.2777H61.716H62.216V71.4714Z" fill="#F3F3F3" stroke="#3F3D51"/>
<path d="M64.8018 71.4143L64.8089 71.9071H65.3018H66.5455V72.0643H65.3018H64.8018V72.5643V74.975V75.475H65.3018H66.9955V75.6321H64.5V68.5H66.9634V68.6571H65.2696H64.7624L64.7697 69.1643L64.8018 71.4143Z" fill="#F3F3F3" stroke="#3F3D51"/>
<path d="M69.6232 70.1416L68.6411 70.2741V75.6321H68.5V68.5H69.2249L70.4344 72.9525L71.417 72.8214V68.5H71.55V75.5919H71.1213L69.6232 70.1416Z" fill="#F3F3F3" stroke="#3F3D51"/>
<path d="M74.3339 68.6571H73.5V68.5H76.4375V68.6571H75.6036H75.1036V69.1571V75.5919H74.8339V69.1571V68.6571H74.3339Z" fill="#F3F3F3" stroke="#3F3D51"/>
<path d="M81.2928 73.6817V74.2518C81.2928 74.8223 81.151 75.1919 80.946 75.4157C80.7477 75.6322 80.4237 75.7848 79.8964 75.7848C79.3691 75.7848 79.0451 75.6322 78.8468 75.4157C78.6418 75.1919 78.5 74.8223 78.5 74.2518V70.0411C78.5 69.4673 78.6435 69.0953 78.8498 68.8701C79.0495 68.6521 79.3739 68.5 79.8964 68.5C80.4189 68.5 80.7433 68.6521 80.943 68.8701C81.1494 69.0953 81.2928 69.4673 81.2928 70.0411V70.3446H81.0955V69.9768C81.0955 69.624 81.0184 69.2818 80.7901 69.0255C80.5519 68.7581 80.2302 68.6732 79.9366 68.6732C79.643 68.6732 79.3212 68.7581 79.0831 69.0255C78.8548 69.2818 78.7777 69.624 78.7777 69.9768V74.3482C78.7777 74.6973 78.8511 75.0402 79.0786 75.2978C79.3172 75.5682 79.6413 75.6518 79.9366 75.6518C80.2174 75.6518 80.5459 75.582 80.7906 75.3113C81.0244 75.0527 81.0955 74.7037 81.0955 74.3482V73.6844L81.2928 73.6817Z" fill="#F3F3F3" stroke="#3F3D51"/>
<path d="M85.7618 74.3891L85.6985 73.9625H85.2672H83.7164H83.2874L83.2222 74.3864L83.0624 75.425H82.9125L84.0463 68.333H85.0574L86.1842 75.425H85.9155L85.7618 74.3891ZM83.3745 73.2879L83.289 73.8616H83.869H85.0905H85.6705L85.585 73.2879L84.9743 69.1897L83.9852 69.1897L83.3745 73.2879Z" fill="#F3F3F3" stroke="#3F3D51"/>
<path d="M87.0633 68.333H89.9902V68.4901H89.1804H88.6804V68.9901V75.425H88.4108V68.9901V68.4901H87.9108H87.0665L87.0633 68.333Z" fill="#F3F3F3" stroke="#3F3D51"/>
<path d="M91.8146 71.2401V71.7401H92.3146H93.5583V71.8973H92.3146H91.8146V72.3973V74.808V75.308H92.3146H94.0163V75.4651H91.5449V68.333H94.0163V68.4901H92.3146H91.8146V68.9901V71.2401Z" fill="#F3F3F3" stroke="#3F3D51"/>
<path d="M98.7849 73.238L98.7844 73.1668L98.7642 73.0986L97.3479 68.333H97.6344L98.5085 71.6488L98.992 73.4829L99.0706 73.1848V73.241V75.425H98.798L98.7849 73.238ZM99.4755 71.6489L100.35 68.333H100.508L99.1091 73.0387L99.4755 71.6489Z" fill="#F3F3F3" stroke="#3F3D51"/>
<path d="M101.895 69.7777C101.895 69.3988 102.045 69.0354 102.313 68.7675C102.581 68.4996 102.944 68.3491 103.323 68.3491C103.702 68.3491 104.065 68.4996 104.333 68.7675C104.601 69.0354 104.752 69.3988 104.752 69.7777V73.9884C104.752 74.3673 104.601 74.7306 104.333 74.9985C104.065 75.2664 103.702 75.417 103.323 75.417C102.944 75.417 102.581 75.2664 102.313 74.9985C102.045 74.7306 101.895 74.3673 101.895 73.9884V69.7777ZM102.164 74.0687C102.164 74.4215 102.241 74.7637 102.47 75.02C102.708 75.2875 103.029 75.3723 103.323 75.3723C103.612 75.3723 103.935 75.2922 104.175 75.0245C104.406 74.7678 104.482 74.4237 104.482 74.0687V69.6973C104.482 69.3446 104.405 69.0024 104.177 68.746C103.938 68.4786 103.617 68.3938 103.323 68.3938C103.029 68.3938 102.708 68.4786 102.47 68.746C102.241 69.0024 102.164 69.3446 102.164 69.6973V74.0687Z" fill="#F3F3F3" stroke="#3F3D51"/>
<path d="M106.785 68.333V74.0767C106.785 74.4295 106.862 74.7717 107.091 75.028C107.329 75.2955 107.651 75.3803 107.944 75.3803C108.228 75.3803 108.553 75.3048 108.795 75.037C109.028 74.78 109.103 74.4338 109.103 74.0767V68.333H109.308V73.9964C109.308 74.5669 109.167 74.9365 108.962 75.1603C108.763 75.3768 108.439 75.5294 107.912 75.5294C107.385 75.5294 107.061 75.3768 106.862 75.1603C106.657 74.9365 106.516 74.5669 106.516 73.9964V68.333H106.785Z" fill="#F3F3F3" stroke="#3F3D51"/>
<path d="M114.048 74.9107C114.037 75.0797 114.04 75.2489 114.059 75.4163L113.728 75.4202C113.708 75.2737 113.705 75.125 113.72 74.977L113.722 74.9528V74.9285V73.6589C113.722 73.2485 113.656 72.8484 113.414 72.5497C113.151 72.2245 112.775 72.1303 112.419 72.1303H111.977H111.477V72.6303V75.425H111.207V68.333H112.628C113.219 68.333 113.533 68.4708 113.706 68.6463C113.88 68.823 114.008 69.1343 114.008 69.6973V70.3321V70.3645L114.012 70.3967C114.041 70.6154 114.003 70.8376 113.904 71.0349C113.822 71.2 113.7 71.3414 113.549 71.4467C113.695 71.2081 113.746 70.9194 113.746 70.6214V69.8178C113.746 69.495 113.697 69.1489 113.482 68.8838C113.247 68.5951 112.914 68.516 112.613 68.5143L111.963 68.4905L111.445 68.4715V68.9901V71.4732V71.9732H111.945H112.483C112.533 71.9732 112.585 71.9713 112.638 71.967L112.568 72.0065L113.512 72.4006C113.855 72.544 114.048 72.8706 114.048 73.6589V74.9107Z" fill="#F3F3F3" stroke="#3F3D51"/>
<path d="M120.227 74.3891L120.164 73.9625H119.732H118.165H117.734L117.671 74.3891L117.517 75.425H117.372L118.534 68.333H119.545L120.651 75.425H120.381L120.227 74.3891ZM117.839 73.291L117.758 73.8616H118.334H119.556H120.141L120.049 73.2833L119.406 69.2253L118.418 69.233L117.839 73.291Z" fill="#F3F3F3" stroke="#3F3D51"/>
<path d="M125.002 73.418V73.9881C125.002 74.5572 124.859 74.927 124.653 75.1515C124.453 75.369 124.128 75.5211 123.605 75.5211C123.083 75.5211 122.758 75.369 122.558 75.1515C122.352 74.927 122.209 74.5572 122.209 73.9881V69.7774C122.209 69.2021 122.351 68.8305 122.556 68.6059C122.754 68.3889 123.078 68.2363 123.605 68.2363C124.133 68.2363 124.456 68.3889 124.655 68.6059C124.86 68.8305 125.002 69.2021 125.002 69.7774V70.081H124.796V69.7131C124.796 69.3603 124.719 69.0182 124.491 68.7618C124.253 68.4944 123.931 68.4095 123.638 68.4095C123.344 68.4095 123.022 68.4944 122.784 68.7618C122.556 69.0182 122.479 69.3603 122.479 69.7131V74.0845C122.479 74.4373 122.556 74.7795 122.784 75.0358C123.022 75.3032 123.344 75.3881 123.638 75.3881C123.917 75.3881 124.243 75.3172 124.487 75.0492C124.722 74.7919 124.796 74.4437 124.796 74.0845V73.4208L125.002 73.418Z" fill="#F3F3F3" stroke="#3F3D51"/>
<path d="M129.461 73.418V73.9881C129.461 74.5587 129.319 74.9282 129.114 75.1521C128.916 75.3685 128.592 75.5211 128.064 75.5211C127.537 75.5211 127.213 75.3685 127.015 75.152C126.81 74.9282 126.668 74.5587 126.668 73.9881V69.7774C126.668 69.2036 126.811 68.8317 127.018 68.6065C127.218 68.3884 127.542 68.2363 128.064 68.2363C128.587 68.2363 128.911 68.3884 129.111 68.6065C129.317 68.8317 129.461 69.2036 129.461 69.7774V70.081H129.255V69.7131C129.255 69.364 129.182 69.0211 128.955 68.7634C128.716 68.4931 128.392 68.4095 128.097 68.4095C127.801 68.4095 127.477 68.4931 127.239 68.7634C127.011 69.0211 126.938 69.364 126.938 69.7131V74.0845C126.938 74.4373 127.015 74.7795 127.243 75.0358C127.481 75.3032 127.803 75.3881 128.097 75.3881C128.376 75.3881 128.702 75.3172 128.946 75.0492C129.181 74.7919 129.255 74.4437 129.255 74.0845V73.4208L129.461 73.418Z" fill="#F3F3F3" stroke="#3F3D51"/>
<path d="M131.129 69.7776V69.7615L131.128 69.7454C131.115 69.5494 131.143 69.3528 131.209 69.1679C131.276 68.983 131.379 68.8136 131.514 68.6703C131.648 68.527 131.81 68.4128 131.991 68.3347C132.171 68.2566 132.365 68.2163 132.562 68.2163C132.758 68.2163 132.952 68.2566 133.133 68.3347C133.313 68.4128 133.475 68.527 133.61 68.6703L133.974 68.3283L133.61 68.6703C133.744 68.8136 133.848 68.983 133.914 69.1679C133.98 69.3528 134.008 69.5494 133.995 69.7454L133.994 69.7615V69.7776V73.9883V74.0044L133.995 74.0205C134.008 74.2165 133.98 74.4131 133.914 74.598C133.848 74.7829 133.744 74.9522 133.61 75.0956C133.475 75.2389 133.313 75.3531 133.133 75.4312C132.952 75.5093 132.758 75.5496 132.562 75.5496C132.365 75.5496 132.171 75.5093 131.991 75.4312C131.81 75.3531 131.648 75.2389 131.514 75.0956L131.149 75.4375L131.514 75.0956C131.379 74.9522 131.276 74.7829 131.209 74.598C131.143 74.4131 131.115 74.2165 131.128 74.0205L131.129 74.0044V73.9883V69.7776ZM131.407 74.0687C131.407 74.4177 131.48 74.7606 131.708 75.0183C131.946 75.2886 132.27 75.3722 132.566 75.3722C132.856 75.3722 133.182 75.2933 133.422 75.0228C133.652 74.7648 133.725 74.4199 133.725 74.0687V69.6972C133.725 69.3445 133.647 69.0023 133.419 68.7459C133.181 68.4785 132.859 68.3937 132.566 68.3937C132.272 68.3937 131.95 68.4785 131.712 68.7459C131.484 69.0023 131.407 69.3445 131.407 69.6972V74.0687Z" fill="#F3F3F3" stroke="#3F3D51"/>
<path d="M136.027 68.333V74.0767C136.027 74.4295 136.105 74.7717 136.333 75.028C136.571 75.2955 136.893 75.3803 137.186 75.3803C137.47 75.3803 137.795 75.3048 138.037 75.037C138.27 74.78 138.345 74.4338 138.345 74.0767V68.333H138.551V73.9964C138.551 74.5669 138.409 74.9365 138.204 75.1603C138.006 75.3768 137.682 75.5294 137.154 75.5294C136.627 75.5294 136.303 75.3768 136.105 75.1603C135.9 74.9365 135.758 74.5669 135.758 73.9964V68.333H136.027Z" fill="#F3F3F3" stroke="#3F3D51"/>
<path d="M141.533 69.9746L140.551 70.1071V75.4651H140.41V68.333H141.135L142.345 72.7855L143.327 72.6544V68.333H143.46V75.425H143.031L141.533 69.9746Z" fill="#F3F3F3" stroke="#3F3D51"/>
<path d="M145.816 68.4901H144.982V68.333H147.92V68.4901H147.086H146.586V68.9901V75.425H146.316V68.9901V68.4901H145.816Z" fill="#F3F3F3" stroke="#3F3D51"/>
<path d="M113.363 43.0162C114.957 33.1227 108.228 23.8106 98.3348 22.2171C88.4413 20.6236 79.1293 27.352 77.5357 37.2455C75.9422 47.1389 82.6706 56.451 92.5641 58.0445C102.458 59.6381 111.77 52.9096 113.363 43.0162Z" fill="#C59D4E"/>
<path d="M103.364 35.9474C103.364 37.5129 102.899 39.0432 102.03 40.3448C101.16 41.6465 99.9237 42.661 98.4774 43.26C97.0311 43.8591 95.4396 44.0159 93.9042 43.7105C92.3688 43.405 90.9585 42.6512 89.8515 41.5442C88.7445 40.4373 87.9907 39.0269 87.6853 37.4916C87.3799 35.9562 87.5366 34.3647 88.1357 32.9184C88.7348 31.4721 89.7493 30.2359 91.0509 29.3662C92.3526 28.4964 93.8829 28.0322 95.4484 28.0322C97.5476 28.0322 99.5609 28.8661 101.045 30.3505C102.53 31.8349 103.364 33.8482 103.364 35.9474Z" fill="#263238"/>
<path d="M82.4219 52.75C84.1122 54.4963 86.1364 55.8848 88.3741 56.8332C90.6118 57.7815 93.0174 58.2701 95.4477 58.2701C97.8781 58.2701 100.284 57.7815 102.521 56.8332C104.759 55.8848 106.783 54.4963 108.474 52.75V52.2276C108.475 51.311 108.295 50.4031 107.945 49.556C107.595 48.7088 107.081 47.9389 106.434 47.2904C105.786 46.6419 105.016 46.1274 104.17 45.7763C103.323 45.4253 102.415 45.2446 101.499 45.2446H89.4049C87.5529 45.2446 85.7767 45.9803 84.4672 47.2899C83.1576 48.5995 82.4219 50.3756 82.4219 52.2276V52.75Z" fill="#263238"/>
<path d="M149.826 90.5098H40.3633V103.817H149.826V90.5098Z" stroke="#AAAAAA" stroke-width="0.985332" stroke-miterlimit="10"/>
<path d="M149.826 110.462H40.3633V123.77H149.826V110.462Z" fill="#C59D4E" stroke="#AAAAAA" stroke-width="0.985332" stroke-miterlimit="10"/>
<path d="M77.0784 97.541V98.3445H75.1016V101.221H77.5123V102.025H74.1855V93.957H77.5123V94.7606H75.1016V97.5249L77.0784 97.541Z" fill="#BDBDBD"/>
<path d="M79.159 102.057H78.3555V93.957H79.5367L81.409 99.807V93.957H82.2126V102.057H81.2724L79.1992 95.5079L79.159 102.057Z" fill="#BDBDBD"/>
<path d="M84.2707 102.057V94.7767H82.752V93.9731H86.6412V94.7767H85.1627V102.057H84.2707Z" fill="#BDBDBD"/>
<path d="M90.1682 97.541V98.3445H88.1914V101.221H90.6022V102.025H87.2754V93.957H90.6022V94.7606H88.1914V97.5249L90.1682 97.541Z" fill="#BDBDBD"/>
<path d="M93.254 93.957C94.5316 93.957 95.062 94.6079 95.062 95.8052V96.4642C95.1174 96.8164 95.0471 97.1768 94.8634 97.4824C94.6798 97.788 94.3945 98.0192 94.0575 98.1356C94.7968 98.3526 95.07 98.9392 95.07 99.8231V101.085C95.0465 101.417 95.1016 101.75 95.2307 102.057H94.3227C94.1941 101.744 94.1417 101.406 94.17 101.069V99.8392C94.17 98.9231 93.7441 98.6338 92.9888 98.6338H92.3941V102.097H91.4941V93.957H93.254ZM93.029 97.774C93.7441 97.774 94.17 97.541 94.17 96.6651V95.8615C94.17 95.1383 93.9049 94.7526 93.2299 94.7526H92.3941V97.7499L93.029 97.774Z" fill="#BDBDBD"/>
<path d="M101.379 95.9094V96.6245H100.519V95.821C100.519 95.0897 100.23 94.6478 99.5706 94.6478C98.9117 94.6478 98.6224 95.0897 98.6224 95.821V100.096C98.6224 100.827 98.9197 101.269 99.5706 101.269C100.222 101.269 100.519 100.827 100.519 100.096V99.0433H101.379V100.048C101.379 101.277 100.792 102.089 99.5465 102.089C98.301 102.089 97.7305 101.285 97.7305 100.048V95.8612C97.7305 94.6397 98.309 93.8281 99.5465 93.8281C100.784 93.8281 101.379 94.6879 101.379 95.9094Z" fill="#BDBDBD"/>
<path d="M102.125 95.9095C102.125 94.672 102.736 93.8765 103.973 93.8765C105.211 93.8765 105.838 94.68 105.838 95.9095V100.096C105.838 101.326 105.227 102.137 103.973 102.137C102.72 102.137 102.125 101.334 102.125 100.096V95.9095ZM103.017 100.144C103.017 100.884 103.33 101.318 103.973 101.318C104.616 101.318 104.937 100.884 104.937 100.144V95.8693C104.937 95.1381 104.632 94.6961 103.973 94.6961C103.314 94.6961 103.017 95.1381 103.017 95.8693V100.144Z" fill="#BDBDBD"/>
<path d="M108.586 93.957C109.847 93.957 110.426 94.7204 110.426 95.974V100.056C110.426 101.294 109.847 102.057 108.586 102.057H106.689V93.957H108.586ZM108.586 101.189C109.229 101.189 109.542 100.787 109.542 100.048V95.8856C109.542 95.1463 109.229 94.7365 108.57 94.7365H107.597V101.165L108.586 101.189Z" fill="#BDBDBD"/>
<path d="M114.147 97.541V98.3445H112.17V101.221H114.581V102.025H111.246V93.957H114.581V94.7606H112.17V97.5249L114.147 97.541Z" fill="#BDBDBD"/>
<path d="M87.7346 113.982C88.9881 113.982 89.5667 114.785 89.5667 115.999V120.081C89.5667 121.319 88.9881 122.082 87.7346 122.082H85.8301V113.982H87.7346ZM87.7346 121.262C88.3854 121.262 88.6988 120.852 88.6988 120.113V115.951C88.6988 115.211 88.3854 114.81 87.7265 114.81H86.7703V121.238L87.7346 121.262Z" fill="#263238"/>
<path d="M90.3457 115.91C90.3457 114.673 90.9564 113.869 92.1939 113.869C93.4314 113.869 94.0582 114.673 94.0582 115.91V120.097C94.0954 120.358 94.0743 120.624 93.9962 120.876C93.9182 121.128 93.7853 121.36 93.6069 121.554C93.4286 121.749 93.2094 121.901 92.9651 122.001C92.7207 122.1 92.4573 122.144 92.1939 122.13C90.9564 122.13 90.3457 121.326 90.3457 120.097V115.91ZM91.2296 120.145C91.2296 120.884 91.543 121.31 92.1939 121.31C92.8448 121.31 93.1502 120.884 93.1502 120.145V115.91C93.1502 115.179 92.8528 114.737 92.1939 114.737C91.535 114.737 91.2296 115.179 91.2296 115.91V120.145Z" fill="#263238"/>
<path d="M95.7059 122.082H94.9023V113.982H96.0434L97.9157 119.84V113.982H98.7193V122.082H97.7791L95.7059 115.533V122.082Z" fill="#263238"/>
<path d="M102.52 117.574V118.377H100.543V121.262H102.954V122.066H99.627V113.982H102.962V114.786H100.551V117.55L102.52 117.574Z" fill="#263238"/>
<path d="M173.804 1H15.6133V7.44463H173.804V1Z" fill="#C59D4E" stroke="#AAAAAA" stroke-width="0.985332" stroke-linecap="round" stroke-linejoin="round"/>
<path d="M1.19727 85.833H2.37851" stroke="#263238" stroke-width="0.985332" stroke-linecap="round" stroke-linejoin="round"/>
<path d="M156.158 140.604V139.423" stroke="#263238" stroke-width="0.985332" stroke-linecap="round" stroke-linejoin="round"/>
</svg>
