<svg width="33" height="33" viewBox="0 0 33 33" fill="none" xmlns="http://www.w3.org/2000/svg">
<path d="M7.344 10.3519L7.33733 10.3613C7.19167 10.5818 6.96463 10.7357 6.70584 10.7893C6.44705 10.843 6.17755 10.792 5.95624 10.6475C5.73494 10.503 5.57983 10.2768 5.52482 10.0183C5.46981 9.75977 5.51937 9.49 5.66267 9.26793L6.476 9.79993L5.66267 9.2666L5.66533 9.26393L5.67067 9.25593L5.68533 9.23326C5.76375 9.11559 5.84647 9.00084 5.93333 8.88926C6.94003 7.5767 8.15636 6.43921 9.53333 5.52259C12.0613 3.85059 15.8013 2.57859 20.4933 4.20259C24.0267 5.42659 26.188 7.54126 27.5 9.69326V5.81459C27.5 5.54938 27.6054 5.29502 27.7929 5.10749C27.9804 4.91995 28.2348 4.81459 28.5 4.81459C28.7652 4.81459 29.0196 4.91995 29.2071 5.10749C29.3946 5.29502 29.5 5.54938 29.5 5.81459V16.5053C29.5019 16.6075 29.5019 16.7097 29.5 16.8119V16.8533L29.4293 16.8506L29.5 16.8533C29.4951 16.9846 29.4644 17.1137 29.4096 17.2331C29.3548 17.3526 29.277 17.46 29.1807 17.5494C29.0844 17.6388 28.9714 17.7084 28.8482 17.7541C28.725 17.7998 28.594 17.8208 28.4627 17.8159C28.3313 17.811 28.2023 17.7803 28.0828 17.7255C27.9634 17.6707 27.8559 17.593 27.7665 17.4966C27.6771 17.4003 27.6076 17.2873 27.5618 17.1641C27.5161 17.0409 27.4951 16.9099 27.5 16.7786V16.7773L27.5453 16.7786L27.5013 16.7653V16.7119C27.5013 16.6586 27.5013 16.5773 27.4973 16.4693C27.4866 16.1568 27.4621 15.8449 27.424 15.5346C27.2968 14.4854 27.0378 13.4564 26.6533 12.4719C25.7373 10.1453 23.844 7.4786 19.84 6.09326C15.8667 4.71726 12.772 5.77859 10.6347 7.1906C9.44824 7.98191 8.39965 8.96248 7.53067 10.0933C7.46656 10.1781 7.40433 10.2644 7.344 10.3519ZM14.3653 14.1479H12.5C12.2348 14.1479 11.9804 14.2533 11.7929 14.4408C11.6054 14.6284 11.5 14.8827 11.5 15.1479C11.5 15.4131 11.6054 15.6675 11.7929 15.855C11.9804 16.0426 12.2348 16.1479 12.5 16.1479H15.5V18.1479H12.5C12.2348 18.1479 11.9804 18.2533 11.7929 18.4408C11.6054 18.6284 11.5 18.8827 11.5 19.1479C11.5 19.4131 11.6054 19.6675 11.7929 19.855C11.9804 20.0426 12.2348 20.1479 12.5 20.1479H15.5V23.1479C15.5 23.4131 15.6054 23.6675 15.7929 23.855C15.9804 24.0426 16.2348 24.1479 16.5 24.1479C16.7652 24.1479 17.0196 24.0426 17.2071 23.855C17.3946 23.6675 17.5 23.4131 17.5 23.1479V20.1479H20.5C20.7652 20.1479 21.0196 20.0426 21.2071 19.855C21.3946 19.6675 21.5 19.4131 21.5 19.1479C21.5 18.8827 21.3946 18.6284 21.2071 18.4408C21.0196 18.2533 20.7652 18.1479 20.5 18.1479H17.5V16.1479H20.5C20.6576 16.148 20.813 16.1107 20.9535 16.0393C21.094 15.9678 21.2156 15.8642 21.3084 15.7368C21.4012 15.6094 21.4626 15.4619 21.4876 15.3062C21.5125 15.1506 21.5003 14.9913 21.452 14.8413L27.5013 16.7639V16.7773H27.544L27.5013 16.7639L21.452 14.8399C21.3869 14.6387 21.2596 14.4634 21.0886 14.339C20.9175 14.2147 20.7115 14.1478 20.5 14.1479H19.276L18.7693 13.9879L20.6013 11.7879C20.6891 11.6876 20.756 11.5707 20.7979 11.4441C20.8399 11.3175 20.8561 11.1838 20.8456 11.0509C20.8351 10.918 20.7982 10.7885 20.7369 10.6701C20.6756 10.5516 20.5913 10.4466 20.4889 10.3613C20.3864 10.2759 20.268 10.2119 20.1404 10.173C20.0129 10.1341 19.8789 10.1211 19.7462 10.1348C19.6136 10.1484 19.485 10.1885 19.3681 10.2526C19.2511 10.3166 19.1482 10.4035 19.0653 10.5079L16.712 13.3319L16.136 13.1493L13.936 10.5079C13.7663 10.3041 13.5225 10.176 13.2583 10.1519C12.9941 10.1277 12.7312 10.2095 12.5273 10.3793C12.3235 10.549 12.1954 10.7928 12.1713 11.0569C12.1471 11.3211 12.2289 11.5841 12.3987 11.7879L14.3653 14.1479ZM16.712 13.3319L16.5 13.5853L16.136 13.1493L16.712 13.3319ZM18.7693 13.9866L19.276 14.1479H18.636L18.7693 13.9879V13.9866ZM4.5 15.4813C4.76522 15.4813 5.01957 15.5866 5.20711 15.7742C5.39464 15.9617 5.5 16.216 5.5 16.4813V16.4919L5.50133 16.5546L5.51467 16.8199C5.62684 18.2752 5.97447 19.7027 6.544 21.0466C7.57867 23.4586 9.61867 26.1093 13.7507 27.1799C17.9227 28.2613 20.8693 27.1053 22.788 25.7133C23.5995 25.1218 24.327 24.423 24.9507 23.6359C25.1828 23.3435 25.3973 23.0377 25.5933 22.7199L25.62 22.6746L25.6227 22.6679C25.75 22.4352 25.9645 22.2627 26.219 22.1881C26.4736 22.1136 26.7473 22.1433 26.98 22.2706C27.2127 22.3979 27.3853 22.6124 27.4598 22.867C27.5343 23.1215 27.5046 23.3952 27.3773 23.6279C27.3773 23.6279 27.3773 23.6253 27.268 23.5666L26.5 23.1479L27.3773 23.6279L27.3747 23.6319L27.3707 23.6399L27.3573 23.6626C27.2909 23.7772 27.2216 23.8902 27.1493 24.0013C26.953 24.3034 26.7426 24.5962 26.5187 24.8786C25.7816 25.8083 24.9217 26.6336 23.9627 27.3319C21.6307 29.0239 18.0773 30.3679 13.2493 29.1159C9.26667 28.0839 6.896 25.7653 5.5 23.4026V27.1479C5.5 27.4131 5.39464 27.6675 5.20711 27.855C5.01957 28.0426 4.76522 28.1479 4.5 28.1479C4.23478 28.1479 3.98043 28.0426 3.79289 27.855C3.60536 27.6675 3.5 27.4131 3.5 27.1479V16.4813C3.5 16.216 3.60536 15.9617 3.79289 15.7742C3.98043 15.5866 4.23478 15.4813 4.5 15.4813Z" fill="#333333"/>
</svg>
