<svg width="14" height="15" viewBox="0 0 14 15" fill="none" xmlns="http://www.w3.org/2000/svg">
<path fill-rule="evenodd" clip-rule="evenodd" d="M4.52067 4.87516C4.52067 4.54959 4.5848 4.22721 4.70939 3.92643C4.83398 3.62564 5.01659 3.35234 5.2468 3.12213C5.47701 2.89192 5.75032 2.7093 6.0511 2.58471C6.35189 2.46012 6.67427 2.396 6.99984 2.396C7.32541 2.396 7.64779 2.46012 7.94857 2.58471C8.24936 2.7093 8.52266 2.89192 8.75287 3.12213C8.98309 3.35234 9.1657 3.62564 9.29029 3.92643C9.41488 4.22721 9.47901 4.54959 9.479 4.87516C9.479 5.53268 9.21781 6.16326 8.75287 6.6282C8.28794 7.09313 7.65735 7.35433 6.99984 7.35433C6.34232 7.35433 5.71174 7.09313 5.2468 6.6282C4.78187 6.16326 4.52067 5.53268 4.52067 4.87516ZM6.99984 3.271C6.57439 3.271 6.16636 3.44001 5.86552 3.74085C5.56468 4.04168 5.39567 4.44971 5.39567 4.87516C5.39567 5.30061 5.56468 5.70864 5.86552 6.00948C6.16636 6.31032 6.57439 6.47933 6.99984 6.47933C7.42529 6.47933 7.83332 6.31032 8.13416 6.00948C8.435 5.70864 8.604 5.30061 8.604 4.87516C8.604 4.44971 8.435 4.04168 8.13416 3.74085C7.83332 3.44001 7.42529 3.271 6.99984 3.271ZM4.6665 9.10433C4.31841 9.10433 3.98457 9.24261 3.73843 9.48875C3.49229 9.73489 3.354 10.0687 3.354 10.4168V11.1098C3.354 11.1203 3.36159 11.1297 3.37209 11.1314C5.77484 11.5234 8.22542 11.5234 10.6276 11.1314C10.6325 11.1303 10.637 11.1276 10.6403 11.1237C10.6435 11.1198 10.6454 11.1149 10.6457 11.1098V10.4168C10.6457 10.0687 10.5074 9.73489 10.2612 9.48875C10.0151 9.24261 9.68127 9.10433 9.33317 9.10433H9.13484C9.11923 9.1046 9.10374 9.10695 9.08876 9.11133L8.58417 9.27641C7.5547 9.61257 6.44498 9.61257 5.4155 9.27641L4.91034 9.11133C4.89573 9.10705 4.88063 9.1047 4.86542 9.10433H4.6665ZM2.479 10.4168C2.479 9.83667 2.70947 9.28027 3.11971 8.87003C3.52994 8.4598 4.08634 8.22933 4.6665 8.22933H4.86484C4.97373 8.22972 5.0795 8.24644 5.18217 8.2795L5.68734 8.44458C6.54019 8.723 7.45949 8.723 8.31234 8.44458L8.8175 8.2795C8.91959 8.24625 9.02692 8.22933 9.13426 8.22933H9.33317C9.91333 8.22933 10.4697 8.4598 10.88 8.87003C11.2902 9.28027 11.5207 9.83667 11.5207 10.4168V11.1098C11.5207 11.5497 11.2022 11.9242 10.7682 11.9947C8.27246 12.4021 5.72721 12.4021 3.2315 11.9947C3.02161 11.9602 2.83078 11.8523 2.69298 11.6903C2.55518 11.5282 2.47936 11.3225 2.479 11.1098V10.4168Z" fill="#C59D4E"/>
</svg>
