<svg width="25" height="25" viewBox="0 0 25 25" fill="none" xmlns="http://www.w3.org/2000/svg">
<path d="M22.4087 20.3566C20.9424 17.8881 18.6828 16.1181 16.0458 15.2791C17.3502 14.5229 18.3636 13.3708 18.9304 11.9995C19.4973 10.6282 19.5862 9.11368 19.1835 7.68845C18.7808 6.26322 17.9088 5.00611 16.7014 4.11017C15.494 3.21423 14.0179 2.729 12.4999 2.729C10.9819 2.729 9.50586 3.21423 8.29846 4.11017C7.09105 5.00611 6.21906 6.26322 5.81638 7.68845C5.4137 9.11368 5.5026 10.6282 6.06943 11.9995C6.63627 13.3708 7.64969 14.5229 8.95407 15.2791C6.31707 16.1172 4.05747 17.8872 2.59118 20.3566C2.53741 20.4419 2.50174 20.5369 2.48629 20.6359C2.47083 20.735 2.4759 20.836 2.50119 20.9331C2.52647 21.0301 2.57148 21.1213 2.63353 21.2012C2.69559 21.281 2.77345 21.348 2.86251 21.3981C2.95157 21.4482 3.05004 21.4804 3.15209 21.4928C3.25415 21.5053 3.35773 21.4977 3.45672 21.4705C3.55572 21.4433 3.64812 21.3971 3.72848 21.3346C3.80884 21.2721 3.87552 21.1946 3.92461 21.1066C5.73845 18.0541 8.94445 16.2316 12.4999 16.2316C16.0554 16.2316 19.2614 18.0541 21.0752 21.1066C21.1243 21.1946 21.191 21.2721 21.2714 21.3346C21.3517 21.3971 21.4441 21.4433 21.5431 21.4705C21.6421 21.4977 21.7457 21.5053 21.8478 21.4928C21.9498 21.4804 22.0483 21.4482 22.1373 21.3981C22.2264 21.348 22.3043 21.281 22.3663 21.2012C22.4284 21.1213 22.4734 21.0301 22.4987 20.9331C22.524 20.836 22.529 20.735 22.5136 20.6359C22.4981 20.5369 22.4624 20.4419 22.4087 20.3566ZM7.10846 9.48155C7.10846 8.4432 7.42466 7.42817 8.01709 6.56481C8.60951 5.70145 9.45154 5.02855 10.4367 4.63119C11.4219 4.23383 12.5059 4.12986 13.5518 4.33243C14.5976 4.535 15.5583 5.03502 16.3123 5.76924C17.0663 6.50347 17.5798 7.43893 17.7878 8.45733C17.9958 9.47573 17.8891 10.5313 17.481 11.4906C17.0729 12.45 16.3819 13.2699 15.4953 13.8468C14.6086 14.4236 13.5663 14.7316 12.4999 14.7316C11.0705 14.7301 9.70004 14.1765 8.68927 13.1922C7.67851 12.208 7.10999 10.8735 7.10846 9.48155Z" fill="#F3F3F3"/>
</svg>
