<svg width="156" height="47" viewBox="0 0 156 47" fill="none" xmlns="http://www.w3.org/2000/svg">
<path d="M20.6912 0.456543C23.5425 0.456543 26.1623 0.924853 28.5451 1.86416C30.9279 2.80346 33.0145 4.12495 34.8077 5.82862C36.5982 7.53229 37.9902 9.52394 38.981 11.8009C39.9718 14.0778 40.4672 16.5566 40.4672 19.2346C40.4672 21.9475 39.9718 24.4586 38.981 26.7732C37.9902 29.0852 36.5982 31.1037 34.8077 32.8236C33.0145 34.5461 30.9279 35.8837 28.5451 36.8392C26.1623 37.7946 23.5425 38.2737 20.6912 38.2737C17.8723 38.2737 15.2633 37.7946 12.8643 36.8392C10.4627 35.8837 8.36796 34.5434 6.57748 32.8236C4.78432 31.1011 3.39502 29.0852 2.4042 26.7732C1.41338 24.4613 0.917969 21.9475 0.917969 19.2346C0.917969 16.5566 1.41338 14.0697 2.4042 11.7767C3.39502 9.48088 4.78701 7.49192 6.57748 5.8044C8.36796 4.11688 10.4654 2.80616 12.8643 1.86685C15.2633 0.924855 17.8723 0.456543 20.6912 0.456543ZM20.7936 8.43661C19.4366 8.43661 18.1415 8.70575 16.9057 9.24403C15.6698 9.78232 14.5929 10.5494 13.6694 11.5398C12.7486 12.5303 12.027 13.6795 11.5046 14.9821C10.9823 16.2848 10.7212 17.7193 10.7212 19.2857C10.7212 20.8171 10.9823 22.2517 11.5046 23.5893C12.027 24.9296 12.7566 26.0923 13.6963 27.0855C14.636 28.0759 15.7129 28.851 16.9326 29.4055C18.1496 29.9626 19.4366 30.2398 20.7936 30.2398C22.1506 30.2398 23.4295 29.9626 24.6303 29.4055C25.8311 28.851 26.8812 28.0759 27.7885 27.0855C28.6932 26.095 29.3959 24.9296 29.9021 23.5893C30.4056 22.2517 30.6587 20.8171 30.6587 19.2857C30.6587 17.722 30.4056 16.2875 29.9021 14.9821C29.3986 13.6768 28.6932 12.5303 27.7885 11.5398C26.8839 10.5494 25.8311 9.78501 24.6303 9.24403C23.4295 8.70575 22.1506 8.43661 20.7936 8.43661ZM27.3685 35.1436C28.0632 36.3251 28.8736 37.2832 29.7944 38.0126C30.7152 38.742 31.6818 39.108 32.6915 39.108C33.5261 39.108 34.5008 38.8631 35.6127 38.3786C36.7247 37.8915 37.8394 37.2321 38.9514 36.3978L42.29 42.2408C40.898 43.4923 39.2368 44.4747 37.3063 45.1879C35.3758 45.9012 33.4884 46.2564 31.6441 46.2564C29.0351 46.2564 26.6766 45.4813 24.5738 43.9364C22.4683 42.3889 20.842 40.2922 19.6951 37.652L27.3685 35.1436Z" fill="white"/>
<path d="M73.865 13.289C72.683 11.7953 71.2722 10.611 69.6379 9.7417C68.0035 8.87237 66.3854 8.43636 64.7861 8.43636C63.3941 8.43636 62.091 8.70551 60.8713 9.24379C59.6543 9.78207 58.5935 10.5303 57.6888 11.4857C56.7841 12.4439 56.0895 13.5716 55.6022 14.8769C55.1148 16.1823 54.8725 17.598 54.8725 19.1294C54.8725 20.6608 55.1148 22.0765 55.6022 23.3818C56.0895 24.6872 56.7841 25.8256 57.6888 26.7972C58.5935 27.7715 59.6543 28.5278 60.8713 29.0661C62.0883 29.6044 63.3941 29.8735 64.7861 29.8735C66.3154 29.8735 67.8905 29.4833 69.5086 28.7001C71.1268 27.9169 72.578 26.8672 73.865 25.543L79.4491 31.4372C78.1271 32.8287 76.6301 34.0371 74.9608 35.0626C73.2915 36.088 71.5414 36.8793 69.7159 37.4364C67.8905 37.9935 66.0704 38.2707 64.2638 38.2707C61.5148 38.2707 58.9758 37.7917 56.6441 36.8362C54.3125 35.8808 52.2878 34.5404 50.5646 32.8206C48.8415 31.0981 47.4925 29.0822 46.5206 26.7703C45.5459 24.4584 45.0586 21.9446 45.0586 19.2316C45.0586 16.5537 45.5459 14.0776 46.5206 11.7979C47.4952 9.521 48.8684 7.52935 50.6427 5.82568C52.417 4.12202 54.4956 2.80053 56.8784 1.86122C59.2612 0.921915 61.8432 0.453613 64.6272 0.453613C66.4365 0.453613 68.2459 0.706606 70.0552 1.2099C71.8645 1.7132 73.5688 2.4345 75.1681 3.3738C76.7674 4.31311 78.1756 5.42736 79.3953 6.71116L73.865 13.289Z" fill="white"/>
<path d="M95.0513 22.5205C95.0513 24.8863 95.7379 26.7649 97.1137 28.1537C98.4869 29.5451 100.202 30.2395 102.254 30.2395C104.305 30.2395 105.966 29.5532 107.237 28.1779C108.505 26.8053 109.141 24.9186 109.141 22.5178V1.02686H118.691V22.5178C118.691 25.7179 118.021 28.4982 116.682 30.8639C115.342 33.2297 113.438 35.0545 110.969 36.341C108.497 37.6275 105.576 38.2707 102.202 38.2707C98.8288 38.2707 95.8887 37.6275 93.3847 36.341C90.8807 35.0545 88.9395 33.2297 87.5663 30.8639C86.1905 28.4982 85.5039 25.7179 85.5039 22.5178V1.02686H95.054V22.5205H95.0513Z" fill="white"/>
<path d="M124.639 1.02979H156V8.74878H145.042V37.5954H135.492V8.74878H124.639V1.02979Z" fill="white"/>
</svg>
