<svg width="119" height="12" viewBox="0 0 119 12" fill="none" xmlns="http://www.w3.org/2000/svg">
<path d="M3.45149 1.00005C3.26805 1.0016 3.09324 1.04248 2.96547 1.11373C2.8377 1.18497 2.76741 1.28074 2.77004 1.38001V10.6201C2.76875 10.6697 2.78569 10.719 2.8199 10.7651C2.85411 10.8111 2.90489 10.853 2.9693 10.8884C3.03372 10.9237 3.11047 10.9518 3.1951 10.971C3.27974 10.9901 3.37057 11 3.46231 11C3.55405 11 3.64488 10.9901 3.72952 10.971C3.81415 10.9518 3.8909 10.9237 3.95532 10.8884C4.01973 10.853 4.07051 10.8111 4.10472 10.7651C4.13893 10.719 4.15588 10.6697 4.15458 10.6201V1.38001C4.15591 1.32987 4.13862 1.2801 4.10375 1.23364C4.06887 1.18719 4.01712 1.14499 3.95155 1.10956C3.88599 1.07412 3.80794 1.04617 3.72205 1.02736C3.63615 1.00855 3.54415 0.999262 3.45149 1.00005ZM14.5278 1.00005C14.3443 1.0016 14.1695 1.04248 14.0418 1.11373C13.914 1.18497 13.8437 1.28074 13.8463 1.38001V10.6201C13.845 10.6697 13.862 10.719 13.8962 10.7651C13.9304 10.8111 13.9812 10.853 14.0456 10.8884C14.11 10.9237 14.1867 10.9518 14.2714 10.971C14.356 10.9901 14.4468 11 14.5386 11C14.6303 11 14.7212 10.9901 14.8058 10.971C14.8904 10.9518 14.9672 10.9237 15.0316 10.8884C15.096 10.853 15.1468 10.8111 15.181 10.7651C15.2152 10.719 15.2322 10.6697 15.2309 10.6201V1.38001C15.2322 1.32987 15.2149 1.2801 15.18 1.23364C15.1452 1.18719 15.0934 1.14499 15.0278 1.10956C14.9623 1.07412 14.8842 1.04617 14.7983 1.02736C14.7124 1.00855 14.6204 0.999262 14.5278 1.00005ZM6.21966 3.49541C6.12875 3.49611 6.03899 3.5065 5.9555 3.52598C5.872 3.54545 5.79642 3.57364 5.73306 3.60892C5.6697 3.6442 5.6198 3.68589 5.58621 3.73161C5.55262 3.77733 5.53601 3.82618 5.53731 3.87537V8.1208C5.53601 8.17044 5.55296 8.21973 5.58717 8.26579C5.62138 8.31185 5.67216 8.35378 5.73657 8.38913C5.80098 8.42448 5.87774 8.45255 5.96237 8.47171C6.04701 8.49087 6.13783 8.50074 6.22958 8.50074C6.32132 8.50074 6.41215 8.49087 6.49678 8.47171C6.58142 8.45255 6.65817 8.42448 6.72258 8.38913C6.78699 8.35378 6.83778 8.31185 6.87199 8.26579C6.9062 8.21973 6.92314 8.17044 6.92184 8.1208V3.87537C6.92317 3.82527 6.90591 3.77554 6.8711 3.72912C6.83628 3.6827 6.7846 3.64052 6.71913 3.6051C6.65367 3.56967 6.57573 3.54171 6.48994 3.52287C6.40414 3.50403 6.31224 3.49469 6.21966 3.49541ZM11.7587 3.49541C11.5753 3.49696 11.4005 3.53785 11.2727 3.60909C11.1449 3.68033 11.0746 3.7761 11.0773 3.87537V8.1208C11.076 8.17044 11.0929 8.21973 11.1271 8.26579C11.1613 8.31185 11.2121 8.35378 11.2765 8.38913C11.3409 8.42448 11.4177 8.45255 11.5023 8.47171C11.5869 8.49087 11.6778 8.50074 11.7695 8.50074C11.8613 8.50074 11.9521 8.49087 12.0367 8.47171C12.1214 8.45255 12.1981 8.42448 12.2625 8.38913C12.3269 8.35378 12.3777 8.31185 12.4119 8.26579C12.4461 8.21973 12.4631 8.17044 12.4618 8.1208V3.87537C12.4631 3.82523 12.4458 3.77546 12.411 3.72901C12.3761 3.68255 12.3243 3.64035 12.2588 3.60492C12.1932 3.56949 12.1152 3.54154 12.0293 3.52273C11.9434 3.50391 11.8514 3.49462 11.7587 3.49541ZM0.681522 4.2446C0.498079 4.24615 0.323273 4.28704 0.195501 4.35828C0.0677295 4.42953 -0.00256018 4.5253 7.13129e-05 4.62456V7.37161C-0.00122603 7.42125 0.0157215 7.47053 0.049929 7.5166C0.0841365 7.56266 0.134922 7.60458 0.199334 7.63993C0.263745 7.67528 0.340499 7.70336 0.425133 7.72252C0.509768 7.74168 0.600596 7.75154 0.692339 7.75154C0.784082 7.75154 0.87491 7.74168 0.959544 7.72252C1.04418 7.70336 1.12093 7.67528 1.18534 7.63993C1.24976 7.60458 1.30054 7.56266 1.33475 7.5166C1.36896 7.47053 1.3859 7.42125 1.38461 7.37161V4.62456C1.38594 4.57443 1.36865 4.52466 1.33378 4.4782C1.2989 4.43174 1.24715 4.38955 1.18158 4.35411C1.11602 4.31868 1.03797 4.29073 0.952075 4.27192C0.866178 4.25311 0.774176 4.24382 0.681522 4.2446ZM17.2968 4.2446C17.1134 4.24615 16.9386 4.28704 16.8108 4.35828C16.6831 4.42953 16.6128 4.5253 16.6154 4.62456V7.37161C16.6141 7.42125 16.631 7.47053 16.6653 7.5166C16.6995 7.56266 16.7502 7.60458 16.8147 7.63993C16.8791 7.67528 16.9558 7.70336 17.0405 7.72252C17.1251 7.74168 17.2159 7.75154 17.3077 7.75154C17.3994 7.75154 17.4902 7.74168 17.5749 7.72252C17.6595 7.70336 17.7363 7.67528 17.8007 7.63993C17.8651 7.60458 17.9159 7.56266 17.9501 7.5166C17.9843 7.47053 18.0012 7.42125 17.9999 7.37161V4.62456C18.0013 4.57443 17.984 4.52466 17.9491 4.4782C17.9142 4.43174 17.8625 4.38955 17.7969 4.35411C17.7313 4.31868 17.6533 4.29073 17.5674 4.27192C17.4815 4.25311 17.3895 4.24382 17.2968 4.2446ZM8.98783 4.74407C8.80439 4.74562 8.62958 4.7865 8.50181 4.85775C8.37404 4.92899 8.30375 5.02476 8.30638 5.12403V6.87215C8.30508 6.92179 8.32203 6.97107 8.35624 7.01713C8.39044 7.0632 8.44123 7.10512 8.50564 7.14047C8.57005 7.17582 8.64681 7.20389 8.73144 7.22305C8.81608 7.24221 8.9069 7.25208 8.99865 7.25208C9.09039 7.25208 9.18122 7.24221 9.26585 7.22305C9.35049 7.20389 9.42724 7.17582 9.49165 7.14047C9.55606 7.10512 9.60685 7.0632 9.64106 7.01713C9.67526 6.97107 9.69221 6.92179 9.69092 6.87215V5.12403C9.69224 5.07389 9.67496 5.02412 9.64008 4.97766C9.60521 4.93121 9.55346 4.88901 9.48789 4.85358C9.42232 4.81814 9.34428 4.79019 9.25838 4.77138C9.17249 4.75257 9.08048 4.74328 8.98783 4.74407Z" fill="#F3F3F3"/>
<path d="M22.4515 0.50005C22.2681 0.501756 22.0932 0.546732 21.9655 0.625099C21.8377 0.703466 21.7674 0.808816 21.77 0.918009V11.0821C21.7687 11.1367 21.7857 11.1909 21.8199 11.2416C21.8541 11.2922 21.9049 11.3383 21.9693 11.3772C22.0337 11.4161 22.1105 11.447 22.1951 11.4681C22.2797 11.4891 22.3706 11.5 22.4623 11.5C22.5541 11.5 22.6449 11.4891 22.7295 11.4681C22.8142 11.447 22.8909 11.4161 22.9553 11.3772C23.0197 11.3383 23.0705 11.2922 23.1047 11.2416C23.1389 11.1909 23.1559 11.1367 23.1546 11.0821V0.918009C23.1559 0.862858 23.1386 0.808109 23.1037 0.757007C23.0689 0.705905 23.0171 0.659491 22.9516 0.620514C22.886 0.581537 22.8079 0.550791 22.722 0.530099C22.6361 0.509407 22.5441 0.499188 22.4515 0.50005ZM33.5278 0.50005C33.3443 0.501756 33.1695 0.546732 33.0418 0.625099C32.914 0.703466 32.8437 0.808816 32.8463 0.918009V11.0821C32.845 11.1367 32.862 11.1909 32.8962 11.2416C32.9304 11.2922 32.9812 11.3383 33.0456 11.3772C33.11 11.4161 33.1868 11.447 33.2714 11.4681C33.356 11.4891 33.4468 11.5 33.5386 11.5C33.6303 11.5 33.7212 11.4891 33.8058 11.4681C33.8904 11.447 33.9672 11.4161 34.0316 11.3772C34.096 11.3383 34.1468 11.2922 34.181 11.2416C34.2152 11.1909 34.2322 11.1367 34.2309 11.0821V0.918009C34.2322 0.862858 34.2149 0.808109 34.18 0.757007C34.1452 0.705905 34.0934 0.659491 34.0278 0.620514C33.9623 0.581537 33.8842 0.550791 33.7983 0.530099C33.7124 0.509407 33.6204 0.499188 33.5278 0.50005ZM25.2197 3.24495C25.1288 3.24572 25.039 3.25715 24.9555 3.27857C24.872 3.3 24.7964 3.331 24.7331 3.36981C24.6697 3.40862 24.6198 3.45448 24.5862 3.50477C24.5526 3.55506 24.536 3.6088 24.5373 3.66291V8.33288C24.536 8.38749 24.553 8.4417 24.5872 8.49237C24.6214 8.54304 24.6722 8.58916 24.7366 8.62804C24.801 8.66693 24.8777 8.6978 24.9624 8.71888C25.047 8.73996 25.1378 8.75081 25.2296 8.75081C25.3213 8.75081 25.4121 8.73996 25.4968 8.71888C25.5814 8.6978 25.6582 8.66693 25.7226 8.62804C25.787 8.58916 25.8378 8.54304 25.872 8.49237C25.9062 8.4417 25.9231 8.38749 25.9218 8.33288V3.66291C25.9232 3.6078 25.9059 3.5531 25.8711 3.50203C25.8363 3.45097 25.7846 3.40458 25.7191 3.36561C25.6537 3.32664 25.5757 3.29588 25.4899 3.27516C25.4041 3.25443 25.3122 3.24416 25.2197 3.24495ZM30.7587 3.24495C30.5753 3.24665 30.4005 3.29163 30.2727 3.37C30.1449 3.44836 30.0746 3.55371 30.0773 3.66291V8.33288C30.076 8.38749 30.0929 8.4417 30.1271 8.49237C30.1613 8.54304 30.2121 8.58916 30.2765 8.62804C30.3409 8.66693 30.4177 8.6978 30.5023 8.71888C30.587 8.73996 30.6778 8.75081 30.7695 8.75081C30.8613 8.75081 30.9521 8.73996 31.0367 8.71888C31.1214 8.6978 31.1981 8.66693 31.2625 8.62804C31.3269 8.58916 31.3777 8.54304 31.4119 8.49237C31.4461 8.4417 31.4631 8.38749 31.4618 8.33288V3.66291C31.4631 3.60776 31.4458 3.55301 31.411 3.50191C31.3761 3.4508 31.3243 3.40439 31.2588 3.36541C31.1932 3.32644 31.1152 3.29569 31.0293 3.275C30.9434 3.25431 30.8514 3.24409 30.7587 3.24495ZM19.6815 4.06906C19.4981 4.07077 19.3233 4.11574 19.1955 4.19411C19.0677 4.27248 18.9974 4.37783 19.0001 4.48702V7.50877C18.9988 7.56337 19.0157 7.61758 19.0499 7.66825C19.0841 7.71892 19.1349 7.76504 19.1993 7.80393C19.2637 7.84281 19.3405 7.87369 19.4251 7.89477C19.5098 7.91584 19.6006 7.9267 19.6923 7.9267C19.7841 7.9267 19.8749 7.91584 19.9595 7.89477C20.0442 7.87369 20.1209 7.84281 20.1853 7.80393C20.2498 7.76504 20.3005 7.71892 20.3347 7.66825C20.369 7.61758 20.3859 7.56337 20.3846 7.50877V4.48702C20.3859 4.43187 20.3687 4.37712 20.3338 4.32602C20.2989 4.27492 20.2471 4.2285 20.1816 4.18953C20.116 4.15055 20.038 4.1198 19.9521 4.09911C19.8662 4.07842 19.7742 4.0682 19.6815 4.06906ZM36.2968 4.06906C36.1134 4.07077 35.9386 4.11574 35.8108 4.19411C35.6831 4.27248 35.6128 4.37783 35.6154 4.48702V7.50877C35.6141 7.56337 35.631 7.61758 35.6653 7.66825C35.6995 7.71892 35.7502 7.76504 35.8147 7.80393C35.8791 7.84281 35.9558 7.87369 36.0405 7.89477C36.1251 7.91584 36.2159 7.9267 36.3077 7.9267C36.3994 7.9267 36.4902 7.91584 36.5749 7.89477C36.6595 7.87369 36.7363 7.84281 36.8007 7.80393C36.8651 7.76504 36.9159 7.71892 36.9501 7.66825C36.9843 7.61758 37.0012 7.56337 36.9999 7.50877V4.48702C37.0013 4.43187 36.984 4.37712 36.9491 4.32602C36.9142 4.27492 36.8625 4.2285 36.7969 4.18953C36.7313 4.15055 36.6533 4.1198 36.5674 4.09911C36.4815 4.07842 36.3895 4.0682 36.2968 4.06906ZM27.9878 4.61847C27.8044 4.62018 27.6296 4.66515 27.5018 4.74352C27.374 4.82189 27.3037 4.92724 27.3064 5.03643V6.95936C27.3051 7.01396 27.322 7.06818 27.3562 7.11884C27.3904 7.16952 27.4412 7.21563 27.5056 7.25452C27.5701 7.2934 27.6468 7.32428 27.7314 7.34536C27.8161 7.36643 27.9069 7.37729 27.9986 7.37729C28.0904 7.37729 28.1812 7.36643 28.2659 7.34536C28.3505 7.32428 28.4272 7.2934 28.4917 7.25452C28.5561 7.21563 28.6069 7.16952 28.6411 7.11884C28.6753 7.06818 28.6922 7.01396 28.6909 6.95936V5.03643C28.6922 4.98128 28.675 4.92653 28.6401 4.87543C28.6052 4.82433 28.5535 4.77791 28.4879 4.73893C28.4223 4.69996 28.3443 4.66921 28.2584 4.64852C28.1725 4.62783 28.0805 4.61761 27.9878 4.61847Z" fill="#F3F3F3"/>
<path d="M41.835 0.50005C41.6312 0.501756 41.4369 0.546732 41.295 0.625099C41.153 0.703466 41.0749 0.808816 41.0778 0.918009V11.0821C41.0764 11.1367 41.0952 11.1909 41.1332 11.2416C41.1712 11.2922 41.2277 11.3383 41.2992 11.3772C41.3708 11.4161 41.4561 11.447 41.5501 11.4681C41.6442 11.4891 41.7451 11.5 41.847 11.5C41.9489 11.5 42.0499 11.4891 42.1439 11.4681C42.2379 11.447 42.3232 11.4161 42.3948 11.3772C42.4664 11.3383 42.5228 11.2922 42.5608 11.2416C42.5988 11.1909 42.6176 11.1367 42.6162 11.0821V0.918009C42.6177 0.862858 42.5985 0.808109 42.5597 0.757007C42.521 0.705905 42.4635 0.659491 42.3906 0.620514C42.3178 0.581537 42.231 0.550791 42.1356 0.530099C42.0402 0.509407 41.9379 0.499188 41.835 0.50005ZM54.142 0.50005C53.9381 0.501756 53.7439 0.546732 53.6019 0.625099C53.46 0.703466 53.3819 0.808816 53.3848 0.918009V11.0821C53.3834 11.1367 53.4022 11.1909 53.4402 11.2416C53.4782 11.2922 53.5346 11.3383 53.6062 11.3772C53.6778 11.4161 53.7631 11.447 53.8571 11.4681C53.9511 11.4891 54.0521 11.5 54.154 11.5C54.2559 11.5 54.3568 11.4891 54.4509 11.4681C54.5449 11.447 54.6302 11.4161 54.7018 11.3772C54.7733 11.3383 54.8298 11.2922 54.8678 11.2416C54.9058 11.1909 54.9246 11.1367 54.9232 11.0821V0.918009C54.9247 0.862858 54.9054 0.808109 54.8667 0.757007C54.828 0.705905 54.7704 0.659491 54.6976 0.620514C54.6247 0.581537 54.538 0.550791 54.4426 0.530099C54.3471 0.509407 54.2449 0.499188 54.142 0.50005ZM44.9107 3.24495C44.8097 3.24572 44.71 3.25715 44.6172 3.27857C44.5245 3.3 44.4405 3.331 44.3701 3.36981C44.2997 3.40862 44.2442 3.45448 44.2069 3.50477C44.1696 3.55506 44.1511 3.6088 44.1526 3.66291V8.33288C44.1511 8.38749 44.17 8.4417 44.208 8.49237C44.246 8.54304 44.3024 8.58916 44.374 8.62804C44.4455 8.66693 44.5308 8.6978 44.6249 8.71888C44.7189 8.73996 44.8198 8.75081 44.9218 8.75081C45.0237 8.75081 45.1246 8.73996 45.2186 8.71888C45.3127 8.6978 45.398 8.66693 45.4695 8.62804C45.5411 8.58916 45.5975 8.54304 45.6355 8.49237C45.6736 8.4417 45.6924 8.38749 45.6909 8.33288V3.66291C45.6924 3.6078 45.6732 3.5531 45.6346 3.50203C45.5959 3.45097 45.5385 3.40458 45.4657 3.36561C45.393 3.32664 45.3064 3.29588 45.211 3.27516C45.1157 3.25443 45.0136 3.24416 44.9107 3.24495ZM51.0652 3.24495C50.8614 3.24665 50.6672 3.29163 50.5252 3.37C50.3832 3.44836 50.3051 3.55371 50.3081 3.66291V8.33288C50.3066 8.38749 50.3254 8.4417 50.3635 8.49237C50.4015 8.54304 50.4579 8.58916 50.5295 8.62804C50.601 8.66693 50.6863 8.6978 50.7804 8.71888C50.8744 8.73996 50.9753 8.75081 51.0772 8.75081C51.1792 8.75081 51.2801 8.73996 51.3741 8.71888C51.4682 8.6978 51.5535 8.66693 51.625 8.62804C51.6966 8.58916 51.753 8.54304 51.791 8.49237C51.829 8.4417 51.8479 8.38749 51.8464 8.33288V3.66291C51.8479 3.60776 51.8287 3.55301 51.79 3.50191C51.7512 3.4508 51.6937 3.40439 51.6209 3.36541C51.548 3.32644 51.4613 3.29569 51.3658 3.275C51.2704 3.25431 51.1682 3.24409 51.0652 3.24495ZM38.7572 4.06906C38.5534 4.07077 38.3592 4.11574 38.2172 4.19411C38.0753 4.27248 37.9972 4.37783 38.0001 4.48702V7.50877C37.9986 7.56337 38.0175 7.61758 38.0555 7.66825C38.0935 7.71892 38.1499 7.76504 38.2215 7.80393C38.2931 7.84281 38.3783 7.87369 38.4724 7.89477C38.5664 7.91584 38.6673 7.9267 38.7693 7.9267C38.8712 7.9267 38.9721 7.91584 39.0662 7.89477C39.1602 7.87369 39.2455 7.84281 39.317 7.80393C39.3886 7.76504 39.445 7.71892 39.4831 7.66825C39.5211 7.61758 39.5399 7.56337 39.5385 7.50877V4.48702C39.5399 4.43187 39.5207 4.37712 39.482 4.32602C39.4432 4.27492 39.3857 4.2285 39.3129 4.18953C39.24 4.15055 39.1533 4.1198 39.0579 4.09911C38.9624 4.07842 38.8602 4.0682 38.7572 4.06906ZM57.2187 4.06906C57.0149 4.07077 56.8207 4.11574 56.6787 4.19411C56.5367 4.27248 56.4586 4.37783 56.4615 4.48702V7.50877C56.4601 7.56337 56.4789 7.61758 56.5169 7.66825C56.555 7.71892 56.6114 7.76504 56.683 7.80393C56.7545 7.84281 56.8398 7.87369 56.9338 7.89477C57.0279 7.91584 57.1288 7.9267 57.2307 7.9267C57.3327 7.9267 57.4336 7.91584 57.5276 7.89477C57.6217 7.87369 57.707 7.84281 57.7785 7.80393C57.8501 7.76504 57.9065 7.71892 57.9445 7.66825C57.9825 7.61758 58.0014 7.56337 57.9999 7.50877V4.48702C58.0014 4.43187 57.9822 4.37712 57.9434 4.32602C57.9047 4.27492 57.8472 4.2285 57.7743 4.18953C57.7015 4.15055 57.6148 4.1198 57.5193 4.09911C57.4239 4.07842 57.3217 4.0682 57.2187 4.06906ZM47.9865 4.61847C47.7827 4.62018 47.5884 4.66515 47.4465 4.74352C47.3045 4.82189 47.2264 4.92724 47.2293 5.03643V6.95936C47.2279 7.01396 47.2467 7.06818 47.2847 7.11884C47.3227 7.16952 47.3791 7.21563 47.4507 7.25452C47.5223 7.2934 47.6076 7.32428 47.7016 7.34536C47.7956 7.36643 47.8966 7.37729 47.9985 7.37729C48.1004 7.37729 48.2014 7.36643 48.2954 7.34536C48.3894 7.32428 48.4747 7.2934 48.5463 7.25452C48.6179 7.21563 48.6743 7.16952 48.7123 7.11884C48.7503 7.06818 48.7691 7.01396 48.7677 6.95936V5.03643C48.7692 4.98128 48.75 4.92653 48.7112 4.87543C48.6725 4.82433 48.615 4.77791 48.5421 4.73893C48.4693 4.69996 48.3825 4.66921 48.2871 4.64852C48.1917 4.62783 48.0894 4.61761 47.9865 4.61847Z" fill="#F3F3F3"/>
<path d="M62.6432 2.00004C62.4496 2.00128 62.2651 2.03399 62.1302 2.09098C61.9954 2.14798 61.9212 2.22459 61.9239 2.30401V9.69605C61.9226 9.73577 61.9405 9.77519 61.9766 9.81204C62.0127 9.84889 62.0663 9.88243 62.1343 9.91071C62.2023 9.93899 62.2833 9.96145 62.3726 9.97678C62.4619 9.99211 62.5578 10 62.6547 10C62.7515 10 62.8474 9.99211 62.9367 9.97678C63.026 9.96145 63.1071 9.93899 63.1751 9.91071C63.243 9.88243 63.2967 9.84889 63.3328 9.81204C63.3689 9.77519 63.3868 9.73577 63.3854 9.69605V2.30401C63.3868 2.2639 63.3685 2.22408 63.3317 2.18691C63.2949 2.14975 63.2403 2.11599 63.1711 2.08765C63.1019 2.0593 63.0195 2.03694 62.9288 2.02189C62.8382 2.00684 62.741 1.99941 62.6432 2.00004ZM74.3349 2.00004C74.1412 2.00128 73.9567 2.03399 73.8218 2.09098C73.687 2.14798 73.6128 2.22459 73.6156 2.30401V9.69605C73.6142 9.73577 73.6321 9.77519 73.6682 9.81204C73.7043 9.84889 73.7579 9.88243 73.8259 9.91071C73.8939 9.93899 73.9749 9.96145 74.0642 9.97678C74.1536 9.99211 74.2495 10 74.3463 10C74.4431 10 74.539 9.99211 74.6283 9.97678C74.7177 9.96145 74.7987 9.93899 74.8667 9.91071C74.9347 9.88243 74.9883 9.84889 75.0244 9.81204C75.0605 9.77519 75.0784 9.73577 75.077 9.69605V2.30401C75.0784 2.2639 75.0602 2.22408 75.0234 2.18691C74.9866 2.14975 74.9319 2.11599 74.8627 2.08765C74.7935 2.0593 74.7111 2.03694 74.6205 2.02189C74.5298 2.00684 74.4327 1.99941 74.3349 2.00004ZM65.5652 3.99633C65.4692 3.99689 65.3745 4.0052 65.2864 4.02078C65.1982 4.03636 65.1184 4.05891 65.0516 4.08714C64.9847 4.11536 64.932 4.14871 64.8966 4.18529C64.8611 4.22186 64.8436 4.26094 64.8449 4.3003V7.69664C64.8436 7.73635 64.8615 7.77578 64.8976 7.81263C64.9337 7.84948 64.9873 7.88302 65.0553 7.9113C65.1233 7.93958 65.2043 7.96204 65.2936 7.97737C65.383 7.9927 65.4788 8.00059 65.5757 8.00059C65.6725 8.00059 65.7684 7.9927 65.8577 7.97737C65.9471 7.96204 66.0281 7.93958 66.0961 7.9113C66.1641 7.88302 66.2177 7.84948 66.2538 7.81263C66.2899 7.77578 66.3078 7.73635 66.3064 7.69664V4.3003C66.3078 4.26022 66.2896 4.22044 66.2528 4.1833C66.2161 4.14616 66.1615 4.11242 66.0924 4.08408C66.0233 4.05574 65.941 4.03337 65.8505 4.0183C65.7599 4.00322 65.6629 3.99575 65.5652 3.99633ZM71.412 3.99633C71.2183 3.99757 71.0338 4.03028 70.8989 4.08727C70.7641 4.14427 70.6899 4.22088 70.6927 4.3003V7.69664C70.6913 7.73635 70.7092 7.77578 70.7453 7.81263C70.7814 7.84948 70.835 7.88302 70.903 7.9113C70.971 7.93958 71.052 7.96204 71.1413 7.97737C71.2307 7.9927 71.3265 8.00059 71.4234 8.00059C71.5202 8.00059 71.6161 7.9927 71.7054 7.97737C71.7948 7.96204 71.8758 7.93958 71.9438 7.9113C72.0118 7.88302 72.0654 7.84948 72.1015 7.81263C72.1376 7.77578 72.1555 7.73635 72.1541 7.69664V4.3003C72.1555 4.26019 72.1373 4.22037 72.1005 4.1832C72.0636 4.14604 72.009 4.11228 71.9398 4.08394C71.8706 4.05559 71.7882 4.03323 71.6975 4.01818C71.6069 4.00313 71.5098 3.9957 71.412 3.99633ZM59.7194 4.59568C59.5257 4.59692 59.3412 4.62963 59.2064 4.68663C59.0715 4.74362 58.9973 4.82024 59.0001 4.89965V7.09729C58.9987 7.137 59.0166 7.17642 59.0527 7.21328C59.0888 7.25013 59.1424 7.28367 59.2104 7.31195C59.2784 7.34023 59.3594 7.36268 59.4488 7.37801C59.5381 7.39334 59.634 7.40123 59.7308 7.40123C59.8276 7.40123 59.9235 7.39334 60.0129 7.37801C60.1022 7.36268 60.1832 7.34023 60.2512 7.31195C60.3192 7.28367 60.3728 7.25013 60.4089 7.21328C60.445 7.17642 60.4629 7.137 60.4615 7.09729V4.89965C60.4629 4.85954 60.4447 4.81972 60.4079 4.78256C60.3711 4.74539 60.3164 4.71164 60.2472 4.68329C60.178 4.65494 60.0956 4.63258 60.005 4.61754C59.9143 4.60249 59.8172 4.59506 59.7194 4.59568ZM77.2578 4.59568C77.0641 4.59692 76.8796 4.62963 76.7448 4.68663C76.6099 4.74362 76.5357 4.82024 76.5385 4.89965V7.09729C76.5371 7.137 76.555 7.17642 76.5911 7.21328C76.6272 7.25013 76.6808 7.28367 76.7488 7.31195C76.8168 7.34023 76.8978 7.36268 76.9871 7.37801C77.0765 7.39334 77.1724 7.40123 77.2692 7.40123C77.366 7.40123 77.4619 7.39334 77.5513 7.37801C77.6406 7.36268 77.7216 7.34023 77.7896 7.31195C77.8576 7.28367 77.9112 7.25013 77.9473 7.21328C77.9834 7.17642 78.0013 7.137 77.9999 7.09729V4.89965C78.0013 4.85954 77.9831 4.81972 77.9463 4.78256C77.9095 4.74539 77.8548 4.71164 77.7856 4.68329C77.7164 4.65494 77.634 4.63258 77.5434 4.61754C77.4527 4.60249 77.3556 4.59506 77.2578 4.59568ZM68.4872 4.99525C68.2935 4.99649 68.109 5.0292 67.9741 5.0862C67.8393 5.14319 67.7651 5.21981 67.7678 5.29922V6.69772C67.7665 6.73743 67.7844 6.77685 67.8205 6.81371C67.8566 6.85056 67.9102 6.8841 67.9782 6.91238C68.0462 6.94066 68.1272 6.96311 68.2165 6.97844C68.3059 6.99377 68.4017 7.00166 68.4986 7.00166C68.5954 7.00166 68.6913 6.99377 68.7806 6.97844C68.87 6.96311 68.951 6.94066 69.019 6.91238C69.087 6.8841 69.1406 6.85056 69.1767 6.81371C69.2128 6.77685 69.2307 6.73743 69.2293 6.69772V5.29922C69.2307 5.25911 69.2125 5.21929 69.1756 5.18213C69.1388 5.14496 69.0842 5.11121 69.015 5.08286C68.9458 5.05452 68.8634 5.03215 68.7727 5.01711C68.6821 5.00206 68.585 4.99463 68.4872 4.99525Z" fill="#F3F3F3"/>
<path d="M82.835 5.48924e-05C82.6312 0.00191575 82.4369 0.0509804 82.295 0.136472C82.153 0.221963 82.0749 0.33689 82.0778 0.45601V11.5441C82.0764 11.6036 82.0952 11.6628 82.1332 11.7181C82.1712 11.7733 82.2277 11.8237 82.2992 11.8661C82.3708 11.9085 82.4561 11.9422 82.5501 11.9652C82.6442 11.9882 82.7451 12 82.847 12C82.9489 12 83.0499 11.9882 83.1439 11.9652C83.2379 11.9422 83.3232 11.9085 83.3948 11.8661C83.4664 11.8237 83.5228 11.7733 83.5608 11.7181C83.5988 11.6628 83.6176 11.6036 83.6162 11.5441V0.45601C83.6177 0.395845 83.5985 0.336119 83.5597 0.280371C83.521 0.224624 83.4635 0.17399 83.3906 0.13147C83.3178 0.0889495 83.231 0.0554089 83.1356 0.0328353C83.0402 0.0102617 82.9379 -0.000885341 82.835 5.48924e-05ZM95.142 5.48924e-05C94.9381 0.00191575 94.7439 0.0509804 94.6019 0.136472C94.46 0.221963 94.3819 0.33689 94.3848 0.45601V11.5441C94.3834 11.6036 94.4022 11.6628 94.4402 11.7181C94.4782 11.7733 94.5346 11.8237 94.6062 11.8661C94.6778 11.9085 94.7631 11.9422 94.8571 11.9652C94.9511 11.9882 95.0521 12 95.154 12C95.2559 12 95.3568 11.9882 95.4509 11.9652C95.5449 11.9422 95.6302 11.9085 95.7018 11.8661C95.7733 11.8237 95.8298 11.7733 95.8678 11.7181C95.9058 11.6628 95.9246 11.6036 95.9232 11.5441V0.45601C95.9247 0.395845 95.9054 0.336119 95.8667 0.280371C95.8279 0.224624 95.7704 0.17399 95.6976 0.13147C95.6247 0.0889495 95.538 0.0554089 95.4426 0.0328353C95.3471 0.0102617 95.2449 -0.000885341 95.142 5.48924e-05ZM85.9107 2.99449C85.8097 2.99534 85.71 3.0078 85.6172 3.03117C85.5245 3.05454 85.4405 3.08836 85.3701 3.1307C85.2997 3.17304 85.2442 3.22307 85.2069 3.27793C85.1696 3.33279 85.1511 3.39141 85.1526 3.45044V8.54496C85.1511 8.60453 85.17 8.66367 85.208 8.71895C85.246 8.77422 85.3024 8.82453 85.374 8.86695C85.4455 8.90937 85.5308 8.94306 85.6249 8.96605C85.7189 8.98904 85.8198 9.00088 85.9218 9.00088C86.0237 9.00088 86.1246 8.98904 86.2186 8.96605C86.3127 8.94306 86.398 8.90937 86.4695 8.86695C86.5411 8.82453 86.5975 8.77422 86.6355 8.71895C86.6736 8.66367 86.6924 8.60453 86.6909 8.54496V3.45044C86.6924 3.39033 86.6732 3.33065 86.6346 3.27494C86.5959 3.21924 86.5384 3.16863 86.4657 3.12612C86.393 3.08361 86.3064 3.05005 86.211 3.02744C86.1157 3.00483 86.0136 2.99363 85.9107 2.99449ZM92.0652 2.99449C91.8614 2.99635 91.6672 3.04542 91.5252 3.13091C91.3832 3.2164 91.3051 3.33133 91.3081 3.45044V8.54496C91.3066 8.60453 91.3254 8.66367 91.3635 8.71895C91.4015 8.77422 91.4579 8.82453 91.5295 8.86695C91.601 8.90937 91.6863 8.94306 91.7803 8.96605C91.8744 8.98904 91.9753 9.00088 92.0772 9.00088C92.1792 9.00088 92.2801 8.98904 92.3741 8.96605C92.4682 8.94306 92.5535 8.90937 92.625 8.86695C92.6966 8.82453 92.753 8.77422 92.791 8.71895C92.829 8.66367 92.8479 8.60453 92.8464 8.54496V3.45044C92.8479 3.39028 92.8287 3.33055 92.79 3.27481C92.7512 3.21906 92.6937 3.16842 92.6208 3.1259C92.548 3.08338 92.4613 3.04984 92.3658 3.02727C92.2704 3.0047 92.1682 2.99355 92.0652 2.99449ZM79.7572 3.89352C79.5534 3.89538 79.3592 3.94445 79.2172 4.02994C79.0753 4.11543 78.9972 4.23036 79.0001 4.34948V7.64593C78.9986 7.7055 79.0175 7.76464 79.0555 7.81991C79.0935 7.87519 79.1499 7.9255 79.2215 7.96792C79.2931 8.01034 79.3783 8.04403 79.4724 8.06702C79.5664 8.09001 79.6673 8.10185 79.7693 8.10185C79.8712 8.10185 79.9721 8.09001 80.0662 8.06702C80.1602 8.04403 80.2455 8.01034 80.317 7.96792C80.3886 7.9255 80.445 7.87519 80.4831 7.81991C80.5211 7.76464 80.5399 7.7055 80.5385 7.64593V4.34948C80.5399 4.28931 80.5207 4.22959 80.482 4.17384C80.4432 4.11809 80.3857 4.06746 80.3129 4.02494C80.24 3.98242 80.1533 3.94888 80.0579 3.9263C79.9624 3.90373 79.8602 3.89258 79.7572 3.89352ZM98.2187 3.89352C98.0149 3.89538 97.8207 3.94445 97.6787 4.02994C97.5367 4.11543 97.4586 4.23036 97.4615 4.34948V7.64593C97.4601 7.7055 97.4789 7.76464 97.5169 7.81991C97.555 7.87519 97.6114 7.9255 97.683 7.96792C97.7545 8.01034 97.8398 8.04403 97.9338 8.06702C98.0279 8.09001 98.1288 8.10185 98.2307 8.10185C98.3327 8.10185 98.4336 8.09001 98.5276 8.06702C98.6217 8.04403 98.7069 8.01034 98.7785 7.96792C98.8501 7.9255 98.9065 7.87519 98.9445 7.81991C98.9825 7.76464 99.0014 7.7055 98.9999 7.64593V4.34948C99.0014 4.28931 98.9822 4.22959 98.9434 4.17384C98.9047 4.11809 98.8472 4.06746 98.7743 4.02494C98.7015 3.98242 98.6148 3.94888 98.5193 3.9263C98.4239 3.90373 98.3217 3.89258 98.2187 3.89352ZM88.9865 4.49288C88.7827 4.49474 88.5884 4.5438 88.4465 4.6293C88.3045 4.71479 88.2264 4.82971 88.2293 4.94883V7.04658C88.2279 7.10614 88.2467 7.16528 88.2847 7.22056C88.3227 7.27583 88.3791 7.32615 88.4507 7.36857C88.5223 7.41099 88.6076 7.44467 88.7016 7.46766C88.7956 7.49065 88.8966 7.50249 88.9985 7.50249C89.1004 7.50249 89.2014 7.49065 89.2954 7.46766C89.3894 7.44467 89.4747 7.41099 89.5463 7.36857C89.6179 7.32615 89.6743 7.27583 89.7123 7.22056C89.7503 7.16528 89.7691 7.10614 89.7677 7.04658V4.94883C89.7692 4.88867 89.75 4.82894 89.7112 4.77319C89.6725 4.71745 89.615 4.66681 89.5421 4.62429C89.4692 4.58177 89.3825 4.54823 89.2871 4.52566C89.1917 4.50308 89.0894 4.49194 88.9865 4.49288Z" fill="#F3F3F3"/>
<path d="M103.643 0.50005C103.45 0.501756 103.265 0.546732 103.13 0.625099C102.995 0.703466 102.921 0.808816 102.924 0.918009V11.0821C102.923 11.1367 102.94 11.1909 102.977 11.2416C103.013 11.2922 103.066 11.3383 103.134 11.3772C103.202 11.4161 103.283 11.447 103.373 11.4681C103.462 11.4891 103.558 11.5 103.655 11.5C103.752 11.5 103.847 11.4891 103.937 11.4681C104.026 11.447 104.107 11.4161 104.175 11.3772C104.243 11.3383 104.297 11.2922 104.333 11.2416C104.369 11.1909 104.387 11.1367 104.385 11.0821V0.918009C104.387 0.862858 104.369 0.808109 104.332 0.757007C104.295 0.705905 104.24 0.659491 104.171 0.620514C104.102 0.581537 104.019 0.550791 103.929 0.530099C103.838 0.509407 103.741 0.499188 103.643 0.50005ZM115.335 0.50005C115.141 0.501756 114.957 0.546732 114.822 0.625099C114.687 0.703466 114.613 0.808816 114.616 0.918009V11.0821C114.614 11.1367 114.632 11.1909 114.668 11.2416C114.704 11.2922 114.758 11.3383 114.826 11.3772C114.894 11.4161 114.975 11.447 115.064 11.4681C115.154 11.4891 115.249 11.5 115.346 11.5C115.443 11.5 115.539 11.4891 115.628 11.4681C115.718 11.447 115.799 11.4161 115.867 11.3772C115.935 11.3383 115.988 11.2922 116.024 11.2416C116.06 11.1909 116.078 11.1367 116.077 11.0821V0.918009C116.078 0.862858 116.06 0.808109 116.023 0.757007C115.987 0.705905 115.932 0.659491 115.863 0.620514C115.794 0.581537 115.711 0.550791 115.62 0.530099C115.53 0.509407 115.433 0.499188 115.335 0.50005ZM106.565 3.24495C106.469 3.24572 106.374 3.25715 106.286 3.27857C106.198 3.3 106.118 3.331 106.052 3.36981C105.985 3.40862 105.932 3.45448 105.897 3.50477C105.861 3.55506 105.844 3.6088 105.845 3.66291V8.33288C105.844 8.38749 105.861 8.4417 105.898 8.49237C105.934 8.54304 105.987 8.58916 106.055 8.62804C106.123 8.66693 106.204 8.6978 106.294 8.71888C106.383 8.73996 106.479 8.75081 106.576 8.75081C106.673 8.75081 106.768 8.73996 106.858 8.71888C106.947 8.6978 107.028 8.66693 107.096 8.62804C107.164 8.58916 107.218 8.54304 107.254 8.49237C107.29 8.4417 107.308 8.38749 107.306 8.33288V3.66291C107.308 3.6078 107.29 3.5531 107.253 3.50203C107.216 3.45097 107.162 3.40458 107.092 3.36561C107.023 3.32664 106.941 3.29588 106.85 3.27516C106.76 3.25443 106.663 3.24416 106.565 3.24495ZM112.412 3.24495C112.218 3.24665 112.034 3.29163 111.899 3.37C111.764 3.44836 111.69 3.55371 111.693 3.66291V8.33288C111.691 8.38749 111.709 8.4417 111.745 8.49237C111.781 8.54304 111.835 8.58916 111.903 8.62804C111.971 8.66693 112.052 8.6978 112.141 8.71888C112.231 8.73996 112.327 8.75081 112.423 8.75081C112.52 8.75081 112.616 8.73996 112.705 8.71888C112.795 8.6978 112.876 8.66693 112.944 8.62804C113.012 8.58916 113.065 8.54304 113.101 8.49237C113.138 8.4417 113.155 8.38749 113.154 8.33288V3.66291C113.156 3.60776 113.137 3.55301 113.1 3.50191C113.064 3.4508 113.009 3.40439 112.94 3.36541C112.871 3.32644 112.788 3.29569 112.698 3.275C112.607 3.25431 112.51 3.24409 112.412 3.24495ZM100.719 4.06906C100.526 4.07077 100.341 4.11574 100.206 4.19411C100.071 4.27248 99.9973 4.37783 100 4.48702V7.50877C99.9987 7.56337 100.017 7.61758 100.053 7.66825C100.089 7.71892 100.142 7.76504 100.21 7.80393C100.278 7.84281 100.359 7.87369 100.449 7.89477C100.538 7.91584 100.634 7.9267 100.731 7.9267C100.828 7.9267 100.924 7.91584 101.013 7.89477C101.102 7.87369 101.183 7.84281 101.251 7.80393C101.319 7.76504 101.373 7.71892 101.409 7.66825C101.445 7.61758 101.463 7.56337 101.462 7.50877V4.48702C101.463 4.43187 101.445 4.37712 101.408 4.32602C101.371 4.27492 101.316 4.2285 101.247 4.18953C101.178 4.15055 101.096 4.1198 101.005 4.09911C100.914 4.07842 100.817 4.0682 100.719 4.06906ZM118.258 4.06906C118.064 4.07077 117.88 4.11574 117.745 4.19411C117.61 4.27248 117.536 4.37783 117.538 4.48702V7.50877C117.537 7.56337 117.555 7.61758 117.591 7.66825C117.627 7.71892 117.681 7.76504 117.749 7.80393C117.817 7.84281 117.898 7.87369 117.987 7.89477C118.076 7.91584 118.172 7.9267 118.269 7.9267C118.366 7.9267 118.462 7.91584 118.551 7.89477C118.641 7.87369 118.722 7.84281 118.79 7.80393C118.858 7.76504 118.911 7.71892 118.947 7.66825C118.983 7.61758 119.001 7.56337 119 7.50877V4.48702C119.001 4.43187 118.983 4.37712 118.946 4.32602C118.909 4.27492 118.855 4.2285 118.786 4.18953C118.716 4.15055 118.634 4.1198 118.543 4.09911C118.453 4.07842 118.356 4.0682 118.258 4.06906ZM109.487 4.61847C109.294 4.62018 109.109 4.66515 108.974 4.74352C108.839 4.82189 108.765 4.92724 108.768 5.03643V6.95936C108.766 7.01396 108.784 7.06818 108.82 7.11884C108.857 7.16952 108.91 7.21563 108.978 7.25452C109.046 7.2934 109.127 7.32428 109.217 7.34536C109.306 7.36643 109.402 7.37729 109.499 7.37729C109.595 7.37729 109.691 7.36643 109.781 7.34536C109.87 7.32428 109.951 7.2934 110.019 7.25452C110.087 7.21563 110.141 7.16952 110.177 7.11884C110.213 7.06818 110.231 7.01396 110.229 6.95936V5.03643C110.231 4.98128 110.212 4.92653 110.176 4.87543C110.139 4.82433 110.084 4.77791 110.015 4.73893C109.946 4.69996 109.863 4.66921 109.773 4.64852C109.682 4.62783 109.585 4.61761 109.487 4.61847Z" fill="#F3F3F3"/>
</svg>
