<svg width="37" height="36" viewBox="0 0 37 36" fill="none" xmlns="http://www.w3.org/2000/svg">
<path d="M7.25 7.875V28.125C7.25 28.4234 7.13147 28.7095 6.92049 28.9205C6.70952 29.1315 6.42337 29.25 6.125 29.25C5.82663 29.25 5.54048 29.1315 5.32951 28.9205C5.11853 28.7095 5 28.4234 5 28.125V7.875C5 7.57663 5.11853 7.29048 5.32951 7.07951C5.54048 6.86853 5.82663 6.75 6.125 6.75C6.42337 6.75 6.70952 6.86853 6.92049 7.07951C7.13147 7.29048 7.25 7.57663 7.25 7.875ZM19.0625 15.5391L16.25 16.4531V13.5C16.25 13.2016 16.1315 12.9155 15.9205 12.7045C15.7095 12.4935 15.4234 12.375 15.125 12.375C14.8266 12.375 14.5405 12.4935 14.3295 12.7045C14.1185 12.9155 14 13.2016 14 13.5V16.4531L11.1875 15.5391C10.9037 15.4458 10.5944 15.4691 10.3278 15.6039C10.0612 15.7387 9.85902 15.9738 9.76578 16.2577C9.67254 16.5415 9.69587 16.8507 9.83063 17.1173C9.96539 17.384 10.2006 17.5861 10.4844 17.6794L13.2969 18.592L11.5616 20.9827C11.4699 21.1018 11.403 21.2381 11.3648 21.3836C11.3267 21.529 11.3182 21.6807 11.3396 21.8295C11.3611 21.9783 11.4122 22.1213 11.4899 22.25C11.5676 22.3788 11.6703 22.4906 11.7919 22.579C11.9136 22.6674 12.0517 22.7305 12.1981 22.7645C12.3446 22.7986 12.4964 22.803 12.6445 22.7774C12.7927 22.7518 12.9342 22.6968 13.0608 22.6156C13.1873 22.5343 13.2963 22.4286 13.3812 22.3045L15.1166 19.9139L16.8519 22.3045C16.9368 22.4286 17.0458 22.5343 17.1724 22.6156C17.2989 22.6968 17.4404 22.7518 17.5886 22.7774C17.7368 22.803 17.8885 22.7986 18.035 22.7645C18.1814 22.7305 18.3196 22.6674 18.4412 22.579C18.5629 22.4906 18.6656 22.3788 18.7433 22.25C18.8209 22.1213 18.872 21.9783 18.8935 21.8295C18.915 21.6807 18.9064 21.529 18.8683 21.3836C18.8302 21.2381 18.7633 21.1018 18.6716 20.9827L16.9362 18.592L19.7488 17.6794C20.02 17.5785 20.242 17.3769 20.3685 17.1165C20.4949 16.8562 20.5162 16.5571 20.4278 16.2815C20.3395 16.0058 20.1482 15.7749 19.894 15.6366C19.6397 15.4983 19.3419 15.4634 19.0625 15.5391ZM33.9688 16.2619C33.8766 15.9806 33.6772 15.7471 33.414 15.6118C33.1508 15.4765 32.8449 15.4503 32.5625 15.5391L29.75 16.4531V13.5C29.75 13.2016 29.6315 12.9155 29.4205 12.7045C29.2095 12.4935 28.9234 12.375 28.625 12.375C28.3266 12.375 28.0405 12.4935 27.8295 12.7045C27.6185 12.9155 27.5 13.2016 27.5 13.5V16.4531L24.6875 15.5405C24.547 15.4948 24.3988 15.4772 24.2515 15.4887C24.1041 15.5003 23.9605 15.5408 23.8288 15.6078C23.6972 15.6749 23.58 15.7672 23.4839 15.8795C23.3879 15.9919 23.315 16.122 23.2693 16.2626C23.2236 16.4031 23.206 16.5513 23.2176 16.6986C23.2291 16.8459 23.2696 16.9895 23.3366 17.1212C23.4037 17.2529 23.496 17.3701 23.6084 17.4661C23.7207 17.5621 23.8509 17.6351 23.9914 17.6808L26.8039 18.5934L25.0686 20.9841C24.9769 21.1032 24.91 21.2395 24.8719 21.385C24.8338 21.5304 24.8252 21.6821 24.8467 21.8309C24.8681 21.9797 24.9192 22.1227 24.9969 22.2514C25.0746 22.3802 25.1773 22.492 25.2989 22.5804C25.4206 22.6688 25.5587 22.7319 25.7052 22.7659C25.8516 22.8 26.0034 22.8044 26.1516 22.7788C26.2997 22.7532 26.4413 22.6982 26.5678 22.617C26.6943 22.5357 26.8033 22.43 26.8883 22.3059L28.6236 19.9153L30.3589 22.3059C30.4439 22.43 30.5528 22.5357 30.6794 22.617C30.8059 22.6982 30.9475 22.7532 31.0956 22.7788C31.2438 22.8044 31.3956 22.8 31.542 22.7659C31.6885 22.7319 31.8266 22.6688 31.9483 22.5804C32.0699 22.492 32.1726 22.3802 32.2503 22.2514C32.328 22.1227 32.3791 21.9797 32.4005 21.8309C32.422 21.6821 32.4134 21.5304 32.3753 21.385C32.3372 21.2395 32.2703 21.1032 32.1786 20.9841L30.4433 18.5934L33.2558 17.6808C33.5381 17.5867 33.7717 17.3845 33.9053 17.1186C34.039 16.8527 34.0618 16.5446 33.9688 16.2619Z" fill="#C59D4E"/>
</svg>
