<svg width="201" height="146" viewBox="0 0 201 146" fill="none" xmlns="http://www.w3.org/2000/svg">
<path d="M200.099 0.149902H0.984863V145.904H200.099V0.149902Z" fill="white"/>
<path d="M200.099 145.91L0.984951 146H0.89496V145.91L0.834961 0.14999V0H0.984951L200.099 0.0899948H200.165V0.14999L200.099 145.91ZM200.099 145.91L200.033 0.14999L200.099 0.215986L0.984951 0.299979L1.13494 0.14999L1.07495 145.94L0.984951 145.844L200.099 145.91Z" fill="#333333"/>
<path d="M200.099 0.149902H0.984863V5.75952H200.099V0.149902Z" fill="#333333"/>
<path d="M6.39675 2.95765C6.39675 3.18192 6.33024 3.40115 6.20565 3.58763C6.08105 3.7741 5.90396 3.91944 5.69676 4.00526C5.48956 4.09108 5.26157 4.11354 5.04161 4.06979C4.82165 4.02603 4.61961 3.91804 4.46102 3.75946C4.30244 3.60088 4.19445 3.39883 4.15069 3.17887C4.10694 2.95891 4.1294 2.73092 4.21522 2.52372C4.30105 2.31652 4.44638 2.13943 4.63285 2.01483C4.81932 1.89023 5.03856 1.82373 5.26283 1.82373C5.56356 1.82373 5.85198 1.9432 6.06463 2.15585C6.27728 2.3685 6.39675 2.65692 6.39675 2.95765Z" fill="#C59D4E"/>
<path d="M11.0105 2.95765C11.0105 3.18192 10.944 3.40115 10.8194 3.58763C10.6948 3.7741 10.5177 3.91944 10.3105 4.00526C10.1033 4.09108 9.87534 4.11354 9.65538 4.06979C9.43542 4.02603 9.23338 3.91804 9.0748 3.75946C8.91622 3.60088 8.80822 3.39883 8.76446 3.17887C8.72071 2.95891 8.74317 2.73092 8.82899 2.52372C8.91481 2.31652 9.06015 2.13943 9.24663 2.01483C9.4331 1.89023 9.65233 1.82373 9.8766 1.82373C10.1773 1.82373 10.4658 1.9432 10.6784 2.15585C10.8911 2.3685 11.0105 2.65692 11.0105 2.95765Z" fill="white"/>
<path d="M15.6238 2.95765C15.6238 3.18192 15.5573 3.40115 15.4327 3.58763C15.3081 3.7741 15.131 3.91944 14.9238 4.00526C14.7166 4.09108 14.4886 4.11354 14.2687 4.06979C14.0487 4.02603 13.8467 3.91804 13.6881 3.75946C13.5295 3.60088 13.4215 3.39883 13.3777 3.17887C13.334 2.95891 13.3564 2.73092 13.4423 2.52372C13.5281 2.31652 13.6734 2.13943 13.8599 2.01483C14.0464 1.89023 14.2656 1.82373 14.4899 1.82373C14.7906 1.82373 15.079 1.9432 15.2917 2.15585C15.5043 2.3685 15.6238 2.65692 15.6238 2.95765Z" fill="#455A64"/>
<path d="M28.0669 35.8593C28.1373 36.0742 28.1201 36.3081 28.019 36.5103C27.9179 36.7126 27.741 36.8667 27.5269 36.9393C27.4178 36.9711 27.3046 36.9872 27.1909 36.9872C26.9782 36.9896 26.7694 36.9291 26.591 36.8133C26.3846 36.6796 26.2153 36.4959 26.099 36.2793C25.8512 35.6962 25.7404 35.064 25.775 34.4314C25.7728 34.1988 25.7086 33.971 25.589 33.7715C25.4726 33.5872 25.3143 33.4331 25.1271 33.3215C24.863 33.1534 24.5732 33.0298 24.2691 32.9555H22.4693V36.2913C22.4661 36.5178 22.3735 36.7338 22.2116 36.8923C22.0498 37.0508 21.8318 37.1388 21.6053 37.1372C21.381 37.1372 21.1658 37.0481 21.0071 36.8895C20.8485 36.7308 20.7594 36.5157 20.7594 36.2913V27.2259C20.7577 27.1144 20.7785 27.0036 20.8205 26.9003C20.8624 26.7969 20.9247 26.703 21.0035 26.6241C21.0824 26.5453 21.1763 26.483 21.2797 26.4411C21.383 26.3991 21.4938 26.3784 21.6053 26.38H24.3471C25.0256 26.3789 25.6879 26.5879 26.2429 26.9781C26.798 27.3683 27.2188 27.9207 27.4475 28.5595C27.6762 29.1983 27.7016 29.8923 27.5204 30.5461C27.3391 31.2 26.96 31.7817 26.435 32.2116C26.6484 32.3788 26.8311 32.5818 26.9749 32.8115C27.3096 33.3009 27.4875 33.8805 27.4849 34.4734C27.4683 34.7767 27.4885 35.0809 27.5449 35.3794C27.6615 35.4168 27.7685 35.4791 27.8586 35.562C27.9487 35.6449 28.0198 35.7463 28.0669 35.8593ZM25.913 29.6737C25.9146 29.4647 25.8748 29.2575 25.7959 29.0639C25.717 28.8704 25.6006 28.6944 25.4534 28.546C25.3061 28.3976 25.131 28.2799 24.938 28.1996C24.7451 28.1192 24.5381 28.0778 24.3291 28.0779H22.4333V31.2456H24.3471C24.7604 31.2425 25.156 31.0774 25.4488 30.7857C25.7416 30.494 25.9083 30.099 25.913 29.6857V29.6737Z" fill="#333333"/>
<path d="M30.5567 36.3033V27.2259C30.5551 27.1144 30.5759 27.0036 30.6178 26.9003C30.6598 26.7969 30.722 26.703 30.8009 26.6241C30.8798 26.5453 30.9737 26.483 31.077 26.4411C31.1804 26.3991 31.2911 26.3784 31.4027 26.38H36.4363C36.6602 26.3815 36.8744 26.4712 37.0328 26.6295C37.1911 26.7878 37.2807 27.002 37.2823 27.2259C37.2808 27.4515 37.1918 27.6677 37.0339 27.8289C36.8761 27.9901 36.6618 28.0836 36.4363 28.0899H32.2366V30.9037H35.8364C36.0507 30.9216 36.2505 31.0195 36.3962 31.1778C36.5418 31.3362 36.6226 31.5435 36.6226 31.7586C36.6226 31.9737 36.5418 32.181 36.3962 32.3394C36.2505 32.4977 36.0507 32.5956 35.8364 32.6135H32.2366V35.4453H36.4363C36.6623 35.4453 36.879 35.5351 37.0387 35.6949C37.1985 35.8546 37.2883 36.0713 37.2883 36.2973C37.2883 36.5232 37.1985 36.7399 37.0387 36.8997C36.879 37.0595 36.6623 37.1492 36.4363 37.1492H31.4507C31.4207 37.1492 31.4207 37.1492 31.4207 37.1492C31.3081 37.1516 31.1961 37.1315 31.0914 37.0901C30.9867 37.0486 30.8913 36.9867 30.8108 36.9079C30.7304 36.8291 30.6664 36.7351 30.6228 36.6312C30.5792 36.5274 30.5567 36.4159 30.5567 36.3033Z" fill="#333333"/>
<path d="M39.3463 34.4734C39.4818 34.3119 39.6753 34.2101 39.8852 34.1899C40.095 34.1697 40.3044 34.2327 40.4682 34.3654C41.2942 35.0702 42.3248 35.4909 43.4081 35.5653C44.0913 35.5768 44.7616 35.3779 45.3279 34.9954C45.5202 34.8777 45.6811 34.7154 45.7971 34.5221C45.9131 34.3289 45.9806 34.1104 45.9939 33.8854C45.996 33.7116 45.9481 33.5408 45.8559 33.3935C45.7371 33.2079 45.5795 33.0503 45.3939 32.9315C44.7393 32.5646 44.0239 32.3187 43.2821 32.2056H43.2521C42.568 32.0879 41.901 31.8864 41.2662 31.6056C40.6844 31.3518 40.1885 30.9351 39.8383 30.4057C39.6019 30.0283 39.4791 29.591 39.4843 29.1458C39.4998 28.7008 39.619 28.2657 39.8326 27.875C40.0461 27.4844 40.348 27.1491 40.7142 26.8959C41.496 26.3548 42.4274 26.0716 43.3781 26.086C44.5917 26.1372 45.7611 26.5556 46.7318 27.2859C46.9042 27.4029 47.0236 27.5831 47.064 27.7875C47.1044 27.9919 47.0627 28.204 46.9478 28.3778C46.8919 28.4654 46.819 28.5409 46.7335 28.6C46.648 28.659 46.5515 28.7004 46.4498 28.7216C46.3481 28.7428 46.2432 28.7435 46.1412 28.7236C46.0392 28.7038 45.9422 28.6637 45.8559 28.6058C45.1489 28.0341 44.2847 27.6909 43.3781 27.6219C42.7622 27.6143 42.1589 27.7966 41.6502 28.1438C41.479 28.2452 41.335 28.3866 41.2305 28.5559C41.126 28.7252 41.0642 28.9173 41.0502 29.1158C41.0413 29.2674 41.079 29.4181 41.1582 29.5477C41.2705 29.7042 41.4108 29.8385 41.5722 29.9437C42.1755 30.3084 42.8474 30.5453 43.546 30.6397C44.2778 30.7682 44.991 30.9858 45.6699 31.2876C46.2922 31.5601 46.8247 32.0032 47.2058 32.5655C47.4505 32.9578 47.5795 33.4111 47.5778 33.8734C47.5664 34.3507 47.4398 34.8181 47.209 35.2359C46.9781 35.6537 46.6498 36.0096 46.2519 36.2733C45.4214 36.8613 44.4255 37.1701 43.4081 37.1552C41.9611 37.0853 40.5767 36.5438 39.4663 35.6133C39.3005 35.4772 39.1949 35.2813 39.1725 35.068C39.15 34.8546 39.2125 34.641 39.3463 34.4734Z" fill="#333333"/>
<path d="M49.9475 36.3034V27.226C49.945 27.1143 49.9652 27.0032 50.0069 26.8994C50.0485 26.7957 50.1107 26.7014 50.1898 26.6224C50.2688 26.5433 50.3631 26.4811 50.4668 26.4395C50.5705 26.3978 50.6816 26.3776 50.7934 26.3801H55.8271C56.0509 26.3817 56.2652 26.4713 56.4235 26.6296C56.5818 26.7879 56.6714 27.0022 56.673 27.226C56.6715 27.4516 56.5825 27.6678 56.4247 27.829C56.2668 27.9902 56.0526 28.0838 55.8271 28.09H51.6574V30.9038H55.2571C55.4715 30.9217 55.6713 31.0196 55.8169 31.178C55.9625 31.3363 56.0434 31.5436 56.0434 31.7587C56.0434 31.9738 55.9625 32.1811 55.8169 32.3395C55.6713 32.4978 55.4715 32.5957 55.2571 32.6137H51.6574V35.4455H55.8271C56.053 35.4455 56.2697 35.5352 56.4295 35.695C56.5892 35.8548 56.679 36.0715 56.679 36.2974C56.679 36.5234 56.5892 36.74 56.4295 36.8998C56.2697 37.0596 56.053 37.1493 55.8271 37.1493H50.8414C50.8054 37.1493 50.8054 37.1493 50.8054 37.1493C50.6931 37.1518 50.5814 37.1316 50.477 37.0901C50.3727 37.0486 50.2776 36.9866 50.1977 36.9077C50.1177 36.8288 50.0543 36.7347 50.0113 36.6309C49.9684 36.5271 49.9466 36.4157 49.9475 36.3034Z" fill="#333333"/>
<path d="M65.6603 28.0899H63.2125V36.3033C63.2125 36.5277 63.1234 36.7428 62.9647 36.9015C62.8061 37.0601 62.5909 37.1492 62.3666 37.1492C62.1422 37.1492 61.927 37.0601 61.7684 36.9015C61.6098 36.7428 61.5206 36.5277 61.5206 36.3033V28.0899H59.0848C58.8583 28.0867 58.6422 27.9941 58.4838 27.8322C58.3253 27.6704 58.2373 27.4524 58.2389 27.2259C58.2372 27.1144 58.258 27.0036 58.3 26.9003C58.3419 26.7969 58.4041 26.703 58.483 26.6241C58.5619 26.5453 58.6558 26.483 58.7592 26.4411C58.8625 26.3991 58.9733 26.3784 59.0848 26.38H65.6843C65.7957 26.3792 65.906 26.4005 66.009 26.4427C66.112 26.485 66.2056 26.5473 66.2843 26.626C66.363 26.7047 66.4253 26.7983 66.4675 26.9012C66.5098 27.0042 66.5311 27.1146 66.5303 27.2259C66.5287 27.4556 66.4364 27.6753 66.2734 27.8372C66.1104 27.999 65.89 28.0899 65.6603 28.0899Z" fill="#333333"/>
<path d="M24.5392 48.9928H22.6493V52.3346C22.6314 52.549 22.5335 52.7488 22.3752 52.8944C22.2168 53.04 22.0095 53.1209 21.7944 53.1209C21.5793 53.1209 21.372 53.04 21.2136 52.8944C21.0553 52.7488 20.9574 52.549 20.9395 52.3346V43.2512C20.9395 43.0269 21.0286 42.8117 21.1872 42.653C21.3459 42.4944 21.561 42.4053 21.7854 42.4053H24.5392C25.4144 42.4053 26.2537 42.7529 26.8725 43.3718C27.4913 43.9906 27.839 44.8299 27.839 45.705C27.839 46.5802 27.4913 47.4195 26.8725 48.0383C26.2537 48.6572 25.4144 49.0048 24.5392 49.0048V48.9928ZM22.6493 47.2589H24.5392C24.9593 47.2589 25.3621 47.0921 25.6592 46.795C25.9562 46.498 26.1231 46.0951 26.1231 45.675C26.1231 45.255 25.9562 44.8521 25.6592 44.5551C25.3621 44.258 24.9593 44.0912 24.5392 44.0912H22.6493V47.2589Z" fill="#333333"/>
<path d="M34.3305 50.6425H30.5868L29.8369 52.6584C29.7455 52.8539 29.5837 53.0078 29.3839 53.0894C29.1841 53.171 28.9608 53.1743 28.7587 53.0986C28.5566 53.0229 28.3904 52.8738 28.2933 52.681C28.1962 52.4882 28.1754 52.2659 28.235 52.0584L31.6367 42.999C31.7008 42.8361 31.8135 42.6969 31.9595 42.6002C32.1055 42.5036 32.2777 42.4543 32.4527 42.4591C32.628 42.4526 32.801 42.5011 32.9474 42.598C33.0937 42.6948 33.2061 42.8351 33.2686 42.999L36.6704 52.0584C36.7451 52.2735 36.7337 52.5091 36.6387 52.716C36.5436 52.9228 36.3722 53.0849 36.1604 53.1683C36.066 53.2012 35.9665 53.2175 35.8664 53.2163C35.6961 53.2166 35.5298 53.1651 35.3894 53.0687C35.2491 52.9723 35.1413 52.8354 35.0805 52.6764L34.3305 50.6425ZM33.7306 48.9446L32.4827 45.6389L31.2348 48.9446H33.7306Z" fill="#333333"/>
<path d="M38.1762 50.4986C38.3117 50.3371 38.5052 50.2353 38.7151 50.2151C38.9249 50.1949 39.1343 50.258 39.2981 50.3906C40.1211 51.1003 41.1534 51.5217 42.2379 51.5906C42.9231 51.6022 43.5953 51.4032 44.1638 51.0206C44.3563 50.9038 44.5172 50.7416 44.6323 50.548C44.7474 50.3545 44.8131 50.1356 44.8238 49.9107C44.8259 49.7368 44.778 49.5661 44.6858 49.4187C44.5653 49.2345 44.408 49.0772 44.2238 48.9567C43.5687 48.5922 42.8533 48.3483 42.1119 48.2368H42.0819C41.3979 48.1192 40.7309 47.9177 40.0961 47.6368C39.5154 47.3813 39.0199 46.965 38.6682 46.4369C38.4323 46.0572 38.3095 45.618 38.3142 45.171C38.3296 44.7269 38.449 44.2926 38.6625 43.9029C38.8761 43.5133 39.1781 43.1791 39.5441 42.9272C40.3254 42.3843 41.2567 42.099 42.2079 42.1112C43.4208 42.1662 44.5892 42.5842 45.5617 43.3111C45.7341 43.4281 45.8535 43.6084 45.8939 43.8128C45.9343 44.0171 45.8926 44.2292 45.7777 44.4031C45.7228 44.4918 45.6506 44.5685 45.5654 44.6286C45.4801 44.6887 45.3836 44.7309 45.2816 44.7528C45.1796 44.7746 45.0743 44.7756 44.9719 44.7558C44.8695 44.7359 44.7722 44.6955 44.6858 44.637C43.9788 44.0653 43.1146 43.7221 42.2079 43.6531C41.5935 43.6425 40.9912 43.825 40.4861 44.1751C40.314 44.2739 40.1691 44.4139 40.0644 44.5825C39.9597 44.751 39.8984 44.9429 39.8861 45.141C39.8764 45.2927 39.9141 45.4437 39.9941 45.573C40.1042 45.733 40.2449 45.8696 40.4081 45.975C41.0039 46.3257 41.6619 46.558 42.3459 46.6589H42.3759C43.1074 46.7855 43.8207 47.0011 44.4998 47.3009C45.1221 47.5734 45.6546 48.0164 46.0357 48.5788C46.2789 48.9717 46.4077 49.4246 46.4077 49.8867C46.3962 50.3639 46.2697 50.8313 46.0389 51.2491C45.808 51.667 45.4797 52.0229 45.0817 52.2865C44.2505 52.8724 43.2547 53.1791 42.2379 53.1625C40.7918 53.0934 39.4078 52.5541 38.2962 51.6266C38.1351 51.49 38.0328 51.2966 38.0105 51.0866C37.9881 50.8766 38.0475 50.6661 38.1762 50.4986Z" fill="#333333"/>
<path d="M48.2856 50.4986C48.4211 50.3371 48.6147 50.2353 48.8245 50.2151C49.0344 50.1949 49.2438 50.258 49.4076 50.3906C50.2306 51.1003 51.2629 51.5217 52.3474 51.5906C53.0325 51.6022 53.7048 51.4032 54.2732 51.0206C54.4658 50.9038 54.6267 50.7416 54.7417 50.548C54.8568 50.3545 54.9226 50.1356 54.9332 49.9107C54.9354 49.7368 54.8875 49.5661 54.7952 49.4187C54.6747 49.2345 54.5174 49.0772 54.3332 48.9567C53.6803 48.592 52.9669 48.3481 52.2274 48.2368H52.1914C51.509 48.12 50.8439 47.9185 50.2115 47.6368C49.628 47.3832 49.1302 46.9665 48.7776 46.4369C48.5441 46.0561 48.4215 45.6177 48.4236 45.171C48.4391 44.7269 48.5584 44.2926 48.772 43.9029C48.9856 43.5133 49.2875 43.1791 49.6536 42.9272C50.4348 42.3843 51.3661 42.099 52.3174 42.1112C53.5303 42.1662 54.6987 42.5842 55.6712 43.3111C55.8435 43.4281 55.9629 43.6084 56.0033 43.8128C56.0438 44.0171 56.002 44.2292 55.8871 44.4031C55.8323 44.4918 55.76 44.5685 55.6748 44.6286C55.5895 44.6887 55.493 44.7309 55.391 44.7528C55.289 44.7746 55.1837 44.7756 55.0813 44.7558C54.9789 44.7359 54.8816 44.6955 54.7952 44.637C54.0882 44.0653 53.224 43.7221 52.3174 43.6531C51.7031 43.6437 51.1011 43.8261 50.5955 44.1751C50.4234 44.2739 50.2785 44.4139 50.1738 44.5825C50.0691 44.751 50.0079 44.9429 49.9955 45.141C49.9858 45.2927 50.0235 45.4437 50.1035 45.573C50.2136 45.733 50.3543 45.8696 50.5175 45.975C51.1105 46.3214 51.7641 46.5515 52.4434 46.6529H52.4734C53.2049 46.7795 53.9181 46.9951 54.5972 47.2949C55.2207 47.5681 55.7549 48.0109 56.1391 48.5728C56.3779 48.9673 56.5045 49.4195 56.5051 49.8807C56.4914 50.3568 56.3645 50.8227 56.135 51.24C55.9055 51.6573 55.5799 52.014 55.1852 52.2805C54.351 52.865 53.3538 53.1715 52.3354 53.1565C50.8893 53.0874 49.5053 52.5481 48.3936 51.6206C48.2361 51.4825 48.1371 51.2895 48.1171 51.081C48.097 50.8725 48.1573 50.6642 48.2856 50.4986Z" fill="#333333"/>
<path d="M72.6921 43.6592L68.9183 52.6586C68.9041 52.7109 68.8797 52.7598 68.8463 52.8026C68.8225 52.8363 68.7965 52.8684 68.7683 52.8986C68.7683 52.9286 68.7683 52.9286 68.7683 52.9406C68.7296 52.9625 68.6933 52.9886 68.6603 53.0186C68.6124 53.0186 68.5824 53.0966 68.5224 53.1086C68.4796 53.1148 68.4374 53.1249 68.3964 53.1386C68.3469 53.1484 68.2959 53.1484 68.2464 53.1386C68.1988 53.1474 68.15 53.1474 68.1024 53.1386H68.0604C68.0254 53.1252 67.9892 53.1152 67.9524 53.1086C67.9524 53.1086 67.9524 53.1086 67.9224 53.1086C67.868 53.094 67.8196 53.0625 67.7844 53.0186L67.6764 52.9406V52.8986C67.6764 52.8626 67.6284 52.8326 67.6164 52.8026C67.6044 52.7726 67.5864 52.8026 67.5864 52.8026C67.555 52.7595 67.5325 52.7105 67.5204 52.6586L65.5046 47.8589L63.3447 52.6586C63.3295 52.7084 63.3094 52.7567 63.2847 52.8026L63.1887 52.8986C63.1887 52.9286 63.1887 52.9286 63.1887 52.9406C63.1528 52.9613 63.1204 52.9876 63.0927 53.0186H63.0627C63.0147 53.0186 62.9727 53.0966 62.9427 53.1086C62.9009 53.1089 62.8598 53.1192 62.8227 53.1386H62.7748C62.7292 53.1473 62.6823 53.1473 62.6368 53.1386C62.5851 53.1474 62.5324 53.1474 62.4808 53.1386H62.4388C62.4038 53.1252 62.3676 53.1152 62.3308 53.1086C62.3308 53.1086 62.3308 53.1086 62.3008 53.1086C62.2485 53.0894 62.2013 53.0587 62.1628 53.0186C62.1148 52.9886 62.1028 52.9586 62.0548 52.9406V52.8986C62.0248 52.8626 62.0068 52.8326 61.9768 52.8026C61.9483 52.756 61.9223 52.7079 61.8988 52.6586L58.1131 43.6592C58.0711 43.5572 58.0498 43.448 58.0503 43.3377C58.0508 43.2274 58.0732 43.1184 58.1162 43.0168C58.1592 42.9153 58.2218 42.8233 58.3006 42.7461C58.3794 42.6689 58.4726 42.6082 58.575 42.5673C58.6757 42.5231 58.7841 42.4996 58.894 42.4981C59.0039 42.4966 59.113 42.5172 59.2148 42.5586C59.3166 42.6 59.4091 42.6614 59.4867 42.7391C59.5644 42.8169 59.6257 42.9094 59.667 43.0112L62.6668 50.1388L64.5446 45.4591C64.6088 45.3008 64.7194 45.1657 64.8618 45.0714C65.0042 44.9772 65.1718 44.9283 65.3426 44.9311C65.5131 44.9326 65.6797 44.9832 65.8222 45.0768C65.9648 45.1704 66.0774 45.3032 66.1465 45.4591L68.1324 50.1808L71.1442 43.0592C71.2351 42.8524 71.4039 42.6898 71.6139 42.6067C71.824 42.5236 72.0583 42.5267 72.2661 42.6153C72.4558 42.7033 72.6052 42.8599 72.6842 43.0535C72.7633 43.2472 72.7661 43.4636 72.6921 43.6592Z" fill="#333333"/>
<path d="M83.4132 43.743C84.418 44.7927 84.9789 46.1897 84.9789 47.6427C84.9789 49.0958 84.418 50.4928 83.4132 51.5425C82.947 52.056 82.3796 52.4677 81.7467 52.7516C81.1138 53.0355 80.4291 53.1856 79.7355 53.1924C79.0281 53.189 78.3289 53.0409 77.681 52.7571C77.033 52.4734 76.4499 52.06 75.9677 51.5425C74.9844 50.4819 74.438 49.089 74.438 47.6427C74.438 46.1965 74.9844 44.8036 75.9677 43.743C76.4485 43.224 77.0313 42.81 77.6797 42.5271C78.3281 42.2442 79.028 42.0985 79.7355 42.0991C80.4291 42.1022 81.1145 42.25 81.7478 42.5331C82.381 42.8161 82.9483 43.2282 83.4132 43.743ZM83.2152 47.6367C83.2154 46.64 82.8431 45.6792 82.1713 44.9429C81.8597 44.5991 81.4796 44.3244 81.0555 44.1363C80.6313 43.9483 80.1725 43.8512 79.7085 43.8512C79.2445 43.8512 78.7857 43.9483 78.3615 44.1363C77.9373 44.3244 77.5572 44.5991 77.2456 44.9429C76.5667 45.6748 76.1932 46.6385 76.2017 47.6367C76.1901 48.632 76.5642 49.5931 77.2456 50.3186C77.5552 50.6657 77.9346 50.9435 78.3591 51.1337C78.7835 51.3239 79.2434 51.4222 79.7085 51.4222C80.1736 51.4222 80.6334 51.3239 81.0579 51.1337C81.4823 50.9435 81.8618 50.6657 82.1713 50.3186C82.8454 49.5885 83.2183 48.6304 83.2152 47.6367Z" fill="#333333"/>
<path d="M95.1424 51.9022C95.1789 52.0081 95.1938 52.1202 95.1862 52.232C95.1787 52.3437 95.1489 52.4529 95.0986 52.5529C95.0483 52.653 94.9785 52.742 94.8933 52.8147C94.8081 52.8873 94.7092 52.9422 94.6024 52.9761C94.4933 53.008 94.3802 53.0241 94.2665 53.0241C94.0547 53.0256 93.8468 52.9674 93.6665 52.8562C93.4627 52.717 93.2942 52.532 93.1745 52.3162C92.9261 51.7333 92.8153 51.101 92.8506 50.4683C92.8523 50.236 92.79 50.0077 92.6706 49.8084C92.5522 49.6273 92.3942 49.4755 92.2086 49.3644C91.9425 49.1947 91.6508 49.0691 91.3447 48.9924H89.5448V52.3342C89.5416 52.5596 89.4499 52.7748 89.2893 52.9331C89.1287 53.0914 88.9123 53.1802 88.6869 53.1801C88.5755 53.1809 88.4652 53.1596 88.3622 53.1174C88.2592 53.0751 88.1656 53.0129 88.0869 52.9341C88.0082 52.8554 87.9459 52.7619 87.9037 52.6589C87.8614 52.5559 87.8401 52.4455 87.8409 52.3342V43.2508C87.8393 43.1393 87.8601 43.0285 87.902 42.9252C87.9439 42.8218 88.0062 42.7279 88.0851 42.649C88.1639 42.5702 88.2579 42.5079 88.3612 42.466C88.4646 42.424 88.5753 42.4033 88.6869 42.4049H91.4407C91.8747 42.4049 92.3045 42.4907 92.7053 42.6573C93.1061 42.824 93.47 43.0682 93.7761 43.3759C94.0822 43.6837 94.3244 44.0489 94.4889 44.4506C94.6534 44.8523 94.7368 45.2826 94.7344 45.7166C94.734 46.1994 94.6261 46.676 94.4186 47.1118C94.211 47.5477 93.909 47.9319 93.5345 48.2365C93.7449 48.4069 93.9271 48.6094 94.0745 48.8364C94.4056 49.3272 94.5813 49.9063 94.5784 50.4983C94.5652 50.8036 94.5853 51.1094 94.6384 51.4103C94.7545 51.4482 94.8603 51.5123 94.9476 51.5976C95.035 51.6829 95.1016 51.7871 95.1424 51.9022ZM92.9886 45.7166C92.9909 45.5071 92.9517 45.2992 92.8732 45.105C92.7947 44.9107 92.6784 44.734 92.5311 44.585C92.3837 44.436 92.2083 44.3177 92.015 44.237C91.8216 44.1563 91.6142 44.1147 91.4047 44.1148H89.5088V47.2585H91.4047C91.8149 47.2555 92.2078 47.0929 92.5002 46.805C92.7925 46.5172 92.9612 46.1268 92.9706 45.7166H92.9886Z" fill="#333333"/>
<path d="M97.6202 52.3342V43.2508C97.6185 43.1393 97.6393 43.0285 97.6813 42.9252C97.7232 42.8218 97.7855 42.7279 97.8643 42.649C97.9432 42.5702 98.0371 42.5079 98.1405 42.466C98.2438 42.424 98.3546 42.4033 98.4661 42.4049H100.266C101.698 42.4049 103.071 42.9738 104.084 43.9864C105.097 44.999 105.666 46.3724 105.666 47.8045C105.666 49.2366 105.097 50.61 104.084 51.6226C103.071 52.6352 101.698 53.2041 100.266 53.2041H98.4661C98.3527 53.205 98.2403 53.1829 98.1357 53.1392C98.0311 53.0955 97.9364 53.0311 97.8574 52.9498C97.7783 52.8685 97.7166 52.772 97.6758 52.6663C97.635 52.5605 97.6161 52.4475 97.6202 52.3342ZM99.342 51.4583H100.296C101.271 51.4583 102.207 51.0708 102.897 50.3811C103.586 49.6913 103.974 48.7559 103.974 47.7805C103.974 46.8051 103.586 45.8697 102.897 45.1799C102.207 44.4902 101.271 44.1028 100.296 44.1028H99.342V51.4583Z" fill="#333333"/>
<path d="M20.8917 68.4493V71.3351C20.8917 71.367 20.879 71.3975 20.8565 71.42C20.834 71.4425 20.8035 71.4551 20.7717 71.4551C20.7398 71.4551 20.7093 71.4425 20.6868 71.42C20.6643 71.3975 20.6517 71.367 20.6517 71.3351V68.1014C20.6437 68.0768 20.6435 68.0504 20.651 68.0258C20.6585 68.0011 20.6734 67.9793 20.6937 67.9634C20.7216 67.9472 20.7543 67.9414 20.7861 67.9469C20.8179 67.9524 20.8467 67.9688 20.8677 67.9934L23.0035 70.9572V68.0894C22.9994 68.0709 22.9995 68.0518 23.0038 68.0335C23.0081 68.0151 23.0164 67.9979 23.0282 67.9832C23.04 67.9685 23.055 67.9566 23.072 67.9484C23.089 67.9403 23.1076 67.936 23.1265 67.936C23.1454 67.936 23.164 67.9403 23.181 67.9484C23.198 67.9566 23.213 67.9685 23.2248 67.9832C23.2366 67.9979 23.2449 68.0151 23.2492 68.0335C23.2535 68.0518 23.2536 68.0709 23.2495 68.0894V71.3351C23.2495 71.3514 23.2462 71.3675 23.2398 71.3825C23.2334 71.3974 23.224 71.4109 23.2123 71.4222C23.2005 71.4334 23.1865 71.4421 23.1713 71.4478C23.156 71.4534 23.1398 71.4559 23.1235 71.4551C23.1048 71.4556 23.0862 71.4515 23.0695 71.4431C23.0528 71.4348 23.0383 71.4224 23.0275 71.4071L20.8917 68.4493Z" fill="black"/>
<path d="M24.2875 70.2252C24.2755 69.907 24.3905 69.5971 24.6071 69.3636C24.8237 69.1301 25.1241 68.9923 25.4424 68.9803C25.7606 68.9684 26.0706 69.0834 26.304 69.3C26.5375 69.5166 26.6754 69.817 26.6873 70.1353C26.6873 70.1507 26.6842 70.1661 26.6781 70.1803C26.672 70.1945 26.6631 70.2074 26.6518 70.2181C26.6406 70.2287 26.6273 70.237 26.6128 70.2424C26.5982 70.2477 26.5828 70.2501 26.5673 70.2493H24.5274C24.5351 70.5003 24.6391 70.7388 24.8178 70.9152C24.9965 71.0917 25.2363 71.1927 25.4874 71.1972C25.647 71.197 25.8039 71.1554 25.9427 71.0766C26.0814 70.9977 26.1974 70.8842 26.2793 70.7472C26.2955 70.7205 26.3215 70.7012 26.3518 70.6933C26.382 70.6855 26.4142 70.6897 26.4413 70.7052C26.4556 70.7138 26.468 70.7252 26.4778 70.7386C26.4876 70.752 26.4947 70.7673 26.4986 70.7835C26.5025 70.7996 26.5031 70.8164 26.5005 70.8329C26.4979 70.8493 26.4921 70.865 26.4833 70.8792C26.3767 71.0476 26.2298 71.1868 26.056 71.2842C25.8821 71.3816 25.6867 71.4342 25.4874 71.4372C25.3288 71.4372 25.1718 71.4057 25.0254 71.3447C24.879 71.2836 24.7462 71.1942 24.6346 71.0815C24.5231 70.9688 24.4349 70.8351 24.3753 70.6881C24.3157 70.5412 24.2859 70.3838 24.2875 70.2252ZM24.5454 70.0273H26.4113C26.376 69.8067 26.2639 69.6057 26.0949 69.4598C25.9259 69.3138 25.7107 69.2322 25.4874 69.2293C25.2572 69.2314 25.0354 69.3162 24.8625 69.4682C24.6896 69.6202 24.5771 69.8292 24.5454 70.0573V70.0273Z" fill="black"/>
<path d="M28.2292 71.4373C28.207 71.4231 28.1902 71.402 28.1812 71.3773L27.2572 69.1754C27.2503 69.1613 27.2464 69.146 27.2457 69.1303C27.245 69.1146 27.2476 69.099 27.2532 69.0844C27.2588 69.0697 27.2674 69.0564 27.2784 69.0452C27.2895 69.034 27.3027 69.0253 27.3172 69.0194C27.3467 69.0076 27.3796 69.0079 27.4089 69.0202C27.4381 69.0326 27.4612 69.056 27.4732 69.0854L28.2892 71.0293L28.8891 69.6734C28.8997 69.6504 28.9166 69.631 28.9378 69.6173C28.9591 69.6037 28.9838 69.5964 29.0091 69.5964C29.0344 69.5964 29.0591 69.6037 29.0804 69.6173C29.1017 69.631 29.1186 69.6504 29.1291 69.6734L29.7291 71.0293L30.539 69.0854C30.5533 69.0566 30.5777 69.0339 30.6075 69.0218C30.6373 69.0096 30.6706 69.0088 30.701 69.0194C30.7156 69.0253 30.7288 69.034 30.7398 69.0452C30.7508 69.0564 30.7594 69.0697 30.765 69.0844C30.7707 69.099 30.7732 69.1146 30.7725 69.1303C30.7718 69.146 30.7679 69.1613 30.761 69.1754L29.8431 71.3713C29.8325 71.3951 29.816 71.4158 29.7951 71.4313C29.7755 71.4369 29.7547 71.4369 29.7351 71.4313C29.7135 71.4282 29.6932 71.4193 29.6762 71.4056C29.6593 71.3919 29.6465 71.3738 29.6391 71.3533L29.0691 69.9914L28.4991 71.3533C28.4909 71.3755 28.4762 71.3948 28.457 71.4086C28.4378 71.4225 28.4149 71.4304 28.3912 71.4313H28.3492L28.2292 71.4373Z" fill="black"/>
<path d="M33.3105 68.0531C33.3105 68.0213 33.3232 67.9908 33.3457 67.9683C33.3682 67.9457 33.3987 67.9331 33.4305 67.9331H34.4265C34.6922 67.9331 34.947 68.0387 35.1349 68.2266C35.3228 68.4145 35.4284 68.6693 35.4284 68.935C35.4284 69.2008 35.3228 69.4556 35.1349 69.6435C34.947 69.8314 34.6922 69.937 34.4265 69.937H33.5565V71.3229C33.5566 71.3391 33.5533 71.3553 33.5469 71.3702C33.5405 71.3852 33.5311 71.3987 33.5193 71.4099C33.5075 71.4211 33.4936 71.4298 33.4783 71.4355C33.463 71.4412 33.4468 71.4437 33.4305 71.4429C33.3987 71.4429 33.3682 71.4302 33.3457 71.4077C33.3232 71.3852 33.3105 71.3547 33.3105 71.3229V68.0531ZM34.4265 69.703C34.6286 69.6999 34.8215 69.6177 34.9639 69.4742C35.1063 69.3307 35.1869 69.1372 35.1884 68.935C35.1868 68.734 35.1059 68.5417 34.9631 68.4001C34.8204 68.2585 34.6275 68.1791 34.4265 68.1791H33.5565V69.703H34.4265Z" fill="black"/>
<path d="M38.2602 69.1092V71.3351C38.2602 71.3669 38.2476 71.3974 38.2251 71.4199C38.2026 71.4424 38.172 71.4551 38.1402 71.4551C38.1084 71.4551 38.0779 71.4424 38.0554 71.4199C38.0329 71.3974 38.0202 71.3669 38.0202 71.3351V70.9691C37.9121 71.1153 37.7723 71.2349 37.6112 71.3191C37.4501 71.4033 37.272 71.4498 37.0903 71.4551C36.7782 71.4333 36.4859 71.2939 36.2725 71.0651C36.0591 70.8363 35.9404 70.5351 35.9404 70.2222C35.9404 69.9093 36.0591 69.608 36.2725 69.3792C36.4859 69.1504 36.7782 69.011 37.0903 68.9893C37.2715 68.9938 37.4493 69.0394 37.6103 69.1225C37.7714 69.2056 37.9115 69.3242 38.0202 69.4692V69.1092C38.0202 69.0774 38.0329 69.0469 38.0554 69.0244C38.0779 69.0019 38.1084 68.9893 38.1402 68.9893C38.172 68.9893 38.2026 69.0019 38.2251 69.0244C38.2476 69.0469 38.2602 69.0774 38.2602 69.1092ZM38.0202 70.2192C38.0074 70.0386 37.9421 69.8657 37.8324 69.7217C37.7228 69.5777 37.5734 69.4689 37.4028 69.4085C37.2322 69.3481 37.0476 69.3389 36.8718 69.3818C36.6959 69.4248 36.5365 69.5182 36.4129 69.6505C36.2894 69.7828 36.2072 69.9483 36.1763 70.1267C36.1455 70.305 36.1673 70.4885 36.2392 70.6546C36.3112 70.8207 36.43 70.9623 36.5812 71.0618C36.7323 71.1614 36.9093 71.2146 37.0903 71.2151C37.3455 71.2057 37.5865 71.0957 37.7608 70.9091C37.935 70.7224 38.0283 70.4744 38.0202 70.2192Z" fill="black"/>
<path d="M39.1361 70.939C39.1473 70.9272 39.1608 70.9178 39.1757 70.9114C39.1907 70.905 39.2068 70.9016 39.2231 70.9016C39.2394 70.9016 39.2555 70.905 39.2704 70.9114C39.2854 70.9178 39.2989 70.9272 39.3101 70.939C39.5232 71.112 39.7859 71.2128 40.06 71.227C40.2313 71.2316 40.3989 71.1764 40.534 71.071C40.5878 71.0407 40.633 70.9974 40.6655 70.9449C40.6981 70.8925 40.7168 70.8326 40.72 70.771C40.7154 70.7104 40.6968 70.6518 40.6655 70.5997C40.6343 70.5476 40.5913 70.5036 40.54 70.471C40.3838 70.3683 40.2043 70.3064 40.018 70.291C39.8207 70.2668 39.6306 70.2014 39.4601 70.0991C39.3805 70.0553 39.3141 69.991 39.2677 69.913C39.2213 69.8349 39.1966 69.7459 39.1961 69.6551C39.1979 69.5589 39.2228 69.4645 39.2687 69.3799C39.3147 69.2953 39.3803 69.223 39.4601 69.1691C39.6403 69.0585 39.8486 69.0022 40.06 69.0071C40.325 69.0196 40.5801 69.1116 40.792 69.2711C40.8197 69.2895 40.8391 69.3181 40.8459 69.3507C40.8526 69.3833 40.8462 69.4172 40.828 69.4451C40.8108 69.4708 40.7844 69.4889 40.7542 69.4956C40.724 69.5023 40.6924 69.4971 40.666 69.4811C40.4969 69.3371 40.2873 69.249 40.066 69.2291C39.8982 69.2225 39.7331 69.2733 39.5981 69.3731C39.5519 69.4048 39.5138 69.4467 39.4867 69.4957C39.4597 69.5446 39.4444 69.5992 39.4421 69.6551C39.442 69.7045 39.4547 69.753 39.4789 69.7961C39.5031 69.8392 39.5379 69.8753 39.5801 69.9011C39.7329 69.9961 39.9051 70.0556 40.084 70.0751C40.2949 70.1016 40.4987 70.1689 40.684 70.273C40.7669 70.3277 40.835 70.4021 40.8821 70.4895C40.9292 70.5769 40.9538 70.6747 40.9538 70.774C40.9538 70.8733 40.9292 70.9711 40.8821 71.0585C40.835 71.1459 40.7669 71.2203 40.684 71.275C40.5102 71.4032 40.3 71.4725 40.084 71.473C39.7507 71.4607 39.4314 71.336 39.1781 71.119C39.1604 71.1132 39.1445 71.103 39.132 71.0893C39.1194 71.0756 39.1106 71.0589 39.1063 71.0408C39.1021 71.0227 39.1026 71.0038 39.1078 70.986C39.1131 70.9682 39.1228 70.952 39.1361 70.939Z" fill="black"/>
<path d="M41.5661 70.939C41.5768 70.9274 41.5897 70.9181 41.6042 70.9118C41.6187 70.9054 41.6343 70.9021 41.6501 70.9021C41.6659 70.9021 41.6815 70.9054 41.696 70.9118C41.7104 70.9181 41.7234 70.9274 41.7341 70.939C41.9501 71.1111 42.2143 71.2117 42.49 71.227C42.6597 71.2328 42.8257 71.1774 42.958 71.071C43.0118 71.0408 43.057 70.9974 43.0895 70.9449C43.122 70.8925 43.1408 70.8327 43.144 70.7711C43.1405 70.7109 43.123 70.6524 43.0928 70.6003C43.0625 70.5482 43.0205 70.5039 42.97 70.4711C42.8134 70.3692 42.6341 70.3074 42.448 70.2911C42.2504 70.2679 42.0601 70.2024 41.8901 70.0991C41.8098 70.0556 41.7425 69.9916 41.6951 69.9136C41.6477 69.8356 41.6218 69.7464 41.6201 69.6551C41.6225 69.5584 41.6484 69.4636 41.6954 69.379C41.7424 69.2944 41.8092 69.2224 41.8901 69.1692C42.0701 69.0582 42.2786 69.0019 42.49 69.0072C42.7568 69.0195 43.0139 69.1115 43.228 69.2712C43.2498 69.2911 43.264 69.318 43.268 69.3473C43.272 69.3766 43.2655 69.4063 43.2498 69.4314C43.2341 69.4564 43.2101 69.4751 43.1819 69.4842C43.1538 69.4933 43.1234 69.4922 43.096 69.4811C42.9282 69.335 42.7178 69.2467 42.496 69.2292C42.3284 69.2244 42.164 69.275 42.0281 69.3731C41.9829 69.4057 41.9455 69.4479 41.9185 69.4967C41.8915 69.5454 41.8757 69.5995 41.8721 69.6551C41.8732 69.705 41.8871 69.7537 41.9123 69.7967C41.9374 69.8398 41.9732 69.8757 42.016 69.9011C42.1689 69.9962 42.3411 70.0556 42.52 70.0751C42.7313 70.1 42.9354 70.1673 43.12 70.2731C43.2045 70.3273 43.274 70.4018 43.3222 70.4899C43.3704 70.5779 43.3958 70.6767 43.396 70.777C43.3948 70.8764 43.369 70.9739 43.3208 71.0609C43.2726 71.1478 43.2036 71.2214 43.12 71.275C42.9458 71.4025 42.7358 71.4718 42.52 71.473C42.1852 71.4593 41.8644 71.3348 41.6081 71.119C41.5914 71.1121 41.5767 71.1012 41.565 71.0875C41.5534 71.0737 41.5452 71.0573 41.5411 71.0398C41.537 71.0222 41.5371 71.0039 41.5414 70.9864C41.5458 70.9689 41.5542 70.9527 41.5661 70.939Z" fill="black"/>
<path d="M44.9621 71.4373C44.9399 71.4231 44.9231 71.402 44.9141 71.3773L43.9902 69.1754C43.9832 69.1613 43.9793 69.146 43.9786 69.1303C43.9779 69.1146 43.9805 69.099 43.9861 69.0844C43.9917 69.0697 44.0003 69.0564 44.0114 69.0452C44.0224 69.034 44.0356 69.0253 44.0501 69.0194C44.0796 69.0076 44.1125 69.0079 44.1418 69.0202C44.171 69.0326 44.1942 69.056 44.2061 69.0854L45.0221 71.0293L45.592 69.6734C45.6026 69.6504 45.6195 69.631 45.6407 69.6173C45.662 69.6037 45.6868 69.5964 45.712 69.5964C45.7373 69.5964 45.762 69.6037 45.7833 69.6173C45.8046 69.631 45.8215 69.6504 45.832 69.6734L46.402 71.0293L47.2119 69.0854C47.2251 69.057 47.2483 69.0345 47.2772 69.0223C47.306 69.0101 47.3384 69.0091 47.3679 69.0194C47.383 69.0247 47.3968 69.033 47.4085 69.0439C47.4202 69.0548 47.4294 69.068 47.4356 69.0828C47.4418 69.0975 47.4449 69.1133 47.4446 69.1293C47.4443 69.1452 47.4407 69.161 47.4339 69.1754L46.546 71.3713C46.5355 71.3951 46.5189 71.4158 46.498 71.4313C46.4784 71.4369 46.4576 71.4369 46.438 71.4313C46.4164 71.4282 46.3961 71.4193 46.3792 71.4056C46.3622 71.3919 46.3494 71.3738 46.342 71.3533L45.772 69.9914L45.1721 71.3533C45.1638 71.3755 45.1491 71.3948 45.1299 71.4086C45.1107 71.4225 45.0878 71.4304 45.0641 71.4313H45.0221L44.9621 71.4373Z" fill="black"/>
<path d="M49.4017 68.9891C49.6488 68.9759 49.8942 69.0371 50.1061 69.1649C50.3179 69.2927 50.4866 69.4812 50.5902 69.7059C50.6937 69.9306 50.7275 70.1812 50.687 70.4253C50.6466 70.6694 50.5338 70.8957 50.3632 71.075C50.1927 71.2543 49.9723 71.3783 49.7305 71.4309C49.4887 71.4835 49.2367 71.4623 49.0071 71.3701C48.7775 71.2779 48.5809 71.1189 48.4426 70.9136C48.3044 70.7084 48.231 70.4664 48.2318 70.219C48.2278 70.0614 48.2549 69.9046 48.3116 69.7575C48.3682 69.6103 48.4533 69.4758 48.562 69.3616C48.6706 69.2474 48.8007 69.1557 48.9448 69.0918C49.0889 69.0279 49.2442 68.993 49.4017 68.9891ZM49.4017 71.2149C49.6012 71.2294 49.8003 71.1835 49.9733 71.0832C50.1462 70.9829 50.285 70.8329 50.3716 70.6526C50.4581 70.4724 50.4884 70.2703 50.4585 70.0726C50.4286 69.8749 50.3398 69.6908 50.2039 69.5442C50.0679 69.3977 49.8909 69.2954 49.6961 69.2508C49.5012 69.2062 49.2974 69.2212 49.1111 69.294C48.9249 69.3668 48.7649 69.494 48.652 69.6589C48.539 69.8239 48.4783 70.0191 48.4778 70.219C48.4697 70.4732 48.5621 70.7204 48.7351 70.9068C48.9081 71.0933 49.1476 71.204 49.4017 71.2149Z" fill="black"/>
<path d="M51.3994 69.1153C51.3994 69.099 51.4027 69.0829 51.4091 69.0679C51.4155 69.053 51.4249 69.0395 51.4367 69.0282C51.4484 69.017 51.4624 69.0083 51.4776 69.0026C51.4929 68.997 51.5092 68.9945 51.5254 68.9953C51.5409 68.9953 51.5562 68.9984 51.5705 69.0045C51.5847 69.0106 51.5975 69.0195 51.6082 69.0308C51.6189 69.042 51.6271 69.0553 51.6325 69.0698C51.6379 69.0843 51.6402 69.0998 51.6394 69.1153V69.6552L51.6754 69.5952C51.7759 69.4207 51.9187 69.2743 52.0906 69.1694C52.2626 69.0646 52.4582 69.0047 52.6593 68.9953C52.6753 68.9944 52.6913 68.9969 52.7063 69.0027C52.7212 69.0084 52.7348 69.0172 52.7461 69.0285C52.7574 69.0398 52.7662 69.0534 52.772 69.0684C52.7777 69.0833 52.7802 69.0993 52.7793 69.1153C52.7793 69.1471 52.7667 69.1776 52.7442 69.2001C52.7217 69.2226 52.6912 69.2353 52.6593 69.2353C52.5168 69.24 52.3775 69.279 52.2532 69.349C52.1289 69.419 52.0234 69.5178 51.9454 69.6372C51.814 69.8191 51.7146 70.022 51.6514 70.2372C51.6477 70.2489 51.6477 70.2615 51.6514 70.2732V71.3591C51.6514 71.3899 51.6396 71.4196 51.6184 71.4419C51.5972 71.4643 51.5682 71.4776 51.5374 71.4791C51.5212 71.4799 51.5049 71.4774 51.4896 71.4718C51.4744 71.4661 51.4604 71.4574 51.4487 71.4462C51.4369 71.4349 51.4275 71.4214 51.4211 71.4065C51.4147 71.3915 51.4114 71.3754 51.4114 71.3591L51.3994 69.1153Z" fill="black"/>
<path d="M55.4552 70.975C55.3447 71.1225 55.2017 71.2424 55.0373 71.3257C54.8729 71.4089 54.6915 71.4532 54.5073 71.455C54.1952 71.4332 53.9029 71.2939 53.6895 71.065C53.4761 70.8362 53.3574 70.535 53.3574 70.2221C53.3574 69.9092 53.4761 69.608 53.6895 69.3791C53.9029 69.1503 54.1952 69.011 54.5073 68.9892C54.6915 68.991 54.8729 69.0353 55.0373 69.1185C55.2017 69.2018 55.3447 69.3217 55.4552 69.4691V68.0532C55.4552 68.037 55.4585 68.0209 55.4649 68.0059C55.4713 67.9909 55.4807 67.9774 55.4925 67.9662C55.5042 67.955 55.5182 67.9463 55.5334 67.9406C55.5487 67.9349 55.5649 67.9324 55.5812 67.9333C55.613 67.9333 55.6435 67.9459 55.666 67.9684C55.6886 67.9909 55.7012 68.0214 55.7012 68.0532V71.335C55.7012 71.3668 55.6886 71.3974 55.666 71.4199C55.6435 71.4424 55.613 71.455 55.5812 71.455C55.5649 71.4558 55.5487 71.4533 55.5334 71.4477C55.5182 71.442 55.5042 71.4333 55.4925 71.4221C55.4807 71.4108 55.4713 71.3973 55.4649 71.3824C55.4585 71.3674 55.4552 71.3513 55.4552 71.335V70.975ZM55.4552 70.2671V70.1831C55.4442 69.926 55.333 69.6835 55.1453 69.5074C54.9576 69.3314 54.7084 69.2359 54.4512 69.2414C54.1939 69.2469 53.949 69.3529 53.769 69.5368C53.589 69.7207 53.4882 69.9678 53.4882 70.2251C53.4882 70.4824 53.589 70.7295 53.769 70.9134C53.949 71.0973 54.1939 71.2033 54.4512 71.2088C54.7084 71.2143 54.9576 71.1188 55.1453 70.9428C55.333 70.7667 55.4442 70.5242 55.4552 70.2671Z" fill="black"/>
<path d="M108.492 73.999H20.3096V83.6464H108.492V73.999Z" fill="#EBEBEB"/>
<path d="M22.3135 88.2599C22.7261 88.2603 23.127 88.3974 23.4534 88.6499C23.4758 88.6733 23.4883 88.7045 23.4883 88.7369C23.4883 88.7693 23.4758 88.8004 23.4534 88.8239C23.4422 88.8357 23.4287 88.8451 23.4137 88.8515C23.3988 88.8579 23.3827 88.8612 23.3664 88.8612C23.3501 88.8612 23.334 88.8579 23.3191 88.8515C23.3041 88.8451 23.2906 88.8357 23.2794 88.8239C22.9987 88.6035 22.6524 88.4831 22.2955 88.4819C21.8865 88.4819 21.4944 88.6443 21.2052 88.9335C20.916 89.2227 20.7536 89.6149 20.7536 90.0238C20.7536 90.4327 20.916 90.8249 21.2052 91.1141C21.4944 91.4032 21.8865 91.5657 22.2955 91.5657C22.6516 91.5709 22.9981 91.4498 23.2734 91.2237C23.3008 91.2085 23.3326 91.2035 23.3633 91.2096C23.394 91.2156 23.4215 91.2324 23.441 91.2569C23.4605 91.2814 23.4706 91.3121 23.4696 91.3433C23.4685 91.3746 23.4564 91.4045 23.4354 91.4277C23.1082 91.678 22.7074 91.813 22.2955 91.8117C21.8181 91.8117 21.3603 91.622 21.0228 91.2845C20.6852 90.947 20.4956 90.4891 20.4956 90.0118C20.4956 89.5344 20.6852 89.0766 21.0228 88.7391C21.3603 88.4016 21.8181 88.2119 22.2955 88.2119L22.3135 88.2599Z" fill="black"/>
<path d="M25.4631 89.3698C25.7104 89.3553 25.9563 89.4155 26.1689 89.5426C26.3815 89.6696 26.5511 89.8575 26.6556 90.0821C26.7601 90.3066 26.7948 90.5574 26.755 90.8018C26.7153 91.0463 26.603 91.2732 26.4328 91.4531C26.2626 91.633 26.0422 91.7576 25.8003 91.8107C25.5584 91.8639 25.3061 91.8431 25.0761 91.7511C24.8462 91.6591 24.6491 91.5002 24.5106 91.2949C24.3721 91.0896 24.2984 90.8474 24.2992 90.5997C24.2911 90.2824 24.4091 89.9749 24.6272 89.7444C24.8454 89.5139 25.1459 89.3792 25.4631 89.3698ZM25.4631 91.5956C25.6626 91.6101 25.8617 91.5642 26.0347 91.4639C26.2076 91.3636 26.3464 91.2136 26.4329 91.0333C26.5195 90.8531 26.5498 90.651 26.5199 90.4533C26.4899 90.2556 26.4012 90.0715 26.2653 89.9249C26.1293 89.7784 25.9523 89.6761 25.7574 89.6315C25.5626 89.5869 25.3587 89.6019 25.1725 89.6747C24.9863 89.7475 24.8263 89.8747 24.7134 90.0396C24.6004 90.2046 24.5397 90.3998 24.5392 90.5997C24.5326 90.8535 24.6256 91.0998 24.7983 91.2859C24.9709 91.472 25.2096 91.5832 25.4631 91.5956Z" fill="black"/>
<path d="M29.3271 90.378C29.3271 90.2764 29.3068 90.1758 29.2674 90.0822C29.228 89.9885 29.1703 89.9037 29.0976 89.8327C29.0249 89.7617 28.9388 89.706 28.8443 89.6688C28.7497 89.6315 28.6487 89.6136 28.5472 89.616C28.345 89.6176 28.1515 89.6981 28.0079 89.8405C27.8644 89.9829 27.7823 90.1758 27.7792 90.378V91.7339C27.7792 91.7339 27.7792 91.7759 27.7792 91.7879C27.7693 91.8027 27.7559 91.8148 27.7402 91.8232C27.7245 91.8315 27.707 91.8359 27.6892 91.8359H27.6592C27.6423 91.8309 27.6267 91.8225 27.6132 91.8111C27.5998 91.7998 27.5889 91.7857 27.5812 91.7699V89.496C27.5804 89.48 27.5829 89.464 27.5886 89.4491C27.5943 89.4341 27.6031 89.4206 27.6144 89.4092C27.6258 89.3979 27.6393 89.3891 27.6543 89.3834C27.6692 89.3777 27.6852 89.3752 27.7012 89.376C27.7167 89.376 27.732 89.3791 27.7463 89.3852C27.7605 89.3913 27.7733 89.4003 27.784 89.4115C27.7947 89.4227 27.8029 89.436 27.8083 89.4506C27.8137 89.4651 27.816 89.4805 27.8152 89.496V89.73C27.9475 89.5721 28.1254 89.4588 28.3244 89.4056C28.5235 89.3524 28.7341 89.3618 28.9276 89.4327C29.1211 89.5035 29.2881 89.6323 29.4057 89.8014C29.5234 89.9706 29.586 90.1719 29.5851 90.378V91.7159C29.5851 91.7477 29.5724 91.7782 29.5499 91.8007C29.5274 91.8232 29.4969 91.8359 29.4651 91.8359C29.4333 91.8359 29.4027 91.8232 29.3802 91.8007C29.3577 91.7782 29.3451 91.7477 29.3451 91.7159L29.3271 90.378Z" fill="black"/>
<path d="M31.739 88.4397C31.7375 88.4711 31.7244 88.5007 31.7022 88.5229C31.68 88.5451 31.6504 88.5582 31.619 88.5597C31.445 88.5597 31.355 88.5957 31.307 88.6557C31.2249 88.7749 31.1887 88.9198 31.205 89.0637V89.3276H31.547C31.5654 89.3235 31.5845 89.3236 31.6029 89.3279C31.6213 89.3322 31.6385 89.3405 31.6532 89.3524C31.6679 89.3642 31.6798 89.3791 31.6879 89.3961C31.6961 89.4131 31.7003 89.4318 31.7003 89.4506C31.7003 89.4695 31.6961 89.4881 31.6879 89.5051C31.6798 89.5221 31.6679 89.5371 31.6532 89.5489C31.6385 89.5607 31.6213 89.5691 31.6029 89.5733C31.5845 89.5776 31.5654 89.5777 31.547 89.5736H31.199V91.7215C31.1976 91.7528 31.1845 91.7825 31.1623 91.8047C31.1401 91.8269 31.1104 91.84 31.079 91.8415C31.0466 91.8415 31.0155 91.8291 30.992 91.8067C30.9685 91.7844 30.9546 91.7538 30.953 91.7215V89.5736H30.6231C30.6068 89.5736 30.5907 89.5704 30.5757 89.564C30.5608 89.5576 30.5473 89.5482 30.536 89.5364C30.5248 89.5246 30.5161 89.5107 30.5104 89.4954C30.5048 89.4801 30.5023 89.4639 30.5031 89.4476C30.5031 89.4158 30.5157 89.3853 30.5382 89.3628C30.5607 89.3403 30.5913 89.3276 30.6231 89.3276H30.9471V89.0637C30.9206 88.8511 30.9764 88.6365 31.103 88.4637C31.1702 88.4008 31.2496 88.3523 31.3363 88.3214C31.423 88.2904 31.5152 88.2776 31.607 88.2837C31.6266 88.2834 31.6459 88.2874 31.6637 88.2955C31.6815 88.3036 31.6973 88.3155 31.71 88.3304C31.7226 88.3453 31.7318 88.3629 31.7368 88.3818C31.7418 88.4007 31.7426 88.4205 31.739 88.4397Z" fill="black"/>
<path d="M32.4766 88.686C32.4725 88.6676 32.4726 88.6485 32.4769 88.6301C32.4812 88.6118 32.4895 88.5946 32.5013 88.5799C32.5131 88.5652 32.5281 88.5533 32.5451 88.5451C32.5621 88.5369 32.5808 88.5327 32.5996 88.5327C32.6185 88.5327 32.6371 88.5369 32.6541 88.5451C32.6711 88.5533 32.6861 88.5652 32.6979 88.5799C32.7097 88.5946 32.7181 88.6118 32.7223 88.6301C32.7266 88.6485 32.7267 88.6676 32.7226 88.686V88.8C32.7267 88.8184 32.7266 88.8375 32.7223 88.8559C32.7181 88.8743 32.7097 88.8915 32.6979 88.9062C32.6861 88.9209 32.6711 88.9328 32.6541 88.9409C32.6371 88.9491 32.6185 88.9534 32.5996 88.9534C32.5808 88.9534 32.5621 88.9491 32.5451 88.9409C32.5281 88.9328 32.5131 88.9209 32.5013 88.9062C32.4895 88.8915 32.4812 88.8743 32.4769 88.8559C32.4726 88.8375 32.4725 88.8184 32.4766 88.8V88.686ZM32.4766 89.49C32.4758 89.474 32.4783 89.458 32.484 89.4431C32.4897 89.4281 32.4985 89.4145 32.5099 89.4032C32.5212 89.3919 32.5347 89.3831 32.5497 89.3774C32.5646 89.3716 32.5806 89.3691 32.5966 89.37C32.6129 89.3692 32.6291 89.3717 32.6444 89.3773C32.6596 89.383 32.6736 89.3917 32.6854 89.4029C32.6972 89.4142 32.7065 89.4277 32.7129 89.4426C32.7193 89.4576 32.7226 89.4737 32.7226 89.49V91.7158C32.7226 91.7321 32.7193 91.7482 32.7129 91.7632C32.7065 91.7781 32.6972 91.7916 32.6854 91.8029C32.6736 91.8141 32.6596 91.8228 32.6444 91.8285C32.6291 91.8341 32.6129 91.8366 32.5966 91.8358C32.5648 91.8358 32.5343 91.8232 32.5118 91.8007C32.4893 91.7782 32.4766 91.7477 32.4766 91.7158V89.49Z" fill="black"/>
<path d="M33.8867 89.4956C33.8867 89.4794 33.89 89.4633 33.8964 89.4483C33.9028 89.4333 33.9122 89.4198 33.924 89.4086C33.9357 89.3974 33.9497 89.3887 33.965 89.383C33.9802 89.3773 33.9965 89.3748 34.0127 89.3757C34.0445 89.3757 34.0751 89.3883 34.0976 89.4108C34.1201 89.4333 34.1327 89.4638 34.1327 89.4956V90.0356C34.1415 90.015 34.1515 89.995 34.1627 89.9756C34.2637 89.8002 34.4075 89.6533 34.5805 89.5484C34.7536 89.4435 34.9504 89.3841 35.1526 89.3757C35.1686 89.3748 35.1846 89.3773 35.1996 89.383C35.2145 89.3887 35.2281 89.3976 35.2394 89.4089C35.2507 89.4202 35.2595 89.4338 35.2653 89.4487C35.271 89.4637 35.2735 89.4797 35.2726 89.4956C35.2726 89.5275 35.26 89.558 35.2375 89.5805C35.215 89.603 35.1845 89.6156 35.1526 89.6156C35.01 89.6199 34.8705 89.6587 34.7461 89.7287C34.6218 89.7987 34.5163 89.8978 34.4387 90.0176C34.3087 90.2012 34.2076 90.4035 34.1387 90.6176C34.1367 90.6295 34.1367 90.6417 34.1387 90.6536V91.7395C34.1325 91.7675 34.1169 91.7925 34.0945 91.8104C34.0722 91.8284 34.0444 91.8382 34.0157 91.8382C33.9871 91.8382 33.9592 91.8284 33.9369 91.8104C33.9145 91.7925 33.8989 91.7675 33.8927 91.7395L33.8867 89.4956Z" fill="black"/>
<path d="M39.6285 90.3779C39.6254 90.1751 39.5435 89.9816 39.4001 89.8383C39.2568 89.6949 39.0632 89.613 38.8605 89.6099C38.6589 89.6131 38.4667 89.6954 38.3252 89.839C38.1838 89.9827 38.1045 90.1762 38.1046 90.3779V91.7458C38.0928 91.774 38.0716 91.7974 38.0446 91.8118C38.0249 91.8171 38.0042 91.8171 37.9846 91.8118H37.9486V91.7698V90.4258C37.9486 90.3258 37.9289 90.2267 37.8906 90.1343C37.8523 90.0418 37.7962 89.9578 37.7254 89.8871C37.6547 89.8163 37.5707 89.7602 37.4782 89.7219C37.3858 89.6836 37.2867 89.6639 37.1866 89.6639C37.0866 89.6639 36.9875 89.6836 36.8951 89.7219C36.8026 89.7602 36.7186 89.8163 36.6479 89.8871C36.5771 89.9578 36.521 90.0418 36.4827 90.1343C36.4444 90.2267 36.4247 90.3258 36.4247 90.4258V91.7698C36.4245 91.789 36.4195 91.8079 36.4101 91.8247C36.4006 91.8415 36.3871 91.8556 36.3707 91.8658H36.3227C36.2991 91.8614 36.2772 91.8508 36.2592 91.8349C36.2412 91.819 36.2279 91.7986 36.2207 91.7758V89.5199C36.2207 89.4897 36.2327 89.4607 36.2541 89.4393C36.2755 89.4179 36.3045 89.4059 36.3347 89.4059C36.3502 89.4051 36.3656 89.4075 36.3802 89.4128C36.3947 89.4182 36.408 89.4264 36.4192 89.4371C36.4304 89.4478 36.4394 89.4606 36.4455 89.4749C36.4516 89.4891 36.4547 89.5044 36.4547 89.5199V89.7539C36.5483 89.6434 36.6651 89.5549 36.7968 89.4948C36.9285 89.4346 37.0719 89.4043 37.2166 89.4059C37.397 89.4055 37.5742 89.4537 37.7294 89.5456C37.8846 89.6375 38.0122 89.7695 38.0986 89.9279C38.1865 89.7708 38.3143 89.6398 38.4692 89.5481C38.6241 89.4564 38.8005 89.4074 38.9805 89.4059C39.1123 89.4051 39.243 89.4305 39.3649 89.4806C39.4868 89.5306 39.5976 89.6044 39.6908 89.6976C39.784 89.7908 39.8577 89.9016 39.9078 90.0235C39.9579 90.1454 39.9832 90.2761 39.9824 90.4079V91.7518C39.9825 91.7672 39.9793 91.7826 39.9732 91.7968C39.9671 91.811 39.9582 91.8239 39.947 91.8346C39.9357 91.8452 39.9225 91.8535 39.9079 91.8589C39.8934 91.8642 39.8779 91.8666 39.8625 91.8658C39.8322 91.8658 39.8032 91.8537 39.7819 91.8324C39.7605 91.811 39.7485 91.782 39.7485 91.7518L39.6285 90.3779Z" fill="black"/>
<path d="M42.712 88.8297V91.7155C42.712 91.7473 42.6993 91.7779 42.6768 91.8004C42.6543 91.8229 42.6238 91.8355 42.592 91.8355C42.5601 91.8355 42.5296 91.8229 42.5071 91.8004C42.4846 91.7779 42.472 91.7473 42.472 91.7155V88.4817C42.464 88.4572 42.4638 88.4308 42.4713 88.4061C42.4788 88.3814 42.4937 88.3597 42.514 88.3437C42.5419 88.3276 42.5746 88.3218 42.6064 88.3273C42.6382 88.3327 42.667 88.3492 42.688 88.3737L44.8238 91.3375V88.4697C44.8197 88.4513 44.8198 88.4322 44.8241 88.4138C44.8284 88.3955 44.8367 88.3783 44.8485 88.3636C44.8603 88.3488 44.8753 88.337 44.8923 88.3288C44.9093 88.3206 44.9279 88.3164 44.9468 88.3164C44.9657 88.3164 44.9843 88.3206 45.0013 88.3288C45.0183 88.337 45.0333 88.3488 45.0451 88.3636C45.0569 88.3783 45.0652 88.3955 45.0695 88.4138C45.0738 88.4322 45.0739 88.4513 45.0698 88.4697V91.7155C45.0698 91.7318 45.0665 91.7479 45.0601 91.7629C45.0537 91.7778 45.0444 91.7913 45.0326 91.8025C45.0208 91.8138 45.0068 91.8225 44.9916 91.8281C44.9763 91.8338 44.9601 91.8363 44.9438 91.8355C44.9251 91.836 44.9065 91.8319 44.8898 91.8235C44.8731 91.8151 44.8586 91.8028 44.8478 91.7875L42.712 88.8297Z" fill="black"/>
<path d="M46.1078 90.6056C46.0958 90.2874 46.2108 89.9774 46.4274 89.744C46.644 89.5105 46.9445 89.3726 47.2627 89.3607C47.5809 89.3488 47.8909 89.4637 48.1243 89.6803C48.3578 89.8969 48.4957 90.1974 48.5076 90.5156C48.5061 90.5464 48.4927 90.5754 48.4704 90.5966C48.4481 90.6178 48.4184 90.6297 48.3876 90.6296H46.3598C46.366 90.8811 46.4694 91.1205 46.6485 91.2973C46.8275 91.4741 47.0681 91.5745 47.3197 91.5776C47.4793 91.5774 47.6362 91.5358 47.775 91.4569C47.9138 91.3781 48.0298 91.2646 48.1116 91.1276C48.1279 91.1009 48.1539 91.0815 48.1841 91.0737C48.2144 91.0658 48.2465 91.0701 48.2736 91.0856C48.3012 91.104 48.3208 91.1321 48.3286 91.1644C48.3364 91.1966 48.3318 91.2306 48.3156 91.2596C48.209 91.428 48.0621 91.5672 47.8883 91.6646C47.7144 91.762 47.519 91.8146 47.3197 91.8175C47.1601 91.8191 47.0018 91.7889 46.854 91.7286C46.7063 91.6682 46.572 91.579 46.4592 91.4661C46.3463 91.3533 46.2571 91.2191 46.1968 91.0713C46.1364 90.9235 46.1062 90.7652 46.1078 90.6056ZM46.3658 90.4076H48.2316C48.1963 90.1871 48.0843 89.9861 47.9152 89.8401C47.7462 89.6941 47.531 89.6125 47.3077 89.6097C47.0819 89.6107 46.8637 89.6912 46.6915 89.8372C46.5192 89.9831 46.4039 90.1851 46.3658 90.4076Z" fill="black"/>
<path d="M50.0495 91.8177C50.0273 91.8035 50.0105 91.7824 50.0015 91.7577L49.0775 89.5558C49.0706 89.5417 49.0667 89.5264 49.066 89.5107C49.0653 89.495 49.0679 89.4794 49.0735 89.4647C49.0791 89.4501 49.0877 89.4368 49.0988 89.4256C49.1098 89.4144 49.123 89.4056 49.1375 89.3998C49.167 89.3879 49.1999 89.3882 49.2292 89.4006C49.2584 89.413 49.2815 89.4364 49.2935 89.4658L50.1095 91.4097L50.6794 90.0538C50.69 90.0308 50.7069 90.0113 50.7281 89.9977C50.7494 89.984 50.7742 89.9768 50.7994 89.9768C50.8247 89.9768 50.8494 89.984 50.8707 89.9977C50.892 90.0113 50.9089 90.0308 50.9194 90.0538L51.4834 91.4097L52.2993 89.4658C52.3125 89.4374 52.3357 89.4149 52.3646 89.4027C52.3934 89.3905 52.4258 89.3895 52.4553 89.3998C52.4704 89.405 52.4842 89.4134 52.4959 89.4243C52.5076 89.4352 52.5168 89.4484 52.523 89.4631C52.5292 89.4778 52.5323 89.4937 52.532 89.5096C52.5317 89.5256 52.5281 89.5413 52.5213 89.5558L51.6034 91.7517C51.5928 91.7755 51.5763 91.7962 51.5554 91.8116C51.5357 91.8165 51.5151 91.8165 51.4954 91.8116C51.4738 91.8086 51.4535 91.7997 51.4366 91.786C51.4196 91.7722 51.4068 91.7542 51.3994 91.7337L50.8294 90.3717L50.2295 91.7337C50.2212 91.7559 50.2065 91.7751 50.1873 91.789C50.1681 91.8029 50.1452 91.8108 50.1215 91.8116H50.0795L50.0495 91.8177Z" fill="black"/>
<path d="M55.1313 88.434C55.1313 88.4021 55.144 88.3716 55.1665 88.3491C55.189 88.3266 55.2195 88.314 55.2513 88.314H56.2473C56.513 88.314 56.7679 88.4195 56.9557 88.6074C57.1436 88.7953 57.2492 89.0502 57.2492 89.3159C57.2492 89.5816 57.1436 89.8365 56.9557 90.0244C56.7679 90.2123 56.513 90.3178 56.2473 90.3178H55.3773V91.7037C55.3774 91.72 55.3741 91.7361 55.3677 91.7511C55.3613 91.766 55.3519 91.7796 55.3401 91.7908C55.3283 91.802 55.3144 91.8107 55.2991 91.8164C55.2838 91.822 55.2676 91.8245 55.2513 91.8237C55.2195 91.8237 55.189 91.8111 55.1665 91.7886C55.144 91.7661 55.1313 91.7356 55.1313 91.7037V88.434ZM56.2473 90.0839C56.4494 90.0807 56.6423 89.9986 56.7847 89.8551C56.9271 89.7116 57.0077 89.5181 57.0092 89.3159C57.0076 89.1149 56.9267 88.9226 56.7839 88.781C56.6412 88.6394 56.4483 88.5599 56.2473 88.56H55.3773V90.0839H56.2473Z" fill="black"/>
<path d="M60.081 89.4898V91.7156C60.0748 91.7436 60.0592 91.7686 60.0369 91.7866C60.0145 91.8045 59.9867 91.8143 59.958 91.8143C59.9293 91.8143 59.9015 91.8045 59.8792 91.7866C59.8568 91.7686 59.8412 91.7436 59.835 91.7156V91.3496C59.7302 91.4977 59.5918 91.6189 59.4313 91.7033C59.2707 91.7877 59.0925 91.8331 58.9111 91.8356C58.599 91.8138 58.3067 91.6745 58.0933 91.4456C57.8799 91.2168 57.7612 90.9156 57.7612 90.6027C57.7612 90.2898 57.8799 89.9886 58.0933 89.7597C58.3067 89.5309 58.599 89.3916 58.9111 89.3698C59.0921 89.3711 59.2701 89.4153 59.4307 89.4988C59.5913 89.5822 59.7299 89.7025 59.835 89.8497V89.4898C59.835 89.4735 59.8383 89.4574 59.8447 89.4424C59.8511 89.4275 59.8605 89.414 59.8723 89.4027C59.8841 89.3915 59.898 89.3828 59.9133 89.3771C59.9285 89.3715 59.9448 89.369 59.961 89.3698C59.9928 89.3698 60.0234 89.3824 60.0459 89.4049C60.0684 89.4274 60.081 89.4579 60.081 89.4898ZM59.835 90.5997C59.821 90.4207 59.7552 90.2496 59.6455 90.1075C59.5359 89.9653 59.3872 89.8581 59.2176 89.7991C59.0481 89.7401 58.865 89.7317 58.6907 89.7751C58.5165 89.8185 58.3587 89.9117 58.2366 90.0433C58.1144 90.1749 58.0333 90.3393 58.0031 90.5163C57.9729 90.6933 57.995 90.8752 58.0665 91.0399C58.1381 91.2046 58.2561 91.3448 58.406 91.4435C58.556 91.5422 58.7315 91.5951 58.9111 91.5956C59.0372 91.591 59.1611 91.5615 59.2758 91.509C59.3905 91.4564 59.4937 91.3817 59.5795 91.2892C59.6653 91.1967 59.7321 91.0882 59.7759 90.9699C59.8198 90.8516 59.8398 90.7258 59.835 90.5997Z" fill="black"/>
<path d="M60.9448 91.3199C60.956 91.3081 60.9695 91.2987 60.9845 91.2922C60.9994 91.2858 61.0155 91.2825 61.0318 91.2825C61.0481 91.2825 61.0642 91.2858 61.0792 91.2922C61.0941 91.2987 61.1076 91.3081 61.1188 91.3199C61.332 91.4929 61.5946 91.5937 61.8688 91.6078C62.0384 91.6136 62.2045 91.5583 62.3367 91.4519C62.3913 91.4225 62.4371 91.3793 62.4698 91.3267C62.5024 91.2741 62.5207 91.2138 62.5227 91.1519C62.5208 91.0914 62.5039 91.0323 62.4735 90.98C62.4432 90.9276 62.4003 90.8836 62.3487 90.8519C62.1921 90.75 62.0129 90.6882 61.8268 90.6719C61.6294 90.6476 61.4393 90.5822 61.2688 90.4799C61.1893 90.4361 61.1229 90.3719 61.0764 90.2938C61.03 90.2158 61.0053 90.1268 61.0048 90.0359C61.0066 89.9397 61.0315 89.8453 61.0775 89.7607C61.1234 89.6762 61.189 89.6039 61.2688 89.55C61.449 89.4393 61.6573 89.3831 61.8688 89.388C62.1337 89.4004 62.3888 89.4924 62.6007 89.652C62.6273 89.6713 62.6457 89.6998 62.6524 89.732C62.659 89.7642 62.6534 89.7977 62.6367 89.826C62.6176 89.851 62.5902 89.8684 62.5594 89.875C62.5286 89.8816 62.4964 89.877 62.4687 89.862C62.3009 89.7158 62.0906 89.6275 61.8688 89.61C61.7009 89.6033 61.5359 89.6541 61.4008 89.754C61.3547 89.7856 61.3166 89.8276 61.2895 89.8765C61.2624 89.9255 61.2471 89.9801 61.2448 90.0359C61.2448 90.0853 61.2575 90.1339 61.2816 90.177C61.3058 90.2201 61.3406 90.2562 61.3828 90.2819C61.5356 90.377 61.7079 90.4364 61.8868 90.4559C62.0977 90.4825 62.3014 90.5497 62.4867 90.6539C62.5697 90.7086 62.6377 90.7829 62.6848 90.8704C62.7319 90.9578 62.7566 91.0556 62.7566 91.1549C62.7566 91.2542 62.7319 91.3519 62.6848 91.4394C62.6377 91.5268 62.5697 91.6012 62.4867 91.6558C62.3129 91.784 62.1027 91.8534 61.8868 91.8538C61.5535 91.8416 61.2341 91.7168 60.9808 91.4998C60.9636 91.4934 60.9483 91.4827 60.9364 91.4687C60.9245 91.4547 60.9163 91.4379 60.9127 91.4199C60.9091 91.4018 60.9102 91.3832 60.9158 91.3657C60.9214 91.3482 60.9314 91.3324 60.9448 91.3199Z" fill="black"/>
<path d="M63.3866 91.3195C63.3973 91.3079 63.4103 91.2986 63.4247 91.2922C63.4392 91.2859 63.4548 91.2826 63.4706 91.2826C63.4864 91.2826 63.502 91.2859 63.5165 91.2922C63.531 91.2986 63.5439 91.3079 63.5546 91.3195C63.7707 91.4915 64.0348 91.5922 64.3106 91.6075C64.4802 91.6133 64.6463 91.5579 64.7785 91.4515C64.8323 91.4212 64.8776 91.3779 64.9101 91.3254C64.9426 91.273 64.9613 91.2131 64.9645 91.1515C64.9611 91.0914 64.9435 91.0329 64.9133 90.9808C64.8831 90.9287 64.841 90.8844 64.7905 90.8515C64.6321 90.749 64.4507 90.6871 64.2626 90.6715C64.065 90.6483 63.8747 90.5829 63.7046 90.4796C63.6244 90.4361 63.5571 90.372 63.5096 90.294C63.4622 90.216 63.4363 90.1269 63.4346 90.0356C63.4371 89.9388 63.4629 89.8441 63.5099 89.7595C63.5569 89.6748 63.6237 89.6028 63.7046 89.5496C63.8844 89.438 64.093 89.3817 64.3046 89.3876C64.5714 89.4 64.8284 89.4919 65.0425 89.6516C65.0691 89.6709 65.0875 89.6995 65.0942 89.7316C65.1008 89.7638 65.0952 89.7973 65.0785 89.8256C65.0594 89.8507 65.032 89.8681 65.0012 89.8747C64.9704 89.8813 64.9382 89.8766 64.9105 89.8616C64.7427 89.7155 64.5324 89.6271 64.3106 89.6096C64.143 89.6048 63.9785 89.6554 63.8426 89.7536C63.7974 89.7862 63.76 89.8284 63.733 89.8771C63.7061 89.9259 63.6902 89.98 63.6866 90.0356C63.6878 90.0854 63.7016 90.1342 63.7268 90.1772C63.752 90.2202 63.7877 90.2562 63.8306 90.2816C63.9834 90.3766 64.1556 90.4361 64.3346 90.4556C64.5459 90.4803 64.75 90.5476 64.9345 90.6535C65.0174 90.7082 65.0855 90.7826 65.1326 90.87C65.1797 90.9574 65.2043 91.0552 65.2043 91.1545C65.2043 91.2538 65.1797 91.3516 65.1326 91.439C65.0855 91.5265 65.0174 91.6008 64.9345 91.6555C64.7613 91.7848 64.5507 91.8543 64.3346 91.8535C63.9998 91.8398 63.679 91.7153 63.4226 91.4995C63.4064 91.4919 63.3923 91.4807 63.3812 91.4666C63.3702 91.4526 63.3627 91.4361 63.3591 91.4186C63.3556 91.4011 63.3563 91.383 63.3611 91.3658C63.3659 91.3486 63.3746 91.3327 63.3866 91.3195Z" fill="black"/>
<path d="M66.7827 91.8179C66.7605 91.8037 66.7436 91.7826 66.7347 91.7579L65.8047 89.5561C65.7977 89.5413 65.7937 89.5252 65.7931 89.5089C65.7924 89.4925 65.7952 89.4762 65.8011 89.4609C65.807 89.4457 65.816 89.4318 65.8275 89.4201C65.8389 89.4084 65.8527 89.3992 65.8679 89.3931C65.8831 89.3869 65.8993 89.3839 65.9157 89.3843C65.9321 89.3847 65.9482 89.3884 65.9631 89.3952C65.978 89.4021 65.9913 89.4119 66.0022 89.4241C66.0132 89.4363 66.0215 89.4506 66.0267 89.4661L66.8427 91.4099L67.4126 90.054C67.4226 90.0318 67.4385 90.0127 67.4586 89.9989C67.4787 89.9852 67.5023 89.9773 67.5266 89.976C67.5529 89.9757 67.5786 89.9829 67.601 89.9967C67.6233 90.0105 67.6412 90.0304 67.6526 90.054L68.2166 91.4099L69.0325 89.4661C69.0457 89.4377 69.0689 89.4152 69.0978 89.403C69.1266 89.3908 69.1589 89.3897 69.1885 89.4001C69.2179 89.4121 69.2413 89.4352 69.2537 89.4644C69.2661 89.4937 69.2664 89.5266 69.2545 89.5561L68.3366 91.7519C68.324 91.7744 68.3078 91.7947 68.2886 91.8119C68.2689 91.8168 68.2483 91.8168 68.2286 91.8119C68.207 91.8089 68.1867 91.8 68.1697 91.7863C68.1528 91.7725 68.14 91.7544 68.1326 91.7339L67.5326 90.372L66.9686 91.7339C66.9604 91.7561 66.9457 91.7754 66.9265 91.7893C66.9072 91.8032 66.8843 91.811 66.8607 91.8119H66.8187L66.7827 91.8179Z" fill="black"/>
<path d="M71.2221 89.3699C71.4691 89.3567 71.7145 89.418 71.9264 89.5458C72.1383 89.6736 72.3069 89.862 72.4105 90.0867C72.5141 90.3114 72.5478 90.5621 72.5073 90.8062C72.4669 91.0503 72.3541 91.2766 72.1835 91.4559C72.013 91.6352 71.7926 91.7591 71.5508 91.8117C71.309 91.8643 71.057 91.8432 70.8274 91.751C70.5978 91.6587 70.4012 91.4997 70.263 91.2945C70.1247 91.0893 70.0513 90.8473 70.0521 90.5998C70.0482 90.4423 70.0753 90.2854 70.1319 90.1383C70.1886 89.9912 70.2736 89.8567 70.3823 89.7425C70.4909 89.6283 70.621 89.5366 70.7651 89.4726C70.9092 89.4087 71.0645 89.3738 71.2221 89.3699ZM71.2221 91.5958C71.4213 91.609 71.62 91.562 71.7922 91.4609C71.9644 91.3599 72.1023 91.2093 72.1879 91.0289C72.2735 90.8485 72.3028 90.6465 72.2722 90.4492C72.2415 90.2519 72.1523 90.0683 72.016 89.9223C71.8797 89.7764 71.7027 89.6748 71.5079 89.6307C71.3131 89.5866 71.1096 89.6021 70.9238 89.6751C70.7379 89.7482 70.5783 89.8754 70.4657 90.0403C70.353 90.2052 70.2926 90.4001 70.2921 90.5998C70.284 90.8551 70.3773 91.1031 70.5516 91.2897C70.7258 91.4764 70.9669 91.5864 71.2221 91.5958Z" fill="black"/>
<path d="M73.2139 89.4956C73.2138 89.4794 73.2171 89.4633 73.2235 89.4483C73.2299 89.4333 73.2393 89.4198 73.2511 89.4086C73.2629 89.3974 73.2768 89.3887 73.2921 89.383C73.3074 89.3773 73.3236 89.3748 73.3399 89.3757C73.3717 89.3757 73.4022 89.3883 73.4247 89.4108C73.4472 89.4333 73.4599 89.4638 73.4599 89.4956V90.0356C73.4686 90.0138 73.4808 89.9936 73.4958 89.9756C73.5963 89.8011 73.7391 89.6546 73.9111 89.5498C74.083 89.4449 74.2786 89.3851 74.4798 89.3757C74.4958 89.3748 74.5118 89.3773 74.5267 89.383C74.5417 89.3887 74.5552 89.3976 74.5666 89.4089C74.5779 89.4202 74.5867 89.4338 74.5924 89.4487C74.5981 89.4637 74.6006 89.4797 74.5998 89.4956C74.5998 89.5275 74.5871 89.558 74.5646 89.5805C74.5421 89.603 74.5116 89.6156 74.4798 89.6156C74.3371 89.6199 74.1977 89.6587 74.0733 89.7287C73.9489 89.7987 73.8434 89.8978 73.7658 90.0176C73.6359 90.2012 73.5347 90.4035 73.4658 90.6176C73.4638 90.6295 73.4638 90.6417 73.4658 90.6536V91.7395C73.4596 91.7675 73.4441 91.7925 73.4217 91.8104C73.3993 91.8284 73.3715 91.8382 73.3429 91.8382C73.3142 91.8382 73.2864 91.8284 73.264 91.8104C73.2417 91.7925 73.2261 91.7675 73.2199 91.7395L73.2139 89.4956Z" fill="black"/>
<path d="M77.2755 91.3559C77.165 91.5033 77.022 91.6233 76.8576 91.7065C76.6932 91.7898 76.5118 91.834 76.3276 91.8359C76.0155 91.8141 75.7232 91.6747 75.5098 91.4459C75.2964 91.2171 75.1777 90.9158 75.1777 90.603C75.1777 90.2901 75.2964 89.9888 75.5098 89.76C75.7232 89.5312 76.0155 89.3918 76.3276 89.37C76.5118 89.3719 76.6932 89.4162 76.8576 89.4994C77.022 89.5826 77.165 89.7026 77.2755 89.85V88.4341C77.2755 88.4178 77.2788 88.4017 77.2852 88.3868C77.2916 88.3718 77.301 88.3583 77.3128 88.3471C77.3246 88.3358 77.3385 88.3271 77.3538 88.3215C77.369 88.3158 77.3853 88.3133 77.4015 88.3141C77.4333 88.3141 77.4639 88.3268 77.4864 88.3493C77.5089 88.3718 77.5215 88.4023 77.5215 88.4341V91.7159C77.5215 91.7477 77.5089 91.7782 77.4864 91.8007C77.4639 91.8232 77.4333 91.8359 77.4015 91.8359C77.3853 91.8367 77.369 91.8342 77.3538 91.8285C77.3385 91.8229 77.3246 91.8141 77.3128 91.8029C77.301 91.7917 77.2916 91.7782 77.2852 91.7632C77.2788 91.7483 77.2755 91.7322 77.2755 91.7159V91.3559ZM77.2755 90.648V90.564C77.2645 90.3069 77.1533 90.0643 76.9656 89.8883C76.7779 89.7123 76.5288 89.6168 76.2715 89.6222C76.0142 89.6277 75.7694 89.7338 75.5894 89.9177C75.4094 90.1016 75.3086 90.3486 75.3086 90.606C75.3086 90.8633 75.4094 91.1104 75.5894 91.2942C75.7694 91.4781 76.0142 91.5842 76.2715 91.5897C76.5288 91.5952 76.7779 91.4997 76.9656 91.3236C77.1533 91.1476 77.2645 90.905 77.2755 90.648Z" fill="black"/>
<path d="M108.492 94.3794H20.3096V104.027H108.492V94.3794Z" fill="#EBEBEB"/>
<path d="M161.18 59.3959V75.5108H156.62V59.3959C156.62 53.2643 151.964 48.2787 146.241 48.2787C140.517 48.2787 135.855 53.2643 135.855 59.3959V75.5108H131.302V59.3959C131.302 50.6185 138.003 43.479 146.241 43.479C154.478 43.479 161.18 50.6185 161.18 59.3959Z" fill="#DBDBDB"/>
<path d="M131.302 63.5835L135.855 63.7695V75.5107H131.302V63.5835Z" fill="#C7C7C7"/>
<path d="M161.174 64.8017V75.511H156.62V64.6157L161.174 64.8017Z" fill="#C7C7C7"/>
<path d="M167.017 69.5474H125.464V104.033H167.017V69.5474Z" fill="#C59D4E"/>
<path opacity="0.1" d="M146.241 69.5474H125.464V104.033H146.241V69.5474Z" fill="black"/>
<path d="M148.191 86.5619L149.931 94.8174H142.539L144.279 86.5619C143.597 86.1376 143.072 85.5027 142.783 84.7533C142.495 84.0039 142.458 83.1809 142.678 82.4087C142.899 81.6366 143.365 80.9573 144.006 80.4737C144.648 79.9901 145.429 79.7285 146.232 79.7285C147.035 79.7285 147.816 79.9901 148.457 80.4737C149.099 80.9573 149.565 81.6366 149.785 82.4087C150.006 83.1809 149.969 84.0039 149.68 84.7533C149.392 85.5027 148.867 86.1376 148.185 86.5619H148.191Z" fill="#333333"/>
<path d="M182.838 71.8573L180.979 71.5573C181.489 68.319 180.852 65.0042 179.179 62.1853C177.505 59.3664 174.9 57.2203 171.813 56.1178C168.726 55.0152 165.35 55.0253 162.27 56.1464C159.189 57.2674 156.597 59.429 154.94 62.2579L153.272 61.382C155.138 58.1583 158.072 55.689 161.567 54.4018C165.062 53.1147 168.897 53.091 172.408 54.3348C175.919 55.5787 178.883 58.0116 180.788 61.2119C182.693 64.4123 183.419 68.1783 182.838 71.8573Z" fill="#333333"/>
<path d="M180.481 71.9113L180.553 71.4854C181.044 68.3475 180.424 65.1368 178.8 62.4072C177.176 59.6776 174.651 57.6003 171.659 56.5337C168.668 55.4671 165.398 55.478 162.414 56.5647C159.429 57.6513 156.918 59.7455 155.313 62.486L155.103 62.84L152.673 61.562L152.901 61.1721C154.817 57.8554 157.835 55.315 161.43 53.9923C165.025 52.6695 168.969 52.6481 172.578 53.9317C176.187 55.2153 179.233 57.7227 181.185 61.0184C183.137 64.314 183.873 68.1895 183.265 71.9713L183.193 72.3973L180.481 71.9113ZM170.138 55.1605C173.692 55.9276 176.828 58.0018 178.924 60.972C181.021 63.9422 181.926 67.5917 181.459 71.1974L182.467 71.3594C182.934 67.8369 182.177 64.2609 180.324 61.2292C178.471 58.1975 175.633 55.8938 172.285 54.7032C168.937 53.5125 165.282 53.5071 161.931 54.6879C158.579 55.8686 155.735 58.1639 153.873 61.1901L154.773 61.664C156.351 59.1279 158.674 57.1417 161.425 55.9774C164.175 54.8132 167.219 54.5278 170.138 55.1605Z" fill="#333333"/>
<path d="M178.801 70.1892L179.665 69.5112L181.705 72.247L184.278 70.0572L184.908 70.9151L181.465 73.8369L178.801 70.1892Z" fill="#333333"/>
<path d="M181.393 74.4668L178.207 70.1111L179.743 68.9111L181.777 71.6289L184.345 69.4451L185.497 70.993L181.393 74.4668ZM179.395 70.267L181.543 73.2008L184.327 70.837L184.207 70.681L181.633 72.8649L179.581 70.1171L179.395 70.267Z" fill="#333333"/>
<path d="M151.19 67.2134L153.05 67.5134C152.534 70.7535 153.166 74.0722 154.837 76.8956C156.509 79.7189 159.115 81.8692 162.204 82.9747C165.293 84.0801 168.671 84.0711 171.755 82.9491C174.838 81.8272 177.432 79.663 179.089 76.8307L180.756 77.7067C178.891 80.9337 175.955 83.4057 172.457 84.6937C168.96 85.9817 165.121 86.0044 161.609 84.7577C158.096 83.5111 155.131 81.0738 153.228 77.869C151.325 74.6642 150.604 70.8942 151.19 67.2134Z" fill="#333333"/>
<path d="M163.49 85.74C159.392 84.8575 155.788 82.4367 153.422 78.9765C151.056 75.5163 150.107 71.2803 150.771 67.1413L150.837 66.7153L153.548 67.1473L153.476 67.5733C152.973 70.7149 153.585 73.9334 155.204 76.6719C156.824 79.4103 159.35 81.4962 162.346 82.5685C165.341 83.6408 168.617 83.632 171.607 82.5436C174.597 81.4552 177.112 79.3558 178.717 76.6087L178.927 76.2487L181.357 77.5266L181.129 77.9166C179.4 80.9245 176.759 83.3041 173.588 84.7107C170.416 86.1173 166.88 86.4778 163.49 85.74ZM151.557 67.7413C151.11 71.2578 151.881 74.8213 153.74 77.8391C155.6 80.8569 158.437 83.1472 161.779 84.3292C165.12 85.5112 168.766 85.5136 172.11 84.336C175.453 83.1585 178.293 80.8719 180.157 77.8566L179.251 77.3826C177.5 80.1904 174.841 82.3148 171.716 83.4031C168.591 84.4914 165.187 84.4781 162.071 83.3655C158.954 82.2529 156.312 80.1078 154.583 77.2865C152.854 74.4652 152.142 71.1372 152.564 67.8553L151.557 67.7413Z" fill="#333333"/>
<path d="M155.228 68.8753L154.364 69.5532L152.324 66.8174L149.757 69.0073L149.121 68.1493L152.564 65.2275L155.228 68.8753Z" fill="#333333"/>
<path d="M149.685 69.6313L148.539 68.0834L152.643 64.5977L155.829 68.9534L154.293 70.1533L152.265 67.4355L149.685 69.6313ZM149.685 68.2214L149.805 68.3774L152.373 66.1935L154.425 68.9414L154.611 68.7914L152.487 65.8576L149.685 68.2214Z" fill="#333333"/>
<path d="M27.0051 77.5327C26.4478 78.6498 25.5423 79.5552 24.4253 80.1125C24.6869 79.5501 25.0511 79.0414 25.4992 78.6126C25.9311 78.1638 26.4415 77.7978 27.0051 77.5327Z" fill="#333333"/>
<path d="M24.4253 77.5327C24.9862 77.7994 25.4944 78.1652 25.9252 78.6126C26.3753 79.0411 26.7415 79.5498 27.0051 80.1125C25.8847 79.56 24.9779 78.6531 24.4253 77.5327Z" fill="#333333"/>
<path d="M27.5392 78.8225C26.9613 79.0265 26.3522 79.128 25.7393 79.1224C25.1262 79.1319 24.5164 79.0302 23.9395 78.8225C24.5157 78.6119 25.126 78.5102 25.7393 78.5225C26.3524 78.514 26.962 78.6156 27.5392 78.8225Z" fill="#333333"/>
<path d="M25.7151 76.9985C26.1151 78.1815 26.1151 79.4633 25.7151 80.6463C25.315 79.4633 25.315 78.1815 25.7151 76.9985Z" fill="#333333"/>
<path d="M33.2927 77.5327C33.0276 78.0946 32.6615 78.603 32.2128 79.0326C31.7843 79.4827 31.2756 79.8489 30.7129 80.1125C31.2702 78.9955 32.1757 78.09 33.2927 77.5327Z" fill="#333333"/>
<path d="M30.7129 77.5327C31.8299 78.09 32.7354 78.9955 33.2927 80.1125C32.73 79.8489 32.2213 79.4827 31.7928 79.0326C31.3441 78.603 30.978 78.0946 30.7129 77.5327Z" fill="#333333"/>
<path d="M33.8268 78.8224C33.249 79.0269 32.6398 79.1285 32.0269 79.1224C31.4138 79.1313 30.8041 79.0297 30.2271 78.8224C30.8034 78.6123 31.4136 78.5106 32.0269 78.5224C32.64 78.5135 33.2497 78.6151 33.8268 78.8224Z" fill="#333333"/>
<path d="M32.003 76.9985C32.2075 77.5763 32.309 78.1855 32.303 78.7984C32.3115 79.4115 32.2099 80.0211 32.003 80.5983C31.7934 80.0218 31.6917 79.4117 31.703 78.7984C31.6969 78.1855 31.7984 77.5763 32.003 76.9985Z" fill="#333333"/>
<path d="M39.5803 77.5327C39.3151 78.093 38.9514 78.601 38.5064 79.0326C38.0745 79.4814 37.5641 79.8474 37.0005 80.1125C37.2641 79.5498 37.6303 79.0411 38.0804 78.6126C38.5112 78.1652 39.0194 77.7994 39.5803 77.5327Z" fill="#333333"/>
<path d="M37.0005 77.5327C37.5641 77.7978 38.0745 78.1638 38.5064 78.6126C38.9546 79.0414 39.3188 79.5501 39.5803 80.1125C38.4633 79.5552 37.5578 78.6498 37.0005 77.5327Z" fill="#333333"/>
<path d="M40.1144 78.8228C39.5367 79.0277 38.9274 79.1292 38.3145 79.1228C37.7015 79.1313 37.0918 79.0297 36.5146 78.8228C37.0911 78.6132 37.7012 78.5115 38.3145 78.5228C38.9277 78.5134 39.5375 78.615 40.1144 78.8228Z" fill="#333333"/>
<path d="M38.2903 76.9985C38.6903 78.1815 38.6903 79.4633 38.2903 80.6463C37.8902 79.4633 37.8902 78.1815 38.2903 76.9985Z" fill="#333333"/>
<path d="M45.8738 77.5327C45.3165 78.6498 44.411 79.5552 43.2939 80.1125C43.5555 79.5501 43.9197 79.0414 44.3679 78.6126C44.7998 78.1638 45.3101 77.7978 45.8738 77.5327Z" fill="#333333"/>
<path d="M43.2939 77.5327C43.8549 77.7994 44.363 78.1652 44.7938 78.6126C45.2439 79.0411 45.6102 79.5498 45.8738 80.1125C45.3101 79.8474 44.7998 79.4814 44.3679 79.0326C43.9229 78.601 43.5591 78.093 43.2939 77.5327Z" fill="#333333"/>
<path d="M46.4079 78.8225C45.8299 79.0265 45.2208 79.128 44.608 79.1224C43.9948 79.1319 43.3851 79.0302 42.8081 78.8225C43.3843 78.6119 43.9946 78.5102 44.608 78.5225C45.2211 78.514 45.8307 78.6156 46.4079 78.8225Z" fill="#333333"/>
<path d="M44.5842 76.9985C44.9843 78.1815 44.9843 79.4633 44.5842 80.6463C44.1842 79.4633 44.1842 78.1815 44.5842 76.9985Z" fill="#333333"/>
<path d="M52.1614 77.5327C51.8962 78.0946 51.5302 78.603 51.0814 79.0326C50.653 79.4827 50.1443 79.8489 49.5815 80.1125C49.8451 79.5498 50.2114 79.0411 50.6615 78.6126C51.0911 78.1639 51.5995 77.7979 52.1614 77.5327Z" fill="#333333"/>
<path d="M49.5815 77.5327C50.6986 78.09 51.6041 78.9955 52.1614 80.1125C51.5986 79.8489 51.0899 79.4827 50.6615 79.0326C50.2127 78.603 49.8467 78.0946 49.5815 77.5327Z" fill="#333333"/>
<path d="M52.6955 78.8224C52.1177 79.0269 51.5085 79.1285 50.8956 79.1224C50.2825 79.1313 49.6728 79.0297 49.0957 78.8224C49.672 78.6123 50.2823 78.5106 50.8956 78.5224C51.5087 78.5135 52.1184 78.6151 52.6955 78.8224Z" fill="#333333"/>
<path d="M50.8718 76.9985C51.0763 77.5763 51.1778 78.1855 51.1717 78.7984C51.183 79.4117 51.0814 80.0218 50.8718 80.5983C50.6649 80.0211 50.5633 79.4115 50.5718 78.7984C50.5657 78.1855 50.6672 77.5763 50.8718 76.9985Z" fill="#333333"/>
<path d="M58.4488 77.5327C58.1858 78.0943 57.8218 78.6027 57.3749 79.0326C56.9441 79.48 56.436 79.8459 55.875 80.1125C56.1344 79.5489 56.4989 79.0398 56.9489 78.6126C57.3797 78.1652 57.8879 77.7994 58.4488 77.5327Z" fill="#333333"/>
<path d="M55.875 77.5327C56.436 77.7994 56.9441 78.1652 57.3749 78.6126C57.8231 79.0414 58.1873 79.5501 58.4488 80.1125C57.8879 79.8459 57.3797 79.48 56.9489 79.0326C56.502 78.6027 56.138 78.0943 55.875 77.5327Z" fill="#333333"/>
<path d="M58.9831 78.8225C58.4054 79.0274 57.7961 79.1289 57.1832 79.1225C56.57 79.1322 55.9602 79.0305 55.3833 78.8225C55.9594 78.6117 56.5698 78.51 57.1832 78.5225C57.7963 78.5131 58.4061 78.6147 58.9831 78.8225Z" fill="#333333"/>
<path d="M57.1589 76.9985C57.559 78.1815 57.559 79.4633 57.1589 80.6463C56.7589 79.4633 56.7589 78.1815 57.1589 76.9985Z" fill="#333333"/>
<path d="M64.7424 77.5327C64.1851 78.6498 63.2796 79.5552 62.1626 80.1125C62.4242 79.5501 62.7884 79.0414 63.2365 78.6126C63.6684 78.1638 64.1788 77.7978 64.7424 77.5327Z" fill="#333333"/>
<path d="M62.1445 77.5327C62.7055 77.7994 63.2136 78.1652 63.6444 78.6126C64.0945 79.0411 64.4608 79.5498 64.7244 80.1125C64.1607 79.8474 63.6503 79.4814 63.2185 79.0326C62.7735 78.601 62.4097 78.093 62.1445 77.5327Z" fill="#333333"/>
<path d="M65.2765 78.8225C64.6986 79.0265 64.0895 79.128 63.4766 79.1224C62.8635 79.1319 62.2537 79.0302 61.6768 78.8225C62.253 78.6119 62.8633 78.5102 63.4766 78.5225C64.0897 78.514 64.6993 78.6156 65.2765 78.8225Z" fill="#333333"/>
<path d="M63.4529 76.9985C63.8529 78.1815 63.8529 79.4633 63.4529 80.6463C63.0528 79.4633 63.0528 78.1815 63.4529 76.9985Z" fill="#333333"/>
<path d="M27.0051 97.9194C26.7364 98.4791 26.3707 98.9869 25.9252 99.4193C25.4944 99.8667 24.9862 100.233 24.4253 100.499C24.6883 99.9359 25.0522 99.4255 25.4992 98.9934C25.9329 98.5482 26.443 98.1845 27.0051 97.9194Z" fill="#333333"/>
<path d="M24.4253 97.9194C24.9847 98.1861 25.4925 98.5497 25.9252 98.9934C26.374 99.4252 26.74 99.9356 27.0051 100.499C25.8847 99.9467 24.9779 99.0399 24.4253 97.9194Z" fill="#333333"/>
<path d="M27.5394 99.2092C26.3563 99.6093 25.0746 99.6093 23.8916 99.2092C25.0746 98.8092 26.3563 98.8092 27.5394 99.2092Z" fill="#333333"/>
<path d="M25.7151 97.3853C26.1151 98.5683 26.1151 99.85 25.7151 101.033C25.315 99.85 25.315 98.5683 25.7151 97.3853Z" fill="#333333"/>
<path d="M33.2927 97.9194C33.0261 98.4804 32.6602 98.9885 32.2128 99.4193C31.7843 99.8694 31.2756 100.236 30.7129 100.499C31.2655 99.3788 32.1723 98.472 33.2927 97.9194Z" fill="#333333"/>
<path d="M30.7129 97.9194C31.8333 98.472 32.7401 99.3788 33.2927 100.499C32.73 100.236 32.2213 99.8694 31.7928 99.4193C31.3454 98.9885 30.9795 98.4804 30.7129 97.9194Z" fill="#333333"/>
<path d="M33.827 99.2092C32.6439 99.6093 31.3622 99.6093 30.1792 99.2092C31.3622 98.8092 32.6439 98.8092 33.827 99.2092Z" fill="#333333"/>
<path d="M32.003 97.3853C32.2079 97.9629 32.3094 98.5722 32.303 99.1851C32.3115 99.7982 32.2099 100.408 32.003 100.985C31.7934 100.409 31.6917 99.7984 31.703 99.1851C31.6965 98.5722 31.7981 97.9629 32.003 97.3853Z" fill="#333333"/>
<path d="M39.5803 97.9194C39.3137 98.4789 38.9501 98.9867 38.5064 99.4193C38.0745 99.8681 37.5641 100.234 37.0005 100.499C37.2656 99.9356 37.6316 99.4252 38.0804 98.9934C38.5131 98.5497 39.0209 98.1861 39.5803 97.9194Z" fill="#333333"/>
<path d="M37.0005 97.9194C37.5626 98.1845 38.0727 98.5482 38.5064 98.9934C38.9534 99.4255 39.3174 99.9359 39.5803 100.499C39.0194 100.233 38.5112 99.8667 38.0804 99.4193C37.6349 98.9869 37.2693 98.4791 37.0005 97.9194Z" fill="#333333"/>
<path d="M40.1141 99.2092C38.931 99.6093 37.6493 99.6093 36.4663 99.2092C37.6493 98.8092 38.931 98.8092 40.1141 99.2092Z" fill="#333333"/>
<path d="M38.2903 97.3853C38.6903 98.5683 38.6903 99.85 38.2903 101.033C37.8902 99.85 37.8902 98.5683 38.2903 97.3853Z" fill="#333333"/>
<path d="M45.8738 97.9194C45.605 98.4791 45.2394 98.9869 44.7938 99.4193C44.363 99.8667 43.8549 100.233 43.2939 100.499C43.5569 99.9359 43.9209 99.4255 44.3679 98.9934C44.8016 98.5482 45.3116 98.1845 45.8738 97.9194Z" fill="#333333"/>
<path d="M43.2939 97.9194C43.8534 98.1861 44.3612 98.5497 44.7938 98.9934C45.2427 99.4252 45.6087 99.9356 45.8738 100.499C45.3101 100.234 44.7998 99.8681 44.3679 99.4193C43.9242 98.9867 43.5606 98.4789 43.2939 97.9194Z" fill="#333333"/>
<path d="M46.408 99.2092C45.225 99.6093 43.9433 99.6093 42.7603 99.2092C43.9433 98.8092 45.225 98.8092 46.408 99.2092Z" fill="#333333"/>
<path d="M44.5842 97.3853C44.9843 98.5683 44.9843 99.85 44.5842 101.033C44.1842 99.85 44.1842 98.5683 44.5842 97.3853Z" fill="#333333"/>
<path d="M46.6059 96.0894H46.21V102.329H46.6059V96.0894Z" fill="#333333"/>
<path d="M54.6692 112.12H20.4775V121.989H54.6692V112.12Z" fill="#C59D4E"/>
<path d="M24.1494 117.37C24.1573 116.877 24.3586 116.407 24.7099 116.062C25.0612 115.716 25.5344 115.522 26.0273 115.522C26.4614 115.515 26.8848 115.657 27.2272 115.924C27.2865 115.972 27.3252 116.042 27.3352 116.117C27.3452 116.193 27.3259 116.27 27.2812 116.332C27.2338 116.392 27.165 116.432 27.0892 116.443C27.0133 116.455 26.936 116.436 26.8732 116.392C26.6388 116.204 26.3458 116.104 26.0453 116.11C25.7019 116.11 25.3713 116.241 25.1213 116.476C24.8849 116.714 24.7513 117.035 24.7494 117.37C24.7492 117.535 24.7819 117.699 24.8458 117.852C24.9097 118.004 25.0034 118.142 25.1213 118.258C25.3707 118.495 25.7012 118.628 26.0453 118.63C26.3456 118.635 26.6383 118.535 26.8732 118.348C26.9356 118.307 27.0113 118.291 27.0849 118.304C27.1586 118.316 27.2247 118.356 27.2697 118.416C27.3148 118.476 27.3355 118.55 27.3276 118.624C27.3197 118.699 27.2838 118.767 27.2272 118.816C26.8843 119.081 26.4608 119.221 26.0273 119.212C25.5345 119.215 25.0604 119.023 24.7086 118.678C24.3568 118.333 24.1557 117.863 24.1494 117.37Z" fill="white"/>
<path d="M30.9827 116.074C31.3144 116.424 31.4993 116.888 31.4993 117.37C31.4993 117.852 31.3144 118.316 30.9827 118.666C30.8296 118.833 30.6445 118.967 30.4383 119.061C30.2322 119.155 30.0092 119.206 29.7828 119.212C29.5469 119.21 29.3138 119.161 29.0973 119.067C28.8809 118.973 28.6855 118.837 28.5229 118.666C28.1991 118.312 28.0195 117.85 28.0195 117.37C28.0195 116.89 28.1991 116.428 28.5229 116.074C28.6835 115.9 28.8783 115.761 29.0951 115.666C29.3119 115.571 29.5461 115.522 29.7828 115.522C30.01 115.526 30.2339 115.578 30.4404 115.673C30.6469 115.768 30.8315 115.904 30.9827 116.074ZM30.9167 117.37C30.9161 117.037 30.7921 116.716 30.5687 116.47C30.4655 116.358 30.3403 116.268 30.201 116.206C30.0617 116.144 29.9112 116.111 29.7588 116.11C29.6024 116.109 29.4476 116.14 29.304 116.202C29.1604 116.264 29.0313 116.355 28.9249 116.47C28.6989 116.715 28.5745 117.037 28.5769 117.37C28.572 117.7 28.697 118.019 28.9249 118.258C29.0262 118.378 29.1519 118.475 29.2935 118.544C29.4352 118.612 29.5896 118.649 29.7468 118.654C29.9002 118.651 30.0515 118.617 30.191 118.553C30.3304 118.489 30.455 118.397 30.5568 118.282C30.6787 118.163 30.776 118.021 30.8429 117.865C30.9098 117.708 30.9451 117.54 30.9467 117.37H30.9167Z" fill="white"/>
<path d="M32.9389 118.93C32.9448 118.97 32.942 119.011 32.9307 119.05C32.9193 119.088 32.8998 119.124 32.8733 119.155C32.8468 119.186 32.8141 119.21 32.7773 119.227C32.7404 119.244 32.7004 119.253 32.6599 119.253C32.6194 119.253 32.5794 119.244 32.5426 119.227C32.5057 119.21 32.473 119.186 32.4465 119.155C32.42 119.124 32.4005 119.088 32.3892 119.05C32.3778 119.011 32.375 118.97 32.3809 118.93V115.93C32.3787 115.884 32.3879 115.839 32.4079 115.798C32.4278 115.757 32.4577 115.722 32.4949 115.696C32.5539 115.653 32.6273 115.636 32.6993 115.647C32.7712 115.658 32.8357 115.697 32.8789 115.756L34.5468 118.054V115.954C34.5484 115.88 34.5788 115.81 34.6315 115.758C34.6842 115.707 34.755 115.678 34.8288 115.678C34.9025 115.678 34.9734 115.707 35.0261 115.758C35.0788 115.81 35.1092 115.88 35.1107 115.954V118.954C35.1092 119.028 35.079 119.099 35.0265 119.151C34.9739 119.204 34.9031 119.234 34.8288 119.236C34.7882 119.236 34.7481 119.228 34.7116 119.21C34.6751 119.192 34.6433 119.166 34.6188 119.134L32.9809 116.86L32.9389 118.93Z" fill="white"/>
<path d="M38.4644 116.194H37.6545V118.93C37.6545 119.005 37.6248 119.076 37.5719 119.129C37.519 119.182 37.4473 119.212 37.3725 119.212C37.2977 119.212 37.226 119.182 37.1731 119.129C37.1202 119.076 37.0905 119.005 37.0905 118.93V116.194H36.2806C36.243 116.194 36.2059 116.187 36.1713 116.172C36.1367 116.157 36.1053 116.136 36.079 116.109C36.0528 116.083 36.0321 116.051 36.0183 116.016C36.0045 115.981 35.9978 115.944 35.9986 115.906C35.9978 115.869 36.0045 115.832 36.0184 115.797C36.0323 115.763 36.053 115.731 36.0794 115.705C36.1057 115.679 36.1371 115.658 36.1717 115.644C36.2063 115.63 36.2433 115.623 36.2806 115.624H38.4644C38.5392 115.624 38.6109 115.654 38.6638 115.707C38.7167 115.76 38.7464 115.831 38.7464 115.906C38.7464 115.981 38.7169 116.054 38.6642 116.108C38.6115 116.161 38.5398 116.192 38.4644 116.194Z" fill="white"/>
<path d="M39.6285 115.906C39.6277 115.869 39.6344 115.832 39.6483 115.797C39.6622 115.763 39.6829 115.731 39.7092 115.705C39.7356 115.679 39.767 115.658 39.8016 115.644C39.8362 115.63 39.8732 115.623 39.9105 115.624C39.9858 115.624 40.0582 115.654 40.112 115.706C40.1658 115.759 40.1969 115.831 40.1984 115.906V118.906C40.1985 118.943 40.191 118.981 40.1764 119.015C40.1619 119.05 40.1406 119.081 40.1137 119.107C40.0869 119.134 40.0551 119.154 40.0202 119.168C39.9853 119.182 39.948 119.189 39.9105 119.188C39.8732 119.189 39.8362 119.182 39.8016 119.168C39.767 119.154 39.7356 119.133 39.7092 119.107C39.6829 119.081 39.6622 119.049 39.6483 119.015C39.6344 118.98 39.6277 118.943 39.6285 118.906V115.906Z" fill="white"/>
<path d="M41.746 118.93C41.7519 118.97 41.7491 119.011 41.7378 119.05C41.7265 119.088 41.7069 119.124 41.6804 119.155C41.654 119.186 41.6212 119.21 41.5844 119.227C41.5476 119.244 41.5075 119.253 41.467 119.253C41.4265 119.253 41.3865 119.244 41.3497 119.227C41.3129 119.21 41.2801 119.186 41.2536 119.155C41.2272 119.124 41.2076 119.088 41.1963 119.05C41.185 119.011 41.1822 118.97 41.1881 118.93V115.93C41.1858 115.884 41.1951 115.839 41.215 115.798C41.2349 115.757 41.2649 115.722 41.302 115.696C41.362 115.653 41.4364 115.635 41.5093 115.646C41.5822 115.658 41.6478 115.697 41.692 115.756L43.3479 118.048V115.954C43.3578 115.887 43.3914 115.826 43.4426 115.782C43.4938 115.737 43.5592 115.713 43.6269 115.713C43.6946 115.713 43.76 115.737 43.8112 115.782C43.8624 115.826 43.896 115.887 43.9059 115.954V118.954C43.9059 119.028 43.8762 119.1 43.8233 119.153C43.7704 119.206 43.6987 119.236 43.6239 119.236C43.5836 119.235 43.5439 119.226 43.5076 119.208C43.4713 119.19 43.4393 119.165 43.4139 119.134L41.746 116.806V118.93Z" fill="white"/>
<path d="M46.336 119.212C46.1411 119.212 45.9481 119.175 45.7679 119.1C45.5878 119.026 45.4241 118.917 45.2863 118.779C45.1486 118.642 45.0395 118.478 44.9653 118.298C44.8911 118.118 44.8533 117.925 44.8541 117.73V115.93C44.8533 115.893 44.86 115.856 44.8739 115.821C44.8878 115.786 44.9085 115.755 44.9348 115.729C44.9612 115.702 44.9926 115.682 45.0272 115.668C45.0618 115.654 45.0988 115.647 45.1361 115.648C45.2114 115.648 45.2838 115.677 45.3376 115.73C45.3914 115.783 45.4225 115.855 45.424 115.93V117.73C45.4027 117.86 45.4099 117.994 45.4453 118.121C45.4807 118.249 45.5433 118.367 45.629 118.468C45.7146 118.568 45.8211 118.649 45.9411 118.705C46.0611 118.76 46.1917 118.789 46.324 118.789C46.4562 118.789 46.5869 118.76 46.7069 118.705C46.8269 118.649 46.9334 118.568 47.019 118.468C47.1046 118.367 47.1673 118.249 47.2027 118.121C47.238 117.994 47.2453 117.86 47.2239 117.73V115.93C47.2239 115.85 47.2555 115.774 47.3118 115.718C47.368 115.661 47.4443 115.63 47.5239 115.63C47.6035 115.63 47.6798 115.661 47.736 115.718C47.7923 115.774 47.8239 115.85 47.8239 115.93V117.73C47.8239 117.925 47.7853 118.118 47.7105 118.298C47.6356 118.478 47.526 118.642 47.3877 118.78C47.2495 118.917 47.0854 119.026 46.9049 119.101C46.7244 119.175 46.5311 119.212 46.336 119.212Z" fill="white"/>
<path d="M48.7599 118.93V115.93C48.7599 115.855 48.7896 115.783 48.8424 115.731C48.8953 115.678 48.967 115.648 49.0418 115.648H50.7457C50.8253 115.648 50.9016 115.68 50.9578 115.736C51.0141 115.792 51.0457 115.868 51.0457 115.948C51.0457 116.027 51.0141 116.104 50.9578 116.16C50.9016 116.216 50.8253 116.248 50.7457 116.248H49.3538V117.184H50.5537C50.628 117.185 50.6989 117.216 50.7514 117.268C50.804 117.321 50.8342 117.392 50.8357 117.466C50.8365 117.503 50.8298 117.541 50.816 117.576C50.8022 117.61 50.7815 117.642 50.7553 117.669C50.729 117.696 50.6976 117.717 50.663 117.732C50.6284 117.746 50.5913 117.754 50.5537 117.754H49.3538V118.654H50.7457C50.8205 118.654 50.8922 118.683 50.9451 118.736C50.998 118.789 51.0277 118.861 51.0277 118.936C51.0277 119.011 50.998 119.082 50.9451 119.135C50.8922 119.188 50.8205 119.218 50.7457 119.218H49.0658C49.0263 119.221 48.9865 119.216 48.9491 119.203C48.9116 119.19 48.8774 119.169 48.8485 119.142C48.8196 119.115 48.7968 119.082 48.7815 119.045C48.7662 119.009 48.7589 118.969 48.7599 118.93Z" fill="white"/>
<path d="M66.3442 117.37C66.3521 116.877 66.5534 116.407 66.9047 116.062C67.2561 115.716 67.7292 115.522 68.2221 115.522C68.6562 115.515 69.0797 115.657 69.422 115.924C69.4814 115.972 69.52 116.042 69.53 116.117C69.54 116.193 69.5207 116.27 69.476 116.332C69.4286 116.392 69.3599 116.432 69.284 116.443C69.2081 116.455 69.1308 116.436 69.068 116.392C68.8336 116.204 68.5406 116.104 68.2401 116.11C67.8967 116.11 67.5661 116.241 67.3162 116.476C67.0797 116.714 66.9461 117.035 66.9442 117.37C66.944 117.535 66.9768 117.699 67.0407 117.852C67.1045 118.004 67.1982 118.142 67.3162 118.258C67.5655 118.495 67.896 118.628 68.2401 118.63C68.5404 118.635 68.8331 118.535 69.068 118.348C69.1304 118.307 69.2061 118.291 69.2797 118.304C69.3534 118.316 69.4195 118.356 69.4646 118.416C69.5096 118.476 69.5303 118.55 69.5224 118.624C69.5145 118.699 69.4786 118.767 69.422 118.816C69.0791 119.081 68.6556 119.221 68.2221 119.212C67.7293 119.215 67.2552 119.023 66.9034 118.678C66.5516 118.333 66.3506 117.863 66.3442 117.37Z" fill="#EBEBEB"/>
<path d="M72.2243 118.366H70.9764L70.7244 119.032C70.7031 119.084 70.6666 119.13 70.6196 119.162C70.5727 119.194 70.5172 119.211 70.4604 119.212C70.4266 119.218 70.3921 119.218 70.3584 119.212C70.2886 119.182 70.2325 119.128 70.2014 119.059C70.1702 118.99 70.1663 118.912 70.1904 118.84L71.3243 115.84C71.346 115.786 71.3834 115.74 71.4316 115.708C71.4797 115.676 71.5364 115.659 71.5943 115.66C71.6534 115.657 71.7118 115.673 71.7613 115.705C71.8109 115.738 71.849 115.785 71.8703 115.84L72.9982 118.84C73.0117 118.875 73.018 118.913 73.0169 118.951C73.0157 118.989 73.0071 119.026 72.9915 119.061C72.9759 119.095 72.9536 119.126 72.9259 119.152C72.8983 119.178 72.8657 119.198 72.8302 119.212C72.7986 119.218 72.7659 119.218 72.7342 119.212C72.677 119.213 72.6208 119.196 72.5735 119.164C72.5263 119.132 72.4902 119.085 72.4703 119.032L72.2243 118.366ZM72.0143 117.802L71.5943 116.704L71.1803 117.802H72.0143Z" fill="#EBEBEB"/>
<path d="M74.2641 118.93C74.27 118.97 74.2672 119.011 74.2559 119.05C74.2445 119.088 74.225 119.124 74.1985 119.155C74.172 119.186 74.1393 119.21 74.1024 119.227C74.0656 119.244 74.0256 119.253 73.9851 119.253C73.9446 119.253 73.9046 119.244 73.8678 119.227C73.8309 119.21 73.7982 119.186 73.7717 119.155C73.7452 119.124 73.7257 119.088 73.7144 119.05C73.703 119.011 73.7002 118.97 73.7061 118.93V115.93C73.7039 115.884 73.7131 115.839 73.7331 115.798C73.753 115.757 73.7829 115.722 73.8201 115.696C73.8801 115.653 73.9544 115.635 74.0273 115.646C74.1002 115.658 74.1658 115.697 74.2101 115.756L75.866 118.048V115.954C75.866 115.918 75.8731 115.882 75.887 115.848C75.9009 115.815 75.9212 115.784 75.9468 115.759C75.9724 115.733 76.0029 115.713 76.0363 115.699C76.0698 115.685 76.1057 115.678 76.142 115.678C76.2157 115.678 76.2865 115.707 76.3393 115.758C76.392 115.81 76.4224 115.88 76.4239 115.954V118.954C76.4239 119.028 76.3942 119.1 76.3413 119.153C76.2885 119.206 76.2167 119.236 76.142 119.236C76.1014 119.236 76.0613 119.228 76.0248 119.21C75.9883 119.192 75.9565 119.166 75.932 119.134L74.2881 116.86L74.2641 118.93Z" fill="#EBEBEB"/>
<path d="M77.4917 117.37C77.5027 116.877 77.7058 116.408 78.0577 116.063C78.4097 115.718 78.8826 115.524 79.3756 115.522C79.8096 115.516 80.2327 115.658 80.5755 115.924C80.6339 115.973 80.6714 116.043 80.6803 116.119C80.6892 116.194 80.6689 116.271 80.6235 116.332C80.577 116.394 80.5081 116.434 80.4318 116.446C80.3555 116.457 80.2778 116.438 80.2155 116.392C79.9839 116.203 79.6924 116.103 79.3936 116.11C79.0501 116.11 78.7195 116.241 78.4696 116.476C78.3504 116.592 78.2555 116.732 78.1906 116.885C78.1257 117.038 78.0921 117.203 78.0917 117.37C78.0898 117.536 78.1224 117.701 78.1874 117.854C78.2525 118.007 78.3486 118.144 78.4696 118.258C78.7189 118.495 79.0494 118.628 79.3936 118.63C79.6922 118.636 79.9834 118.536 80.2155 118.348C80.2776 118.3 80.356 118.279 80.4337 118.289C80.5113 118.299 80.5817 118.34 80.6295 118.402C80.6772 118.464 80.6983 118.542 80.6882 118.62C80.6781 118.698 80.6375 118.768 80.5755 118.816C80.2321 119.08 79.8089 119.22 79.3756 119.212C78.8822 119.215 78.4075 119.023 78.0547 118.679C77.7019 118.334 77.4996 117.863 77.4917 117.37Z" fill="#EBEBEB"/>
<path d="M81.6013 118.93V115.93C81.6005 115.893 81.6073 115.856 81.6211 115.821C81.635 115.787 81.6558 115.755 81.6821 115.729C81.7085 115.702 81.7399 115.682 81.7745 115.668C81.809 115.654 81.8461 115.647 81.8833 115.648H83.5572C83.6368 115.648 83.7131 115.68 83.7693 115.736C83.8256 115.792 83.8572 115.868 83.8572 115.948C83.8572 116.028 83.8256 116.104 83.7693 116.16C83.7131 116.216 83.6368 116.248 83.5572 116.248H82.1713V117.184H83.3712C83.4451 117.187 83.5151 117.218 83.5673 117.27C83.6196 117.322 83.6502 117.392 83.6532 117.466C83.6532 117.541 83.6237 117.614 83.571 117.667C83.5183 117.721 83.4466 117.752 83.3712 117.754H82.1713V118.654H83.5572C83.632 118.654 83.7037 118.684 83.7566 118.736C83.8095 118.789 83.8392 118.861 83.8392 118.936C83.8392 119.011 83.8095 119.082 83.7566 119.135C83.7037 119.188 83.632 119.218 83.5572 119.218H81.8833C81.8455 119.219 81.808 119.212 81.773 119.197C81.738 119.183 81.7063 119.162 81.6799 119.135C81.6534 119.108 81.6328 119.076 81.6193 119.041C81.6058 119.005 81.5997 118.968 81.6013 118.93Z" fill="#EBEBEB"/>
<path d="M84.6373 118.93V115.93C84.6473 115.862 84.6815 115.799 84.7339 115.754C84.7862 115.709 84.8531 115.684 84.9223 115.684C84.9915 115.684 85.0584 115.709 85.1107 115.754C85.163 115.799 85.1973 115.862 85.2073 115.93V118.654H86.5992C86.6739 118.654 86.7457 118.684 86.7986 118.737C86.8514 118.789 86.8811 118.861 86.8811 118.936C86.8811 119.011 86.8514 119.082 86.7986 119.135C86.7457 119.188 86.6739 119.218 86.5992 119.218H84.9433C84.9038 119.221 84.864 119.216 84.8265 119.203C84.7891 119.19 84.7548 119.169 84.7259 119.142C84.697 119.115 84.6742 119.082 84.659 119.046C84.6437 119.009 84.6363 118.97 84.6373 118.93Z" fill="#EBEBEB"/>
</svg>
