<svg width="97" height="183" viewBox="0 0 97 183" fill="none" xmlns="http://www.w3.org/2000/svg">
<path d="M88.8273 0H8.1632C7.0791 0.00960028 6.00756 0.233141 5.01005 0.657798C4.01254 1.08246 3.10868 1.69988 2.35032 2.47464C1.59197 3.24941 0.994025 4.16627 0.590812 5.17264C0.187599 6.17901 -0.012954 7.25509 0.000648348 8.33915V174.381C-0.0124302 176.562 0.839291 178.659 2.36925 180.213C3.8992 181.767 5.98265 182.651 8.1632 182.672H88.8273C91.0126 182.652 93.1008 181.766 94.6331 180.208C96.1655 178.65 97.0167 176.547 96.9997 174.362V8.31462C97.0094 7.23197 96.8057 6.15802 96.4001 5.15413C95.9946 4.15025 95.3953 3.23611 94.6363 2.46396C93.8774 1.6918 92.9737 1.07676 91.977 0.653985C90.9802 0.231208 89.91 0.00897896 88.8273 0ZM91.8981 169.236C91.8981 173.606 88.6262 177.143 84.5891 177.143H12.4162C8.36923 177.143 5.09734 173.606 5.09734 169.236V14.6082C5.09734 5.70496 8.36923 5.288 12.4162 5.288H26.8723C27.7111 5.288 28.3979 6.26908 28.3979 7.42675V7.91729C28.3979 10.6888 29.9137 10.6986 31.7826 10.6986H65.2128C67.0916 10.6986 68.5975 10.6986 68.5975 7.91729V7.42675C68.5975 6.24455 69.2745 5.288 70.128 5.288H84.5792C88.6164 5.288 91.8883 6.4751 91.8883 14.6082L91.8981 169.236Z" fill="#333333"/>
<path d="M53.0572 7.23564H43.9381C43.7894 7.23564 43.6466 7.17688 43.541 7.07215C43.4353 6.96742 43.3753 6.82519 43.374 6.67642C43.374 6.52681 43.4335 6.38333 43.5392 6.27753C43.645 6.17174 43.7885 6.1123 43.9381 6.1123H53.0572C53.2069 6.1123 53.3503 6.17174 53.4561 6.27753C53.5619 6.38333 53.6214 6.52681 53.6214 6.67642C53.6201 6.82519 53.5601 6.96742 53.4544 7.07215C53.3488 7.17688 53.206 7.23564 53.0572 7.23564Z" fill="white"/>
<path d="M91.8979 14.6081V169.245C91.8979 173.616 88.626 177.153 84.5889 177.153H12.4209C8.37396 177.153 5.09717 173.616 5.09717 169.245V14.6081C5.09717 5.70479 8.37396 5.28783 12.4209 5.28783H26.8722C27.711 5.28783 28.3977 6.26891 28.3977 7.42658V7.91712C28.3977 10.6887 29.9184 10.6985 31.7824 10.6985H65.2126C67.0963 10.6985 68.5973 10.6985 68.5973 7.91712V7.42658C68.5973 6.24438 69.2743 5.28783 70.1278 5.28783H84.5791C88.626 5.26821 91.8979 6.45531 91.8979 14.6081Z" fill="white"/>
<path d="M12.8137 19.7047L11.2686 18.2576L12.8137 16.8154L13.0541 17.0705L11.7787 18.2576L13.0541 19.4496L12.8137 19.7047Z" fill="#AAAAAA"/>
<path d="M81.636 17.7573C81.7331 17.7573 81.8279 17.7861 81.9086 17.84C81.9892 17.8939 82.0521 17.9705 82.0892 18.0601C82.1264 18.1498 82.1361 18.2484 82.1172 18.3436C82.0982 18.4387 82.0515 18.5261 81.9829 18.5947C81.9143 18.6633 81.8269 18.71 81.7317 18.729C81.6366 18.7479 81.538 18.7382 81.4483 18.7011C81.3587 18.6639 81.2821 18.6011 81.2282 18.5204C81.1743 18.4397 81.1455 18.3449 81.1455 18.2479C81.1455 18.1178 81.1972 17.993 81.2892 17.901C81.3812 17.809 81.5059 17.7573 81.636 17.7573Z" fill="#AAAAAA"/>
<path d="M83.4315 17.7573C83.5285 17.7573 83.6233 17.7861 83.704 17.84C83.7847 17.8939 83.8475 17.9705 83.8847 18.0601C83.9218 18.1498 83.9315 18.2484 83.9126 18.3436C83.8936 18.4387 83.8469 18.5261 83.7783 18.5947C83.7097 18.6633 83.6223 18.71 83.5272 18.729C83.432 18.7479 83.3334 18.7382 83.2437 18.7011C83.1541 18.6639 83.0775 18.6011 83.0236 18.5204C82.9697 18.4397 82.9409 18.3449 82.9409 18.2479C82.9409 18.1178 82.9926 17.993 83.0846 17.901C83.1766 17.809 83.3014 17.7573 83.4315 17.7573Z" fill="#AAAAAA"/>
<path d="M85.2269 17.7573C85.3239 17.7573 85.4187 17.7861 85.4994 17.84C85.5801 17.8939 85.6429 17.9705 85.6801 18.0601C85.7172 18.1498 85.7269 18.2484 85.708 18.3436C85.689 18.4387 85.6423 18.5261 85.5737 18.5947C85.5051 18.6633 85.4177 18.71 85.3226 18.729C85.2274 18.7479 85.1288 18.7382 85.0391 18.7011C84.9495 18.6639 84.8729 18.6011 84.819 18.5204C84.7651 18.4397 84.7363 18.3449 84.7363 18.2479C84.7363 18.1178 84.788 17.993 84.88 17.901C84.972 17.809 85.0968 17.7573 85.2269 17.7573Z" fill="#AAAAAA"/>
<path d="M24.3801 8.74117L24.2378 8.88343C24.2133 8.88343 24.1839 8.93248 24.1594 8.96191C23.9829 8.78438 23.7731 8.64349 23.542 8.54734C23.3109 8.4512 23.0631 8.40171 22.8128 8.40171C22.5625 8.40171 22.3147 8.4512 22.0836 8.54734C21.8525 8.64349 21.6427 8.78438 21.4663 8.96191L21.3927 8.88343L21.2554 8.74608C21.3142 8.69212 21.3682 8.63816 21.432 8.5891C21.557 8.48674 21.6936 8.39947 21.8391 8.32912C22.01 8.24462 22.1915 8.18357 22.3787 8.14762L22.6534 8.11328H22.8889C22.9477 8.11328 23.0115 8.11328 23.0704 8.11328C23.2383 8.13125 23.4031 8.17082 23.5609 8.23101C23.6761 8.27427 23.7877 8.32676 23.8945 8.38798C24.0095 8.45246 24.1179 8.52803 24.2182 8.61363C24.2673 8.65287 24.3163 8.70193 24.3654 8.74608L24.3801 8.74117Z" fill="#AAAAAA"/>
<path d="M21.9078 9.39849L21.687 9.18266C21.9269 8.93549 22.2432 8.77649 22.5847 8.73136C22.8296 8.69403 23.0798 8.715 23.3151 8.79257C23.5503 8.87013 23.7639 9.0021 23.9386 9.17775L23.7178 9.39849C23.4771 9.15974 23.1518 9.02578 22.8128 9.02578C22.4738 9.02578 22.1485 9.15974 21.9078 9.39849Z" fill="#AAAAAA"/>
<path d="M23.497 9.61942L23.2763 9.84016C23.1531 9.71764 22.9864 9.64887 22.8127 9.64887C22.639 9.64887 22.4723 9.71764 22.3491 9.84016L22.1333 9.62433C22.3156 9.44684 22.5597 9.34711 22.8142 9.3462C23.0686 9.34528 23.3134 9.44325 23.497 9.61942Z" fill="#AAAAAA"/>
<path d="M23.0116 10.041C23.0041 10.0884 22.98 10.1315 22.9436 10.1626C22.9072 10.1937 22.8609 10.2108 22.8129 10.2108C22.765 10.2108 22.7187 10.1937 22.6823 10.1626C22.6458 10.1315 22.6217 10.0884 22.6143 10.041C22.6097 10.0123 22.6115 9.98298 22.6194 9.95502C22.6273 9.92705 22.6412 9.90113 22.6601 9.87904C22.6789 9.85695 22.7024 9.83921 22.7288 9.82705C22.7552 9.81489 22.7839 9.80859 22.8129 9.80859C22.842 9.80859 22.8707 9.81489 22.8971 9.82705C22.9235 9.83921 22.9469 9.85695 22.9658 9.87904C22.9847 9.90113 22.9986 9.92705 23.0065 9.95502C23.0144 9.98298 23.0161 10.0123 23.0116 10.041Z" fill="#AAAAAA"/>
<path d="M10.7578 9.16326C10.7588 9.04996 10.7933 8.93949 10.8569 8.84575C10.9206 8.75202 11.0106 8.67922 11.1155 8.63653C11.2205 8.59384 11.3357 8.58318 11.4467 8.60587C11.5577 8.62857 11.6595 8.68361 11.7393 8.76407C11.8191 8.84452 11.8733 8.94679 11.895 9.05799C11.9168 9.16918 11.9051 9.28433 11.8615 9.38892C11.8179 9.4935 11.7444 9.58285 11.6501 9.6457C11.5558 9.70855 11.4451 9.74209 11.3318 9.7421C11.256 9.7421 11.1809 9.72709 11.111 9.69794C11.041 9.66879 10.9776 9.62608 10.9242 9.57227C10.8708 9.51845 10.8287 9.4546 10.8001 9.3844C10.7716 9.3142 10.7572 9.23904 10.7578 9.16326Z" fill="#AAAAAA"/>
<path d="M12.5684 9.16331C12.5684 9.04883 12.6023 8.93691 12.6659 8.84173C12.7295 8.74654 12.8199 8.67234 12.9257 8.62853C13.0315 8.58472 13.1478 8.57326 13.2601 8.5956C13.3724 8.61793 13.4755 8.67306 13.5565 8.75401C13.6374 8.83496 13.6926 8.9381 13.7149 9.05038C13.7372 9.16266 13.7258 9.27905 13.682 9.38482C13.6382 9.49059 13.564 9.58099 13.4688 9.64459C13.3736 9.70819 13.2617 9.74214 13.1472 9.74214C12.9937 9.74214 12.8464 9.68116 12.7379 9.57261C12.6293 9.46405 12.5684 9.31682 12.5684 9.16331Z" fill="#AAAAAA"/>
<path d="M14.3833 9.16326C14.3843 9.04996 14.4188 8.93949 14.4824 8.84575C14.5461 8.75202 14.636 8.67922 14.741 8.63653C14.846 8.59384 14.9612 8.58318 15.0722 8.60587C15.1832 8.62857 15.285 8.68361 15.3648 8.76407C15.4446 8.84452 15.4987 8.94679 15.5205 9.05799C15.5422 9.16918 15.5306 9.28433 15.487 9.38892C15.4434 9.4935 15.3699 9.58285 15.2756 9.6457C15.1813 9.70855 15.0706 9.74209 14.9573 9.7421C14.8815 9.7421 14.8064 9.72709 14.7365 9.69794C14.6665 9.66879 14.603 9.62608 14.5497 9.57227C14.4963 9.51845 14.4541 9.4546 14.4256 9.3844C14.397 9.3142 14.3827 9.23904 14.3833 9.16326Z" fill="#AAAAAA"/>
<path d="M16.1934 9.16329C16.1934 9.0486 16.2274 8.93649 16.2913 8.8412C16.3551 8.74591 16.4458 8.67172 16.5518 8.62806C16.6579 8.5844 16.7745 8.57322 16.8869 8.59596C16.9994 8.61869 17.1025 8.67431 17.1832 8.75575C17.264 8.8372 17.3187 8.94079 17.3405 9.0534C17.3623 9.166 17.3501 9.28254 17.3056 9.38822C17.261 9.49389 17.186 9.58396 17.0902 9.64696C16.9944 9.70997 16.882 9.74309 16.7673 9.74212C16.6146 9.74083 16.4687 9.67927 16.3612 9.57086C16.2537 9.46245 16.1934 9.31596 16.1934 9.16329Z" fill="#AAAAAA"/>
<path d="M18.0034 9.16331C18.0034 9.04883 18.0374 8.93691 18.101 8.84173C18.1646 8.74654 18.255 8.67234 18.3607 8.62853C18.4665 8.58472 18.5829 8.57326 18.6952 8.5956C18.8075 8.61793 18.9106 8.67306 18.9916 8.75401C19.0725 8.83496 19.1276 8.9381 19.15 9.05038C19.1723 9.16266 19.1608 9.27905 19.117 9.38482C19.0732 9.49059 18.999 9.58099 18.9038 9.64459C18.8086 9.70819 18.6967 9.74214 18.5823 9.74214C18.5062 9.74214 18.431 9.72717 18.3607 9.69808C18.2905 9.66899 18.2267 9.62636 18.173 9.57261C18.1192 9.51886 18.0766 9.45505 18.0475 9.38482C18.0184 9.31459 18.0034 9.23932 18.0034 9.16331Z" fill="#AAAAAA"/>
<path d="M85.3888 10.4241H80.6992V8.24609H85.3888V10.4241ZM80.9445 10.1788H85.1435V8.49136H80.9445V10.1788Z" fill="#AAAAAA"/>
<path d="M84.1081 8.61865H81.0913V10.051H84.1081V8.61865Z" fill="#AAAAAA"/>
<path d="M85.8056 8.75586H85.3887V9.91844H85.8056V8.75586Z" fill="#AAAAAA"/>
<path d="M46.1997 41.4259C46.1997 41.9353 46.3507 42.4332 46.6337 42.8567C46.9167 43.2802 47.3189 43.6103 47.7895 43.8052C48.2601 44.0001 48.7779 44.0511 49.2774 43.9518C49.777 43.8524 50.2359 43.6071 50.5961 43.2469C50.9562 42.8868 51.2015 42.4279 51.3009 41.9283C51.4002 41.4288 51.3492 40.911 51.1543 40.4404C50.9594 39.9698 50.6293 39.5676 50.2058 39.2846C49.7823 39.0016 49.2844 38.8506 48.775 38.8506C48.092 38.8506 47.437 39.1219 46.954 39.6049C46.471 40.0878 46.1997 40.7429 46.1997 41.4259Z" fill="#C59D4E"/>
<path opacity="0.9" d="M33.8525 44.7569C33.8525 45.242 33.9964 45.7162 34.2659 46.1195C34.5354 46.5229 34.9185 46.8372 35.3666 47.0229C35.8148 47.2085 36.308 47.2571 36.7837 47.1624C37.2595 47.0678 37.6965 46.8342 38.0395 46.4912C38.3826 46.1482 38.6162 45.7112 38.7108 45.2354C38.8054 44.7596 38.7569 44.2665 38.5712 43.8183C38.3856 43.3701 38.0712 42.9871 37.6679 42.7176C37.2645 42.448 36.7903 42.3042 36.3052 42.3042C35.6547 42.3042 35.0309 42.5626 34.5709 43.0226C34.1109 43.4825 33.8525 44.1064 33.8525 44.7569Z" fill="#C59D4E"/>
<path opacity="0.8" d="M26.1758 53.2577C26.1748 53.7178 26.3104 54.1678 26.5653 54.5509C26.8202 54.9339 27.183 55.2327 27.6077 55.4094C28.0325 55.5861 28.5002 55.6329 28.9515 55.5437C29.4029 55.4546 29.8177 55.2335 30.1433 54.9085C30.469 54.5835 30.6909 54.1692 30.781 53.7181C30.8712 53.2669 30.8254 52.7991 30.6496 52.374C30.4737 51.9488 30.1757 51.5854 29.7932 51.3297C29.4108 51.074 28.961 50.9375 28.5009 50.9375C27.8851 50.9375 27.2944 51.1818 26.8585 51.6168C26.4226 52.0518 26.1771 52.6419 26.1758 53.2577Z" fill="#C59D4E"/>
<path opacity="0.7" d="M25.8324 66.8703C27.0434 66.8703 28.0251 65.8886 28.0251 64.6776C28.0251 63.4666 27.0434 62.4849 25.8324 62.4849C24.6214 62.4849 23.6396 63.4666 23.6396 64.6776C23.6396 65.8886 24.6214 66.8703 25.8324 66.8703Z" fill="#C59D4E"/>
<path opacity="0.6" d="M26.23 75.4543C26.23 75.8638 26.3514 76.264 26.5788 76.6044C26.8063 76.9448 27.1296 77.2102 27.5079 77.3668C27.8861 77.5235 28.3023 77.5645 28.7039 77.4846C29.1055 77.4048 29.4743 77.2076 29.7638 76.9181C30.0533 76.6286 30.2505 76.2598 30.3303 75.8582C30.4102 75.4566 30.3692 75.0404 30.2125 74.6622C30.0559 74.2839 29.7905 73.9606 29.4501 73.7331C29.1097 73.5057 28.7095 73.3843 28.3001 73.3843C27.751 73.3843 27.2245 73.6024 26.8363 73.9906C26.4481 74.3788 26.23 74.9053 26.23 75.4543Z" fill="#C59D4E"/>
<path opacity="0.5" d="M33.9116 84.2698C33.9116 84.6578 34.0267 85.0372 34.2423 85.3599C34.4579 85.6826 34.7643 85.9341 35.1229 86.0826C35.4814 86.2311 35.8759 86.2699 36.2566 86.1942C36.6372 86.1185 36.9868 85.9316 37.2612 85.6572C37.5356 85.3828 37.7225 85.0332 37.7982 84.6526C37.8739 84.2719 37.8351 83.8774 37.6866 83.5189C37.5381 83.1604 37.2866 82.8539 36.9639 82.6383C36.6412 82.4227 36.2619 82.3076 35.8738 82.3076C35.3534 82.3076 34.8543 82.5143 34.4863 82.8823C34.1183 83.2503 33.9116 83.7494 33.9116 84.2698Z" fill="#C59D4E"/>
<path opacity="0.4" d="M47.0386 87.9537C47.0386 88.3126 47.145 88.6635 47.3445 88.962C47.5439 89.2605 47.8273 89.4931 48.159 89.6305C48.4906 89.7679 48.8556 89.8038 49.2077 89.7338C49.5597 89.6637 49.8831 89.4909 50.137 89.2371C50.3908 88.9832 50.5637 88.6598 50.6337 88.3077C50.7037 87.9557 50.6678 87.5907 50.5304 87.2591C50.393 86.9274 50.1604 86.644 49.8619 86.4445C49.5634 86.2451 49.2125 86.1387 48.8536 86.1387C48.3722 86.1387 47.9106 86.3299 47.5702 86.6703C47.2298 87.0106 47.0386 87.4723 47.0386 87.9537Z" fill="#C59D4E"/>
<path opacity="0.3" d="M60.332 83.9848C60.3311 84.3197 60.4295 84.6474 60.6149 84.9264C60.8002 85.2053 61.0642 85.423 61.3734 85.5518C61.6825 85.6807 62.0229 85.7149 62.3515 85.6502C62.6801 85.5854 62.9822 85.4246 63.2193 85.1881C63.4565 84.9517 63.6182 84.6501 63.6839 84.3217C63.7496 83.9933 63.7163 83.6528 63.5884 83.3432C63.4605 83.0337 63.2435 82.7691 62.9651 82.5829C62.6867 82.3967 62.3593 82.2974 62.0244 82.2974C61.8024 82.2967 61.5824 82.3399 61.3771 82.4244C61.1718 82.5089 60.9852 82.6331 60.828 82.7899C60.6708 82.9466 60.5461 83.1329 60.4609 83.3379C60.3758 83.543 60.332 83.7628 60.332 83.9848Z" fill="#C59D4E"/>
<path opacity="0.2" d="M67.96 74.7533C67.959 75.063 68.0499 75.366 68.2213 75.624C68.3927 75.8819 68.6367 76.0833 68.9226 76.2025C69.2084 76.3217 69.5232 76.3533 69.827 76.2935C70.1309 76.2337 70.4102 76.085 70.6295 75.8664C70.8489 75.6478 70.9984 75.3689 71.0592 75.0653C71.1199 74.7616 71.0892 74.4467 70.971 74.1605C70.8527 73.8743 70.6521 73.6296 70.3947 73.4574C70.1372 73.2853 69.8345 73.1934 69.5248 73.1934C69.1106 73.1934 68.7133 73.3575 68.42 73.6499C68.1267 73.9423 67.9613 74.3391 67.96 74.7533Z" fill="#C59D4E"/>
<path opacity="0.1" d="M70.4863 64.4519C70.4863 64.7362 70.5706 65.0141 70.7286 65.2504C70.8865 65.4868 71.111 65.671 71.3736 65.7798C71.6362 65.8886 71.9252 65.917 72.204 65.8616C72.4828 65.8061 72.7389 65.6692 72.9399 65.4682C73.1409 65.2672 73.2778 65.0111 73.3333 64.7323C73.3887 64.4535 73.3603 64.1645 73.2515 63.9019C73.1427 63.6393 72.9585 63.4148 72.7221 63.2569C72.4858 63.0989 72.2079 63.0146 71.9236 63.0146C71.5424 63.0146 71.1768 63.1661 70.9073 63.4356C70.6378 63.7052 70.4863 64.0707 70.4863 64.4519Z" fill="#C59D4E"/>
<path opacity="0.05" d="M68.2052 52.5072C68.9286 52.5072 69.515 51.9208 69.515 51.1974C69.515 50.4741 68.9286 49.8877 68.2052 49.8877C67.4819 49.8877 66.8955 50.4741 66.8955 51.1974C66.8955 51.9208 67.4819 52.5072 68.2052 52.5072Z" fill="#C59D4E"/>
<path opacity="0.01" d="M58.0903 43.7511C58.0903 43.9859 58.16 44.2154 58.2904 44.4106C58.4208 44.6058 58.6062 44.758 58.8232 44.8478C59.0401 44.9377 59.2788 44.9612 59.509 44.9154C59.7393 44.8696 59.9508 44.7565 60.1169 44.5905C60.2829 44.4245 60.3959 44.2129 60.4417 43.9827C60.4875 43.7524 60.464 43.5137 60.3742 43.2968C60.2843 43.0799 60.1322 42.8945 59.937 42.764C59.7417 42.6336 59.5122 42.564 59.2775 42.564C59.1214 42.5633 58.9667 42.5936 58.8224 42.653C58.6781 42.7124 58.5469 42.7999 58.4366 42.9102C58.3262 43.0206 58.2388 43.1517 58.1794 43.296C58.12 43.4403 58.0897 43.595 58.0903 43.7511Z" fill="#C59D4E"/>
<path d="M48.3235 70.1717C49.457 70.1659 50.5634 69.8242 51.5029 69.19C52.4423 68.5557 53.1727 67.6572 53.6018 66.608C54.0309 65.5588 54.1394 64.406 53.9136 63.2952C53.6878 62.1844 53.1379 61.1654 52.3333 60.367C51.5287 59.5686 50.5055 59.0265 49.393 58.8093C48.2805 58.592 47.1285 58.7094 46.0827 59.1465C45.0369 59.5837 44.144 60.3209 43.517 61.2652C42.8899 62.2095 42.5568 63.3185 42.5597 64.452C42.5616 65.2063 42.7124 65.9528 43.0032 66.6488C43.2941 67.3447 43.7195 67.9764 44.2549 68.5078C44.7903 69.0391 45.4253 69.4595 46.1234 69.7451C46.8216 70.0306 47.5693 70.1756 48.3235 70.1717ZM43.2563 64.452C43.2505 63.4566 43.54 62.4819 44.0882 61.651C44.6363 60.8201 45.4186 60.1705 46.336 59.7842C47.2534 59.3979 48.2647 59.2923 49.2421 59.4808C50.2195 59.6693 51.1191 60.1434 51.827 60.8431C52.535 61.5428 53.0196 62.4368 53.2195 63.4119C53.4194 64.3871 53.3257 65.3996 52.9501 66.3214C52.5746 67.2433 51.9341 68.0331 51.1097 68.5909C50.2853 69.1488 49.314 69.4497 48.3186 69.4555C46.9842 69.462 45.7017 68.9389 44.7526 68.0008C43.8035 67.0627 43.2654 65.7864 43.2563 64.452ZM48.3235 70.157C49.4577 70.1511 50.5646 69.8091 51.5044 69.1742C52.4441 68.5392 53.1745 67.6399 53.6031 66.5899C54.0318 65.5398 54.1394 64.3863 53.9124 63.2751C53.6854 62.1639 53.1341 61.1449 52.328 60.3471C51.5219 59.5492 50.4974 59.0083 49.3839 58.7928C48.2704 58.5772 47.118 58.6967 46.0724 59.1361C45.0269 59.5755 44.1351 60.315 43.5098 61.2613C42.8845 62.2075 42.5539 63.3179 42.5597 64.452C42.5616 65.2063 42.7124 65.9528 43.0032 66.6488C43.2941 67.3447 43.7195 67.9764 44.2549 68.5078C44.7903 69.0391 45.4253 69.4595 46.1234 69.7451C46.8216 70.0306 47.5693 70.1756 48.3235 70.1717V70.157ZM43.2563 64.452C43.2505 63.4566 43.54 62.4819 44.0882 61.651C44.6363 60.8201 45.4186 60.1705 46.336 59.7842C47.2534 59.3979 48.2647 59.2923 49.2421 59.4808C50.2195 59.6693 51.1191 60.1434 51.827 60.8431C52.535 61.5428 53.0196 62.4368 53.2195 63.4119C53.4194 64.3871 53.3257 65.3996 52.9501 66.3214C52.5746 67.2433 51.9341 68.0331 51.1097 68.5909C50.2853 69.1488 49.314 69.4497 48.3186 69.4555C46.9842 69.462 45.7017 68.9389 44.7526 68.0008C43.8035 67.0627 43.2654 65.7864 43.2563 64.452ZM48.3235 70.157C49.4577 70.1511 50.5646 69.8091 51.5044 69.1742C52.4441 68.5392 53.1745 67.6399 53.6031 66.5899C54.0318 65.5398 54.1394 64.3863 53.9124 63.2751C53.6854 62.1639 53.1341 61.1449 52.328 60.3471C51.5219 59.5492 50.4974 59.0083 49.3839 58.7928C48.2704 58.5772 47.118 58.6967 46.0724 59.1361C45.0269 59.5755 44.1351 60.315 43.5098 61.2613C42.8845 62.2075 42.5539 63.3179 42.5597 64.452C42.5616 65.2063 42.7124 65.9528 43.0032 66.6488C43.2941 67.3447 43.7195 67.9764 44.2549 68.5078C44.7903 69.0391 45.4253 69.4595 46.1234 69.7451C46.8216 70.0306 47.5693 70.1756 48.3235 70.1717V70.157ZM43.2563 64.452C43.2505 63.4566 43.54 62.4819 44.0882 61.651C44.6363 60.8201 45.4186 60.1705 46.336 59.7842C47.2534 59.3979 48.2647 59.2923 49.2421 59.4808C50.2195 59.6693 51.1191 60.1434 51.827 60.8431C52.535 61.5428 53.0196 62.4368 53.2195 63.4119C53.4194 64.3871 53.3257 65.3996 52.9501 66.3214C52.5746 67.2433 51.9341 68.0331 51.1097 68.5909C50.2853 69.1488 49.314 69.4497 48.3186 69.4555C46.9842 69.462 45.7017 68.9389 44.7526 68.0008C43.8035 67.0627 43.2654 65.7864 43.2563 64.452ZM48.3579 76.5045C50.7476 76.4909 53.0796 75.7689 55.059 74.4298C57.0384 73.0907 58.5761 71.1947 59.4779 68.9816C60.3796 66.7684 60.6047 64.3376 60.1248 61.9965C59.6449 59.6554 58.4815 57.5092 56.7818 55.8294C55.082 54.1495 52.9223 53.0115 50.5757 52.5592C48.2291 52.1069 45.8011 52.3606 43.5987 53.2884C41.3964 54.2161 39.5186 55.7761 38.2029 57.7711C36.8872 59.7661 36.1927 62.1064 36.2073 64.4962C36.215 66.0836 36.5354 67.654 37.1504 69.1175C37.7653 70.5811 38.6626 71.9091 39.791 73.0257C40.9194 74.1423 42.2568 75.0255 43.7268 75.625C45.1967 76.2244 46.7704 76.5283 48.3579 76.5193V76.5045ZM41.6669 64.4618C41.6592 63.1521 42.04 61.8695 42.7612 60.7762C43.4824 59.6829 44.5116 58.828 45.7187 58.3196C46.9258 57.8113 48.2565 57.6722 49.5425 57.9201C50.8286 58.1681 52.0123 58.7918 52.9439 59.7124C53.8755 60.633 54.5132 61.8092 54.7763 63.0923C55.0395 64.3753 54.9162 65.7076 54.4222 66.9206C53.9282 68.1336 53.0855 69.1728 52.0009 69.907C50.9162 70.6411 49.6382 71.0371 48.3284 71.0449C46.5754 71.0527 44.8906 70.3662 43.6423 69.1353C42.394 67.9045 41.6838 66.2295 41.6669 64.4765V64.4618ZM42.5597 64.4618C42.5646 65.5956 42.9054 66.7024 43.5391 67.6425C44.1728 68.5826 45.0709 69.3138 46.12 69.7436C47.1691 70.1734 48.3221 70.2826 49.4332 70.0574C50.5443 69.8322 51.5638 69.2826 52.3627 68.4782C53.1616 67.6738 53.7042 66.6506 53.9218 65.538C54.1394 64.4253 54.0223 63.2731 53.5854 62.227C53.1484 61.1809 52.4111 60.2877 51.4667 59.6605C50.5223 59.0332 49.4131 58.7 48.2794 58.7029C46.7589 58.7081 45.3027 59.3164 44.2303 60.3943C43.1579 61.4722 42.5571 62.9316 42.5597 64.452V64.4618ZM43.2563 64.4618C43.2505 63.4664 43.54 62.4917 44.0882 61.6608C44.6363 60.8299 45.4186 60.1803 46.336 59.794C47.2534 59.4077 48.2647 59.3021 49.2421 59.4906C50.2195 59.6791 51.1191 60.1532 51.827 60.8529C52.535 61.5527 53.0196 62.4466 53.2195 63.4217C53.4194 64.3969 53.3257 65.4094 52.9501 66.3312C52.5746 67.2531 51.9341 68.0429 51.1097 68.6007C50.2853 69.1586 49.314 69.4595 48.3186 69.4653C47.657 69.4685 47.0013 69.3414 46.3889 69.0912C45.7764 68.841 45.2192 68.4727 44.7492 68.0071C44.2791 67.5416 43.9053 66.988 43.6491 66.3781C43.393 65.7681 43.2595 65.1136 43.2563 64.452V64.4618ZM48.3235 70.1668C49.4573 70.161 50.5638 69.8192 51.5034 69.1847C52.4429 68.5502 53.1733 67.6514 53.6022 66.602C54.0312 65.5525 54.1394 64.3995 53.9132 63.2885C53.687 62.1776 53.1366 61.1586 52.3315 60.3604C51.5265 59.5621 50.5028 59.0204 49.39 58.8038C48.2771 58.5871 47.125 58.7052 46.0793 59.143C45.0335 59.5809 44.141 60.319 43.5146 61.2639C42.8881 62.2089 42.5559 63.3183 42.5597 64.452C42.5616 65.2063 42.7124 65.9528 43.0032 66.6488C43.2941 67.3447 43.7195 67.9764 44.2549 68.5078C44.7903 69.0391 45.4253 69.4595 46.1234 69.7451C46.8216 70.0306 47.5693 70.1756 48.3235 70.1717V70.1668ZM43.2563 64.452C43.2505 63.4566 43.54 62.4819 44.0882 61.651C44.6363 60.8201 45.4186 60.1705 46.336 59.7842C47.2534 59.3979 48.2647 59.2923 49.2421 59.4808C50.2195 59.6693 51.1191 60.1434 51.827 60.8431C52.535 61.5428 53.0196 62.4368 53.2195 63.4119C53.4194 64.3871 53.3257 65.3996 52.9501 66.3214C52.5746 67.2433 51.9341 68.0331 51.1097 68.5909C50.2853 69.1488 49.314 69.4497 48.3186 69.4555C46.9842 69.462 45.7017 68.9389 44.7526 68.0008C43.8035 67.0627 43.2654 65.7864 43.2563 64.452ZM48.3235 70.157C49.4577 70.1511 50.5646 69.8091 51.5044 69.1742C52.4441 68.5392 53.1745 67.6399 53.6031 66.5899C54.0318 65.5398 54.1394 64.3863 53.9124 63.2751C53.6854 62.1639 53.1341 61.1449 52.328 60.3471C51.5219 59.5492 50.4974 59.0083 49.3839 58.7928C48.2704 58.5772 47.118 58.6967 46.0724 59.1361C45.0269 59.5755 44.1351 60.315 43.5098 61.2613C42.8845 62.2075 42.5539 63.3179 42.5597 64.452C42.5616 65.2063 42.7124 65.9528 43.0032 66.6488C43.2941 67.3447 43.7195 67.9764 44.2549 68.5078C44.7903 69.0391 45.4253 69.4595 46.1234 69.7451C46.8216 70.0306 47.5693 70.1756 48.3235 70.1717V70.157ZM43.2563 64.452C43.2505 63.4566 43.54 62.4819 44.0882 61.651C44.6363 60.8201 45.4186 60.1705 46.336 59.7842C47.2534 59.3979 48.2647 59.2923 49.2421 59.4808C50.2195 59.6693 51.1191 60.1434 51.827 60.8431C52.535 61.5428 53.0196 62.4368 53.2195 63.4119C53.4194 64.3871 53.3257 65.3996 52.9501 66.3214C52.5746 67.2433 51.9341 68.0331 51.1097 68.5909C50.2853 69.1488 49.314 69.4497 48.3186 69.4555C46.9842 69.462 45.7017 68.9389 44.7526 68.0008C43.8035 67.0627 43.2654 65.7864 43.2563 64.452Z" fill="#C59D4E"/>
<path d="M45.9004 52.8702L50.5458 52.8408L50.2711 49.5542L46.1359 49.5787L45.9004 52.8702Z" fill="#C59D4E"/>
<path d="M54.7495 54.381L58.0557 57.648L60.1847 55.1266L57.2463 52.2227L54.7495 54.381Z" fill="#C59D4E"/>
<path d="M59.9395 61.7095L59.9689 66.3549L63.2555 66.0802L63.231 61.9498L59.9395 61.7095Z" fill="#C59D4E"/>
<path d="M58.4286 70.564L55.1616 73.8702L57.683 75.9991L60.587 73.0559L58.4286 70.564Z" fill="#C59D4E"/>
<path d="M51.1 75.7539L46.4546 75.7833L46.7293 79.0699L50.8596 79.0454L51.1 75.7539Z" fill="#C59D4E"/>
<path d="M42.2457 74.2431L38.9395 70.9761L36.8105 73.4974L39.7538 76.4014L42.2457 74.2431Z" fill="#C59D4E"/>
<path d="M37.0558 66.9096L37.0264 62.2642L33.7397 62.5438L33.7643 66.6741L37.0558 66.9096Z" fill="#C59D4E"/>
<path d="M38.5666 58.0602L41.8335 54.7539L39.3171 52.625L36.4131 55.5633L38.5666 58.0602Z" fill="#C59D4E"/>
<path d="M77.447 104.298H19.5635V99.4712H77.447V104.298ZM19.794 104.053H77.2213V99.7165H19.8284L19.794 104.053Z" fill="#C59D4E"/>
<path d="M22.8108 100.467H20.7358V103.307H22.8108V100.467Z" fill="#C59D4E"/>
<path d="M25.6756 100.467H23.6006V103.307H25.6756V100.467Z" fill="#C59D4E"/>
<path d="M28.5452 100.467H26.4702V103.307H28.5452V100.467Z" fill="#C59D4E"/>
<path d="M31.4094 100.467H29.3345V103.307H31.4094V100.467Z" fill="#C59D4E"/>
<path d="M34.2796 100.467H32.2046V103.307H34.2796V100.467Z" fill="#C59D4E"/>
<path d="M37.1443 100.467H35.0693V103.307H37.1443V100.467Z" fill="#C59D4E"/>
<path d="M40.0139 100.467H37.939V103.307H40.0139V100.467Z" fill="#C59D4E"/>
<path d="M42.8787 100.467H40.8037V103.307H42.8787V100.467Z" fill="#C59D4E"/>
<path d="M45.7483 100.467H43.6733V103.307H45.7483V100.467Z" fill="#C59D4E"/>
<path d="M48.6131 100.467H46.5381V103.307H48.6131V100.467Z" fill="#C59D4E"/>
<path d="M51.4827 100.467H49.4077V103.307H51.4827V100.467Z" fill="#C59D4E"/>
<path d="M54.3474 100.467H52.2725V103.307H54.3474V100.467Z" fill="#C59D4E"/>
<path d="M70.7315 101.193L70.0104 102.9C69.9984 102.929 69.9779 102.953 69.9515 102.97C69.9252 102.987 69.8944 102.995 69.8633 102.994H69.8044C69.7656 102.976 69.7348 102.945 69.7184 102.906C69.702 102.866 69.7012 102.822 69.7161 102.783L70.3391 101.311H69.5935C69.5514 101.31 69.5115 101.292 69.4822 101.262C69.4529 101.232 69.4365 101.191 69.4365 101.149C69.4365 101.108 69.4531 101.068 69.4825 101.038C69.5119 101.009 69.5519 100.992 69.5935 100.992H70.6138L70.6727 101.017V101.08L70.7315 101.193Z" fill="#C59D4E"/>
<path d="M71.075 101.983C71.0696 101.739 71.138 101.5 71.2712 101.296C71.3227 101.2 71.3994 101.119 71.4932 101.063C71.5869 101.007 71.6941 100.977 71.8035 100.977C71.9128 100.977 72.02 101.007 72.1138 101.063C72.2075 101.119 72.2842 101.2 72.3357 101.296C72.4689 101.5 72.5373 101.739 72.5319 101.983C72.5374 102.228 72.469 102.469 72.3357 102.675C72.2842 102.771 72.2075 102.852 72.1138 102.908C72.02 102.964 71.9128 102.994 71.8035 102.994C71.6941 102.994 71.5869 102.964 71.4932 102.908C71.3994 102.852 71.3227 102.771 71.2712 102.675C71.1379 102.469 71.0695 102.228 71.075 101.983ZM72.2131 101.983C72.2128 101.809 72.1635 101.639 72.0708 101.492C72.0456 101.443 72.008 101.4 71.9616 101.369C71.9152 101.338 71.8615 101.32 71.8059 101.316C71.7491 101.32 71.6942 101.339 71.6462 101.369C71.5983 101.4 71.5587 101.442 71.5312 101.492C71.443 101.641 71.3957 101.81 71.3939 101.983C71.3942 102.156 71.4417 102.326 71.5312 102.474C71.5588 102.524 71.5983 102.567 71.6461 102.598C71.694 102.63 71.7488 102.649 71.8059 102.655C71.8618 102.649 71.9153 102.63 71.9616 102.598C72.0079 102.566 72.0455 102.524 72.0708 102.474C72.164 102.327 72.2133 102.157 72.2131 101.983Z" fill="#C59D4E"/>
<path d="M73.0909 101.473C73.0909 101.342 73.1426 101.218 73.2346 101.126C73.3266 101.034 73.4514 100.982 73.5815 100.982C73.7116 100.982 73.8364 101.034 73.9284 101.126C74.0203 101.218 74.072 101.342 74.072 101.473C74.0753 101.539 74.0651 101.605 74.042 101.668C74.0188 101.73 73.9832 101.787 73.9373 101.835C73.8914 101.884 73.8362 101.922 73.7751 101.948C73.7139 101.974 73.648 101.988 73.5815 101.988C73.5149 101.988 73.4491 101.974 73.3879 101.948C73.3267 101.922 73.2715 101.884 73.2257 101.835C73.1798 101.787 73.1442 101.73 73.121 101.668C73.0978 101.605 73.0876 101.539 73.0909 101.473ZM73.7826 101.473C73.7826 101.311 73.6894 101.178 73.5619 101.178C73.4343 101.178 73.346 101.311 73.346 101.468C73.346 101.634 73.4392 101.762 73.5668 101.762C73.6943 101.762 73.7875 101.63 73.7875 101.473H73.7826ZM73.4196 102.822L74.7441 101.011C74.7541 100.995 74.7687 100.981 74.786 100.973C74.8034 100.964 74.8229 100.961 74.8422 100.962C74.8721 100.962 74.9008 100.974 74.9219 100.995C74.9431 101.017 74.955 101.045 74.955 101.075C74.955 101.102 74.9464 101.128 74.9305 101.149L73.606 102.954C73.5958 102.971 73.5813 102.985 73.5641 102.994C73.5469 103.003 73.5275 103.008 73.5079 103.008C73.4931 103.008 73.4784 103.005 73.4647 102.999C73.451 102.994 73.4386 102.985 73.4281 102.975C73.4177 102.964 73.4093 102.952 73.4037 102.938C73.398 102.925 73.3951 102.91 73.3951 102.895C73.3951 102.869 73.4037 102.843 73.4196 102.822ZM74.3075 102.508C74.2894 102.435 74.288 102.36 74.3034 102.287C74.3188 102.214 74.3507 102.145 74.3966 102.087C74.4424 102.028 74.5011 101.98 74.5681 101.948C74.6352 101.915 74.7087 101.898 74.7833 101.898C74.8579 101.898 74.9315 101.915 74.9985 101.948C75.0655 101.98 75.1242 102.028 75.17 102.087C75.2159 102.145 75.2478 102.214 75.2632 102.287C75.2787 102.36 75.2773 102.435 75.2591 102.508C75.2773 102.58 75.2787 102.655 75.2632 102.728C75.2478 102.801 75.2159 102.87 75.17 102.929C75.1242 102.987 75.0655 103.035 74.9985 103.068C74.9315 103.1 74.8579 103.117 74.7833 103.117C74.7087 103.117 74.6352 103.1 74.5681 103.068C74.5011 103.035 74.4424 102.987 74.3966 102.929C74.3507 102.87 74.3188 102.801 74.3034 102.728C74.288 102.655 74.2894 102.58 74.3075 102.508ZM75.0041 102.508C75.0041 102.346 74.9108 102.213 74.7784 102.213C74.646 102.213 74.5626 102.346 74.5626 102.498C74.5626 102.66 74.6558 102.792 74.7882 102.792C74.9207 102.792 75.0041 102.66 75.0041 102.508Z" fill="#C59D4E"/>
<path d="M34.2007 109.621C34.2001 109.589 34.2058 109.557 34.2176 109.527C34.2294 109.498 34.247 109.47 34.2694 109.448C34.2918 109.425 34.3185 109.407 34.348 109.394C34.3775 109.382 34.4091 109.375 34.4411 109.375C34.5066 109.375 34.5695 109.401 34.6163 109.447C34.6631 109.493 34.69 109.555 34.6913 109.621V112.226C34.69 112.291 34.6631 112.353 34.6163 112.399C34.5695 112.445 34.5066 112.471 34.4411 112.471C34.4091 112.471 34.3775 112.464 34.348 112.452C34.3185 112.44 34.2918 112.421 34.2694 112.399C34.247 112.376 34.2294 112.349 34.2176 112.319C34.2058 112.289 34.2001 112.258 34.2007 112.226V109.621Z" fill="#AAAAAA"/>
<path d="M36.0157 112.225C36.0145 112.289 35.9889 112.35 35.9443 112.396C35.8996 112.441 35.8391 112.468 35.7753 112.471C35.7434 112.471 35.7117 112.464 35.6822 112.452C35.6527 112.439 35.626 112.421 35.6036 112.398C35.5812 112.376 35.5636 112.349 35.5519 112.319C35.5401 112.289 35.5343 112.257 35.535 112.225V109.66C35.5329 109.621 35.5408 109.582 35.558 109.547C35.5752 109.511 35.601 109.481 35.6331 109.459C35.6584 109.44 35.6872 109.426 35.7178 109.419C35.7484 109.411 35.7802 109.41 35.8113 109.415C35.8424 109.42 35.8722 109.431 35.8989 109.448C35.9256 109.465 35.9486 109.487 35.9667 109.513L37.3941 111.475V109.655C37.3941 109.592 37.4188 109.532 37.4628 109.487C37.5068 109.442 37.5667 109.416 37.6296 109.415C37.6934 109.416 37.7544 109.441 37.8 109.486C37.8456 109.531 37.8724 109.591 37.8749 109.655V112.22C37.8736 112.285 37.8474 112.347 37.8016 112.392C37.7559 112.438 37.6942 112.464 37.6296 112.466C37.595 112.464 37.5611 112.455 37.5299 112.44C37.4988 112.425 37.4709 112.403 37.4481 112.377V112.348L36.0353 110.386L36.0157 112.225Z" fill="#AAAAAA"/>
<path d="M38.8221 111.701C38.8411 111.677 38.8647 111.657 38.8914 111.643C38.9181 111.629 38.9475 111.62 38.9777 111.617C39.0079 111.614 39.0384 111.618 39.0673 111.627C39.0962 111.636 39.1229 111.651 39.1459 111.671C39.3833 111.872 39.6792 111.991 39.9896 112.01C40.1851 112.014 40.3772 111.958 40.539 111.848C40.5939 111.814 40.6399 111.767 40.6732 111.711C40.7064 111.656 40.726 111.593 40.7303 111.529C40.7307 111.479 40.7171 111.429 40.6911 111.387C40.6558 111.334 40.6109 111.289 40.5586 111.254C40.3664 111.151 40.157 111.082 39.9405 111.053C39.7429 111.02 39.5502 110.962 39.3666 110.881C39.2 110.807 39.0586 110.686 38.9595 110.533C38.8902 110.427 38.8544 110.302 38.8565 110.175C38.8614 110.047 38.8958 109.922 38.9571 109.81C39.0183 109.697 39.1048 109.601 39.2096 109.528C39.4343 109.372 39.7016 109.29 39.9749 109.292C40.3301 109.308 40.6721 109.431 40.956 109.645C41.0052 109.679 41.0394 109.731 41.0513 109.789C41.0632 109.848 41.0519 109.909 41.0197 109.959C41.0038 109.984 40.9829 110.006 40.9585 110.023C40.934 110.041 40.9063 110.053 40.8771 110.059C40.8479 110.066 40.8177 110.066 40.7883 110.061C40.7589 110.055 40.7308 110.044 40.7058 110.028C40.5036 109.862 40.2552 109.763 39.9945 109.743C39.8191 109.741 39.6475 109.795 39.5039 109.895C39.4558 109.925 39.4154 109.966 39.3864 110.015C39.3574 110.064 39.3405 110.118 39.3372 110.175C39.3336 110.218 39.3439 110.261 39.3666 110.298C39.3984 110.342 39.4384 110.381 39.4843 110.41C39.655 110.51 39.8431 110.577 40.0386 110.607C40.2483 110.644 40.4525 110.706 40.6469 110.793C40.8251 110.87 40.978 110.996 41.0884 111.156C41.1555 111.271 41.1911 111.401 41.1914 111.534C41.1875 111.669 41.1512 111.802 41.0855 111.921C41.0198 112.039 40.9266 112.14 40.8137 112.216C40.5765 112.386 40.2911 112.475 39.9994 112.471C39.5838 112.45 39.1861 112.295 38.8663 112.029C38.817 111.991 38.7848 111.936 38.7765 111.874C38.7682 111.812 38.7846 111.75 38.8221 111.701Z" fill="#AAAAAA"/>
<path d="M43.6876 109.866H42.9861V112.226C42.9861 112.291 42.9603 112.353 42.9143 112.399C42.8683 112.445 42.8059 112.471 42.7409 112.471C42.6758 112.471 42.6134 112.445 42.5674 112.399C42.5214 112.353 42.4956 112.291 42.4956 112.226V109.866H41.7941C41.7621 109.866 41.7305 109.86 41.701 109.847C41.6715 109.835 41.6448 109.817 41.6224 109.794C41.6 109.771 41.5824 109.744 41.5706 109.714C41.5588 109.685 41.5531 109.653 41.5538 109.621C41.5531 109.589 41.5588 109.557 41.5706 109.527C41.5824 109.498 41.6 109.47 41.6224 109.448C41.6448 109.425 41.6715 109.407 41.701 109.394C41.7305 109.382 41.7621 109.375 41.7941 109.375H43.6827C43.7147 109.375 43.7463 109.382 43.7758 109.394C43.8053 109.407 43.832 109.425 43.8544 109.448C43.8768 109.47 43.8944 109.498 43.9062 109.527C43.918 109.557 43.9237 109.589 43.9231 109.621C43.9231 109.684 43.8986 109.745 43.8547 109.791C43.8108 109.837 43.7509 109.863 43.6876 109.866Z" fill="#AAAAAA"/>
<path d="M45.8267 111.74H44.7525L44.5366 112.314C44.5181 112.36 44.4863 112.399 44.4453 112.427C44.4042 112.455 44.3557 112.47 44.3061 112.471C44.2785 112.476 44.2502 112.476 44.2227 112.471C44.162 112.447 44.1129 112.4 44.0855 112.341C44.0581 112.281 44.0545 112.214 44.0755 112.152L45.0566 109.552C45.0748 109.505 45.1072 109.464 45.1494 109.436C45.1916 109.408 45.2414 109.394 45.292 109.395C45.3426 109.394 45.3921 109.409 45.4341 109.437C45.4761 109.465 45.5087 109.505 45.5275 109.552L46.5086 112.152C46.5311 112.213 46.5288 112.281 46.5023 112.34C46.4757 112.4 46.4269 112.447 46.3663 112.471C46.3388 112.476 46.3105 112.476 46.2829 112.471C46.2336 112.472 46.1853 112.457 46.1448 112.429C46.1043 112.4 46.0737 112.36 46.0573 112.314L45.8267 111.74ZM45.6452 111.249L45.2871 110.303L44.9291 111.249H45.6452Z" fill="#AAAAAA"/>
<path d="M47.0923 112.226V109.621C47.0917 109.589 47.0974 109.557 47.1092 109.527C47.121 109.498 47.1386 109.47 47.161 109.448C47.1834 109.425 47.2101 109.407 47.2396 109.394C47.2691 109.382 47.3007 109.375 47.3327 109.375C47.3978 109.375 47.4601 109.401 47.5061 109.447C47.5521 109.493 47.578 109.556 47.578 109.621V111.98H48.77C48.835 111.98 48.8974 112.006 48.9434 112.052C48.9894 112.098 49.0153 112.16 49.0153 112.226C49.014 112.29 48.9877 112.352 48.942 112.398C48.8963 112.443 48.8346 112.47 48.77 112.471H47.3278C47.2962 112.47 47.2651 112.463 47.2362 112.451C47.2073 112.438 47.1811 112.42 47.1593 112.397C47.1374 112.374 47.1202 112.347 47.1087 112.318C47.0973 112.288 47.0917 112.257 47.0923 112.226Z" fill="#AAAAAA"/>
<path d="M49.5742 112.226V109.621C49.5742 109.556 49.6 109.493 49.646 109.447C49.692 109.401 49.7544 109.375 49.8195 109.375C49.8845 109.375 49.9469 109.401 49.9929 109.447C50.0389 109.493 50.0648 109.556 50.0648 109.621V111.98H51.2617C51.3263 111.982 51.388 112.008 51.4337 112.053C51.4794 112.099 51.5057 112.161 51.5069 112.226C51.5057 112.29 51.4794 112.352 51.4337 112.398C51.388 112.443 51.3263 112.47 51.2617 112.471H49.8195C49.7544 112.471 49.692 112.445 49.646 112.399C49.6 112.353 49.5742 112.291 49.5742 112.226Z" fill="#AAAAAA"/>
<path d="M52.1153 109.621C52.1146 109.589 52.1204 109.557 52.1322 109.527C52.1439 109.498 52.1615 109.47 52.1839 109.448C52.2063 109.425 52.233 109.407 52.2625 109.394C52.292 109.382 52.3237 109.375 52.3556 109.375C52.4212 109.375 52.4841 109.401 52.5308 109.447C52.5776 109.493 52.6045 109.555 52.6058 109.621V112.226C52.6045 112.291 52.5776 112.353 52.5308 112.399C52.4841 112.445 52.4212 112.471 52.3556 112.471C52.3237 112.471 52.292 112.464 52.2625 112.452C52.233 112.44 52.2063 112.421 52.1839 112.399C52.1615 112.376 52.1439 112.349 52.1322 112.319C52.1204 112.289 52.1146 112.258 52.1153 112.226V109.621Z" fill="#AAAAAA"/>
<path d="M53.9156 112.225C53.9144 112.289 53.8888 112.35 53.8442 112.396C53.7995 112.441 53.739 112.468 53.6753 112.471C53.6433 112.471 53.6116 112.464 53.5821 112.452C53.5526 112.439 53.5259 112.421 53.5035 112.398C53.4811 112.376 53.4636 112.349 53.4518 112.319C53.44 112.289 53.4342 112.257 53.4349 112.225V109.66C53.4328 109.621 53.4407 109.582 53.4579 109.547C53.4751 109.511 53.5009 109.481 53.533 109.459C53.5583 109.44 53.5871 109.426 53.6177 109.419C53.6483 109.411 53.6801 109.41 53.7112 109.415C53.7423 109.42 53.7721 109.431 53.7988 109.448C53.8255 109.465 53.8485 109.487 53.8666 109.513L55.294 111.475V109.655C55.294 109.592 55.3187 109.532 55.3627 109.487C55.4067 109.442 55.4666 109.416 55.5295 109.415C55.5933 109.416 55.6543 109.441 55.6999 109.486C55.7455 109.531 55.7723 109.591 55.7748 109.655V112.22C55.7777 112.271 55.7644 112.321 55.7369 112.363C55.7093 112.405 55.669 112.437 55.6218 112.455C55.5746 112.472 55.523 112.474 55.4746 112.46C55.4262 112.446 55.3836 112.417 55.3529 112.377L55.3284 112.348L53.9156 110.386V112.225Z" fill="#AAAAAA"/>
<path d="M56.4766 110.881C56.483 110.579 56.5736 110.284 56.7382 110.03C56.9028 109.776 57.1349 109.573 57.4084 109.444C57.682 109.315 57.9861 109.264 58.2868 109.298C58.5875 109.332 58.8728 109.449 59.1107 109.635C59.1381 109.655 59.1611 109.68 59.1785 109.709C59.1958 109.738 59.2072 109.771 59.2118 109.804C59.2163 109.837 59.2141 109.872 59.2052 109.904C59.1962 109.937 59.1808 109.967 59.1598 109.994C59.1167 110.045 59.0554 110.078 58.9887 110.085C58.9219 110.093 58.8549 110.074 58.8017 110.033C58.603 109.877 58.3577 109.792 58.1052 109.792C57.9577 109.79 57.8112 109.817 57.6746 109.873C57.538 109.928 57.4141 110.011 57.3105 110.116C57.2067 110.214 57.1241 110.333 57.0676 110.464C57.0111 110.595 56.9819 110.736 56.9819 110.879C56.9819 111.022 57.0111 111.163 57.0676 111.294C57.1241 111.425 57.2067 111.544 57.3105 111.642C57.4141 111.747 57.538 111.83 57.6746 111.885C57.8112 111.941 57.9577 111.968 58.1052 111.965C58.319 111.964 58.5286 111.906 58.7134 111.799V111.19H58.0904C58.0236 111.19 57.9595 111.164 57.9118 111.117C57.8641 111.071 57.8366 111.007 57.8354 110.94C57.836 110.907 57.8431 110.875 57.8563 110.845C57.8694 110.815 57.8884 110.788 57.9121 110.765C57.9358 110.742 57.9637 110.724 57.9943 110.712C58.0249 110.7 58.0576 110.694 58.0904 110.695H58.9685C59.0015 110.694 59.0345 110.699 59.0654 110.711C59.0963 110.723 59.1245 110.74 59.1483 110.763C59.1721 110.786 59.1911 110.814 59.204 110.844C59.2169 110.875 59.2236 110.907 59.2236 110.94V111.921C59.2264 111.946 59.2264 111.97 59.2236 111.995C59.2073 112.039 59.176 112.075 59.1353 112.098C58.8566 112.321 58.5111 112.444 58.1542 112.446C57.9409 112.455 57.7278 112.422 57.5275 112.348C57.3272 112.274 57.1437 112.161 56.9875 112.015C56.8314 111.87 56.7058 111.694 56.618 111.5C56.5303 111.305 56.4822 111.095 56.4766 110.881Z" fill="#AAAAAA"/>
<path d="M60.4351 111.843C60.5223 111.843 60.6059 111.877 60.6675 111.939C60.7291 112.001 60.7638 112.084 60.7638 112.171C60.7638 112.259 60.7291 112.342 60.6675 112.404C60.6059 112.465 60.5223 112.5 60.4351 112.5C60.3479 112.5 60.2644 112.465 60.2027 112.404C60.1411 112.342 60.1064 112.259 60.1064 112.171C60.1064 112.084 60.1411 112.001 60.2027 111.939C60.2644 111.877 60.3479 111.843 60.4351 111.843Z" fill="#AAAAAA"/>
<path d="M61.4502 111.843C61.5374 111.843 61.621 111.877 61.6826 111.939C61.7443 112.001 61.7789 112.084 61.7789 112.171C61.7789 112.259 61.7443 112.342 61.6826 112.404C61.621 112.465 61.5374 112.5 61.4502 112.5C61.3631 112.5 61.2795 112.465 61.2179 112.404C61.1562 112.342 61.1216 112.259 61.1216 112.171C61.1216 112.084 61.1562 112.001 61.2179 111.939C61.2795 111.877 61.3631 111.843 61.4502 111.843Z" fill="#AAAAAA"/>
<path d="M62.4659 111.843C62.553 111.843 62.6366 111.877 62.6983 111.939C62.7599 112.001 62.7945 112.084 62.7945 112.171C62.7945 112.259 62.7599 112.342 62.6983 112.404C62.6366 112.465 62.553 112.5 62.4659 112.5C62.3787 112.5 62.2951 112.465 62.2335 112.404C62.1718 112.342 62.1372 112.259 62.1372 112.171C62.1372 112.084 62.1718 112.001 62.2335 111.939C62.2951 111.877 62.3787 111.843 62.4659 111.843Z" fill="#AAAAAA"/>
</svg>
