<svg width="25" height="25" viewBox="0 0 25 25" fill="none" xmlns="http://www.w3.org/2000/svg">
<path d="M10.3441 4.58812L17.8441 11.8605C17.9138 11.928 17.9691 12.0082 18.0069 12.0965C18.0446 12.1848 18.0641 12.2794 18.0641 12.375C18.0641 12.4706 18.0446 12.5652 18.0069 12.6535C17.9691 12.7418 17.9138 12.822 17.8441 12.8895L10.3441 20.1619C10.2034 20.2983 10.0125 20.375 9.81347 20.375C9.61444 20.375 9.42357 20.2983 9.28284 20.1619C9.14211 20.0254 9.06305 19.8403 9.06305 19.6474C9.06305 19.4544 9.14211 19.2693 9.28284 19.1328L16.2532 12.375L9.28284 5.61716C9.21316 5.54959 9.15788 5.46938 9.12017 5.3811C9.08246 5.29282 9.06305 5.1982 9.06305 5.10264C9.06305 5.00709 9.08246 4.91247 9.12017 4.82418C9.15788 4.7359 9.21316 4.65569 9.28284 4.58812C9.35252 4.52055 9.43525 4.46696 9.52629 4.43039C9.61734 4.39382 9.71492 4.375 9.81347 4.375C9.91201 4.375 10.0096 4.39382 10.1006 4.43039C10.1917 4.46696 10.2744 4.52055 10.3441 4.58812Z" fill="#F3F3F3"/>
</svg>
