<svg width="25" height="25" viewBox="0 0 25 25" fill="none" xmlns="http://www.w3.org/2000/svg">
<path d="M2.66146 20.9696L7.48201 16.2765C6.08483 14.6431 5.38811 12.548 5.53682 10.4272C5.68552 8.30629 6.66818 6.32289 8.28039 4.88956C9.8926 3.45623 12.0102 2.68333 14.1927 2.73163C16.3753 2.77993 18.4547 3.64571 19.9983 5.14888C21.542 6.65205 22.4311 8.67687 22.4807 10.8021C22.5303 12.9274 21.7366 14.9894 20.2646 16.5593C18.7927 18.1293 16.7558 19.0861 14.5778 19.2309C12.3998 19.3757 10.2483 18.6973 8.5709 17.3368L3.75131 22.0308C3.67975 22.1005 3.5948 22.1558 3.5013 22.1935C3.4078 22.2312 3.30759 22.2506 3.20639 22.2506C3.10519 22.2506 3.00497 22.2312 2.91148 22.1935C2.81798 22.1558 2.73302 22.1005 2.66146 22.0308C2.5899 21.9612 2.53314 21.8784 2.49441 21.7874C2.45568 21.6963 2.43575 21.5988 2.43575 21.5002C2.43575 21.4017 2.45568 21.3041 2.49441 21.213C2.53314 21.122 2.5899 21.0393 2.66146 20.9696ZM20.9212 11.0002C20.9212 9.66519 20.5147 8.36015 19.753 7.25011C18.9913 6.14008 17.9087 5.27492 16.642 4.76403C15.3754 4.25314 13.9816 4.11946 12.637 4.37991C11.2923 4.64036 10.0572 5.28324 9.08774 6.22724C8.1183 7.17125 7.4581 8.37398 7.19063 9.68335C6.92316 10.9927 7.06044 12.3499 7.58509 13.5833C8.10975 14.8167 8.99823 15.8709 10.1382 16.6126C11.2781 17.3543 12.6183 17.7502 13.9893 17.7502C15.8271 17.7482 17.5891 17.0364 18.8887 15.771C20.1882 14.5056 20.9192 12.7898 20.9212 11.0002Z" fill="#F3F3F3"/>
</svg>
