<svg width="232" height="232" viewBox="0 0 232 232" fill="none" xmlns="http://www.w3.org/2000/svg">
<path d="M216.954 24.2974H171.521V28.2532H216.954V24.2974Z" fill="#E0E0E0"/>
<path d="M182.513 10.078V5.88298C182.513 5.75085 182.565 5.62412 182.659 5.53069C182.752 5.43726 182.879 5.38477 183.011 5.38477H183.195C183.327 5.38477 183.454 5.43726 183.548 5.53069C183.641 5.62412 183.693 5.75085 183.693 5.88298V6.07729H186.807V7.14347H183.758V10.078H182.513Z" fill="#E0E0E0"/>
<path d="M186.104 10.9248H180.146C179.516 10.9248 179.005 11.4356 179.005 12.0657V23.1112C179.005 23.7413 179.516 24.2521 180.146 24.2521H186.104C186.735 24.2521 187.245 23.7413 187.245 23.1112V12.0657C187.245 11.4356 186.735 10.9248 186.104 10.9248Z" fill="#EBEBEB"/>
<path d="M181.72 9.23622H184.71C184.78 9.23354 184.85 9.24508 184.916 9.27017C184.982 9.29526 185.042 9.33337 185.093 9.38221C185.143 9.43106 185.184 9.48964 185.211 9.55444C185.239 9.61925 185.253 9.68894 185.253 9.75935V10.9252H181.197V9.75935C181.197 9.62061 181.252 9.48755 181.35 9.38944C181.449 9.29133 181.582 9.23622 181.72 9.23622Z" fill="#EBEBEB"/>
<path d="M187.25 13.0024H183.678V21.8209H187.25V13.0024Z" fill="#FAFAFA"/>
<path d="M185.253 10.88C183.873 11.0527 182.477 11.0527 181.098 10.88C182.477 10.7073 183.873 10.7073 185.253 10.88Z" fill="#E0E0E0"/>
<path d="M179.513 19.6886C179.385 18.3991 179.342 17.1026 179.384 15.8075C179.342 14.5107 179.385 13.2125 179.513 11.9214C179.641 13.2125 179.685 14.5107 179.643 15.8075C179.685 17.1026 179.641 18.3991 179.513 19.6886Z" fill="#FAFAFA"/>
<path d="M193.816 10.078V5.88298C193.816 5.75085 193.869 5.62412 193.962 5.53069C194.056 5.43726 194.182 5.38477 194.315 5.38477H194.504C194.636 5.38477 194.763 5.43726 194.856 5.53069C194.95 5.62412 195.002 5.75085 195.002 5.88298V6.07729H198.121V7.14347H195.042V10.078H193.816Z" fill="#E0E0E0"/>
<path d="M197.409 10.9248H191.45C190.82 10.9248 190.31 11.4356 190.31 12.0657V23.1112C190.31 23.7413 190.82 24.2521 191.45 24.2521H197.409C198.039 24.2521 198.55 23.7413 198.55 23.1112V12.0657C198.55 11.4356 198.039 10.9248 197.409 10.9248Z" fill="#EBEBEB"/>
<path d="M193.019 9.23622H196.009C196.079 9.23354 196.149 9.24508 196.215 9.27017C196.281 9.29526 196.341 9.33337 196.391 9.38221C196.442 9.43106 196.482 9.48964 196.51 9.55444C196.537 9.61925 196.552 9.68894 196.552 9.75935V10.9252H192.496V9.75935C192.496 9.62061 192.551 9.48755 192.649 9.38944C192.747 9.29133 192.88 9.23622 193.019 9.23622Z" fill="#EBEBEB"/>
<path d="M198.55 13.0024H194.978V21.8209H198.55V13.0024Z" fill="#FAFAFA"/>
<path d="M196.552 10.88C195.172 11.0527 193.776 11.0527 192.396 10.88C193.776 10.7073 195.172 10.7073 196.552 10.88Z" fill="#E0E0E0"/>
<path d="M190.818 19.6886C190.686 18.3993 190.643 17.1026 190.688 15.8075C190.643 14.5107 190.686 13.2123 190.818 11.9214C190.943 13.2127 190.984 14.5108 190.942 15.8075C190.984 17.1025 190.943 18.3989 190.818 19.6886Z" fill="#FAFAFA"/>
<path d="M205.057 10.078V5.88298C205.057 5.75085 205.109 5.62412 205.203 5.53069C205.296 5.43726 205.423 5.38477 205.555 5.38477H205.744C205.876 5.38477 206.003 5.43726 206.096 5.53069C206.19 5.62412 206.242 5.75085 206.242 5.88298V6.07729H209.361V7.14347H206.282V10.078H205.057Z" fill="#E0E0E0"/>
<path d="M208.648 10.9248H202.69C202.06 10.9248 201.549 11.4356 201.549 12.0657V23.1112C201.549 23.7413 202.06 24.2521 202.69 24.2521H208.648C209.279 24.2521 209.789 23.7413 209.789 23.1112V12.0657C209.789 11.4356 209.279 10.9248 208.648 10.9248Z" fill="#EBEBEB"/>
<path d="M204.264 9.23605H207.254C207.324 9.23405 207.393 9.24611 207.459 9.2715C207.524 9.29689 207.583 9.33511 207.633 9.38389C207.684 9.43267 207.723 9.49101 207.751 9.55547C207.778 9.61994 207.792 9.68921 207.792 9.75918V10.925H203.736V9.75918C203.736 9.69006 203.75 9.62163 203.777 9.55783C203.803 9.49404 203.842 9.43614 203.891 9.3875C203.94 9.33886 203.999 9.30043 204.063 9.27444C204.127 9.24844 204.195 9.2354 204.264 9.23605Z" fill="#EBEBEB"/>
<path d="M209.79 13.0024H206.218V21.8209H209.79V13.0024Z" fill="#FAFAFA"/>
<path d="M207.792 10.88C206.412 11.0527 205.016 11.0527 203.637 10.88C205.016 10.7073 206.412 10.7073 207.792 10.88Z" fill="#E0E0E0"/>
<path d="M202.057 19.6886C201.926 18.3993 201.882 17.1026 201.927 15.8075C201.882 14.5107 201.926 13.2123 202.057 11.9214C202.185 13.2125 202.228 14.5107 202.186 15.8075C202.228 17.1026 202.185 18.3991 202.057 19.6886Z" fill="#FAFAFA"/>
<path d="M216.954 77.9849H171.521V81.9407H216.954V77.9849Z" fill="#E0E0E0"/>
<path d="M182.513 63.7658V59.5807C182.513 59.4486 182.565 59.3219 182.659 59.2284C182.752 59.135 182.879 59.0825 183.011 59.0825H183.195C183.327 59.0825 183.454 59.135 183.548 59.2284C183.641 59.3219 183.693 59.4486 183.693 59.5807V59.775H186.807V60.8412H183.758V63.7757L182.513 63.7658Z" fill="#E0E0E0"/>
<path d="M186.104 64.6128H180.146C179.516 64.6128 179.005 65.1236 179.005 65.7537V76.7992C179.005 77.4293 179.516 77.9401 180.146 77.9401H186.104C186.735 77.9401 187.245 77.4293 187.245 76.7992V65.7537C187.245 65.1236 186.735 64.6128 186.104 64.6128Z" fill="#EBEBEB"/>
<path d="M181.72 62.9242H184.709C184.848 62.9242 184.981 62.9793 185.079 63.0774C185.177 63.1755 185.232 63.3086 185.232 63.4473V64.6132H181.177V63.4473C181.177 63.3769 181.191 63.3072 181.218 63.2424C181.246 63.1776 181.286 63.119 181.337 63.0702C181.388 63.0214 181.448 62.9832 181.513 62.9582C181.579 62.9331 181.649 62.9215 181.72 62.9242Z" fill="#EBEBEB"/>
<path d="M187.25 66.6904H183.678V75.5089H187.25V66.6904Z" fill="#FAFAFA"/>
<path d="M185.253 64.5631C183.873 64.7358 182.477 64.7358 181.098 64.5631C182.477 64.3904 183.873 64.3904 185.253 64.5631Z" fill="#E0E0E0"/>
<path d="M179.513 73.3766C179.385 72.0871 179.342 70.7906 179.384 69.4955C179.342 68.1987 179.385 66.9005 179.513 65.6094C179.641 66.9005 179.685 68.1987 179.643 69.4955C179.685 70.7906 179.641 72.0871 179.513 73.3766Z" fill="#FAFAFA"/>
<path d="M193.816 63.7658V59.5807C193.816 59.4486 193.869 59.3219 193.962 59.2284C194.056 59.135 194.182 59.0825 194.315 59.0825H194.504C194.636 59.0825 194.763 59.135 194.856 59.2284C194.95 59.3219 195.002 59.4486 195.002 59.5807V59.775H198.121V60.8412H195.042V63.7757L193.816 63.7658Z" fill="#E0E0E0"/>
<path d="M197.409 64.6128H191.45C190.82 64.6128 190.31 65.1236 190.31 65.7537V76.7992C190.31 77.4293 190.82 77.9401 191.45 77.9401H197.409C198.039 77.9401 198.55 77.4293 198.55 76.7992V65.7537C198.55 65.1236 198.039 64.6128 197.409 64.6128Z" fill="#EBEBEB"/>
<path d="M193.02 62.9242H196.009C196.148 62.9242 196.281 62.9793 196.379 63.0774C196.477 63.1755 196.532 63.3086 196.532 63.4473V64.6132H192.477V63.4473C192.477 63.3769 192.491 63.3072 192.518 63.2424C192.546 63.1776 192.586 63.119 192.637 63.0702C192.687 63.0214 192.748 62.9832 192.813 62.9582C192.879 62.9331 192.949 62.9215 193.02 62.9242Z" fill="#EBEBEB"/>
<path d="M198.55 66.6904H194.978V75.5089H198.55V66.6904Z" fill="#FAFAFA"/>
<path d="M196.552 64.5631C195.172 64.7358 193.776 64.7358 192.396 64.5631C193.776 64.3904 195.172 64.3904 196.552 64.5631Z" fill="#E0E0E0"/>
<path d="M190.818 73.3766C190.686 72.0873 190.643 70.7906 190.688 69.4955C190.643 68.1987 190.686 66.9003 190.818 65.6094C190.943 66.9007 190.984 68.1988 190.942 69.4955C190.984 70.7905 190.943 72.0869 190.818 73.3766Z" fill="#FAFAFA"/>
<path d="M205.057 63.7658V59.5807C205.057 59.4486 205.109 59.3219 205.203 59.2284C205.296 59.135 205.423 59.0825 205.555 59.0825H205.744C205.876 59.0825 206.003 59.135 206.096 59.2284C206.19 59.3219 206.242 59.4486 206.242 59.5807V59.775H209.361V60.8412H206.282V63.7757L205.057 63.7658Z" fill="#E0E0E0"/>
<path d="M208.648 64.6128H202.69C202.06 64.6128 201.549 65.1236 201.549 65.7537V76.7992C201.549 77.4293 202.06 77.9401 202.69 77.9401H208.648C209.279 77.9401 209.789 77.4293 209.789 76.7992V65.7537C209.789 65.1236 209.279 64.6128 208.648 64.6128Z" fill="#EBEBEB"/>
<path d="M204.264 62.9239H207.254C207.392 62.9239 207.526 62.979 207.624 63.0771C207.722 63.1752 207.777 63.3082 207.777 63.447V64.6128H203.736V63.447C203.736 63.3779 203.75 63.3094 203.777 63.2456C203.803 63.1818 203.842 63.1239 203.891 63.0753C203.94 63.0267 203.999 62.9882 204.063 62.9622C204.127 62.9362 204.195 62.9232 204.264 62.9239Z" fill="#EBEBEB"/>
<path d="M209.79 66.6904H206.218V75.5089H209.79V66.6904Z" fill="#FAFAFA"/>
<path d="M207.792 64.5631C206.412 64.7358 205.016 64.7358 203.637 64.5631C205.016 64.3904 206.412 64.3904 207.792 64.5631Z" fill="#E0E0E0"/>
<path d="M202.057 73.3766C201.926 72.0873 201.882 70.7906 201.927 69.4955C201.882 68.1987 201.926 66.9003 202.057 65.6094C202.185 66.9005 202.228 68.1987 202.186 69.4955C202.228 70.7906 202.185 72.0871 202.057 73.3766Z" fill="#FAFAFA"/>
<path d="M216.949 45.3867H171.353V49.3426H216.949V45.3867Z" fill="#E0E0E0"/>
<path d="M187.38 37.8438H177.391V45.3868H187.38V37.8438Z" fill="#EBEBEB"/>
<path d="M187.245 40.6188C185.624 40.7664 183.995 40.8163 182.368 40.7683C180.739 40.8164 179.108 40.7665 177.485 40.6188C179.108 40.4712 180.739 40.4213 182.368 40.4694C183.995 40.4213 185.624 40.4712 187.245 40.6188Z" fill="#E0E0E0"/>
<path d="M187.261 41.939H180.804V43.882H187.261V41.939Z" fill="white"/>
<path d="M187.275 43.8972H180.798V41.9043H187.275V43.8972Z" fill="#FAFAFA"/>
<path d="M199.257 37.8438H189.268V45.3868H199.257V37.8438Z" fill="#EBEBEB"/>
<path d="M199.138 40.6187C197.515 40.7662 195.885 40.8161 194.256 40.7682C192.627 40.8161 190.996 40.7662 189.373 40.6187C190.996 40.4713 192.627 40.4213 194.256 40.4693C195.885 40.4213 197.515 40.4713 199.138 40.6187Z" fill="#E0E0E0"/>
<path d="M199.138 41.939H192.681V43.882H199.138V41.939Z" fill="white"/>
<path d="M192.695 43.8722H199.122V41.9541H192.695V43.8722Z" fill="#FAFAFA"/>
<path d="M211.653 37.8438H201.664V45.3868H211.653V37.8438Z" fill="#EBEBEB"/>
<path d="M211.539 40.6187C209.915 40.7662 208.285 40.8161 206.656 40.7682C205.027 40.8161 203.396 40.7662 201.773 40.6187C203.396 40.4713 205.027 40.4213 206.656 40.4693C208.285 40.4213 209.915 40.4713 211.539 40.6187Z" fill="#E0E0E0"/>
<path d="M211.538 41.939H205.081V43.882H211.538V41.939Z" fill="white"/>
<path d="M211.553 43.8972H205.076V41.9043H211.553V43.8972Z" fill="#FAFAFA"/>
<path d="M216.326 48.0075C216.326 48.0772 216.246 48.137 216.157 48.137C216.067 48.137 215.982 48.0772 215.982 48.0075C215.982 47.9377 216.062 47.8779 216.157 47.8779C216.251 47.8779 216.326 47.9327 216.326 48.0075Z" fill="#455A64"/>
<path d="M172.607 189.501H148.369V195.913H172.607V189.501Z" fill="#F5F5F5"/>
<path d="M162.359 202.664C162.355 202.626 162.355 202.587 162.359 202.549C162.359 202.465 162.359 202.355 162.359 202.22C162.359 201.917 162.359 201.498 162.359 200.96C162.359 199.854 162.334 198.26 162.319 196.252L162.394 196.327L138.156 196.376C138.211 196.322 138.031 196.501 138.275 196.252V202.659L138.156 202.539L155.429 202.594L160.526 202.629H161.906H162.265H162.394H162.28H161.936H160.581L155.514 202.664L138.156 202.719H138.031V196.257C138.275 196.013 138.101 196.192 138.156 196.137L162.394 196.182H162.469V196.257C162.469 198.285 162.434 199.889 162.429 201.01C162.429 201.543 162.429 201.956 162.429 202.255C162.429 202.385 162.429 202.485 162.429 202.569C162.409 202.603 162.385 202.635 162.359 202.664Z" fill="#E0E0E0"/>
<path d="M142.217 3.26758H117.979V9.67964H142.217V3.26758Z" fill="#F5F5F5"/>
<path d="M131.968 16.4305C131.966 16.3923 131.966 16.354 131.968 16.3159V15.987C131.968 15.6831 131.968 15.2646 131.968 14.7266C131.968 13.6205 131.944 12.0262 131.924 10.0184L131.998 10.0931L107.76 10.143L107.885 10.0184V13.2718C107.885 14.3413 107.885 15.3925 107.885 16.4255L107.765 16.3059L125.038 16.3607L130.14 16.3956H131.515H131.879H132.003C132.003 16.3956 131.968 16.3956 131.894 16.3956H131.545H130.195L125.123 16.4305L107.765 16.4853H107.646V16.3607C107.646 15.3277 107.646 14.2765 107.646 13.207V10.0234L107.77 9.90381L132.008 9.94865H132.088V10.0234C132.088 12.0511 132.053 13.6554 132.043 14.7764C132.043 15.3095 132.043 15.723 132.043 16.0219C132.043 16.1515 132.043 16.2511 132.043 16.3358C132.043 16.4205 131.973 16.4354 131.968 16.4305Z" fill="#E0E0E0"/>
<path d="M70.1895 183.518H45.9512V189.93H70.1895V183.518Z" fill="#F5F5F5"/>
<path d="M59.9403 196.685C59.9359 196.647 59.9359 196.609 59.9403 196.571V196.242C59.9403 195.938 59.9403 195.52 59.9403 194.976C59.9403 193.87 59.9403 192.281 59.9004 190.273L59.9751 190.348L35.7369 190.398C35.7917 190.343 35.6123 190.517 35.8564 190.273V196.675L35.7369 196.556L53.0101 196.611L58.1068 196.645H59.4869H59.8456H59.9751H59.8606H59.5168H58.1616L53.0948 196.68L35.7369 196.735H35.6123V190.283L35.7369 190.159L59.9751 190.209H60.0499V190.283C60.0499 192.311 60.02 193.915 60.01 195.031C60.01 195.564 60.01 195.978 60.01 196.277C60.01 196.406 60.01 196.511 60.01 196.596C59.9896 196.628 59.9662 196.658 59.9403 196.685Z" fill="#E0E0E0"/>
<path d="M35.6475 123.761H11.4092V130.173H35.6475V123.761Z" fill="#F5F5F5"/>
<path d="M25.3993 136.924C25.3948 136.886 25.3948 136.848 25.3993 136.81V136.481C25.3993 136.177 25.3993 135.758 25.3993 135.22C25.3993 134.109 25.3993 132.52 25.3594 130.512L25.4341 130.587L1.19584 130.637C1.25065 130.582 1.07129 130.761 1.31542 130.512V136.919L1.19086 136.8L18.469 136.854L23.5658 136.889H24.9459H25.3046H25.4341H25.3195H24.9758H23.6206L18.5488 136.924L1.19086 136.979H1.07129V130.517L1.19584 130.393L25.4341 130.442H25.5089V130.517C25.5089 132.545 25.474 134.149 25.464 135.27C25.464 135.798 25.464 136.217 25.464 136.516C25.464 136.645 25.464 136.745 25.464 136.83C25.4454 136.863 25.4238 136.895 25.3993 136.924Z" fill="#E0E0E0"/>
<path d="M137.832 161.127C137.832 161.127 137.832 161.083 137.832 161.008V160.679C137.832 160.38 137.832 159.957 137.832 159.419C137.832 158.313 137.807 156.718 137.787 154.715L137.861 154.79L113.623 154.835L113.748 154.715V157.964C113.748 159.033 113.748 160.084 113.748 161.117L113.628 160.998L130.901 161.053L136.003 161.088H137.378H137.742H137.866H137.757H137.408H136.058L130.946 161.217L113.588 161.272H113.469V161.152C113.469 160.123 113.469 159.071 113.469 157.999V154.74L113.593 154.616L137.832 154.666H137.921V154.74C137.921 156.763 137.886 158.372 137.876 159.488C137.876 160.021 137.876 160.435 137.876 160.734V161.048C137.864 161.076 137.849 161.103 137.832 161.127Z" fill="#E0E0E0"/>
<path d="M141.12 154.741C141.117 154.699 141.117 154.657 141.12 154.616C141.12 154.526 141.12 154.412 141.12 154.277C141.12 153.963 141.12 153.535 141.12 152.992C141.12 151.866 141.091 150.281 141.071 148.328L141.16 148.413L126.597 148.448C126.488 148.563 126.747 148.299 126.722 148.328V149.988C126.722 150.541 126.722 151.084 126.722 151.622C126.722 152.693 126.722 153.734 126.722 154.731L126.607 154.611L137.025 154.666L140.059 154.701H140.876H141.17C141.082 154.708 140.994 154.708 140.906 154.701H140.114L137.125 154.731L126.627 154.785H126.463V154.741C126.463 153.744 126.463 152.703 126.463 151.632V148.314L126.587 148.189L141.15 148.224H141.24V148.314C141.24 150.306 141.205 151.891 141.19 153.032C141.19 153.565 141.19 153.988 141.19 154.297C141.177 154.446 141.153 154.594 141.12 154.741Z" fill="#E0E0E0"/>
<path d="M52.8064 71.0947C52.8064 71.0947 52.8064 71.0498 52.8064 70.9751V70.6463C52.8064 70.3474 52.8064 69.9239 52.8064 69.3858C52.8064 68.2798 52.8064 66.6855 52.7615 64.6826L52.8363 64.7574L28.603 64.8022L28.7225 64.6826V67.931C28.7225 68.9972 28.7225 70.0534 28.7225 71.0847L28.603 70.9652L45.8762 71.02L50.9779 71.0499H52.353H52.7167C52.7581 71.0458 52.7998 71.0458 52.8413 71.0499H52.7317H52.3879H51.0327L45.9609 71.0847L28.603 71.1395H28.4834V67.8662C28.4834 67.3282 28.4834 66.7901 28.4834 66.247V64.6179C28.7325 64.3688 28.5531 64.5481 28.6129 64.4933L52.8462 64.5431H52.926V64.6179C52.926 66.6406 52.8911 68.2499 52.8811 69.3659C52.8811 69.899 52.8811 70.3125 52.8811 70.6114V70.9253C52.869 70.9866 52.8435 71.0444 52.8064 71.0947Z" fill="#E0E0E0"/>
<path d="M56.0943 64.6828C56.0943 64.6828 56.0943 64.638 56.0943 64.5583C56.0943 64.4786 56.0943 64.354 56.0943 64.2195C56.0943 63.9056 56.0943 63.4771 56.0943 62.9341C56.0943 61.8081 56.0644 60.2188 56.0444 58.2708L56.1341 58.3555L41.5712 58.3903C41.4616 58.4999 41.7207 58.2409 41.6958 58.2708V59.9298C41.6958 60.4829 41.6958 61.0259 41.6958 61.564V64.6729L41.5762 64.5533L51.9939 64.6081L55.0281 64.643H55.8452H56.1391C56.0512 64.6501 55.9629 64.6501 55.8751 64.643H55.0829L52.0936 64.6729L41.5961 64.7277H41.4766V64.6131C41.4766 63.6166 41.4766 62.5754 41.4766 61.5042V58.211L41.6011 58.0864L56.164 58.1213H56.2537V58.211C56.2537 60.2039 56.2188 61.7882 56.2039 62.9291C56.2039 63.4622 56.2039 63.8807 56.2039 64.1946C56.1794 64.3598 56.1427 64.523 56.0943 64.6828Z" fill="#E0E0E0"/>
<path d="M29.3502 12.9726C29.3502 12.9726 29.3502 12.9277 29.3502 12.853C29.3502 12.7782 29.3502 12.6587 29.3502 12.5242C29.3502 12.2252 29.3502 11.8017 29.3502 11.2637C29.3502 10.1576 29.3502 8.56332 29.3104 6.55551L29.3851 6.63522L5.14682 6.68006L5.27137 6.55551V9.80887C5.27137 10.88 5.27137 11.9363 5.27137 12.9676L5.1518 12.843L22.425 12.8978L27.5218 12.9327H28.9018H29.2655C29.3067 12.9254 29.3489 12.9254 29.3901 12.9327H29.2805H28.9317H27.5816L22.5097 12.9676L5.1518 13.0224H5.03223V12.9028C5.03223 11.8715 5.03223 10.8153 5.03223 9.7441V6.56049L5.15678 6.44092L29.3951 6.48576H29.4698V6.56049C29.4698 8.58824 29.4399 10.1975 29.4299 11.3135C29.4299 11.8466 29.4299 12.2601 29.4299 12.559C29.4299 12.6886 29.4299 12.7932 29.4299 12.8729C29.4086 12.91 29.3817 12.9436 29.3502 12.9726Z" fill="#E0E0E0"/>
<path d="M32.6386 6.55565C32.6342 6.51591 32.6342 6.47581 32.6386 6.43608C32.6386 6.34141 32.6386 6.23181 32.6386 6.09729C32.6386 5.77843 32.6386 5.34996 32.6386 4.81189C32.6386 3.68591 32.6087 2.0966 32.5887 0.143588L32.6784 0.233266L18.0757 0.293053C17.966 0.40266 18.2251 0.143587 18.1952 0.168498V3.4667C18.1952 4.54285 18.1952 5.57914 18.1952 6.57558L18.0806 6.46099L28.4984 6.51579L31.5325 6.55067H32.3496H32.6435C32.5557 6.55779 32.4674 6.55779 32.3795 6.55067H31.5823L28.593 6.58554L18.0956 6.64035H17.976V6.52077C17.976 5.52434 17.976 4.48804 17.976 3.41189V0.148569C17.9461 0.178462 18.2102 -0.0855932 18.1006 0.0289969L32.6635 0.0638729H32.7531V0.148569C32.7531 2.14144 32.7133 3.73075 32.7033 4.87167C32.7033 5.39978 32.7033 5.82327 32.7033 6.13714C32.7033 6.45102 32.6435 6.56561 32.6386 6.55565Z" fill="#E0E0E0"/>
<path d="M221.622 175.347C221.618 175.307 221.618 175.267 221.622 175.227V174.898C221.622 174.599 221.622 174.176 221.622 173.638C221.622 172.532 221.622 170.937 221.577 168.93L221.657 169.009L197.418 169.054L197.538 168.935V175.347L197.414 175.222L214.687 175.277L219.788 175.312H221.169H221.527H221.657H221.542H221.198H219.843L214.771 175.347L197.414 175.401H197.294V168.935L197.418 168.81L221.657 168.855H221.732V168.93C221.732 170.957 221.697 172.567 221.687 173.683C221.687 174.216 221.687 174.629 221.687 174.928V175.242C221.668 175.278 221.646 175.313 221.622 175.347Z" fill="#E0E0E0"/>
<path d="M224.92 168.93C224.92 168.93 224.92 168.89 224.92 168.81C224.92 168.73 224.92 168.606 224.92 168.471C224.92 168.152 224.92 167.724 224.92 167.186C224.92 166.06 224.89 164.47 224.87 162.517L224.96 162.607L210.397 162.642L210.522 162.517V164.206C210.522 164.754 210.522 165.302 210.522 165.836V168.944L210.402 168.83L220.82 168.885L223.854 168.92H224.676H224.965C224.877 168.927 224.789 168.927 224.701 168.92H223.909L220.919 168.954L210.422 169.009H210.302V165.781C210.302 165.248 210.302 164.7 210.302 164.152V162.483C210.278 162.512 210.537 162.248 210.427 162.363L224.99 162.398H225.08V162.483C225.08 164.475 225.045 166.065 225.03 167.206C225.03 167.739 225.03 168.157 225.03 168.471C225.005 168.626 224.968 168.78 224.92 168.93Z" fill="#E0E0E0"/>
<path d="M227.446 112.756C227.446 112.756 227.446 112.711 227.446 112.636V112.307C227.446 112.008 227.446 111.585 227.446 111.047C227.446 109.941 227.421 108.346 227.406 106.344L227.481 106.418L203.188 106.463C203.243 106.408 203.063 106.588 203.313 106.344V107.156C203.313 107.425 203.313 107.699 203.313 107.973V112.746L203.193 112.621L220.466 112.676L225.563 112.711H226.943H227.302H227.431H227.317H226.973H225.623L220.551 112.746L203.188 112.89H203.063V106.354L203.188 106.229L227.426 106.274H227.501V106.354C227.501 108.376 227.471 109.986 227.461 111.102C227.461 111.635 227.461 112.048 227.461 112.347V112.661C227.46 112.693 227.455 112.725 227.446 112.756Z" fill="#E0E0E0"/>
<path d="M230.735 106.343C230.728 106.302 230.728 106.26 230.735 106.219C230.735 106.129 230.735 106.015 230.735 105.88C230.735 105.561 230.735 105.133 230.71 104.595C230.71 103.469 230.685 101.879 230.665 99.9264L230.755 100.016L216.192 100.051L216.311 99.9314V103.22C216.311 104.296 216.311 105.337 216.311 106.334L216.192 106.214L226.614 106.269L229.649 106.304H230.466H230.76C230.672 106.308 230.584 106.308 230.496 106.304H229.698L226.709 106.338L216.212 106.393H216.097V106.279C216.097 105.282 216.097 104.241 216.097 103.165V99.9364C216.067 99.9364 216.331 99.6973 216.222 99.8118L230.785 99.8467H230.874V99.9364C230.874 101.929 230.839 103.519 230.829 104.659C230.829 105.193 230.829 105.611 230.804 105.925C230.78 106.239 230.74 106.348 230.735 106.343Z" fill="#E0E0E0"/>
<path d="M232 221.856C232 221.925 180.061 221.985 116.005 221.985C51.9491 221.985 0 221.925 0 221.856C0 221.786 51.9292 221.726 116.005 221.726C180.081 221.726 232 221.781 232 221.856Z" fill="#263238"/>
<path d="M29.3103 206.436C29.3103 206.436 27.0534 190.931 27.2427 181.908C27.432 172.886 27.2427 162.732 27.2427 162.732H28.279C28.279 162.732 27.5417 180.648 28.3139 191.444C29.0861 202.241 31.0939 206.436 31.0939 206.436H29.3103Z" fill="#263238"/>
<path d="M36.0013 145.274C35.8393 144.725 35.508 144.24 35.0547 143.889C34.3971 143.471 33.5302 143.645 32.7978 143.889C29.654 145 26.874 150.864 25.6035 153.933L29.7736 167.983C37.2817 161.028 38.602 151.866 36.0013 145.274Z" fill="#455A64"/>
<path d="M34.8158 144.467C34.7988 144.53 34.7772 144.592 34.751 144.651C34.7012 144.786 34.6314 144.955 34.5467 145.15C34.3674 145.593 34.1083 146.236 33.8044 147.033C33.1866 148.632 32.4044 150.859 31.7069 153.375C31.0094 155.891 30.5311 158.203 30.2122 159.887C30.0628 160.729 29.9482 161.411 29.8784 161.88C29.8436 162.099 29.8137 162.278 29.7887 162.423C29.7826 162.487 29.7692 162.551 29.7489 162.612C29.7413 162.548 29.7413 162.482 29.7489 162.418C29.7489 162.273 29.7838 162.094 29.8087 161.87C29.8585 161.372 29.9532 160.709 30.0877 159.877C30.4401 157.672 30.9158 155.488 31.5126 153.335C32.1126 151.185 32.8295 149.07 33.6599 146.998C33.9837 146.206 34.2578 145.568 34.457 145.135L34.6912 144.636C34.7909 144.522 34.7909 144.462 34.8158 144.467Z" fill="#263238"/>
<path d="M27.92 171.376C26.0246 170.3 24.4378 168.755 23.3123 166.889C22.1867 165.022 21.5602 162.898 21.493 160.719C21.3435 157.605 22.3001 154.546 23.3862 151.617C23.4509 151.353 23.6061 151.12 23.8247 150.959C24.0016 150.893 24.1925 150.874 24.3792 150.903C24.5658 150.931 24.7419 151.007 24.8908 151.124C27.7307 152.738 29.4545 155.822 30.3712 158.961C31.0303 161.04 31.2492 163.234 31.0139 165.402C30.654 167.676 29.5707 169.772 27.925 171.381" fill="#455A64"/>
<path d="M27.92 171.376C27.9137 171.315 27.9137 171.253 27.92 171.192C27.92 171.047 27.92 170.868 27.92 170.648C27.92 170.18 27.92 169.503 27.8602 168.656C27.7492 166.484 27.5063 164.321 27.1328 162.179C26.6994 159.663 26.1762 157.411 25.7876 155.782C25.5933 154.985 25.4389 154.332 25.3243 153.854C25.2744 153.639 25.2346 153.465 25.2047 153.325C25.188 153.265 25.178 153.203 25.1748 153.141C25.2012 153.199 25.2228 153.259 25.2396 153.32L25.389 153.819C25.5186 154.272 25.693 154.925 25.8873 155.737C26.3058 157.361 26.8538 159.613 27.2873 162.134C27.6615 164.301 27.8846 166.492 27.9549 168.69C27.9549 169.527 27.9549 170.185 27.9549 170.683C27.9549 170.903 27.9549 171.082 27.9549 171.226C27.9467 171.277 27.935 171.327 27.92 171.376Z" fill="#263238"/>
<g opacity="0.3">
<path d="M27.92 171.376C26.0246 170.3 24.4378 168.755 23.3123 166.889C22.1867 165.022 21.5602 162.898 21.493 160.719C21.3435 157.605 22.3001 154.546 23.3862 151.617C23.4509 151.353 23.6061 151.12 23.8247 150.959C24.0016 150.893 24.1925 150.874 24.3792 150.903C24.5658 150.931 24.7419 151.007 24.8908 151.124C27.7307 152.738 29.4545 155.822 30.3712 158.961C31.0303 161.04 31.2492 163.234 31.0139 165.402C30.654 167.676 29.5707 169.772 27.925 171.381" fill="black"/>
</g>
<path d="M32.3291 195.096C36.1753 195.943 39.339 198.653 43.0507 199.974C45.507 200.846 48.282 201.154 50.245 202.873C49.7468 201.683 48.6607 200.88 47.5746 200.218C44.5192 198.315 41.2584 196.764 37.8543 195.594C36.1106 194.992 34.2173 194.488 32.4337 194.987" fill="#455A64"/>
<path d="M26.7695 198.534C21.9517 198.454 16.8799 194.354 12.082 194.11C17.0991 192.491 24.2834 193.811 26.7695 198.534Z" fill="#455A64"/>
<path d="M28.6475 186.975C31.1313 186.162 33.7789 185.982 36.3499 186.452C38.9082 186.924 41.4228 187.607 43.868 188.495C43.6189 186.826 42.2687 185.57 40.9983 184.454C40.067 183.59 39.0561 182.816 37.9791 182.143C36.8937 181.464 35.637 181.11 34.357 181.121C33.5931 181.17 32.8466 181.371 32.1619 181.713C31.4772 182.056 30.8683 182.532 30.3713 183.114C29.3973 184.176 28.7957 185.526 28.6574 186.96" fill="#455A64"/>
<path d="M18.7629 181.644C15.7287 179.053 11.1352 179.307 7.14941 179.397C13.5546 182.448 19.5962 186.21 25.16 190.612C25.3244 187.817 22.5942 184.927 18.7629 181.644Z" fill="#455A64"/>
<g opacity="0.3">
<path d="M18.7629 181.644C15.7287 179.053 11.1352 179.307 7.14941 179.397C13.5546 182.448 19.5962 186.21 25.16 190.612C25.3244 187.817 22.5942 184.927 18.7629 181.644Z" fill="black"/>
</g>
<path d="M30.013 178.087C31.4923 177.06 33.0518 176.154 34.6764 175.377C36.2856 174.669 37.7803 173.493 39.3048 172.676C41.2977 171.59 43.0315 170.086 44.8699 168.745C46.7083 167.405 48.7161 166.195 50.9631 165.836C49.1148 165.51 47.2157 165.621 45.4179 166.16C43.6272 166.7 41.8815 167.38 40.1966 168.192C37.8301 169.259 35.4237 170.35 33.4906 172.084C31.5575 173.817 29.8088 175.516 30.0031 178.107" fill="#455A64"/>
<path d="M42.9659 198.534C42.9122 198.518 42.8604 198.496 42.8114 198.469L42.3929 198.25C42.0292 198.056 41.5061 197.752 40.8534 197.443C40.5296 197.269 40.1659 197.089 39.7773 196.905C39.3887 196.721 38.9702 196.526 38.5267 196.332C37.5611 195.905 36.5611 195.56 35.5374 195.301C34.5281 195.022 33.4659 194.995 32.4435 195.221C31.999 195.319 31.5627 195.45 31.1382 195.615C30.7688 195.763 30.4136 195.945 30.077 196.158C29.5904 196.465 29.145 196.833 28.7517 197.254C28.4727 197.553 28.3382 197.752 28.3232 197.727C28.344 197.675 28.3726 197.626 28.4079 197.582C28.4727 197.493 28.5674 197.368 28.7019 197.209C29.0815 196.763 29.5227 196.374 30.0122 196.053C30.3507 195.829 30.7093 195.637 31.0834 195.48C31.5133 195.307 31.9565 195.168 32.4086 195.066C33.4522 194.825 34.5395 194.847 35.5723 195.131C36.5979 195.395 37.5982 195.748 38.5616 196.187C39.005 196.387 39.4235 196.581 39.8072 196.78C40.1908 196.98 40.5545 197.154 40.8783 197.333C41.531 197.677 42.0392 197.981 42.373 198.19L42.7765 198.439C42.8446 198.46 42.9087 198.492 42.9659 198.534Z" fill="#263238"/>
<path d="M23.1721 196.147C23.2774 196.159 23.3801 196.187 23.476 196.232C23.7432 196.331 24.0043 196.446 24.2582 196.576C25.957 197.432 27.3595 198.779 28.2838 200.442C28.4235 200.692 28.5483 200.95 28.6574 201.214C28.7043 201.307 28.7378 201.406 28.7571 201.508C28.7571 201.508 28.5478 201.115 28.1791 200.512C27.2075 198.912 25.8332 197.594 24.1934 196.691C23.5756 196.337 23.1621 196.172 23.1721 196.147Z" fill="#263238"/>
<path d="M12.5156 181.415C12.5863 181.428 12.6549 181.449 12.7199 181.48L13.2978 181.684L14.2096 182.018C14.5683 182.152 14.9519 182.347 15.3903 182.541C17.6488 183.583 19.7569 184.923 21.6579 186.527C22.6968 187.421 23.6739 188.385 24.5825 189.411C25.3208 190.249 26.0143 191.126 26.66 192.037C27.2081 192.819 27.6266 193.467 27.9106 193.915L28.2444 194.414C28.2864 194.471 28.3216 194.532 28.349 194.598C28.2987 194.548 28.2536 194.493 28.2145 194.433L27.8557 193.935C27.5518 193.497 27.1234 192.859 26.5604 192.092C25.9974 191.325 25.2949 190.438 24.4679 189.496C23.5553 188.484 22.5802 187.531 21.5483 186.641C19.6621 185.053 17.583 183.709 15.3604 182.641C14.932 182.441 14.5484 182.237 14.1996 182.098L13.3028 181.734L12.7348 181.5C12.6587 181.48 12.5851 181.452 12.5156 181.415Z" fill="#263238"/>
<path d="M35.8769 184.27C35.7475 184.269 35.6188 184.252 35.4933 184.22L35.0499 184.141C34.8805 184.106 34.6762 184.106 34.457 184.081C33.3148 183.983 32.1682 184.209 31.1488 184.733C30.595 185.026 30.0906 185.405 29.6542 185.854C29.277 186.213 28.9426 186.614 28.6577 187.05C28.4076 187.456 28.1861 187.879 27.9951 188.316C28.0112 188.185 28.0447 188.058 28.0948 187.937C28.2182 187.606 28.3716 187.288 28.5531 186.985C28.8226 186.533 29.1454 186.115 29.5147 185.74C29.9599 185.271 30.4802 184.881 31.0542 184.584C32.0985 184.04 33.2826 183.823 34.452 183.961C34.6527 183.978 34.8523 184.006 35.0499 184.046L35.4933 184.155C35.6249 184.18 35.7535 184.218 35.8769 184.27Z" fill="#263238"/>
<path d="M40.7192 169.249C40.6617 169.293 40.5999 169.331 40.5349 169.363L39.9968 169.657C39.5335 169.906 38.8609 170.28 38.0438 170.758C37.2267 171.236 36.2702 171.844 35.2488 172.577C34.1367 173.347 33.0948 174.214 32.135 175.167C31.6375 175.657 31.2085 176.212 30.8595 176.816C30.5456 177.419 30.2417 178.007 29.9677 178.57C29.4673 179.571 29.0199 180.597 28.6275 181.644C28.3701 182.347 28.1522 183.064 27.9748 183.792C27.8553 184.29 27.8104 184.599 27.7905 184.594C27.786 184.522 27.786 184.451 27.7905 184.379C27.7905 184.245 27.8403 184.036 27.8901 183.777C28.0415 183.04 28.2429 182.314 28.493 181.604C28.8736 180.553 29.3127 179.523 29.8083 178.52C30.0823 177.952 30.3812 177.365 30.6951 176.757C31.0518 176.139 31.4891 175.571 31.9955 175.068C32.9633 174.1 34.0173 173.223 35.1442 172.447C36.1755 171.72 37.1371 171.132 37.9641 170.654C38.7911 170.175 39.4588 169.831 39.957 169.597L40.51 169.333C40.5767 169.298 40.6468 169.27 40.7192 169.249Z" fill="#263238"/>
<path d="M27.2126 183.837C27.1646 183.704 27.1312 183.567 27.113 183.428C27.0582 183.134 26.9884 182.76 26.9037 182.317C26.6712 181.094 26.3668 179.887 25.992 178.7C25.6012 177.52 25.142 176.364 24.6169 175.237C24.4326 174.824 24.2731 174.48 24.1486 174.206C24.0836 174.082 24.0319 173.952 23.9941 173.817C24.0765 173.93 24.1482 174.05 24.2084 174.176C24.3379 174.41 24.5173 174.754 24.7066 175.173C25.8423 177.408 26.6174 179.809 27.0034 182.287C27.0781 182.76 27.1329 183.144 27.1628 183.408C27.1935 183.549 27.2102 183.692 27.2126 183.837Z" fill="#263238"/>
<path d="M26.8639 172.875C26.7053 171.058 26.1709 169.294 25.2945 167.694C24.1071 165.486 22.4501 163.565 20.4402 162.066C18.4303 160.568 16.1163 159.528 13.6611 159.02L24.4326 175.073L25.8226 177.922C26.7 176.395 27.0649 174.626 26.8639 172.875Z" fill="#455A64"/>
<path d="M42.3141 204.518H17.2637V208.957H42.3141V204.518Z" fill="#C59D4E"/>
<path d="M19.1367 208.08L21.2691 221.855H37.8996L40.4455 208.08H19.1367Z" fill="#C59D4E"/>
<path d="M42.3042 208.967C42.3042 209.011 36.6494 209.051 29.6843 209.051C22.7192 209.051 17.0645 209.011 17.0645 208.967C17.0645 208.922 22.7142 208.877 29.6843 208.877C36.6544 208.877 42.3042 208.917 42.3042 208.967Z" fill="#263238"/>
<path d="M35.9219 20.8296H14.374V88.2484H35.9219V20.8296Z" fill="white"/>
<path d="M14.374 46.3782L35.9219 26.0957V20.8296H31.0992L14.374 36.9519V46.3782Z" fill="#C59D4E"/>
<path d="M14.374 31.2075L25.3946 20.8296H15.1712L14.374 21.6018V31.2075Z" fill="#455A64"/>
<path d="M35.9219 45.8696L14.374 66.6403V76.0716L35.9219 55.7842V45.8696Z" fill="#C59D4E"/>
<path d="M14.374 51.9084V61.3347L35.9219 41.0472V31.1377L14.374 51.9084Z" fill="#455A64"/>
<path d="M35.9219 62.0371L14.374 82.8078V88.2483H18.6089L35.9219 71.9516V62.0371Z" fill="#455A64"/>
<path d="M35.9213 77.5166L24.7861 88.2482H34.8601L35.9213 87.2518V77.5166Z" fill="#C59D4E"/>
<path d="M35.9218 88.2481C35.9218 88.2481 35.9218 88.1335 35.9218 87.9093C35.9218 87.6852 35.9218 87.3563 35.9218 86.9129C35.9218 86.041 35.9218 84.7706 35.9218 83.1215C35.9218 79.8233 35.9218 75.0304 35.8869 69.0219C35.8869 57.0199 35.852 40.1801 35.8321 20.8144L35.9567 20.9389H14.3639L14.4934 20.8094C14.4934 47.9274 14.4586 72.2055 14.4486 88.2282L14.3639 88.1435L30.1923 88.1933H34.4321H35.5332H35.9118H35.5481H34.467H30.2421L14.3639 88.3328H14.2792V88.2481C14.2792 72.2255 14.2543 47.9473 14.2344 20.8293V20.7197H36.0463V20.8443C36.0463 40.2449 36.0015 57.1145 35.9866 69.1415C35.9866 75.1201 35.9616 79.9179 35.9517 83.2112C35.9517 84.8453 35.9517 86.1108 35.9517 86.9727C35.9517 87.3962 35.9517 87.715 35.9517 87.9392C35.9517 88.1634 35.9218 88.2481 35.9218 88.2481Z" fill="#263238"/>
<path d="M13.3673 85.5327H36.8831C37.313 85.5327 37.7254 85.7031 38.0299 86.0067C38.3343 86.3102 38.506 86.722 38.5073 87.1519C38.5073 87.5827 38.3362 87.9958 38.0316 88.3004C37.727 88.605 37.3139 88.7761 36.8831 88.7761H13.3673C13.1542 88.7761 12.9432 88.7341 12.7465 88.6524C12.5497 88.5707 12.371 88.451 12.2205 88.3001C12.0701 88.1492 11.951 87.9701 11.8699 87.7731C11.7888 87.5761 11.7474 87.365 11.7481 87.1519C11.7481 86.7225 11.9186 86.3106 12.2223 86.007C12.526 85.7033 12.9378 85.5327 13.3673 85.5327Z" fill="#C59D4E"/>
<path d="M25.1447 97.1167C26.5597 97.1173 27.9609 96.8392 29.2683 96.2982C30.5757 95.7572 31.7638 94.9638 32.7645 93.9636C33.7653 92.9633 34.5591 91.7756 35.1008 90.4684C35.6424 89.1612 35.9212 87.7602 35.9212 86.3452H14.3633C14.3633 87.7606 14.6422 89.1621 15.1842 90.4696C15.7261 91.7771 16.5204 92.965 17.5217 93.9653C18.523 94.9657 19.7116 95.7589 21.0196 96.2996C22.3276 96.8403 23.7293 97.118 25.1447 97.1167Z" fill="#C59D4E"/>
<path d="M36.9931 85.6128C36.9931 85.6826 31.722 85.7424 25.2202 85.7424C18.7185 85.7424 13.4424 85.6826 13.4424 85.6128C13.4424 85.5431 18.7135 85.4883 25.2202 85.4883C31.727 85.4883 36.9931 85.5431 36.9931 85.6128Z" fill="#263238"/>
<path d="M36.9931 88.7765C36.9931 88.8512 31.722 88.906 25.2202 88.906C18.7185 88.906 13.4424 88.8512 13.4424 88.7765C13.4424 88.7018 18.7135 88.647 25.2202 88.647C31.727 88.647 36.9931 88.7068 36.9931 88.7765Z" fill="#263238"/>
<g opacity="0.3">
<path d="M32.3693 23.7192H31.348C30.7977 23.7192 30.3516 24.1654 30.3516 24.7157V76.5203C30.3516 77.0707 30.7977 77.5168 31.348 77.5168H32.3693C32.9197 77.5168 33.3658 77.0707 33.3658 76.5203V24.7157C33.3658 24.1654 32.9197 23.7192 32.3693 23.7192Z" fill="white"/>
</g>
<path d="M36.9028 20.8295H13.367C12.9436 20.8243 12.5391 20.6534 12.2401 20.3535C11.9412 20.0537 11.7716 19.6486 11.7677 19.2252C11.7651 19.0126 11.8043 18.8015 11.8833 18.604C11.9622 18.4066 12.0793 18.2266 12.2278 18.0744C12.3763 17.9222 12.5534 17.8007 12.7488 17.7169C12.9443 17.6331 13.1543 17.5887 13.367 17.5861H36.8828C37.0991 17.5834 37.3137 17.6239 37.514 17.7053C37.7144 17.7867 37.8964 17.9072 38.0496 18.0599C38.2027 18.2126 38.3238 18.3943 38.4058 18.5944C38.4878 18.7945 38.529 19.009 38.527 19.2252C38.5217 19.6525 38.3483 20.0605 38.0443 20.3608C37.7402 20.6611 37.3301 20.8295 36.9028 20.8295Z" fill="#C59D4E"/>
<path d="M25.1447 9.26075C22.2888 9.2581 19.5487 10.3897 17.527 12.4068C15.5052 14.4239 14.3672 17.1614 14.3633 20.0173H35.9212C35.9172 17.1622 34.7799 14.4255 32.7592 12.4086C30.7385 10.3916 27.9998 9.25942 25.1447 9.26075Z" fill="#C59D4E"/>
<path d="M36.9931 17.6657C36.9931 17.7354 31.722 17.7952 25.2202 17.7952C18.7185 17.7952 13.4424 17.7304 13.4424 17.6657C13.4424 17.6009 18.7135 17.5361 25.2202 17.5361C31.727 17.5361 36.9931 17.5909 36.9931 17.6657Z" fill="#263238"/>
<path d="M36.9931 20.8293C36.9931 20.8991 31.722 20.9589 25.2202 20.9589C18.7185 20.9589 13.4424 20.8991 13.4424 20.8293C13.4424 20.7596 18.7135 20.7197 25.2202 20.7197C31.727 20.7197 36.9931 20.7596 36.9931 20.8293Z" fill="#263238"/>
<path d="M157.91 10.1929H52.3027V125.874H157.91V10.1929Z" fill="#6F4439"/>
<path d="M155.768 11.8271H54.4502V124.24H155.768V11.8271Z" fill="#FAFAFA"/>
<path d="M54.4153 75.1904C54.4153 75.1904 93.2016 73.6958 97.835 76.7698C102.468 79.8438 110.021 119.866 110.021 119.866C110.021 119.866 155.698 118.77 155.698 119.866V124.444H54.4004L54.4153 75.1904Z" fill="#E0E0E0"/>
<path d="M127.085 51.3903C127.135 51.4401 116.389 62.2714 103.081 75.5788C89.7739 88.8862 78.9377 99.6377 78.8879 99.5879C78.838 99.5381 89.5946 88.7068 102.897 75.3944C116.199 62.0821 127.036 51.3405 127.085 51.3903Z" fill="#263238"/>
<path d="M128.769 39.2538C128.819 39.3086 123.657 44.5548 117.235 50.9768C110.813 57.3989 105.567 62.5704 105.537 62.5106C105.507 62.4508 110.654 57.2145 117.076 50.7925C123.498 44.3705 128.719 39.204 128.769 39.2538Z" fill="#263238"/>
<g opacity="0.5">
<path d="M57.3848 13.9644L57.9577 83.102C57.9577 83.102 85.7981 77.243 92.6835 66.6907C99.5688 56.1385 107.854 14.3779 107.854 14.3779L57.3848 13.9644Z" fill="white"/>
</g>
<path d="M100.057 35.2082C100.107 35.2581 94.9403 40.5043 88.5232 46.9263C82.1062 53.3483 76.85 58.5149 76.8002 58.465C76.7503 58.4152 81.9169 53.164 88.3389 46.742C94.7609 40.32 100.022 35.1684 100.057 35.2082Z" fill="#263238"/>
<path d="M105.538 83.745C105.592 83.7948 100.555 88.8916 94.3427 95.1293C88.1299 101.367 83.0082 106.379 82.9584 106.329C82.9086 106.279 87.9406 101.183 94.1583 94.9449C100.376 88.7072 105.463 83.6952 105.538 83.745Z" fill="#263238"/>
<path d="M138.764 169.752H116.09L106.978 144.721H143.158L138.764 169.752ZM116.439 169.253H138.36L142.58 145.219H107.705L116.439 169.253Z" fill="#E0E0E0"/>
<path d="M144.399 144.971H105.109V140.537C105.109 139.647 105.463 138.794 106.091 138.166C106.72 137.537 107.573 137.184 108.462 137.184H141.051C141.94 137.184 142.793 137.537 143.422 138.166C144.051 138.794 144.404 139.647 144.404 140.537L144.399 144.971Z" fill="#C59D4E"/>
<path d="M144.398 144.97C144.398 144.97 144.398 144.886 144.398 144.726C144.398 144.567 144.398 144.328 144.398 144.029C144.398 143.411 144.398 142.534 144.368 141.378C144.411 140.747 144.351 140.112 144.189 139.5C144.004 138.948 143.676 138.455 143.239 138.072C142.801 137.688 142.269 137.428 141.698 137.318C141.254 137.259 140.805 137.24 140.358 137.263H137.413L122.875 137.303H108.621C108.246 137.291 107.871 137.339 107.51 137.442C106.787 137.673 106.165 138.146 105.751 138.783C105.469 139.223 105.298 139.726 105.253 140.247C105.223 140.746 105.253 141.314 105.253 141.837V144.961L105.124 144.831L133.064 144.891L141.374 144.926H143.626H144.214H144.418C144.355 144.931 144.292 144.931 144.229 144.926H143.661H141.439L133.158 144.965L105.124 145.02H104.994V141.767C104.994 141.234 104.994 140.716 104.994 140.153C105.055 139.463 105.32 138.808 105.754 138.269C106.189 137.73 106.774 137.333 107.435 137.129C107.82 137.013 108.22 136.961 108.621 136.974H114.311H122.875L137.383 136.999H140.328C140.786 136.98 141.244 137.003 141.698 137.069C142.125 137.155 142.531 137.324 142.894 137.567C143.553 137.993 144.047 138.631 144.294 139.375C144.453 140.005 144.507 140.656 144.453 141.304C144.453 142.454 144.453 143.351 144.428 143.974C144.428 144.268 144.428 144.472 144.428 144.662C144.427 144.765 144.417 144.868 144.398 144.97Z" fill="#263238"/>
<path d="M66.891 159.723L53.5188 102.298C53.2216 101.023 53.2164 99.6966 53.5036 98.4188C53.7908 97.1411 54.3629 95.9447 55.1773 94.9191C55.9917 93.8934 57.0272 93.065 58.2067 92.4957C59.3861 91.9264 60.6789 91.631 61.9885 91.6313H91.6873C94.3112 91.6326 96.8565 92.5273 98.904 94.1682C100.951 95.8092 102.379 98.0984 102.952 100.659L116.155 159.723H66.891Z" fill="#C59D4E"/>
<path d="M91.6122 174.669C91.9061 174.091 91.6122 213.376 91.6122 213.376L69.4365 219.026V221.925H108.93V174.669H91.6122Z" fill="#E0E0E0"/>
<path d="M119.668 174.669C119.379 174.091 119.668 213.376 119.668 213.376L141.848 219.026V221.925H102.354V174.669H119.668Z" fill="#E0E0E0"/>
<path d="M66.8906 159.698H138.42C139.203 159.694 139.98 159.845 140.705 160.142C141.431 160.439 142.09 160.877 142.645 161.43C143.201 161.982 143.642 162.639 143.943 163.363C144.244 164.087 144.398 164.863 144.398 165.647V169.508H66.8906V159.698Z" fill="#C59D4E"/>
<g opacity="0.3">
<path d="M92.3996 159.155H67.1798C66.9597 159.155 66.7812 159.333 66.7812 159.553V169.034C66.7812 169.255 66.9597 169.433 67.1798 169.433H92.3996C92.6197 169.433 92.7982 169.255 92.7982 169.034V159.553C92.7982 159.333 92.6197 159.155 92.3996 159.155Z" fill="black"/>
</g>
<path d="M66.8906 169.503L91.6122 174.689H119.667L144.393 169.503H66.8906Z" fill="#E0E0E0"/>
<path d="M119.224 174.764C119.224 174.834 113.041 174.873 105.418 174.854C97.7952 174.834 91.6123 174.764 91.6123 174.689C91.6123 174.614 97.7952 174.575 105.418 174.594C113.041 174.614 119.224 174.669 119.224 174.764Z" fill="#263238"/>
<path d="M69.208 159.224C69.208 159.155 79.7702 159.095 92.7936 159.095C105.817 159.095 116.384 159.155 116.384 159.224C116.384 159.294 105.822 159.354 92.7936 159.354C79.7652 159.354 69.208 159.299 69.208 159.224Z" fill="#263238"/>
<g opacity="0.3">
<path d="M111.118 137.184L112.862 144.971H117.859L116.384 137.184H111.118Z" fill="black"/>
</g>
<g opacity="0.3">
<path d="M60.3491 91.9204C55.5712 92.0499 52.4274 97.6449 53.5185 102.298L66.7811 159.225H75.3853L60.3491 91.9204Z" fill="black"/>
</g>
<path d="M89.3908 169.752H66.7169L57.6045 144.721H93.7851L89.3908 169.752ZM67.0656 169.253H88.9872L93.2071 145.219H58.3319L67.0656 169.253Z" fill="#E0E0E0"/>
<path d="M95.0302 144.971H55.7158V140.537C55.7158 140.096 55.8027 139.659 55.9715 139.252C56.1403 138.845 56.3878 138.475 56.6997 138.164C57.0115 137.852 57.3818 137.606 57.7891 137.437C58.1965 137.269 58.6331 137.183 59.0738 137.184H91.6572C92.5465 137.184 93.3994 137.537 94.0282 138.166C94.657 138.794 95.0102 139.647 95.0102 140.537L95.0302 144.971Z" fill="#C59D4E"/>
<path d="M95.0301 144.97C95.0301 144.97 95.0301 144.886 95.0301 144.726C95.0301 144.567 95.0301 144.328 95.0301 144.029C95.0301 143.411 95.0301 142.534 95.0002 141.378C95.0432 140.747 94.9826 140.112 94.8209 139.5C94.6363 138.948 94.3083 138.455 93.8706 138.072C93.4329 137.688 92.9011 137.428 92.3298 137.318C91.8873 137.259 91.4404 137.24 90.9945 137.263H88.0451L73.5021 137.303H59.2481C58.8744 137.291 58.5012 137.338 58.1421 137.442C57.4167 137.671 56.7933 138.145 56.3784 138.783C56.0962 139.223 55.9253 139.726 55.8802 140.247C55.8503 140.745 55.8802 141.313 55.8802 141.837V144.96L55.7506 144.831L83.6907 144.891L92.0059 144.926H94.2529H94.8408H95.0451C94.9837 144.93 94.9221 144.93 94.8607 144.926H94.2878H92.0657L83.7853 144.965L55.7506 145.02H55.6211V141.767C55.6211 141.234 55.6211 140.716 55.6211 140.153C55.682 139.463 55.9467 138.807 56.3814 138.269C56.8161 137.73 57.4013 137.333 58.0624 137.128C58.4468 137.014 58.8471 136.961 59.2481 136.974H64.9378H73.5021L88.0102 136.999H90.9597C91.4159 136.98 91.8729 137.003 92.3248 137.069C92.7521 137.155 93.1583 137.324 93.5205 137.567C94.1796 137.993 94.6736 138.631 94.9205 139.375C95.0792 140.005 95.1347 140.656 95.0849 141.303C95.0849 142.454 95.06 143.351 95.055 143.974C95.055 144.268 95.055 144.472 95.055 144.661C95.0551 144.765 95.0468 144.868 95.0301 144.97Z" fill="#263238"/>
<path d="M120.081 213.386C120.081 213.456 113.689 213.515 105.807 213.515C97.9253 213.515 91.5332 213.456 91.5332 213.386C91.5332 213.316 97.9253 213.256 105.807 213.256C113.689 213.256 120.081 213.311 120.081 213.386Z" fill="#263238"/>
<g opacity="0.3">
<path d="M92.728 175.571C92.728 175.571 92.2747 211.318 94.1729 211.632C96.0711 211.946 98.4127 184.783 106.583 180.314C110.335 178.316 114.291 176.726 118.381 175.571H92.728Z" fill="black"/>
</g>
<g opacity="0.3">
<path d="M141.847 219.045H69.4365V221.945H141.847V219.045Z" fill="black"/>
</g>
<g opacity="0.3">
<path d="M82.4152 217.018L93.7795 213.401H98.6222L95.6628 216.993C95.4602 217.238 95.2059 217.435 94.9183 217.57C94.6306 217.706 94.3166 217.775 93.9987 217.775H82.5397C82.4473 217.776 82.3578 217.743 82.2872 217.683C82.2166 217.624 82.1696 217.541 82.1546 217.45C82.1396 217.359 82.1576 217.265 82.2053 217.186C82.2531 217.107 82.3275 217.047 82.4152 217.018Z" fill="black"/>
</g>
<path d="M185.277 34.0674H184.779C182.293 34.1168 179.917 35.101 178.124 36.8239C176.33 38.5468 175.252 40.8819 175.104 43.3641C174.815 48.147 174.556 53.4431 174.64 56.0039C174.815 61.3099 180.121 62.0274 180.121 62.0274L179.802 68.4145L184.515 72.4401L192.676 67.7569L193.353 44.6346C193.722 39.0894 190.807 34.2766 185.277 34.0674Z" fill="#FFBF9D"/>
<path d="M180.13 62.0372C182.582 61.9816 184.966 61.2243 187.001 59.855C187.001 59.855 185.367 63.7211 180.061 63.3425L180.13 62.0372Z" fill="#FF9A6C"/>
<path d="M175.552 40.9278C175.552 40.9278 176.888 37.5747 178.472 36.7676C180.395 35.7712 181.272 37.9036 183.11 37.3456C184.949 36.7876 184.286 38.6011 187.001 37.8438C188.885 37.3107 187.998 40.011 188.915 41.8943C189.801 43.6978 190.947 44.6893 191.042 45.4864C191.929 52.9597 191.306 50.9668 192.95 49.9405C193.369 49.6765 194.35 49.0238 194.515 46.9512C194.719 44.2459 194.759 40.9726 194.116 39.0594C193.578 37.4552 192.621 36.3591 190.957 35.1634C188.312 33.2751 184.73 33.305 182.303 33.599C179.877 33.8929 175.248 36.7726 175.552 40.9278Z" fill="#263238"/>
<path d="M192.606 49.7963C192.609 49.6011 192.651 49.4084 192.73 49.2299C192.809 49.0515 192.923 48.891 193.066 48.7581C193.21 48.6253 193.378 48.523 193.562 48.4574C193.746 48.3917 193.941 48.3642 194.136 48.3763C195.132 48.4511 196.238 48.9891 196.213 51.0368C196.174 54.6688 192.537 53.8767 192.532 53.772C192.527 53.6674 192.576 51.3158 192.606 49.7963Z" fill="#FFBF9D"/>
<path d="M193.338 52.4168C193.338 52.4168 193.398 52.4617 193.508 52.5115C193.658 52.5735 193.826 52.5735 193.976 52.5115C194.214 52.3661 194.408 52.1595 194.539 51.9132C194.67 51.6669 194.732 51.39 194.718 51.1115C194.734 50.8006 194.678 50.4904 194.554 50.2047C194.522 50.0893 194.462 49.9835 194.379 49.8967C194.297 49.8098 194.194 49.7445 194.081 49.7065C194.008 49.6873 193.932 49.6936 193.864 49.7245C193.796 49.7554 193.74 49.8089 193.707 49.8759C193.657 49.9756 193.677 50.0503 193.662 50.0553C193.647 50.0603 193.582 49.9955 193.612 49.846C193.633 49.7553 193.684 49.6743 193.757 49.6168C193.807 49.5798 193.864 49.5533 193.925 49.5388C193.986 49.5242 194.049 49.522 194.111 49.5321C194.259 49.5623 194.397 49.6305 194.512 49.73C194.626 49.8296 194.713 49.9571 194.763 50.1001C194.911 50.4109 194.983 50.7525 194.973 51.0966C194.938 51.8289 194.559 52.5065 194.031 52.651C193.933 52.678 193.831 52.6831 193.731 52.6659C193.631 52.6487 193.536 52.6095 193.453 52.5513C193.343 52.5015 193.323 52.4218 193.338 52.4168Z" fill="#FF9A6C"/>
<path d="M177.151 48.3563C177.155 48.5532 177.236 48.7407 177.377 48.8786C177.518 49.0165 177.707 49.0937 177.904 49.0936C178 49.0983 178.096 49.0838 178.187 49.0509C178.278 49.018 178.361 48.9674 178.432 48.902C178.503 48.8366 178.56 48.7578 178.6 48.6701C178.64 48.5824 178.663 48.4876 178.666 48.3911C178.661 48.1942 178.58 48.0068 178.439 47.8684C178.299 47.73 178.111 47.6513 177.914 47.6488C177.817 47.6441 177.72 47.6588 177.629 47.692C177.538 47.7252 177.455 47.7763 177.384 47.8422C177.313 47.9081 177.256 47.9875 177.216 48.0758C177.176 48.1641 177.154 48.2594 177.151 48.3563Z" fill="#263238"/>
<path d="M175.786 45.8953C175.881 45.99 176.444 45.5466 177.256 45.5266C178.068 45.5067 178.681 45.8903 178.751 45.7907C178.82 45.6911 178.691 45.5665 178.427 45.3871C178.066 45.156 177.644 45.0396 177.216 45.0533C176.791 45.0644 176.381 45.211 176.045 45.4718C175.836 45.6711 175.756 45.8505 175.786 45.8953Z" fill="#263238"/>
<path d="M184.524 48.3563C184.527 48.5536 184.608 48.7419 184.749 48.88C184.89 49.0182 185.079 49.095 185.277 49.0936C185.373 49.0983 185.469 49.0837 185.559 49.0508C185.65 49.0178 185.733 48.9671 185.803 48.9017C185.874 48.8363 185.93 48.7574 185.97 48.6697C186.01 48.582 186.031 48.4873 186.034 48.3911C186.03 48.1938 185.949 48.0057 185.809 47.867C185.668 47.7284 185.479 47.6501 185.282 47.6488C185.185 47.6441 185.089 47.6588 184.998 47.6921C184.907 47.7254 184.824 47.7765 184.754 47.8425C184.683 47.9084 184.626 47.9879 184.587 48.0761C184.548 48.1644 184.526 48.2597 184.524 48.3563Z" fill="#263238"/>
<path d="M183.792 45.8353C183.887 45.9349 184.45 45.4915 185.262 45.4666C186.074 45.4417 186.687 45.8353 186.756 45.7307C186.826 45.626 186.697 45.5115 186.428 45.3321C186.07 45.0952 185.646 44.9783 185.217 44.9983C184.794 45.009 184.386 45.1538 184.051 45.4118C183.822 45.631 183.757 45.7954 183.792 45.8353Z" fill="#263238"/>
<path d="M181.062 52.1828C180.629 52.0578 180.182 51.9908 179.732 51.9835C179.527 51.9835 179.328 51.9337 179.288 51.7942C179.262 51.5792 179.304 51.3615 179.408 51.1714L179.976 49.5721C180.758 47.2903 181.321 45.417 181.226 45.3871C181.132 45.3572 180.424 47.1807 179.642 49.4575C179.453 50.0205 179.273 50.5586 179.099 51.0717C178.976 51.3259 178.948 51.6157 179.019 51.8888C179.05 51.962 179.097 52.0269 179.158 52.078C179.219 52.1292 179.291 52.1651 179.368 52.1828C179.484 52.2089 179.603 52.2223 179.722 52.2226C180.168 52.2629 180.618 52.2495 181.062 52.1828Z" fill="#263238"/>
<path d="M183.229 43.0403C183.329 43.2545 184.131 43.0702 185.092 43.0951C186.054 43.12 186.846 43.3044 186.956 43.0951C187.001 42.9955 186.851 42.8012 186.517 42.5969C186.08 42.37 185.595 42.2505 185.102 42.2481C184.61 42.2351 184.121 42.3411 183.677 42.557C183.344 42.7464 183.184 42.9407 183.229 43.0403Z" fill="#263238"/>
<path d="M176.239 42.8561C176.364 43.0603 176.981 42.9557 177.694 43.0454C178.406 43.1351 178.989 43.3593 179.159 43.1849C179.233 43.1002 179.159 42.9059 178.924 42.6867C178.599 42.4211 178.202 42.2581 177.783 42.2184C177.369 42.1642 176.947 42.2353 176.573 42.4226C176.284 42.582 176.184 42.7564 176.239 42.8561Z" fill="#263238"/>
<path d="M188.914 37.1862C187.713 33.903 186.219 32.3286 184.928 31.6411C183.638 30.9535 179.114 31.5265 177.714 31.9848C176.314 32.4432 175.821 34.3364 175.477 35.7663C175.263 36.678 175.352 37.7044 174.799 38.4567C174.404 38.8691 173.978 39.2506 173.524 39.5976C172.802 40.3001 172.642 38.9549 172.916 39.9214C173.19 40.888 173.987 43.7926 175.049 44.2858C175.223 42.2033 175.437 40.9179 176.289 39.3784C176.787 38.4666 177.171 37.2809 178.132 36.8873C180.125 36.0602 182.676 38.078 184.011 38.8254" fill="#263238"/>
<path d="M186.976 33.6736C189.965 33.1754 192.501 33.1754 194.374 35.253C195.318 36.2148 195.917 37.4621 196.078 38.8003C196.203 40.0458 196.521 41.7896 196.213 43.3639C196.123 43.6398 195.949 43.8804 195.714 44.0515C195.39 44.1561 195.097 43.8721 194.882 43.643C194.668 43.4138 194.26 43.1896 194.01 43.3938" fill="#263238"/>
<path d="M171.208 37.3557C171.965 36.1849 173.011 35.1486 174.003 33.8681C175.139 32.4233 177.062 31.3771 178.796 30.7742C180.607 30.2165 182.56 30.3532 184.276 31.1578C185.93 31.9201 187.22 33.6091 187.873 35.308L183.992 38.7955C183.094 38.1538 182.132 37.6062 181.122 37.1614C180.702 36.9124 180.234 36.7532 179.749 36.694C179.264 36.6347 178.772 36.6766 178.304 36.8171C177.836 36.9575 177.402 37.1934 177.029 37.5099C176.657 37.8264 176.354 38.2167 176.14 38.656C175.667 39.5216 175.307 40.4442 175.069 41.4012C174.167 40.8382 172.483 39.9065 171.581 39.3236C171.262 39.1688 171.004 38.9108 170.849 38.5912C170.816 38.3716 170.831 38.1475 170.893 37.9342C170.955 37.7209 171.062 37.5236 171.208 37.3557Z" fill="#263238"/>
<path d="M176.817 38.3225C177.093 37.8553 177.438 37.4321 177.839 37.0669C178.247 36.6429 178.685 36.2483 179.149 35.8862C179.726 35.417 180.427 35.1277 181.167 35.0541C181.541 35.0114 181.921 35.0542 182.276 35.1794C182.632 35.3045 182.954 35.5087 183.219 35.7766C183.627 36.2226 183.907 36.7697 184.032 37.3609C184.122 37.7488 184.179 38.1439 184.201 38.5417C184.222 38.6854 184.222 38.8314 184.201 38.9751C184.151 38.9751 184.111 38.3573 183.857 37.4107C183.714 36.8628 183.437 36.3593 183.05 35.946C182.808 35.7079 182.515 35.5275 182.193 35.418C181.871 35.3085 181.529 35.2727 181.192 35.3132C180.501 35.3866 179.845 35.6524 179.298 36.0805C178.836 36.4289 178.394 36.8032 177.973 37.2015C177.246 37.879 176.847 38.3424 176.817 38.3225Z" fill="#455A64"/>
<path d="M186.283 32.7671C186.979 33.3693 187.473 34.1712 187.698 35.0639C188.007 35.9324 188.044 36.8744 187.803 37.7642C187.779 36.8805 187.661 36.0019 187.449 35.1436C187.15 34.3104 186.759 33.5132 186.283 32.7671Z" fill="#455A64"/>
<path d="M175.706 36.2794C175.776 36.1033 175.866 35.9361 175.975 35.7812C176.249 35.3498 176.555 34.94 176.892 34.5556C177.386 33.9654 177.973 33.4604 178.631 33.0609C179.442 32.565 180.38 32.3142 181.331 32.3385C182.285 32.3915 183.199 32.7397 183.947 33.335C184.551 33.8152 185.035 34.4292 185.362 35.1286C185.582 35.5926 185.735 36.0859 185.815 36.5933C185.858 36.7794 185.87 36.9713 185.85 37.1613C185.708 36.4889 185.489 35.8351 185.197 35.2132C184.858 34.5573 184.38 33.9828 183.797 33.5293C183.079 32.9775 182.21 32.6562 181.306 32.6076C180.415 32.5988 179.539 32.8368 178.775 33.2951C178.126 33.6629 177.537 34.1265 177.026 34.6702C176.169 35.6218 175.751 36.3093 175.706 36.2794Z" fill="#455A64"/>
<path d="M189.876 41.8296C190.568 42.5907 191.345 43.2695 192.193 43.8524C192.49 44.0883 192.855 44.2228 193.234 44.236C193.384 44.2063 193.526 44.1469 193.653 44.0614C193.78 43.9758 193.888 43.8658 193.971 43.7378C194.29 43.2993 194.405 42.9506 194.47 42.9755C194.44 43.2895 194.328 43.5902 194.146 43.8474C194.052 44.0027 193.927 44.1367 193.779 44.2406C193.63 44.3445 193.462 44.4159 193.284 44.4502C192.846 44.4605 192.419 44.3197 192.073 44.0516C191.144 43.5351 190.382 42.7642 189.876 41.8296Z" fill="#455A64"/>
<path d="M184.256 53.1045C184.121 53.1045 183.987 53.802 183.384 54.355C182.781 54.908 182.068 55.0127 182.068 55.1472C182.068 55.2817 182.263 55.2767 182.567 55.2369C182.992 55.1755 183.388 54.9861 183.703 54.6938C184.015 54.4049 184.227 54.0247 184.31 53.6077C184.39 53.3137 184.33 53.1294 184.256 53.1045Z" fill="#263238"/>
<path d="M175.447 40.8035C175.472 40.8035 175.472 41.0924 175.093 41.3017C174.981 41.3594 174.856 41.3853 174.73 41.3766C174.605 41.3678 174.484 41.3246 174.381 41.2519C174.248 41.1567 174.148 41.023 174.093 40.8688C174.039 40.7146 174.033 40.5475 174.077 40.39L174.187 40.5494C173.878 40.5282 173.572 40.4747 173.275 40.39C172.58 40.1922 171.945 39.826 171.427 39.3238C171.194 39.1339 171.012 38.8891 170.898 38.6113C170.933 38.6113 171.138 38.8505 171.546 39.1843C172.074 39.6255 172.686 39.9544 173.345 40.1508C173.625 40.2321 173.912 40.2871 174.202 40.3152H174.361L174.311 40.4597C174.278 40.5703 174.279 40.6883 174.314 40.7984C174.348 40.9085 174.415 41.0057 174.506 41.0775C174.579 41.1352 174.667 41.1728 174.759 41.1868C174.852 41.2007 174.946 41.1906 175.034 41.1572C175.357 41.0277 175.417 40.7885 175.447 40.8035Z" fill="#455A64"/>
<path d="M174.501 53.134C174.645 53.0431 174.808 52.9854 174.977 52.9649C175.147 52.9445 175.319 52.9618 175.481 53.0156C175.643 53.0694 175.791 53.1584 175.914 53.2762C176.038 53.394 176.133 53.5377 176.195 53.697C176.351 53.4784 176.565 53.3083 176.813 53.2063C177.062 53.1043 177.334 53.0745 177.598 53.1203C177.863 53.1661 178.109 53.2857 178.308 53.4653C178.508 53.6449 178.652 53.8772 178.726 54.1354C178.801 53.9526 178.922 53.792 179.077 53.6685C179.232 53.5451 179.415 53.4628 179.61 53.4295C179.805 53.3962 180.005 53.4128 180.192 53.4779C180.379 53.5429 180.547 53.6543 180.679 53.8016C180.782 53.6394 180.934 53.5138 181.113 53.4423C181.292 53.3708 181.488 53.3571 181.675 53.403C181.648 53.2195 181.678 53.0322 181.762 52.8666C181.845 52.7009 181.977 52.565 182.141 52.4773C182.304 52.3896 182.491 52.3544 182.675 52.3765C182.859 52.3987 183.032 52.477 183.17 52.6009C183.283 52.4258 183.431 52.2762 183.605 52.1618C183.779 52.0473 183.975 51.9705 184.18 51.9362C184.386 51.902 184.596 51.9111 184.798 51.9629C185 52.0147 185.188 52.1082 185.352 52.2372C185.404 52.0644 185.513 51.9139 185.66 51.8092C185.807 51.7044 185.984 51.6513 186.165 51.6581C186.345 51.665 186.518 51.7313 186.657 51.8469C186.796 51.9625 186.892 52.1208 186.931 52.297C187.11 52.0751 187.355 51.9165 187.63 51.8447C187.906 51.7729 188.197 51.7917 188.461 51.8984C188.468 51.7678 188.504 51.6405 188.566 51.5254C188.628 51.4104 188.715 51.3104 188.82 51.2328C188.925 51.1552 189.046 51.1019 189.175 51.0765C189.303 51.0512 189.435 51.0545 189.562 51.0863C189.437 50.6329 190.638 50.5881 190.638 50.5881C190.638 50.5881 190.688 49.7511 190.852 49.6215C191.017 49.492 191.301 49.4621 191.41 49.6215C191.372 49.4378 191.401 49.2462 191.492 49.0823C191.584 48.9183 191.732 48.7931 191.909 48.7297C192.087 48.6735 192.279 48.6827 192.451 48.7558C192.622 48.8289 192.762 48.961 192.845 49.1283C192.915 49.3358 192.955 49.5522 192.965 49.771C193.069 50.4785 193.463 51.3105 192.965 51.8037C192.875 51.8934 192.755 51.9632 192.716 52.0827C192.651 52.287 192.85 52.4813 192.865 52.6955C192.88 52.9098 192.656 53.134 192.556 53.3582C192.467 53.7163 192.467 54.0911 192.556 54.4493C192.586 54.818 192.377 55.2813 192.008 55.2464C192.137 55.5184 192.167 55.8267 192.094 56.1186C192.02 56.4104 191.847 56.6675 191.605 56.8457C191.668 57.0024 191.698 57.1703 191.695 57.3392C191.692 57.5081 191.655 57.6746 191.586 57.8289C191.518 57.9832 191.418 58.1221 191.295 58.2374C191.171 58.3526 191.026 58.4419 190.867 58.4998C190.976 58.6114 191.041 58.759 191.049 58.9148C191.057 59.0707 191.009 59.2242 190.912 59.3468C190.713 59.5905 190.454 59.7777 190.16 59.8898C190.218 59.931 190.268 59.9833 190.306 60.0437C190.344 60.104 190.369 60.1713 190.381 60.2416C190.393 60.3119 190.392 60.3839 190.376 60.4535C190.36 60.5231 190.331 60.5889 190.289 60.6471C190.108 60.8723 189.855 61.0274 189.572 61.0855C189.448 61.1001 189.334 61.1606 189.253 61.2549C189.118 61.4442 189.298 61.7033 189.253 61.9325C189.193 62.2813 188.705 62.3809 188.556 62.7047C188.406 63.0286 188.595 63.3923 188.366 63.6065C188.217 63.746 187.983 63.7211 187.788 63.7909C187.444 63.9104 187.29 64.2891 187.076 64.588C186.607 65.0968 185.98 65.4336 185.297 65.5446C184.958 65.6293 184.615 65.704 184.271 65.7688C183.583 65.8933 182.891 65.978 182.198 66.0627C181.854 66.1026 181.431 66.1076 181.252 65.8136C181.124 65.9487 180.966 66.052 180.791 66.1154C180.616 66.1788 180.429 66.2004 180.244 66.1786C180.059 66.1569 179.882 66.0923 179.726 65.99C179.571 65.8877 179.442 65.7505 179.348 65.5894C178.71 65.6818 178.059 65.5573 177.5 65.2357L176.892 64.9716C176.284 64.7076 175.612 64.3688 175.432 63.736C175.24 63.6956 175.059 63.6131 174.902 63.4944C174.745 63.3757 174.616 63.2239 174.525 63.0496C174.433 62.8754 174.381 62.6831 174.373 62.4866C174.365 62.29 174.4 62.094 174.476 61.9126C174.202 61.9923 173.933 61.7133 173.893 61.4144C173.881 61.1266 173.916 60.8387 173.998 60.5624C174.207 59.4165 173.599 58.2457 173.758 57.0749C173.868 56.2628 174.351 55.4607 174.122 54.6785C174.051 54.5216 174.012 54.3523 174.008 54.1802C174.008 54.0158 174.172 53.8414 174.331 53.8913C174.29 53.7742 174.278 53.6487 174.297 53.5259C174.316 53.4031 174.365 53.287 174.44 53.1881C174.515 53.0891 174.614 53.0105 174.727 52.9593C174.841 52.9081 174.965 52.886 175.089 52.8948" fill="#263238"/>
<path d="M183.857 53.0396C183.722 53.0396 183.692 53.9264 182.91 54.5342C182.128 55.142 181.176 55.0324 181.166 55.147C181.156 55.2616 181.376 55.3264 181.774 55.3513C182.298 55.3741 182.813 55.2118 183.229 54.8929C183.624 54.5824 183.888 54.1339 183.966 53.6374C184.011 53.2638 183.917 53.0396 183.857 53.0396Z" fill="white"/>
<path d="M189.926 58.0464C190.004 57.9175 190.073 57.7826 190.13 57.6429C190.237 57.293 190.267 56.9244 190.22 56.5618C190.155 55.6949 189.916 55.0223 189.956 55.0073C190.209 55.4821 190.349 56.009 190.364 56.5468C190.413 56.9295 190.365 57.3185 190.225 57.6778C190.1 57.9568 189.936 58.0863 189.926 58.0464Z" fill="#455A64"/>
<path d="M190.827 57.3044C191.041 56.7971 191.172 56.2589 191.216 55.7101C191.217 55.1587 191.131 54.6106 190.962 54.0859C191.07 54.2139 191.147 54.3659 191.186 54.5294C191.319 54.91 191.378 55.3124 191.36 55.7151C191.342 56.1185 191.251 56.5152 191.091 56.8859C191.035 57.0431 190.945 57.186 190.827 57.3044Z" fill="#455A64"/>
<path d="M180.584 63.5669C180.426 63.4263 180.296 63.2573 180.2 63.0687C179.67 62.19 179.503 61.1387 179.737 60.1392C179.774 59.9316 179.848 59.7325 179.956 59.5513C179.927 59.7559 179.887 59.9588 179.837 60.1591C179.758 60.6442 179.758 61.1388 179.837 61.6239C179.915 62.1101 180.069 62.581 180.295 63.0189C180.402 63.1956 180.499 63.3786 180.584 63.5669Z" fill="#455A64"/>
<path d="M181.531 63.502C181.141 63.1432 180.867 62.6767 180.744 62.1618C180.575 61.6609 180.562 61.1211 180.704 60.6123C180.707 61.1157 180.767 61.6172 180.883 62.107C181.047 62.5944 181.264 63.0623 181.531 63.502Z" fill="#455A64"/>
<path d="M183.185 63.1782C183.045 63.1481 182.916 63.0848 182.806 62.9939C182.524 62.7966 182.285 62.544 182.104 62.2515C181.923 61.9594 181.803 61.6342 181.75 61.295C181.716 61.1575 181.716 61.0139 181.75 60.8765C181.839 61.3318 181.999 61.7705 182.223 62.1768C182.491 62.5572 182.815 62.8948 183.185 63.1782Z" fill="#455A64"/>
<path d="M134.628 106.468C134.539 106.349 133.552 104.396 131.744 103.404C129.935 102.413 128.6 101.74 127.613 101.123C126.627 100.505 125.83 100.171 125.84 101.436C125.85 102.702 127.021 103.489 127.937 103.928C128.854 104.366 129.546 104.396 129.093 105.273C128.64 106.15 126.179 106.767 124.918 106.957C123.101 107.334 121.32 107.871 119.597 108.561C118.242 109.119 118.366 109.876 118.366 109.876C118.114 109.862 117.862 109.91 117.631 110.014C117.4 110.118 117.198 110.276 117.041 110.474C116.954 110.551 116.887 110.647 116.845 110.755C116.803 110.864 116.788 110.98 116.8 111.096C116.813 111.211 116.853 111.322 116.918 111.418C116.982 111.515 117.069 111.594 117.171 111.65L117.669 111.7C117.636 111.832 117.632 111.971 117.657 112.105C117.681 112.24 117.734 112.368 117.812 112.48C117.89 112.593 117.99 112.687 118.108 112.758C118.225 112.829 118.355 112.874 118.491 112.89C119.557 113.03 123.857 112.522 123.857 112.522C123.857 112.522 120.564 113.145 120.026 113.653C119.487 114.161 120.1 114.699 120.564 114.649C121.027 114.599 128.61 113.553 129.701 113.553C130.792 113.553 135.42 111.56 135.42 111.56L134.628 106.468Z" fill="#FFBF9D"/>
<path d="M125.022 110.738C125.022 110.823 123.393 110.978 121.38 111.202C119.368 111.426 117.743 111.625 117.729 111.54C118.911 111.208 120.125 110.996 121.351 110.908C122.565 110.725 123.796 110.668 125.022 110.738Z" fill="#FF9A6C"/>
<path d="M125.366 108.591C124.196 108.868 123.012 109.083 121.819 109.233C120.642 109.481 119.453 109.663 118.257 109.781C118.257 109.702 119.801 109.283 121.744 108.944C122.935 108.694 124.15 108.575 125.366 108.591Z" fill="#FF9A6C"/>
<path d="M131.943 108.79C131.943 108.825 131.639 108.835 131.215 108.626C130.673 108.337 130.232 107.891 129.95 107.345C129.676 106.812 129.489 106.239 129.397 105.646C129.327 105.409 129.31 105.159 129.347 104.914C129.387 104.914 129.476 105.173 129.601 105.602C129.748 106.156 129.951 106.694 130.209 107.206C130.472 107.704 130.853 108.13 131.32 108.446C131.698 108.681 131.972 108.745 131.943 108.79Z" fill="#FF9A6C"/>
<path d="M166.24 72.1415L159.265 83.7549L151.363 95.2139L134.025 106.09L135.057 111.64C135.057 111.64 153.207 105.806 155.279 104.919C157.352 104.032 166.903 92.8275 166.903 92.8275C166.903 92.8275 167.57 71.4489 166.24 72.1415Z" fill="#FFBF9D"/>
<path d="M174.127 204.906L174.55 216.34C174.55 216.34 163.435 220.62 163.315 222.737L184.814 222.693L184.863 204.856L174.127 204.906Z" fill="#263238"/>
<path d="M181.196 215.364C181.406 215.433 181.583 215.575 181.695 215.765C181.806 215.955 181.845 216.179 181.804 216.395C181.754 216.61 181.622 216.797 181.435 216.915C181.249 217.034 181.024 217.074 180.808 217.028C180.586 216.955 180.398 216.803 180.28 216.601C180.161 216.399 180.121 216.161 180.165 215.932C180.24 215.714 180.398 215.535 180.604 215.434C180.81 215.332 181.048 215.316 181.266 215.389" fill="#E0E0E0"/>
<path d="M184.813 222.693L184.749 220.894L164.162 221.611C164.162 221.611 163.206 222.045 163.315 222.737L184.813 222.693Z" fill="#455A64"/>
<path d="M174.202 216.226C174.202 216.335 174.73 216.38 175.248 216.724C175.766 217.068 176.04 217.526 176.135 217.481C176.23 217.437 176.075 216.814 175.442 216.405C174.81 215.997 174.177 216.126 174.202 216.226Z" fill="white"/>
<path d="M171.95 217.192C171.925 217.297 172.379 217.481 172.737 217.939C173.096 218.398 173.201 218.881 173.305 218.876C173.41 218.871 173.475 218.258 173.016 217.7C172.558 217.142 171.95 217.088 171.95 217.192Z" fill="white"/>
<path d="M170.674 220.007C170.769 220.032 170.914 219.509 170.645 218.896C170.376 218.283 169.882 218.069 169.837 218.159C169.793 218.248 170.097 218.562 170.311 219.055C170.525 219.549 170.57 219.972 170.674 220.007Z" fill="white"/>
<path d="M174.386 213.61C174.431 213.71 174.909 213.56 175.502 213.61C176.095 213.66 176.558 213.839 176.613 213.75C176.668 213.66 176.224 213.251 175.522 213.251C174.819 213.251 174.331 213.53 174.386 213.61Z" fill="white"/>
<path d="M198.958 204.981L200.119 218.767L197.997 229.942C197.957 230.13 197.957 230.324 197.995 230.512C198.034 230.7 198.111 230.878 198.221 231.036C198.331 231.193 198.472 231.326 198.636 231.427C198.8 231.527 198.982 231.593 199.172 231.621C199.391 231.649 199.612 231.624 199.818 231.547C200.024 231.469 200.208 231.342 200.353 231.177C202.266 229.02 209.276 221.053 209.137 220.047C208.972 218.886 208.843 205.424 208.843 205.424L198.958 204.981Z" fill="#263238"/>
<path d="M199.172 231.62L209.076 219.115L209.116 219.703C209.148 220.207 209.006 220.707 208.713 221.118C207.926 222.204 205.694 225.154 200.393 231.177C200.243 231.348 200.053 231.479 199.839 231.557C199.626 231.634 199.396 231.656 199.172 231.62Z" fill="#455A64"/>
<g opacity="0.6">
<path d="M206.058 214.846C205.9 214.984 205.797 215.174 205.767 215.381C205.738 215.589 205.785 215.801 205.899 215.977C206.02 216.143 206.202 216.254 206.406 216.287C206.609 216.32 206.817 216.271 206.985 216.151C207.152 216.004 207.26 215.801 207.289 215.581C207.319 215.36 207.267 215.136 207.144 214.95C207.073 214.871 206.986 214.806 206.89 214.761C206.793 214.715 206.688 214.689 206.582 214.684C206.475 214.68 206.368 214.696 206.268 214.734C206.168 214.771 206.076 214.827 205.998 214.901" fill="white"/>
</g>
<path d="M201.853 225.388C201.508 224.978 201.087 224.64 200.612 224.392C200.111 224.222 199.581 224.153 199.053 224.187C199.053 224.157 199.202 224.038 199.511 223.968C199.921 223.895 200.344 223.944 200.727 224.108C201.113 224.273 201.444 224.546 201.678 224.895C201.853 225.169 201.888 225.373 201.853 225.388Z" fill="white"/>
<path d="M201.015 227.301C200.62 227.109 200.212 226.943 199.795 226.803C199.357 226.748 198.916 226.72 198.474 226.718C198.435 226.649 199.057 226.315 199.86 226.509C200.662 226.704 201.08 227.257 201.015 227.301Z" fill="white"/>
<path d="M203.477 222.897C203.422 222.967 202.719 222.319 201.643 221.97C200.567 221.621 199.65 221.716 199.65 221.626C199.65 221.537 200.607 221.298 201.753 221.681C202.454 221.867 203.066 222.299 203.477 222.897Z" fill="white"/>
<path d="M203.462 218.677C203.432 218.761 202.675 218.492 201.714 218.522C200.752 218.552 200 218.836 199.965 218.752C200.483 218.418 201.082 218.235 201.698 218.221C202.314 218.208 202.921 218.366 203.452 218.677H203.462Z" fill="white"/>
<path d="M203.223 214.622C203.183 214.706 202.416 214.293 201.399 214.407C200.383 214.522 199.705 215.06 199.656 214.985C199.606 214.911 199.765 214.776 200.064 214.572C200.456 214.315 200.905 214.157 201.371 214.109C201.837 214.061 202.308 214.126 202.744 214.298C203.073 214.437 203.238 214.592 203.223 214.622Z" fill="white"/>
<path d="M201.375 213.635C201.327 213.473 201.31 213.304 201.325 213.137C201.341 212.656 201.449 212.182 201.644 211.742C201.756 211.41 201.975 211.124 202.267 210.93C202.367 210.875 202.481 210.853 202.594 210.869C202.707 210.884 202.813 210.935 202.894 211.014C203.048 211.18 203.137 211.396 203.143 211.622C203.146 212.082 202.99 212.528 202.701 212.886C202.413 213.244 202.009 213.491 201.559 213.585C201.116 213.659 200.66 213.597 200.253 213.406C199.845 213.216 199.505 212.907 199.277 212.519C199.218 212.419 199.181 212.308 199.167 212.193C199.153 212.079 199.164 211.962 199.198 211.851C199.242 211.745 199.318 211.655 199.417 211.595C199.516 211.535 199.631 211.508 199.746 211.517C200.081 211.571 200.396 211.714 200.657 211.931C201.044 212.203 201.381 212.54 201.654 212.927C201.764 213.065 201.844 213.225 201.888 213.396C201.511 212.899 201.063 212.461 200.558 212.095C200.323 211.917 200.047 211.801 199.756 211.757C199.693 211.749 199.629 211.763 199.575 211.795C199.521 211.827 199.479 211.877 199.457 211.936C199.44 212.01 199.438 212.086 199.45 212.16C199.463 212.235 199.491 212.306 199.531 212.369C199.739 212.698 200.039 212.958 200.393 213.118C200.747 213.278 201.14 213.332 201.524 213.271C201.904 213.191 202.246 212.985 202.494 212.687C202.743 212.388 202.884 212.015 202.894 211.627C202.893 211.468 202.837 211.315 202.735 211.194C202.691 211.148 202.634 211.119 202.572 211.109C202.51 211.099 202.447 211.109 202.391 211.139C202.146 211.304 201.958 211.54 201.853 211.816C201.594 212.392 201.432 213.006 201.375 213.635Z" fill="white"/>
<path d="M207.503 172.941L204.748 130.552L203.622 121.704L165.01 127.643C165.114 130.488 172.682 215.598 172.682 215.598H185.581L184.914 141.164L185.995 141.438C185.995 141.438 191.943 173.2 192.322 178.307C192.661 182.905 197.05 216.121 197.05 216.121H209.506L207.503 172.941Z" fill="#263238"/>
<path d="M219.659 129.371C219.814 129.65 220.865 136.406 220.656 136.929C220.446 137.452 219.49 140.84 218.992 141.573C218.493 142.305 215.888 144.303 215.534 143.909C215.18 143.516 214.896 142.679 215.424 142.25L213.008 142.146C213.008 142.146 213.048 140.995 213.885 140.706L212.854 140.237C212.854 140.237 213.352 139.156 214.079 139.191C214.807 139.226 214.498 139.366 214.498 139.366L215.24 138.588C215.24 138.588 215.514 135.993 215.24 135.33C214.966 134.667 214.044 134.005 214.174 132.525C214.303 131.045 215.245 129.571 215.12 129.187C215.002 128.511 214.924 127.829 214.886 127.144C214.886 127.144 218.698 126.013 218.872 126.008C219.046 126.003 219.659 129.371 219.659 129.371Z" fill="#FFBF9D"/>
<path d="M215.324 135.614C215.374 135.614 215.294 136.351 215.489 137.502C215.604 138.172 215.802 138.824 216.076 139.445C216.145 139.615 216.256 139.766 216.398 139.882C216.54 139.999 216.708 140.078 216.889 140.113C217.252 140.163 217.571 139.829 217.666 139.43C217.748 139.024 217.706 138.602 217.546 138.22C217.396 137.828 217.3 137.417 217.262 136.999C217.28 136.296 217.42 135.601 217.676 134.946C217.832 134.512 217.945 134.063 218.015 133.606C218.018 133.439 218.033 133.273 218.059 133.108C218.111 133.269 218.129 133.438 218.114 133.606C218.082 134.075 217.995 134.538 217.855 134.986C217.63 135.627 217.511 136.3 217.501 136.979C217.546 137.373 217.642 137.76 217.785 138.13C217.967 138.559 218.013 139.034 217.92 139.49C217.856 139.728 217.73 139.944 217.556 140.118C217.465 140.205 217.355 140.271 217.236 140.313C217.116 140.354 216.989 140.369 216.864 140.357C216.642 140.315 216.435 140.219 216.261 140.076C216.087 139.933 215.951 139.749 215.867 139.54C215.588 138.895 215.402 138.214 215.314 137.517C215.25 137.052 215.232 136.581 215.259 136.112C215.256 135.944 215.278 135.776 215.324 135.614Z" fill="#FF9A6C"/>
<path d="M205.255 71.1997H206.521C206.521 71.1997 210.666 74.737 211.917 78.0701C213.167 81.4032 214.139 86.2758 214.044 89.3547C213.949 92.4337 215.479 97.4259 215.942 101.745C215.942 101.745 219.355 113.02 218.802 124.688L219.146 127.568L215.115 129.187C215.115 129.187 210.367 115.8 209.864 112.716C209.361 109.632 209.007 108.232 208.369 104.72C207.732 101.207 204.03 94.2024 204.184 92.4636L203.517 86.9832C203.561 84.2808 203.456 81.5781 203.203 78.8872C203.021 76.2397 203.536 73.5908 204.697 71.2047" fill="#FFBF9D"/>
<path d="M215.235 135.31C215.249 136.537 215.416 137.757 215.734 138.942C215.806 139.256 215.932 139.554 216.107 139.824C216.217 139.993 216.374 140.124 216.56 140.201C216.745 140.279 216.949 140.298 217.146 140.257C217.343 140.216 217.522 140.117 217.661 139.972C217.801 139.827 217.893 139.644 217.926 139.446C218.018 138.97 217.977 138.479 217.806 138.026C217.634 137.575 217.518 137.105 217.462 136.626C217.403 135.38 218.379 134.164 218.015 132.969" fill="#FFBF9D"/>
<path d="M218.01 132.989C218.105 133.148 218.153 133.331 218.15 133.517C218.154 134.016 218.069 134.512 217.901 134.982C217.635 135.635 217.547 136.346 217.647 137.044C217.731 137.433 217.896 137.826 218.015 138.27C218.166 138.743 218.158 139.252 217.99 139.72C217.885 139.96 217.712 140.164 217.492 140.308C217.382 140.381 217.258 140.431 217.128 140.456C216.998 140.481 216.864 140.479 216.735 140.452C216.508 140.381 216.302 140.256 216.133 140.089C215.964 139.922 215.837 139.717 215.763 139.491C215.524 138.794 215.357 138.074 215.265 137.343C215.204 136.847 215.172 136.348 215.171 135.849C215.158 135.668 215.173 135.486 215.215 135.31C215.26 135.31 215.27 136.078 215.474 137.303C215.576 138.01 215.743 138.705 215.973 139.381C216.031 139.564 216.131 139.73 216.267 139.866C216.402 140.002 216.567 140.104 216.75 140.163C216.946 140.187 217.145 140.143 217.314 140.039C217.482 139.935 217.61 139.777 217.677 139.59C217.816 139.183 217.816 138.741 217.677 138.335C217.572 137.921 217.413 137.513 217.328 137.099C217.226 136.355 217.336 135.596 217.647 134.912C217.829 134.467 217.94 133.996 217.975 133.517C218.04 133.183 217.985 132.999 218.01 132.989Z" fill="#FF9A6C"/>
<path d="M205.106 97.361L216.5 92.5383C216.5 92.5383 213.332 80.2821 211.139 75.0558C208.947 69.8295 206.127 69.411 206.127 69.411L193.358 64.668C193.358 64.668 189.278 68.4793 184.839 68.4793C180.399 68.4793 179.856 66.5263 179.856 66.5263L166.818 69.9142C166.818 69.9142 165.667 70.6067 164.018 72.9035C162.369 75.2003 155.279 85.8123 155.279 85.8123L164.546 96.2749L166.883 92.8123L166.24 106.762L164.99 129.182L204.603 128.111L203.108 108.023L204.239 94.287C204.722 95.951 205.141 97.5304 205.106 97.361Z" fill="#455A64"/>
<path d="M165.01 181.176L205.759 180.344L203.138 122.74L204.344 122.561L203.836 115.511L200.642 112.243L199.407 81.981H168.388L166.435 113L165.01 127.643V181.176Z" fill="#C59D4E"/>
<path d="M169.678 85.6929L170.012 69.0873C170.834 68.35 172.144 67.5927 173.544 67.9962L173.115 85.6929H169.678Z" fill="#AE7461"/>
<path d="M172.338 83.9937C172.338 84.173 172.285 84.3483 172.185 84.4974C172.085 84.6466 171.944 84.7628 171.778 84.8314C171.612 84.9 171.43 84.918 171.254 84.883C171.078 84.848 170.917 84.7617 170.79 84.6349C170.663 84.508 170.577 84.3465 170.542 84.1706C170.507 83.9947 170.525 83.8124 170.593 83.6467C170.662 83.481 170.778 83.3394 170.927 83.2397C171.077 83.1401 171.252 83.0869 171.431 83.0869C171.672 83.0869 171.902 83.1824 172.072 83.3525C172.242 83.5225 172.338 83.7532 172.338 83.9937Z" fill="#263238"/>
<path d="M173.191 81.8218C173.24 82.1832 173.259 82.5483 173.245 82.9129C173.245 83.6004 173.245 84.567 173.245 85.6929V85.8125H173.126H171.407H169.688H169.563V85.6879C169.598 84.562 169.638 83.5954 169.673 82.9129C169.672 82.5466 169.707 82.1812 169.778 81.8218C169.83 82.1829 169.847 82.5484 169.828 82.9129C169.828 83.6004 169.828 84.567 169.828 85.6929L169.703 85.5684H173.141L173.016 85.6879C173.046 84.562 173.081 83.5954 173.116 82.9129C173.104 82.5476 173.129 82.182 173.191 81.8218Z" fill="#263238"/>
<path d="M193.797 85.6928L195.436 65.3904C196.173 65.2858 198.226 65.9783 198.65 66.5961L197.235 85.6928H193.797Z" fill="#AE7461"/>
<path d="M196.457 83.9937C196.457 84.173 196.404 84.3483 196.304 84.4974C196.205 84.6466 196.063 84.7628 195.897 84.8314C195.732 84.9 195.549 84.918 195.373 84.883C195.198 84.848 195.036 84.7617 194.909 84.6349C194.782 84.508 194.696 84.3465 194.661 84.1706C194.626 83.9947 194.644 83.8124 194.713 83.6467C194.781 83.481 194.897 83.3394 195.047 83.2397C195.196 83.1401 195.371 83.0869 195.55 83.0869C195.791 83.0869 196.021 83.1824 196.191 83.3525C196.362 83.5225 196.457 83.7532 196.457 83.9937Z" fill="#263238"/>
<path d="M197.309 81.8218C197.359 82.1832 197.377 82.5483 197.363 82.9129C197.363 83.6004 197.363 84.567 197.363 85.6929V85.8125H197.244H195.525H193.806H193.682V85.6879C193.717 84.562 193.756 83.5954 193.791 82.9129C193.791 82.5466 193.826 82.1812 193.896 81.8218C193.949 82.1829 193.965 82.5484 193.946 82.9129C193.946 83.6004 193.946 84.567 193.946 85.6929L193.821 85.5684H197.259L197.134 85.6879C197.164 84.562 197.199 83.5954 197.234 82.9129C197.222 82.5476 197.247 82.182 197.309 81.8218Z" fill="#263238"/>
<path d="M176.743 116.672C176.26 115.624 175.848 114.545 175.507 113.443C175.465 113.018 175.565 112.59 175.791 112.228C175.978 111.975 176.106 111.684 176.168 111.375C176.229 111.067 176.221 110.749 176.145 110.444C175.901 109.358 174.959 108.646 174.047 108.85H174.017C173.92 108.524 173.729 108.234 173.469 108.016C173.209 107.797 172.89 107.659 172.553 107.619C172.269 107.594 172.254 108.033 172.553 108.063C172.806 108.099 173.043 108.209 173.234 108.379C173.426 108.549 173.563 108.772 173.629 109.019C173.293 109.256 173.038 109.591 172.9 109.978C172.762 110.365 172.747 110.785 172.857 111.181C172.925 111.538 173.087 111.869 173.325 112.143C173.563 112.417 173.869 112.623 174.212 112.741C175.034 113.239 176.309 116.881 176.309 116.881L176.743 116.672ZM173.195 111.112C173.182 110.855 173.242 110.599 173.368 110.375C173.495 110.151 173.683 109.968 173.911 109.847C174.138 109.727 174.395 109.673 174.652 109.694C174.908 109.715 175.154 109.808 175.359 109.964C175.564 110.119 175.721 110.33 175.81 110.571C175.899 110.813 175.918 111.075 175.863 111.326C175.808 111.578 175.683 111.808 175.502 111.991C175.32 112.174 175.091 112.301 174.839 112.357C174.457 112.407 174.07 112.304 173.762 112.071C173.455 111.838 173.251 111.494 173.195 111.112Z" fill="#E0E0E0"/>
<path d="M179.801 112.955C180.152 112.861 180.472 112.677 180.729 112.421C180.986 112.165 181.171 111.846 181.266 111.495C181.585 110.429 181.122 109.348 180.23 109.074C179.338 108.8 178.347 109.448 178.023 110.509C177.925 110.807 177.894 111.124 177.933 111.436C177.971 111.748 178.079 112.047 178.247 112.313C178.447 112.693 178.516 113.129 178.441 113.553C178.021 114.626 177.532 115.672 176.977 116.682L177.405 116.931C177.405 116.931 178.945 113.389 179.801 112.955ZM178.372 110.614C178.488 110.384 178.667 110.193 178.888 110.062C179.11 109.932 179.364 109.867 179.62 109.875C179.877 109.884 180.126 109.965 180.338 110.111C180.55 110.256 180.716 110.458 180.817 110.695C180.918 110.931 180.95 111.191 180.908 111.445C180.866 111.698 180.752 111.935 180.581 112.126C180.409 112.317 180.187 112.456 179.939 112.525C179.692 112.594 179.43 112.591 179.184 112.517C178.829 112.366 178.546 112.083 178.395 111.728C178.244 111.374 178.235 110.974 178.372 110.614Z" fill="#E0E0E0"/>
<path d="M176.398 128.305C177.365 128.34 177.564 116.762 177.564 116.762L177.24 116.174H176.513L176.07 116.732C176.07 116.732 175.432 128.266 176.398 128.305Z" fill="#E0E0E0"/>
<path d="M176.458 117.479C176.46 117.407 176.484 117.337 176.525 117.278C176.567 117.219 176.626 117.174 176.693 117.149C176.761 117.123 176.834 117.119 176.904 117.135C176.975 117.151 177.038 117.188 177.088 117.241C177.137 117.294 177.169 117.36 177.181 117.431C177.192 117.502 177.182 117.575 177.152 117.641C177.122 117.706 177.073 117.762 177.012 117.799C176.95 117.837 176.879 117.856 176.807 117.853C176.711 117.849 176.621 117.807 176.556 117.737C176.491 117.667 176.455 117.575 176.458 117.479Z" fill="white"/>
<path d="M187.654 111.167C187.386 112.21 186.946 113.202 186.353 114.101C186.895 113.173 187.254 112.15 187.41 111.087C187.26 111.042 187.086 111.002 186.911 110.962C186.687 112.143 186.285 113.284 185.721 114.345C186.176 113.248 186.474 112.093 186.607 110.912C186.353 110.873 186.069 110.848 185.746 110.828C185.811 112.021 185.642 113.216 185.247 114.345C185.442 113.182 185.511 112.001 185.452 110.823H185.183H184.684C184.774 112.193 184.913 113.702 184.913 113.702C184.693 112.759 184.536 111.802 184.445 110.838C184.226 110.838 184.032 110.873 183.847 110.902C183.979 112.085 184.277 113.242 184.734 114.34C184.167 113.276 183.766 112.132 183.543 110.947L183.02 111.067C183.177 112.135 183.537 113.164 184.081 114.096C183.488 113.191 183.047 112.194 182.776 111.147C182.516 111.223 182.272 111.345 182.054 111.505C182.182 113.103 182.854 114.608 183.957 115.77H186.448C187.548 114.606 188.218 113.102 188.346 111.505C188.137 111.353 187.903 111.238 187.654 111.167Z" fill="#263238"/>
<path d="M183.832 120.02H186.532C186.532 120.02 187.529 118.202 187.444 117.086C187.359 115.97 186.602 115.636 185.192 115.631C183.782 115.631 183.035 115.97 182.94 117.086C182.845 118.202 183.832 120.02 183.832 120.02Z" fill="#455A64"/>
<path d="M192.461 109.014L190.468 109.144L192.436 109.497V109.537L190.443 109.343V109.522L192.436 109.717V109.901L190.443 109.707V109.886L192.436 110.08V110.265L190.443 110.07V110.25L192.436 110.449V110.628L190.443 110.434V110.613L192.436 110.813V110.992L190.443 110.798V110.977L192.436 111.176V111.356L190.443 111.161V111.341L192.436 111.54V111.719L190.443 111.525V111.705L192.436 111.904V112.083L190.443 111.889V112.068L192.436 112.268V112.447L190.443 112.253V112.432L192.436 112.631V112.811L190.443 112.616V112.796L192.436 112.995V113.174L190.443 112.98V113.159L192.436 113.359V113.538L190.443 113.344V113.523L192.436 113.722V113.907L190.443 113.707V113.887L192.436 114.086V114.27L190.443 114.071V114.25L192.436 114.45V114.634L190.443 114.435V114.619L192.436 114.813V114.998L190.443 114.798V114.983L192.436 115.177V115.361L190.443 115.162V115.347L192.436 115.541V115.725L190.443 115.526V115.71L192.436 115.905V116.089L190.443 115.89V116.074L192.436 116.268V116.453L190.443 116.253V116.438L192.436 116.632V116.816L190.443 116.617V116.801L192.436 117.001V117.18L190.443 116.981V117.165L192.436 117.364V117.544L190.443 117.344V117.529L192.436 117.728V117.907L190.443 117.708V117.892L192.436 118.092V118.271L190.443 118.072V118.256L192.436 118.455V118.635L190.418 118.435V118.62L192.411 118.819V118.998L190.394 118.799V118.984L192.386 119.183V119.362L190.369 119.163V119.347L192.362 119.546V119.726L190.344 119.527V119.711L192.367 119.91V120.015L190.344 119.816C190.344 119.816 192.267 120.986 192.207 121.589C192.147 122.192 191.275 131.867 191.759 131.912C191.759 131.912 192.043 131.942 192.655 125.759C193.268 119.576 194.21 109.991 194.21 109.991C194.339 109.759 194.371 109.485 194.299 109.229C194.227 108.974 194.056 108.758 193.824 108.628C193.592 108.499 193.318 108.467 193.063 108.539C192.807 108.611 192.591 108.782 192.461 109.014Z" fill="#263238"/>
<g opacity="0.3">
<path d="M174.739 134.603C176.971 136.347 181.53 137.259 185.027 137.169C188.525 137.079 192.137 135.854 194.399 133.183C188.082 135.096 181.336 134.812 174.739 134.603Z" fill="black"/>
</g>
<path d="M189.153 135.659H177.834C176.993 135.659 176.161 135.494 175.384 135.173C174.607 134.852 173.902 134.381 173.307 133.787C172.713 133.193 172.241 132.487 171.919 131.711C171.597 130.934 171.432 130.102 171.432 129.262V116.876H195.55V129.277C195.546 130.971 194.871 132.594 193.671 133.79C192.472 134.987 190.847 135.659 189.153 135.659Z" fill="#AE7461"/>
<path d="M189.153 135.659C189.694 135.62 190.231 135.537 190.758 135.41C191.385 135.245 191.982 134.981 192.526 134.627C193.26 134.157 193.892 133.543 194.385 132.824C194.979 131.93 195.342 130.903 195.441 129.835C195.491 128.669 195.441 127.378 195.441 126.013C195.441 123.283 195.441 120.214 195.441 116.881L195.555 117.001H177.839H171.432L171.561 116.871C171.561 119.267 171.561 121.594 171.561 123.846C171.561 124.962 171.561 126.058 171.561 127.124V128.709C171.543 129.218 171.568 129.728 171.636 130.233C171.776 131.168 172.125 132.059 172.656 132.84C173.187 133.621 173.888 134.273 174.705 134.747C175.441 135.175 176.256 135.448 177.101 135.549C177.909 135.629 178.716 135.589 179.468 135.604L186.583 135.644H188.501H188.999C189.055 135.636 189.112 135.636 189.168 135.644C189.112 135.652 189.055 135.652 188.999 135.644H188.501H186.583L179.468 135.684C178.711 135.684 177.923 135.724 177.082 135.644C176.204 135.547 175.356 135.271 174.59 134.832C173.743 134.346 173.016 133.675 172.463 132.869C171.91 132.064 171.546 131.144 171.397 130.178C171.326 129.662 171.298 129.14 171.312 128.619V127.035C171.312 125.968 171.312 124.872 171.312 123.756C171.312 121.524 171.312 119.198 171.312 116.781V116.657H177.839H195.555H195.675V116.876C195.675 120.209 195.675 123.278 195.675 126.008C195.675 127.378 195.675 128.649 195.63 129.845C195.543 130.839 195.223 131.799 194.698 132.647C194.173 133.496 193.457 134.21 192.606 134.732C192.051 135.085 191.442 135.343 190.802 135.494C190.574 135.558 190.341 135.603 190.105 135.629C189.94 135.657 189.774 135.67 189.607 135.669H189.293L189.153 135.659Z" fill="#6F4439"/>
<path d="M187.584 87.7603H179.453C178.933 87.7603 178.512 88.1818 178.512 88.7019V88.9659C178.512 89.486 178.933 89.9076 179.453 89.9076H187.584C188.104 89.9076 188.526 89.486 188.526 88.9659V88.7019C188.526 88.1818 188.104 87.7603 187.584 87.7603Z" fill="white"/>
<path d="M165.149 79.1812C165.207 79.3704 165.241 79.5663 165.249 79.7641C165.299 80.1975 165.364 80.7605 165.433 81.3683C165.598 82.7833 165.807 84.6217 166.041 86.6594C166.275 88.6971 166.539 90.5306 166.719 91.9405C166.803 92.5732 166.868 93.1063 166.928 93.5398C166.963 93.7353 166.977 93.9342 166.968 94.1327C166.902 93.9452 166.855 93.7516 166.828 93.5547C166.749 93.1811 166.654 92.638 166.539 91.9654C166.315 90.6202 166.041 88.7569 165.787 86.6893C165.533 84.6217 165.354 82.7484 165.254 81.3883C165.199 80.7057 165.164 80.1577 165.149 79.774C165.13 79.5769 165.13 79.3783 165.149 79.1812Z" fill="#263238"/>
<path d="M205.44 80.5659C205.51 80.5659 205.32 83.9787 205.011 88.1737C204.703 92.3687 204.399 95.7616 204.329 95.7566C204.259 95.7516 204.448 92.3488 204.752 88.1538C205.056 83.9588 205.37 80.5609 205.44 80.5659Z" fill="#263238"/>
<path d="M189.293 142.918C189.358 142.953 186.303 149.644 182.487 157.865C178.671 166.085 175.512 172.736 175.447 172.707C175.383 172.677 178.437 165.986 182.253 157.76C186.069 149.534 189.238 142.888 189.293 142.918Z" fill="#263238"/>
<path d="M188.167 153.086C188.161 153.344 188.131 153.601 188.077 153.854C187.997 154.352 187.892 155.049 187.773 155.926C187.529 157.675 187.275 160.106 187.17 162.802C187.087 165.104 187.122 167.409 187.275 169.707C187.33 170.589 187.384 171.306 187.429 171.799C187.465 172.054 187.477 172.31 187.464 172.567C187.399 172.318 187.354 172.065 187.33 171.809C187.255 171.311 187.17 170.604 187.09 169.722C186.885 167.42 186.825 165.107 186.911 162.797C186.995 160.485 187.221 158.18 187.589 155.896C187.733 155.024 187.868 154.317 187.977 153.834C188.019 153.58 188.083 153.33 188.167 153.086Z" fill="#263238"/>
</svg>
