<svg width="25" height="25" viewBox="0 0 25 25" fill="none" xmlns="http://www.w3.org/2000/svg">
<path d="M12.1664 7.62504C11.2764 7.62504 10.4064 7.88896 9.66633 8.38343C8.92631 8.8779 8.34953 9.5807 8.00894 10.403C7.66834 11.2252 7.57923 12.13 7.75286 13.0029C7.92649 13.8759 8.35508 14.6777 8.98441 15.307C9.61375 15.9364 10.4156 16.3649 11.2885 16.5386C12.1614 16.7122 13.0662 16.6231 13.8885 16.2825C14.7107 15.9419 15.4135 15.3651 15.908 14.6251C16.4025 13.8851 16.6664 13.0151 16.6664 12.125C16.6652 10.932 16.1907 9.78808 15.347 8.94443C14.5034 8.10079 13.3595 7.62628 12.1664 7.62504ZM12.1664 15.125C11.5731 15.125 10.993 14.9491 10.4997 14.6195C10.0063 14.2898 9.62182 13.8213 9.39476 13.2731C9.16769 12.7249 9.10828 12.1217 9.22404 11.5398C9.33979 10.9578 9.62552 10.4233 10.0451 10.0037C10.4646 9.58417 10.9992 9.29844 11.5811 9.18269C12.1631 9.06693 12.7663 9.12634 13.3144 9.3534C13.8626 9.58047 14.3312 9.96499 14.6608 10.4583C14.9904 10.9517 15.1664 11.5317 15.1664 12.125C15.1664 12.9207 14.8503 13.6838 14.2877 14.2464C13.7251 14.809 12.962 15.125 12.1664 15.125ZM20.4164 12.3275C20.4201 12.1925 20.4201 12.0575 20.4164 11.9225L21.8151 10.175C21.8885 10.0833 21.9393 9.9756 21.9634 9.86063C21.9875 9.74567 21.9842 9.62665 21.9539 9.51317C21.7246 8.65123 21.3816 7.82365 20.9339 7.05223C20.8753 6.95128 20.7939 6.8654 20.6962 6.80144C20.5986 6.73748 20.4874 6.69719 20.3714 6.68379L18.1476 6.43629C18.0551 6.33879 17.9614 6.24504 17.8664 6.15504L17.6039 3.92567C17.5904 3.80962 17.55 3.69833 17.4858 3.60067C17.4217 3.50301 17.3356 3.42168 17.2345 3.36317C16.4628 2.91631 15.6353 2.57364 14.7736 2.34411C14.66 2.31391 14.541 2.31083 14.426 2.33509C14.311 2.35935 14.2034 2.41029 14.1117 2.48379L12.3689 3.87504C12.2339 3.87504 12.0989 3.87504 11.9639 3.87504L10.2164 2.47911C10.1246 2.40576 10.0169 2.355 9.90198 2.3309C9.78702 2.3068 9.668 2.31004 9.55452 2.34036C8.69272 2.57007 7.8652 2.91306 7.09358 3.36036C6.99263 3.41897 6.90675 3.50035 6.84279 3.598C6.77883 3.69565 6.73854 3.80689 6.72514 3.92286L6.47764 6.15036C6.38014 6.24348 6.28639 6.33723 6.19639 6.43161L3.96702 6.68754C3.85097 6.70105 3.73968 6.74147 3.64202 6.8056C3.54436 6.86973 3.46303 6.95579 3.40452 7.05692C2.95766 7.82863 2.61499 8.65614 2.38546 9.51786C2.35527 9.63141 2.35218 9.75047 2.37644 9.86544C2.40071 9.9804 2.45164 10.0881 2.52514 10.1797L3.91639 11.9225C3.91639 12.0575 3.91639 12.1925 3.91639 12.3275L2.52046 14.075C2.44711 14.1668 2.39635 14.2745 2.37225 14.3895C2.34815 14.5044 2.35139 14.6234 2.38171 14.7369C2.61101 15.5989 2.95402 16.4264 3.40171 17.1979C3.46032 17.2988 3.5417 17.3847 3.63935 17.4486C3.73701 17.5126 3.84824 17.5529 3.96421 17.5663L6.18796 17.8138C6.28108 17.9113 6.37483 18.005 6.46921 18.095L6.72889 20.3244C6.7424 20.4405 6.78282 20.5518 6.84695 20.6494C6.91108 20.7471 6.99714 20.8284 7.09827 20.8869C7.86999 21.3338 8.6975 21.6765 9.55921 21.906C9.67276 21.9362 9.79182 21.9393 9.90679 21.915C10.0218 21.8907 10.1294 21.8398 10.2211 21.7663L11.9639 20.375C12.0989 20.3788 12.2339 20.3788 12.3689 20.375L14.1164 21.7738C14.2081 21.8471 14.3158 21.8979 14.4308 21.922C14.5458 21.9461 14.6648 21.9429 14.7783 21.9125C15.6402 21.6832 16.4678 21.3402 17.2392 20.8925C17.3402 20.8339 17.426 20.7526 17.49 20.6549C17.554 20.5572 17.5942 20.446 17.6076 20.33L17.8551 18.1063C17.9526 18.0138 18.0464 17.92 18.1364 17.825L20.3658 17.5625C20.4818 17.549 20.5931 17.5086 20.6908 17.4445C20.7884 17.3804 20.8698 17.2943 20.9283 17.1932C21.3751 16.4215 21.7178 15.5939 21.9473 14.7322C21.9775 14.6187 21.9806 14.4996 21.9563 14.3847C21.9321 14.2697 21.8811 14.162 21.8076 14.0704L20.4164 12.3275ZM18.907 11.7182C18.923 11.9892 18.923 12.2609 18.907 12.5319C18.8959 12.7175 18.954 12.9006 19.0701 13.0457L20.4005 14.7079C20.2478 15.193 20.0524 15.6636 19.8164 16.1141L17.6976 16.3541C17.5131 16.3746 17.3428 16.4628 17.2195 16.6016C17.0391 16.8046 16.8469 16.9968 16.6439 17.1772C16.5051 17.3005 16.4169 17.4708 16.3964 17.6554L16.1611 19.7722C15.7106 20.0083 15.24 20.2038 14.7548 20.3563L13.0917 19.026C12.9586 18.9196 12.7933 18.8618 12.623 18.8619H12.578C12.3069 18.8779 12.0352 18.8779 11.7642 18.8619C11.5787 18.8507 11.3956 18.9089 11.2505 19.025L9.58358 20.3563C9.09846 20.2036 8.62786 20.0082 8.17733 19.7722L7.93733 17.6563C7.91685 17.4718 7.82866 17.3014 7.68983 17.1782C7.48687 16.9977 7.29467 16.8055 7.11421 16.6025C6.99096 16.4637 6.8206 16.3755 6.63608 16.355L4.51921 16.1188C4.28314 15.6683 4.08768 15.1977 3.93514 14.7125L5.26546 13.0494C5.38162 12.9043 5.43975 12.7212 5.42858 12.5357C5.41264 12.2647 5.41264 11.9929 5.42858 11.7219C5.43975 11.5364 5.38162 11.3533 5.26546 11.2082L3.93514 9.54223C4.08779 9.05711 4.28325 8.5865 4.51921 8.13598L6.63514 7.89598C6.81966 7.8755 6.99002 7.78731 7.11327 7.64848C7.29373 7.44552 7.48593 7.25332 7.68889 7.07286C7.82828 6.94952 7.91683 6.77877 7.93733 6.59379L8.17264 4.47786C8.62312 4.24179 9.09373 4.04632 9.5789 3.89379L11.242 5.22411C11.3871 5.34027 11.5702 5.3984 11.7558 5.38723C12.0268 5.37129 12.2985 5.37129 12.5695 5.38723C12.7551 5.3984 12.9382 5.34027 13.0833 5.22411L14.7492 3.89379C15.2343 4.04644 15.7049 4.2419 16.1555 4.47786L16.3955 6.59379C16.4159 6.77831 16.5041 6.94867 16.643 7.07192C16.8459 7.25238 17.0381 7.44458 17.2186 7.64754C17.3418 7.78638 17.5122 7.87456 17.6967 7.89504L19.8136 8.13036C20.0497 8.58083 20.2451 9.05144 20.3976 9.53661L19.0673 11.1997C18.9501 11.3461 18.8919 11.531 18.9042 11.7182H18.907Z" fill="#C59D4E"/>
</svg>
