<svg width="25" height="25" viewBox="0 0 25 25" fill="none" xmlns="http://www.w3.org/2000/svg">
<path d="M17.0002 15.4815C16.4999 15.4814 16.0047 15.5816 15.5438 15.7763C15.0829 15.971 14.6658 16.2562 14.3171 16.615L9.99522 13.8371C10.3352 12.9654 10.3352 11.9977 9.99522 11.1259L14.3171 8.34808C14.9663 9.01307 15.8392 9.41332 16.7668 9.47123C17.6943 9.52915 18.6103 9.2406 19.3371 8.66153C20.064 8.08246 20.5499 7.25413 20.7007 6.33713C20.8516 5.42013 20.6565 4.47979 20.1534 3.69843C19.6503 2.91706 18.875 2.35034 17.9778 2.10813C17.0806 1.86592 16.1254 1.96548 15.2975 2.38751C14.4695 2.80954 13.8277 3.52397 13.4966 4.39229C13.1655 5.26061 13.1685 6.22096 13.5052 7.08714L9.18335 9.86496C8.66291 9.33065 7.99496 8.96369 7.26489 8.81097C6.53481 8.65825 5.77578 8.72671 5.08481 9.00761C4.39385 9.28851 3.80235 9.76908 3.38592 10.3879C2.9695 11.0067 2.74707 11.7356 2.74707 12.4815C2.74707 13.2274 2.9695 13.9563 3.38592 14.5751C3.80235 15.194 4.39385 15.6745 5.08481 15.9554C5.77578 16.2363 6.53481 16.3048 7.26489 16.1521C7.99496 15.9994 8.66291 15.6324 9.18335 15.0981L13.5052 17.8759C13.2157 18.6226 13.1729 19.4425 13.383 20.2153C13.5931 20.9882 14.0451 21.6735 14.6729 22.1708C15.3006 22.6682 16.0712 22.9515 16.8716 22.9793C17.672 23.007 18.4603 22.7778 19.121 22.3252C19.7818 21.8725 20.2802 21.2202 20.5434 20.4638C20.8066 19.7073 20.8206 18.8865 20.5836 18.1215C20.3465 17.3565 19.8707 16.6875 19.2259 16.2124C18.5811 15.7374 17.8011 15.4812 17.0002 15.4815ZM17.0002 3.48152C17.4452 3.48152 17.8802 3.61348 18.2503 3.86071C18.6203 4.10795 18.9087 4.45935 19.079 4.87048C19.2493 5.28161 19.2938 5.73401 19.207 6.17047C19.1202 6.60693 18.9059 7.00784 18.5912 7.32251C18.2765 7.63718 17.8756 7.85147 17.4392 7.93829C17.0027 8.0251 16.5503 7.98055 16.1392 7.81025C15.7281 7.63995 15.3767 7.35156 15.1294 6.98155C14.8822 6.61154 14.7502 6.17653 14.7502 5.73152C14.7502 5.13478 14.9873 4.56249 15.4092 4.14053C15.8312 3.71857 16.4035 3.48152 17.0002 3.48152ZM6.50023 14.7315C6.05522 14.7315 5.6202 14.5996 5.25019 14.3523C4.88018 14.1051 4.59179 13.7537 4.4215 13.3426C4.2512 12.9314 4.20664 12.479 4.29346 12.0426C4.38028 11.6061 4.59457 11.2052 4.90924 10.8905C5.2239 10.5759 5.62481 10.3616 6.06127 10.2748C6.49773 10.1879 6.95013 10.2325 7.36126 10.4028C7.7724 10.5731 8.1238 10.8615 8.37103 11.2315C8.61827 11.6015 8.75023 12.0365 8.75023 12.4815C8.75023 13.0783 8.51317 13.6506 8.09122 14.0725C7.66926 14.4945 7.09696 14.7315 6.50023 14.7315ZM17.0002 21.4815C16.5552 21.4815 16.1202 21.3496 15.7502 21.1023C15.3802 20.8551 15.0918 20.5037 14.9215 20.0926C14.7512 19.6814 14.7066 19.229 14.7935 18.7926C14.8803 18.3561 15.0946 17.9552 15.4092 17.6405C15.7239 17.3259 16.1248 17.1116 16.5613 17.0248C16.9977 16.9379 17.4501 16.9825 17.8613 17.1528C18.2724 17.3231 18.6238 17.6115 18.871 17.9815C19.1183 18.3515 19.2502 18.7865 19.2502 19.2315C19.2502 19.8283 19.0132 20.4006 18.5912 20.8225C18.1693 21.2445 17.597 21.4815 17.0002 21.4815Z" fill="#F3F3F3"/>
</svg>
