<svg width="20" height="18" viewBox="0 0 20 18" fill="none" xmlns="http://www.w3.org/2000/svg">
<path opacity="0.2" d="M16.9321 6.75V7.875C16.9321 8.47174 16.6887 9.04403 16.2554 9.46599C15.822 9.88795 15.2343 10.125 14.6215 10.125C14.0087 10.125 13.421 9.88795 12.9876 9.46599C12.5543 9.04403 12.3109 8.47174 12.3109 7.875V6.75H7.68962V7.875C7.68962 8.47174 7.44618 9.04403 7.01285 9.46599C6.57952 9.88795 5.99181 10.125 5.37899 10.125C4.76617 10.125 4.17845 9.88795 3.74513 9.46599C3.3118 9.04403 3.06836 8.47174 3.06836 7.875V6.75L4.10381 3.22031C4.13822 3.10318 4.21074 3.00009 4.31049 2.92655C4.41023 2.853 4.5318 2.81298 4.65692 2.8125H15.3436C15.4691 2.81252 15.5911 2.85233 15.6913 2.92591C15.7915 2.99949 15.8643 3.10283 15.8988 3.22031L16.9321 6.75Z" fill="white"/>
<path d="M17.5093 6.75C17.5096 6.6977 17.5023 6.64562 17.4877 6.59531L16.4515 3.06562C16.3818 2.83142 16.2363 2.62544 16.0365 2.47844C15.8367 2.33144 15.5935 2.2513 15.3431 2.25H4.65645C4.40606 2.2513 4.16282 2.33144 3.96306 2.47844C3.76329 2.62544 3.61771 2.83142 3.54807 3.06562L2.51262 6.59531C2.4977 6.64559 2.49017 6.69767 2.49023 6.75V7.875C2.49023 8.31163 2.59463 8.74226 2.79516 9.13279C2.99569 9.52332 3.28684 9.86302 3.64555 10.125V14.625C3.64555 14.9234 3.76727 15.2095 3.98393 15.4205C4.2006 15.6315 4.49446 15.75 4.80086 15.75H15.1987C15.5051 15.75 15.799 15.6315 16.0156 15.4205C16.2323 15.2095 16.354 14.9234 16.354 14.625V10.125C16.7127 9.86302 17.0039 9.52332 17.2044 9.13279C17.4049 8.74226 17.5093 8.31163 17.5093 7.875V6.75ZM4.65645 3.375H15.3431L16.1677 6.1875H3.83401L4.65645 3.375ZM8.26681 7.3125H11.7327V7.875C11.7327 8.32255 11.5502 8.75178 11.2252 9.06824C10.9002 9.38471 10.4594 9.5625 9.99978 9.5625C9.54017 9.5625 9.09938 9.38471 8.77438 9.06824C8.44939 8.75178 8.26681 8.32255 8.26681 7.875V7.3125ZM7.11149 7.3125V7.875C7.11149 8.32255 6.92891 8.75178 6.60392 9.06824C6.27892 9.38471 5.83813 9.5625 5.37852 9.5625C4.91891 9.5625 4.47812 9.38471 4.15312 9.06824C3.82813 8.75178 3.64555 8.32255 3.64555 7.875V7.3125H7.11149ZM15.1987 14.625H4.80086V10.6312C4.99103 10.6686 5.18453 10.6874 5.37852 10.6875C5.82691 10.6875 6.26915 10.5858 6.6702 10.3906C7.07126 10.1953 7.42011 9.9118 7.68915 9.5625C7.95819 9.9118 8.30704 10.1953 8.7081 10.3906C9.10915 10.5858 9.55139 10.6875 9.99978 10.6875C10.4482 10.6875 10.8904 10.5858 11.2915 10.3906C11.6925 10.1953 12.0414 9.9118 12.3104 9.5625C12.5794 9.9118 12.9283 10.1953 13.3294 10.3906C13.7304 10.5858 14.1726 10.6875 14.621 10.6875C14.815 10.6874 15.0085 10.6686 15.1987 10.6312V14.625ZM14.621 9.5625C14.1614 9.5625 13.7206 9.38471 13.3956 9.06824C13.0706 8.75178 12.8881 8.32255 12.8881 7.875V7.3125H16.354V7.875C16.354 8.32255 16.1714 8.75178 15.8464 9.06824C15.5214 9.38471 15.0806 9.5625 14.621 9.5625Z" fill="#C59D4E"/>
</svg>
