<svg width="25" height="25" viewBox="0 0 25 25" fill="none" xmlns="http://www.w3.org/2000/svg">
<path d="M20.75 5.48145H17V4.73145C17 4.13471 16.7629 3.56241 16.341 3.14046C15.919 2.7185 15.3467 2.48145 14.75 2.48145H10.25C9.65326 2.48145 9.08097 2.7185 8.65901 3.14046C8.23705 3.56241 8 4.13471 8 4.73145V5.48145H4.25C4.05109 5.48145 3.86032 5.56046 3.71967 5.70112C3.57902 5.84177 3.5 6.03253 3.5 6.23145C3.5 6.43036 3.57902 6.62112 3.71967 6.76178C3.86032 6.90243 4.05109 6.98145 4.25 6.98145H5V20.4814C5 20.8793 5.15804 21.2608 5.43934 21.5421C5.72064 21.8234 6.10218 21.9814 6.5 21.9814H18.5C18.8978 21.9814 19.2794 21.8234 19.5607 21.5421C19.842 21.2608 20 20.8793 20 20.4814V6.98145H20.75C20.9489 6.98145 21.1397 6.90243 21.2803 6.76178C21.421 6.62112 21.5 6.43036 21.5 6.23145C21.5 6.03253 21.421 5.84177 21.2803 5.70112C21.1397 5.56046 20.9489 5.48145 20.75 5.48145ZM9.5 4.73145C9.5 4.53253 9.57902 4.34177 9.71967 4.20112C9.86032 4.06046 10.0511 3.98145 10.25 3.98145H14.75C14.9489 3.98145 15.1397 4.06046 15.2803 4.20112C15.421 4.34177 15.5 4.53253 15.5 4.73145V5.48145H9.5V4.73145ZM18.5 20.4814H6.5V6.98145H18.5V20.4814ZM11 10.7314V16.7314C11 16.9304 10.921 17.1211 10.7803 17.2618C10.6397 17.4024 10.4489 17.4814 10.25 17.4814C10.0511 17.4814 9.86032 17.4024 9.71967 17.2618C9.57902 17.1211 9.5 16.9304 9.5 16.7314V10.7314C9.5 10.5325 9.57902 10.3418 9.71967 10.2011C9.86032 10.0605 10.0511 9.98145 10.25 9.98145C10.4489 9.98145 10.6397 10.0605 10.7803 10.2011C10.921 10.3418 11 10.5325 11 10.7314ZM15.5 10.7314V16.7314C15.5 16.9304 15.421 17.1211 15.2803 17.2618C15.1397 17.4024 14.9489 17.4814 14.75 17.4814C14.5511 17.4814 14.3603 17.4024 14.2197 17.2618C14.079 17.1211 14 16.9304 14 16.7314V10.7314C14 10.5325 14.079 10.3418 14.2197 10.2011C14.3603 10.0605 14.5511 9.98145 14.75 9.98145C14.9489 9.98145 15.1397 10.0605 15.2803 10.2011C15.421 10.3418 15.5 10.5325 15.5 10.7314Z" fill="#F3F3F3"/>
</svg>
